{"asset":{"version":"2.0","generator":"Blockbench 4.4.2 glTF exporter"},"scenes":[{"nodes":[12],"name":"blockbench_export"}],"scene":0,"nodes":[{"name":"Box1","mesh":0},{"name":"Box1","mesh":1},{"name":"Box1","mesh":2},{"name":"Box1","mesh":3},{"name":"Box1","mesh":4},{"name":"Box1","mesh":5},{"name":"Box1","mesh":6},{"name":"cube","mesh":7},{"name":"cube","mesh":8},{"name":"cube","mesh":9},{"name":"cube","mesh":10},{"translation":[0.5,0.5,0.5],"name":"group"},{"children":[0,1,2,3,4,5,6,7,8,9,10,11]}],"bufferViews":[{"buffer":0,"byteOffset":0,"byteLength":288,"target":34962,"byteStride":12},{"buffer":0,"byteOffset":288,"byteLength":288,"target":34962,"byteStride":12},{"buffer":0,"byteOffset":576,"byteLength":192,"target":34962,"byteStride":8},{"buffer":0,"byteOffset":768,"byteLength":24,"target":34963},{"buffer":0,"byteOffset":792,"byteLength":12,"target":34963},{"buffer":0,"byteOffset":804,"byteLength":12,"target":34963},{"buffer":0,"byteOffset":816,"byteLength":12,"target":34963},{"buffer":0,"byteOffset":828,"byteLength":288,"target":34962,"byteStride":12},{"buffer":0,"byteOffset":1116,"byteLength":288,"target":34962,"byteStride":12},{"buffer":0,"byteOffset":1404,"byteLength":192,"target":34962,"byteStride":8},{"buffer":0,"byteOffset":1596,"byteLength":36,"target":34963},{"buffer":0,"byteOffset":1632,"byteLength":12,"target":34963},{"buffer":0,"byteOffset":1644,"byteLength":24,"target":34963},{"buffer":0,"byteOffset":1668,"byteLength":288,"target":34962,"byteStride":12},{"buffer":0,"byteOffset":1956,"byteLength":288,"target":34962,"byteStride":12},{"buffer":0,"byteOffset":2244,"byteLength":192,"target":34962,"byteStride":8},{"buffer":0,"byteOffset":2436,"byteLength":36,"target":34963},{"buffer":0,"byteOffset":2472,"byteLength":12,"target":34963},{"buffer":0,"byteOffset":2484,"byteLength":24,"target":34963},{"buffer":0,"byteOffset":2508,"byteLength":288,"target":34962,"byteStride":12},{"buffer":0,"byteOffset":2796,"byteLength":288,"target":34962,"byteStride":12},{"buffer":0,"byteOffset":3084,"byteLength":192,"target":34962,"byteStride":8},{"buffer":0,"byteOffset":3276,"byteLength":24,"target":34963},{"buffer":0,"byteOffset":3300,"byteLength":12,"target":34963},{"buffer":0,"byteOffset":3312,"byteLength":24,"target":34963},{"buffer":0,"byteOffset":3336,"byteLength":288,"target":34962,"byteStride":12},{"buffer":0,"byteOffset":3624,"byteLength":288,"target":34962,"byteStride":12},{"buffer":0,"byteOffset":3912,"byteLength":192,"target":34962,"byteStride":8},{"buffer":0,"byteOffset":4104,"byteLength":24,"target":34963},{"buffer":0,"byteOffset":4128,"byteLength":12,"target":34963},{"buffer":0,"byteOffset":4140,"byteLength":24,"target":34963},{"buffer":0,"byteOffset":4164,"byteLength":288,"target":34962,"byteStride":12},{"buffer":0,"byteOffset":4452,"byteLength":288,"target":34962,"byteStride":12},{"buffer":0,"byteOffset":4740,"byteLength":192,"target":34962,"byteStride":8},{"buffer":0,"byteOffset":4932,"byteLength":24,"target":34963},{"buffer":0,"byteOffset":4956,"byteLength":12,"target":34963},{"buffer":0,"byteOffset":4968,"byteLength":24,"target":34963},{"buffer":0,"byteOffset":4992,"byteLength":288,"target":34962,"byteStride":12},{"buffer":0,"byteOffset":5280,"byteLength":288,"target":34962,"byteStride":12},{"buffer":0,"byteOffset":5568,"byteLength":192,"target":34962,"byteStride":8},{"buffer":0,"byteOffset":5760,"byteLength":24,"target":34963},{"buffer":0,"byteOffset":5784,"byteLength":12,"target":34963},{"buffer":0,"byteOffset":5796,"byteLength":24,"target":34963},{"buffer":0,"byteOffset":5820,"byteLength":288,"target":34962,"byteStride":12},{"buffer":0,"byteOffset":6108,"byteLength":288,"target":34962,"byteStride":12},{"buffer":0,"byteOffset":6396,"byteLength":192,"target":34962,"byteStride":8},{"buffer":0,"byteOffset":6588,"byteLength":72,"target":34963},{"buffer":0,"byteOffset":6660,"byteLength":288,"target":34962,"byteStride":12},{"buffer":0,"byteOffset":6948,"byteLength":288,"target":34962,"byteStride":12},{"buffer":0,"byteOffset":7236,"byteLength":192,"target":34962,"byteStride":8},{"buffer":0,"byteOffset":7428,"byteLength":72,"target":34963},{"buffer":0,"byteOffset":7500,"byteLength":288,"target":34962,"byteStride":12},{"buffer":0,"byteOffset":7788,"byteLength":288,"target":34962,"byteStride":12},{"buffer":0,"byteOffset":8076,"byteLength":192,"target":34962,"byteStride":8},{"buffer":0,"byteOffset":8268,"byteLength":72,"target":34963},{"buffer":0,"byteOffset":8340,"byteLength":288,"target":34962,"byteStride":12},{"buffer":0,"byteOffset":8628,"byteLength":288,"target":34962,"byteStride":12},{"buffer":0,"byteOffset":8916,"byteLength":192,"target":34962,"byteStride":8},{"buffer":0,"byteOffset":9108,"byteLength":72,"target":34963}],"buffers":[{"byteLength":9180,"uri":"data:application/octet-stream;base64,"}],"accessors":[{"bufferView":0,"componentType":5126,"count":24,"max":[0.15625,1,1],"min":[0.03125,0,0],"type":"VEC3"},{"bufferView":1,"componentType":5126,"count":24,"max":[1,1,1],"min":[-1,-1,-1],"type":"VEC3"},{"bufferView":2,"componentType":5126,"count":24,"max":[1,1],"min":[0,0],"type":"VEC2"},{"bufferView":3,"componentType":5123,"count":12,"max":[7],"min":[0],"type":"SCALAR"},{"bufferView":4,"componentType":5123,"count":6,"max":[15],"min":[12],"type":"SCALAR"},{"bufferView":5,"componentType":5123,"count":6,"max":[19],"min":[16],"type":"SCALAR"},{"bufferView":6,"componentType":5123,"count":6,"max":[23],"min":[20],"type":"SCALAR"},{"bufferView":7,"componentType":5126,"count":24,"max":[0.03125,0.75,1],"min":[0,0,0],"type":"VEC3"},{"bufferView":8,"componentType":5126,"count":24,"max":[1,1,1],"min":[-1,-1,-1],"type":"VEC3"},{"bufferView":9,"componentType":5126,"count":24,"max":[1,1],"min":[0,0],"type":"VEC2"},{"bufferView":10,"componentType":5123,"count":18,"max":[11],"min":[0],"type":"SCALAR"},{"bufferView":11,"componentType":5123,"count":6,"max":[15],"min":[12],"type":"SCALAR"},{"bufferView":12,"componentType":5123,"count":12,"max":[23],"min":[16],"type":"SCALAR"},{"bufferView":13,"componentType":5126,"count":24,"max":[0.1875,0.75,1],"min":[0.15625,0,0],"type":"VEC3"},{"bufferView":14,"componentType":5126,"count":24,"max":[1,1,1],"min":[-1,-1,-1],"type":"VEC3"},{"bufferView":15,"componentType":5126,"count":24,"max":[1,1],"min":[0,0],"type":"VEC2"},{"bufferView":16,"componentType":5123,"count":18,"max":[11],"min":[0],"type":"SCALAR"},{"bufferView":17,"componentType":5123,"count":6,"max":[15],"min":[12],"type":"SCALAR"},{"bufferView":18,"componentType":5123,"count":12,"max":[23],"min":[16],"type":"SCALAR"},{"bufferView":19,"componentType":5126,"count":24,"max":[0.1875,1,0.1875],"min":[0.15625,0.75,0],"type":"VEC3"},{"bufferView":20,"componentType":5126,"count":24,"max":[1,1,1],"min":[-1,-1,-1],"type":"VEC3"},{"bufferView":21,"componentType":5126,"count":24,"max":[1,1],"min":[0,0],"type":"VEC2"},{"bufferView":22,"componentType":5123,"count":12,"max":[7],"min":[0],"type":"SCALAR"},{"bufferView":23,"componentType":5123,"count":6,"max":[15],"min":[12],"type":"SCALAR"},{"bufferView":24,"componentType":5123,"count":12,"max":[23],"min":[16],"type":"SCALAR"},{"bufferView":25,"componentType":5126,"count":24,"max":[0.1875,1,1],"min":[0.15625,0.75,0.8125],"type":"VEC3"},{"bufferView":26,"componentType":5126,"count":24,"max":[1,1,1],"min":[-1,-1,-1],"type":"VEC3"},{"bufferView":27,"componentType":5126,"count":24,"max":[1,1],"min":[0,0],"type":"VEC2"},{"bufferView":28,"componentType":5123,"count":12,"max":[7],"min":[0],"type":"SCALAR"},{"bufferView":29,"componentType":5123,"count":6,"max":[15],"min":[12],"type":"SCALAR"},{"bufferView":30,"componentType":5123,"count":12,"max":[23],"min":[16],"type":"SCALAR"},{"bufferView":31,"componentType":5126,"count":24,"max":[0.03125,1,0.1875],"min":[0,0.75,0],"type":"VEC3"},{"bufferView":32,"componentType":5126,"count":24,"max":[1,1,1],"min":[-1,-1,-1],"type":"VEC3"},{"bufferView":33,"componentType":5126,"count":24,"max":[1,1],"min":[0,0],"type":"VEC2"},{"bufferView":34,"componentType":5123,"count":12,"max":[7],"min":[0],"type":"SCALAR"},{"bufferView":35,"componentType":5123,"count":6,"max":[15],"min":[12],"type":"SCALAR"},{"bufferView":36,"componentType":5123,"count":12,"max":[23],"min":[16],"type":"SCALAR"},{"bufferView":37,"componentType":5126,"count":24,"max":[0.03125,1,1],"min":[0,0.75,0.8125],"type":"VEC3"},{"bufferView":38,"componentType":5126,"count":24,"max":[1,1,1],"min":[-1,-1,-1],"type":"VEC3"},{"bufferView":39,"componentType":5126,"count":24,"max":[1,1],"min":[0,0],"type":"VEC2"},{"bufferView":40,"componentType":5123,"count":12,"max":[7],"min":[0],"type":"SCALAR"},{"bufferView":41,"componentType":5123,"count":6,"max":[15],"min":[12],"type":"SCALAR"},{"bufferView":42,"componentType":5123,"count":12,"max":[23],"min":[16],"type":"SCALAR"},{"bufferView":43,"componentType":5126,"count":24,"max":[0.0625,0.375,0.0625],"min":[-0.015625,0.25,-0.015625],"type":"VEC3"},{"bufferView":44,"componentType":5126,"count":24,"max":[1,1,1],"min":[-1,-1,-1],"type":"VEC3"},{"bufferView":45,"componentType":5126,"count":24,"max":[0.0625,0.375],"min":[0,0.25],"type":"VEC2"},{"bufferView":46,"componentType":5123,"count":36,"max":[23],"min":[0],"type":"SCALAR"},{"bufferView":47,"componentType":5126,"count":24,"max":[0.203125,0.375,0.0625],"min":[0.125,0.25,-0.015625],"type":"VEC3"},{"bufferView":48,"componentType":5126,"count":24,"max":[1,1,1],"min":[-1,-1,-1],"type":"VEC3"},{"bufferView":49,"componentType":5126,"count":24,"max":[0.0625,0.375],"min":[0,0.25],"type":"VEC2"},{"bufferView":50,"componentType":5123,"count":36,"max":[23],"min":[0],"type":"SCALAR"},{"bufferView":51,"componentType":5126,"count":24,"max":[0.0625,1,0.0625],"min":[-0.015625,0.9375,-0.015625],"type":"VEC3"},{"bufferView":52,"componentType":5126,"count":24,"max":[1,1,1],"min":[-1,-1,-1],"type":"VEC3"},{"bufferView":53,"componentType":5126,"count":24,"max":[0.0625,1],"min":[0,0.9375],"type":"VEC2"},{"bufferView":54,"componentType":5123,"count":36,"max":[23],"min":[0],"type":"SCALAR"},{"bufferView":55,"componentType":5126,"count":24,"max":[0.203125,1,0.0625],"min":[0.125,0.9375,-0.015625],"type":"VEC3"},{"bufferView":56,"componentType":5126,"count":24,"max":[1,1,1],"min":[-1,-1,-1],"type":"VEC3"},{"bufferView":57,"componentType":5126,"count":24,"max":[0.0625,1],"min":[0,0.9375],"type":"VEC2"},{"bufferView":58,"componentType":5123,"count":36,"max":[23],"min":[0],"type":"SCALAR"}],"materials":[{"pbrMetallicRoughness":{"metallicFactor":0,"roughnessFactor":1,"baseColorTexture":{"index":0}},"alphaMode":"MASK","alphaCutoff":0.05},{"pbrMetallicRoughness":{"metallicFactor":0,"roughnessFactor":1,"baseColorTexture":{"index":1}},"alphaMode":"MASK","alphaCutoff":0.05},{"pbrMetallicRoughness":{"metallicFactor":0,"roughnessFactor":1,"baseColorTexture":{"index":2}},"alphaMode":"MASK","alphaCutoff":0.05}],"textures":[{"sampler":0,"source":0},{"sampler":1,"source":1},{"sampler":2,"source":2}],"samplers":[{"magFilter":9728,"minFilter":9728,"wrapS":33071,"wrapT":33071},{"magFilter":9728,"minFilter":9728,"wrapS":33071,"wrapT":33071},{"magFilter":9728,"minFilter":9728,"wrapS":33071,"wrapT":33071}],"images":[{"mimeType":"image/png","uri":"data:image/png;base64,"},{"mimeType":"image/png","uri":"data:image/png;base64,"},{"mimeType":"image/png","uri":"data:image/png;base64,"}],"meshes":[{"primitives":[{"mode":4,"attributes":{"POSITION":0,"NORMAL":1,"TEXCOORD_0":2},"indices":3,"material":0},{"mode":4,"attributes":{"POSITION":0,"NORMAL":1,"TEXCOORD_0":2},"indices":4,"material":1},{"mode":4,"attributes":{"POSITION":0,"NORMAL":1,"TEXCOORD_0":2},"indices":5,"material":2},{"mode":4,"attributes":{"POSITION":0,"NORMAL":1,"TEXCOORD_0":2},"indices":6,"material":0}]},{"primitives":[{"mode":4,"attributes":{"POSITION":7,"NORMAL":8,"TEXCOORD_0":9},"indices":10,"material":0},{"mode":4,"attributes":{"POSITION":7,"NORMAL":8,"TEXCOORD_0":9},"indices":11,"material":1},{"mode":4,"attributes":{"POSITION":7,"NORMAL":8,"TEXCOORD_0":9},"indices":12,"material":0}]},{"primitives":[{"mode":4,"attributes":{"POSITION":13,"NORMAL":14,"TEXCOORD_0":15},"indices":16,"material":0},{"mode":4,"attributes":{"POSITION":13,"NORMAL":14,"TEXCOORD_0":15},"indices":17,"material":1},{"mode":4,"attributes":{"POSITION":13,"NORMAL":14,"TEXCOORD_0":15},"indices":18,"material":0}]},{"primitives":[{"mode":4,"attributes":{"POSITION":19,"NORMAL":20,"TEXCOORD_0":21},"indices":22,"material":0},{"mode":4,"attributes":{"POSITION":19,"NORMAL":20,"TEXCOORD_0":21},"indices":23,"material":1},{"mode":4,"attributes":{"POSITION":19,"NORMAL":20,"TEXCOORD_0":21},"indices":24,"material":0}]},{"primitives":[{"mode":4,"attributes":{"POSITION":25,"NORMAL":26,"TEXCOORD_0":27},"indices":28,"material":0},{"mode":4,"attributes":{"POSITION":25,"NORMAL":26,"TEXCOORD_0":27},"indices":29,"material":1},{"mode":4,"attributes":{"POSITION":25,"NORMAL":26,"TEXCOORD_0":27},"indices":30,"material":0}]},{"primitives":[{"mode":4,"attributes":{"POSITION":31,"NORMAL":32,"TEXCOORD_0":33},"indices":34,"material":0},{"mode":4,"attributes":{"POSITION":31,"NORMAL":32,"TEXCOORD_0":33},"indices":35,"material":1},{"mode":4,"attributes":{"POSITION":31,"NORMAL":32,"TEXCOORD_0":33},"indices":36,"material":0}]},{"primitives":[{"mode":4,"attributes":{"POSITION":37,"NORMAL":38,"TEXCOORD_0":39},"indices":40,"material":0},{"mode":4,"attributes":{"POSITION":37,"NORMAL":38,"TEXCOORD_0":39},"indices":41,"material":1},{"mode":4,"attributes":{"POSITION":37,"NORMAL":38,"TEXCOORD_0":39},"indices":42,"material":0}]},{"primitives":[{"mode":4,"attributes":{"POSITION":43,"NORMAL":44,"TEXCOORD_0":45},"indices":46,"material":0}]},{"primitives":[{"mode":4,"attributes":{"POSITION":47,"NORMAL":48,"TEXCOORD_0":49},"indices":50,"material":0}]},{"primitives":[{"mode":4,"attributes":{"POSITION":51,"NORMAL":52,"TEXCOORD_0":53},"indices":54,"material":0}]},{"primitives":[{"mode":4,"attributes":{"POSITION":55,"NORMAL":56,"TEXCOORD_0":57},"indices":58,"material":0}]}]}