{"asset":{"version":"2.0","generator":"Blockbench 4.4.2 glTF exporter"},"scenes":[{"nodes":[22],"name":"blockbench_export"}],"scene":0,"nodes":[{"name":"cube","mesh":0},{"name":"cube","mesh":1},{"name":"cube","mesh":2},{"name":"cube","mesh":3},{"name":"cube","mesh":4},{"name":"cube","mesh":5},{"name":"cube","mesh":6},{"name":"cube","mesh":7},{"name":"cube","mesh":8},{"name":"cube","mesh":9},{"name":"cube","mesh":10},{"name":"cube","mesh":11},{"name":"cube","mesh":12},{"name":"cube","mesh":13},{"name":"cube","mesh":14},{"name":"cube","mesh":15},{"name":"cube","mesh":16},{"name":"cube","mesh":17},{"name":"cube","mesh":18},{"name":"cube","mesh":19},{"name":"cube","mesh":20},{"name":"group"},{"children":[0,1,2,3,4,5,6,7,8,9,10,11,12,13,14,15,16,17,18,19,20,21]}],"bufferViews":[{"buffer":0,"byteOffset":0,"byteLength":288,"target":34962,"byteStride":12},{"buffer":0,"byteOffset":288,"byteLength":288,"target":34962,"byteStride":12},{"buffer":0,"byteOffset":576,"byteLength":192,"target":34962,"byteStride":8},{"buffer":0,"byteOffset":768,"byteLength":48,"target":34963},{"buffer":0,"byteOffset":816,"byteLength":288,"target":34962,"byteStride":12},{"buffer":0,"byteOffset":1104,"byteLength":288,"target":34962,"byteStride":12},{"buffer":0,"byteOffset":1392,"byteLength":192,"target":34962,"byteStride":8},{"buffer":0,"byteOffset":1584,"byteLength":48,"target":34963},{"buffer":0,"byteOffset":1632,"byteLength":288,"target":34962,"byteStride":12},{"buffer":0,"byteOffset":1920,"byteLength":288,"target":34962,"byteStride":12},{"buffer":0,"byteOffset":2208,"byteLength":192,"target":34962,"byteStride":8},{"buffer":0,"byteOffset":2400,"byteLength":48,"target":34963},{"buffer":0,"byteOffset":2448,"byteLength":288,"target":34962,"byteStride":12},{"buffer":0,"byteOffset":2736,"byteLength":288,"target":34962,"byteStride":12},{"buffer":0,"byteOffset":3024,"byteLength":192,"target":34962,"byteStride":8},{"buffer":0,"byteOffset":3216,"byteLength":36,"target":34963},{"buffer":0,"byteOffset":3252,"byteLength":288,"target":34962,"byteStride":12},{"buffer":0,"byteOffset":3540,"byteLength":288,"target":34962,"byteStride":12},{"buffer":0,"byteOffset":3828,"byteLength":192,"target":34962,"byteStride":8},{"buffer":0,"byteOffset":4020,"byteLength":36,"target":34963},{"buffer":0,"byteOffset":4056,"byteLength":288,"target":34962,"byteStride":12},{"buffer":0,"byteOffset":4344,"byteLength":288,"target":34962,"byteStride":12},{"buffer":0,"byteOffset":4632,"byteLength":192,"target":34962,"byteStride":8},{"buffer":0,"byteOffset":4824,"byteLength":24,"target":34963},{"buffer":0,"byteOffset":4848,"byteLength":288,"target":34962,"byteStride":12},{"buffer":0,"byteOffset":5136,"byteLength":288,"target":34962,"byteStride":12},{"buffer":0,"byteOffset":5424,"byteLength":192,"target":34962,"byteStride":8},{"buffer":0,"byteOffset":5616,"byteLength":24,"target":34963},{"buffer":0,"byteOffset":5640,"byteLength":288,"target":34962,"byteStride":12},{"buffer":0,"byteOffset":5928,"byteLength":288,"target":34962,"byteStride":12},{"buffer":0,"byteOffset":6216,"byteLength":192,"target":34962,"byteStride":8},{"buffer":0,"byteOffset":6408,"byteLength":24,"target":34963},{"buffer":0,"byteOffset":6432,"byteLength":288,"target":34962,"byteStride":12},{"buffer":0,"byteOffset":6720,"byteLength":288,"target":34962,"byteStride":12},{"buffer":0,"byteOffset":7008,"byteLength":192,"target":34962,"byteStride":8},{"buffer":0,"byteOffset":7200,"byteLength":24,"target":34963},{"buffer":0,"byteOffset":7224,"byteLength":288,"target":34962,"byteStride":12},{"buffer":0,"byteOffset":7512,"byteLength":288,"target":34962,"byteStride":12},{"buffer":0,"byteOffset":7800,"byteLength":192,"target":34962,"byteStride":8},{"buffer":0,"byteOffset":7992,"byteLength":72,"target":34963},{"buffer":0,"byteOffset":8064,"byteLength":288,"target":34962,"byteStride":12},{"buffer":0,"byteOffset":8352,"byteLength":288,"target":34962,"byteStride":12},{"buffer":0,"byteOffset":8640,"byteLength":192,"target":34962,"byteStride":8},{"buffer":0,"byteOffset":8832,"byteLength":72,"target":34963},{"buffer":0,"byteOffset":8904,"byteLength":288,"target":34962,"byteStride":12},{"buffer":0,"byteOffset":9192,"byteLength":288,"target":34962,"byteStride":12},{"buffer":0,"byteOffset":9480,"byteLength":192,"target":34962,"byteStride":8},{"buffer":0,"byteOffset":9672,"byteLength":72,"target":34963},{"buffer":0,"byteOffset":9744,"byteLength":288,"target":34962,"byteStride":12},{"buffer":0,"byteOffset":10032,"byteLength":288,"target":34962,"byteStride":12},{"buffer":0,"byteOffset":10320,"byteLength":192,"target":34962,"byteStride":8},{"buffer":0,"byteOffset":10512,"byteLength":48,"target":34963},{"buffer":0,"byteOffset":10560,"byteLength":288,"target":34962,"byteStride":12},{"buffer":0,"byteOffset":10848,"byteLength":288,"target":34962,"byteStride":12},{"buffer":0,"byteOffset":11136,"byteLength":192,"target":34962,"byteStride":8},{"buffer":0,"byteOffset":11328,"byteLength":48,"target":34963},{"buffer":0,"byteOffset":11376,"byteLength":288,"target":34962,"byteStride":12},{"buffer":0,"byteOffset":11664,"byteLength":288,"target":34962,"byteStride":12},{"buffer":0,"byteOffset":11952,"byteLength":192,"target":34962,"byteStride":8},{"buffer":0,"byteOffset":12144,"byteLength":48,"target":34963},{"buffer":0,"byteOffset":12192,"byteLength":288,"target":34962,"byteStride":12},{"buffer":0,"byteOffset":12480,"byteLength":288,"target":34962,"byteStride":12},{"buffer":0,"byteOffset":12768,"byteLength":192,"target":34962,"byteStride":8},{"buffer":0,"byteOffset":12960,"byteLength":72,"target":34963},{"buffer":0,"byteOffset":13032,"byteLength":288,"target":34962,"byteStride":12},{"buffer":0,"byteOffset":13320,"byteLength":288,"target":34962,"byteStride":12},{"buffer":0,"byteOffset":13608,"byteLength":192,"target":34962,"byteStride":8},{"buffer":0,"byteOffset":13800,"byteLength":72,"target":34963},{"buffer":0,"byteOffset":13872,"byteLength":288,"target":34962,"byteStride":12},{"buffer":0,"byteOffset":14160,"byteLength":288,"target":34962,"byteStride":12},{"buffer":0,"byteOffset":14448,"byteLength":192,"target":34962,"byteStride":8},{"buffer":0,"byteOffset":14640,"byteLength":72,"target":34963},{"buffer":0,"byteOffset":14712,"byteLength":288,"target":34962,"byteStride":12},{"buffer":0,"byteOffset":15000,"byteLength":288,"target":34962,"byteStride":12},{"buffer":0,"byteOffset":15288,"byteLength":192,"target":34962,"byteStride":8},{"buffer":0,"byteOffset":15480,"byteLength":72,"target":34963},{"buffer":0,"byteOffset":15552,"byteLength":288,"target":34962,"byteStride":12},{"buffer":0,"byteOffset":15840,"byteLength":288,"target":34962,"byteStride":12},{"buffer":0,"byteOffset":16128,"byteLength":192,"target":34962,"byteStride":8},{"buffer":0,"byteOffset":16320,"byteLength":72,"target":34963},{"buffer":0,"byteOffset":16392,"byteLength":288,"target":34962,"byteStride":12},{"buffer":0,"byteOffset":16680,"byteLength":288,"target":34962,"byteStride":12},{"buffer":0,"byteOffset":16968,"byteLength":192,"target":34962,"byteStride":8},{"buffer":0,"byteOffset":17160,"byteLength":72,"target":34963}],"buffers":[{"byteLength":17232,"uri":"data:application/octet-stream;base64,"}],"accessors":[{"bufferView":0,"componentType":5126,"count":24,"max":[0.1875,0.15625,0.8125],"min":[0,0,0.5],"type":"VEC3"},{"bufferView":1,"componentType":5126,"count":24,"max":[1,1,1],"min":[-1,-1,-1],"type":"VEC3"},{"bufferView":2,"componentType":5126,"count":24,"max":[1,1],"min":[0,0],"type":"VEC2"},{"bufferView":3,"componentType":5123,"count":24,"max":[15],"min":[0],"type":"SCALAR"},{"bufferView":4,"componentType":5126,"count":24,"max":[0.1875,0.53125,0.8125],"min":[0,0.375,0.5],"type":"VEC3"},{"bufferView":5,"componentType":5126,"count":24,"max":[1,1,1],"min":[-1,-1,-1],"type":"VEC3"},{"bufferView":6,"componentType":5126,"count":24,"max":[1,1],"min":[0,0],"type":"VEC2"},{"bufferView":7,"componentType":5123,"count":24,"max":[15],"min":[0],"type":"SCALAR"},{"bufferView":8,"componentType":5126,"count":24,"max":[0.1875,0.90625,0.8125],"min":[0,0.75,0.5],"type":"VEC3"},{"bufferView":9,"componentType":5126,"count":24,"max":[1,1,1],"min":[-1,-1,-1],"type":"VEC3"},{"bufferView":10,"componentType":5126,"count":24,"max":[1,1],"min":[0,0],"type":"VEC2"},{"bufferView":11,"componentType":5123,"count":24,"max":[15],"min":[0],"type":"SCALAR"},{"bufferView":12,"componentType":5126,"count":24,"max":[0.15625,1,0.8125],"min":[0.03125,0.90625,0.5625],"type":"VEC3"},{"bufferView":13,"componentType":5126,"count":24,"max":[1,1,1],"min":[-1,-1,-1],"type":"VEC3"},{"bufferView":14,"componentType":5126,"count":24,"max":[1,1],"min":[0,0],"type":"VEC2"},{"bufferView":15,"componentType":5123,"count":18,"max":[11],"min":[0],"type":"SCALAR"},{"bufferView":16,"componentType":5126,"count":24,"max":[0.15625,1,0.4375],"min":[0.03125,0.90625,0.1875],"type":"VEC3"},{"bufferView":17,"componentType":5126,"count":24,"max":[1,1,1],"min":[-1,-1,-1],"type":"VEC3"},{"bufferView":18,"componentType":5126,"count":24,"max":[1,1],"min":[0,0],"type":"VEC2"},{"bufferView":19,"componentType":5123,"count":18,"max":[11],"min":[0],"type":"SCALAR"},{"bufferView":20,"componentType":5126,"count":24,"max":[0.15625,0.375,0.4375],"min":[0.03125,0.15625,0.1875],"type":"VEC3"},{"bufferView":21,"componentType":5126,"count":24,"max":[1,1,1],"min":[-1,-1,-1],"type":"VEC3"},{"bufferView":22,"componentType":5126,"count":24,"max":[1,1],"min":[0,0],"type":"VEC2"},{"bufferView":23,"componentType":5123,"count":12,"max":[7],"min":[0],"type":"SCALAR"},{"bufferView":24,"componentType":5126,"count":24,"max":[0.15625,0.375,0.8125],"min":[0.03125,0.15625,0.5625],"type":"VEC3"},{"bufferView":25,"componentType":5126,"count":24,"max":[1,1,1],"min":[-1,-1,-1],"type":"VEC3"},{"bufferView":26,"componentType":5126,"count":24,"max":[1,1],"min":[0,0],"type":"VEC2"},{"bufferView":27,"componentType":5123,"count":12,"max":[7],"min":[0],"type":"SCALAR"},{"bufferView":28,"componentType":5126,"count":24,"max":[0.15625,0.75,0.8125],"min":[0.03125,0.53125,0.5625],"type":"VEC3"},{"bufferView":29,"componentType":5126,"count":24,"max":[1,1,1],"min":[-1,-1,-1],"type":"VEC3"},{"bufferView":30,"componentType":5126,"count":24,"max":[1,1],"min":[0,0],"type":"VEC2"},{"bufferView":31,"componentType":5123,"count":12,"max":[7],"min":[0],"type":"SCALAR"},{"bufferView":32,"componentType":5126,"count":24,"max":[0.15625,0.75,0.4375],"min":[0.03125,0.53125,0.1875],"type":"VEC3"},{"bufferView":33,"componentType":5126,"count":24,"max":[1,1,1],"min":[-1,-1,-1],"type":"VEC3"},{"bufferView":34,"componentType":5126,"count":24,"max":[1,1],"min":[0,0],"type":"VEC2"},{"bufferView":35,"componentType":5123,"count":12,"max":[7],"min":[0],"type":"SCALAR"},{"bufferView":36,"componentType":5126,"count":24,"max":[0.1875,0.75,0.5625],"min":[0,0.53125,0.4375],"type":"VEC3"},{"bufferView":37,"componentType":5126,"count":24,"max":[1,1,1],"min":[-1,-1,-1],"type":"VEC3"},{"bufferView":38,"componentType":5126,"count":24,"max":[1,0.75],"min":[0,0.4375],"type":"VEC2"},{"bufferView":39,"componentType":5123,"count":36,"max":[23],"min":[0],"type":"SCALAR"},{"bufferView":40,"componentType":5126,"count":24,"max":[0.1875,1,0.5625],"min":[0,0.90625,0.4375],"type":"VEC3"},{"bufferView":41,"componentType":5126,"count":24,"max":[1,1,1],"min":[-1,-1,-1],"type":"VEC3"},{"bufferView":42,"componentType":5126,"count":24,"max":[1,1],"min":[0,0.4375],"type":"VEC2"},{"bufferView":43,"componentType":5123,"count":36,"max":[23],"min":[0],"type":"SCALAR"},{"bufferView":44,"componentType":5126,"count":24,"max":[0.1875,0.375,0.5625],"min":[0,0.15625,0.4375],"type":"VEC3"},{"bufferView":45,"componentType":5126,"count":24,"max":[1,1,1],"min":[-1,-1,-1],"type":"VEC3"},{"bufferView":46,"componentType":5126,"count":24,"max":[1,0.5625],"min":[0,0.15625],"type":"VEC2"},{"bufferView":47,"componentType":5123,"count":36,"max":[23],"min":[0],"type":"SCALAR"},{"bufferView":48,"componentType":5126,"count":24,"max":[0.1875,0.90625,0.5],"min":[0,0.75,0.1875],"type":"VEC3"},{"bufferView":49,"componentType":5126,"count":24,"max":[1,1,1],"min":[-1,-1,-1],"type":"VEC3"},{"bufferView":50,"componentType":5126,"count":24,"max":[1,1],"min":[0,0],"type":"VEC2"},{"bufferView":51,"componentType":5123,"count":24,"max":[15],"min":[0],"type":"SCALAR"},{"bufferView":52,"componentType":5126,"count":24,"max":[0.1875,0.53125,0.5],"min":[0,0.375,0.1875],"type":"VEC3"},{"bufferView":53,"componentType":5126,"count":24,"max":[1,1,1],"min":[-1,-1,-1],"type":"VEC3"},{"bufferView":54,"componentType":5126,"count":24,"max":[1,1],"min":[0,0],"type":"VEC2"},{"bufferView":55,"componentType":5123,"count":24,"max":[15],"min":[0],"type":"SCALAR"},{"bufferView":56,"componentType":5126,"count":24,"max":[0.1875,0.15625,0.5],"min":[0,0,0.1875],"type":"VEC3"},{"bufferView":57,"componentType":5126,"count":24,"max":[1,1,1],"min":[-1,-1,-1],"type":"VEC3"},{"bufferView":58,"componentType":5126,"count":24,"max":[1,1],"min":[0,0],"type":"VEC2"},{"bufferView":59,"componentType":5123,"count":24,"max":[15],"min":[0],"type":"SCALAR"},{"bufferView":60,"componentType":5126,"count":24,"max":[0.1875,1,1],"min":[0,0,0.8125],"type":"VEC3"},{"bufferView":61,"componentType":5126,"count":24,"max":[1,1,1],"min":[-1,-1,-1],"type":"VEC3"},{"bufferView":62,"componentType":5126,"count":24,"max":[1,1],"min":[0,0],"type":"VEC2"},{"bufferView":63,"componentType":5123,"count":36,"max":[23],"min":[0],"type":"SCALAR"},{"bufferView":64,"componentType":5126,"count":24,"max":[0.1875,1,0.1875],"min":[0,0,0],"type":"VEC3"},{"bufferView":65,"componentType":5126,"count":24,"max":[1,1,1],"min":[-1,-1,-1],"type":"VEC3"},{"bufferView":66,"componentType":5126,"count":24,"max":[1,1],"min":[0,0],"type":"VEC2"},{"bufferView":67,"componentType":5123,"count":36,"max":[23],"min":[0],"type":"SCALAR"},{"bufferView":68,"componentType":5126,"count":24,"max":[0.0625,0.375,0.0625],"min":[-0.015625,0.25,-0.015625],"type":"VEC3"},{"bufferView":69,"componentType":5126,"count":24,"max":[1,1,1],"min":[-1,-1,-1],"type":"VEC3"},{"bufferView":70,"componentType":5126,"count":24,"max":[0.0625,0.375],"min":[0,0.25],"type":"VEC2"},{"bufferView":71,"componentType":5123,"count":36,"max":[23],"min":[0],"type":"SCALAR"},{"bufferView":72,"componentType":5126,"count":24,"max":[0.203125,0.375,0.0625],"min":[0.125,0.25,-0.015625],"type":"VEC3"},{"bufferView":73,"componentType":5126,"count":24,"max":[1,1,1],"min":[-1,-1,-1],"type":"VEC3"},{"bufferView":74,"componentType":5126,"count":24,"max":[0.0625,0.375],"min":[0,0.25],"type":"VEC2"},{"bufferView":75,"componentType":5123,"count":36,"max":[23],"min":[0],"type":"SCALAR"},{"bufferView":76,"componentType":5126,"count":24,"max":[0.203125,1,0.0625],"min":[0.125,0.9375,-0.015625],"type":"VEC3"},{"bufferView":77,"componentType":5126,"count":24,"max":[1,1,1],"min":[-1,-1,-1],"type":"VEC3"},{"bufferView":78,"componentType":5126,"count":24,"max":[0.0625,1],"min":[0,0.9375],"type":"VEC2"},{"bufferView":79,"componentType":5123,"count":36,"max":[23],"min":[0],"type":"SCALAR"},{"bufferView":80,"componentType":5126,"count":24,"max":[0.0625,1,0.0625],"min":[-0.015625,0.9375,-0.015625],"type":"VEC3"},{"bufferView":81,"componentType":5126,"count":24,"max":[1,1,1],"min":[-1,-1,-1],"type":"VEC3"},{"bufferView":82,"componentType":5126,"count":24,"max":[0.0625,1],"min":[0,0.9375],"type":"VEC2"},{"bufferView":83,"componentType":5123,"count":36,"max":[23],"min":[0],"type":"SCALAR"}],"materials":[{"pbrMetallicRoughness":{"metallicFactor":0,"roughnessFactor":1,"baseColorTexture":{"index":0}},"alphaMode":"MASK","alphaCutoff":0.05}],"textures":[{"sampler":0,"source":0}],"samplers":[{"magFilter":9728,"minFilter":9728,"wrapS":33071,"wrapT":33071}],"images":[{"mimeType":"image/png","uri":"data:image/png;base64,"}],"meshes":[{"primitives":[{"mode":4,"attributes":{"POSITION":0,"NORMAL":1,"TEXCOORD_0":2},"indices":3,"material":0}]},{"primitives":[{"mode":4,"attributes":{"POSITION":4,"NORMAL":5,"TEXCOORD_0":6},"indices":7,"material":0}]},{"primitives":[{"mode":4,"attributes":{"POSITION":8,"NORMAL":9,"TEXCOORD_0":10},"indices":11,"material":0}]},{"primitives":[{"mode":4,"attributes":{"POSITION":12,"NORMAL":13,"TEXCOORD_0":14},"indices":15,"material":0}]},{"primitives":[{"mode":4,"attributes":{"POSITION":16,"NORMAL":17,"TEXCOORD_0":18},"indices":19,"material":0}]},{"primitives":[{"mode":4,"attributes":{"POSITION":20,"NORMAL":21,"TEXCOORD_0":22},"indices":23,"material":0}]},{"primitives":[{"mode":4,"attributes":{"POSITION":24,"NORMAL":25,"TEXCOORD_0":26},"indices":27,"material":0}]},{"primitives":[{"mode":4,"attributes":{"POSITION":28,"NORMAL":29,"TEXCOORD_0":30},"indices":31,"material":0}]},{"primitives":[{"mode":4,"attributes":{"POSITION":32,"NORMAL":33,"TEXCOORD_0":34},"indices":35,"material":0}]},{"primitives":[{"mode":4,"attributes":{"POSITION":36,"NORMAL":37,"TEXCOORD_0":38},"indices":39,"material":0}]},{"primitives":[{"mode":4,"attributes":{"POSITION":40,"NORMAL":41,"TEXCOORD_0":42},"indices":43,"material":0}]},{"primitives":[{"mode":4,"attributes":{"POSITION":44,"NORMAL":45,"TEXCOORD_0":46},"indices":47,"material":0}]},{"primitives":[{"mode":4,"attributes":{"POSITION":48,"NORMAL":49,"TEXCOORD_0":50},"indices":51,"material":0}]},{"primitives":[{"mode":4,"attributes":{"POSITION":52,"NORMAL":53,"TEXCOORD_0":54},"indices":55,"material":0}]},{"primitives":[{"mode":4,"attributes":{"POSITION":56,"NORMAL":57,"TEXCOORD_0":58},"indices":59,"material":0}]},{"primitives":[{"mode":4,"attributes":{"POSITION":60,"NORMAL":61,"TEXCOORD_0":62},"indices":63,"material":0}]},{"primitives":[{"mode":4,"attributes":{"POSITION":64,"NORMAL":65,"TEXCOORD_0":66},"indices":67,"material":0}]},{"primitives":[{"mode":4,"attributes":{"POSITION":68,"NORMAL":69,"TEXCOORD_0":70},"indices":71,"material":0}]},{"primitives":[{"mode":4,"attributes":{"POSITION":72,"NORMAL":73,"TEXCOORD_0":74},"indices":75,"material":0}]},{"primitives":[{"mode":4,"attributes":{"POSITION":76,"NORMAL":77,"TEXCOORD_0":78},"indices":79,"material":0}]},{"primitives":[{"mode":4,"attributes":{"POSITION":80,"NORMAL":81,"TEXCOORD_0":82},"indices":83,"material":0}]}]}