{"asset":{"version":"2.0","generator":"Blockbench 4.4.2 glTF exporter"},"scenes":[{"nodes":[15],"name":"blockbench_export"}],"scene":0,"nodes":[{"translation":[0,0,0.5],"name":"cube","mesh":0},{"translation":[0,0,0.5],"name":"cube","mesh":1},{"translation":[0,0,0.5],"name":"cube","mesh":2},{"translation":[0,0,0.5],"name":"cube","mesh":3},{"translation":[0,0,0.5],"name":"cube","mesh":4},{"translation":[0,0,0.5],"name":"cube","mesh":5},{"translation":[0,0,0.5],"name":"cube","mesh":6},{"translation":[0,0,0.5],"name":"cube","mesh":7},{"translation":[0,0,0.5],"name":"cube","mesh":8},{"translation":[0,0,0.5],"name":"cube","mesh":9},{"translation":[0,0,0.5],"name":"cube","mesh":10},{"translation":[0,0,0.5],"name":"cube","mesh":11},{"translation":[0,0,0.5],"name":"cube","mesh":12},{"translation":[0,0,0.5],"name":"cube","mesh":13},{"name":"group"},{"children":[0,1,2,3,4,5,6,7,8,9,10,11,12,13,14]}],"bufferViews":[{"buffer":0,"byteOffset":0,"byteLength":288,"target":34962,"byteStride":12},{"buffer":0,"byteOffset":288,"byteLength":288,"target":34962,"byteStride":12},{"buffer":0,"byteOffset":576,"byteLength":192,"target":34962,"byteStride":8},{"buffer":0,"byteOffset":768,"byteLength":24,"target":34963},{"buffer":0,"byteOffset":792,"byteLength":24,"target":34963},{"buffer":0,"byteOffset":816,"byteLength":288,"target":34962,"byteStride":12},{"buffer":0,"byteOffset":1104,"byteLength":288,"target":34962,"byteStride":12},{"buffer":0,"byteOffset":1392,"byteLength":192,"target":34962,"byteStride":8},{"buffer":0,"byteOffset":1584,"byteLength":24,"target":34963},{"buffer":0,"byteOffset":1608,"byteLength":12,"target":34963},{"buffer":0,"byteOffset":1620,"byteLength":288,"target":34962,"byteStride":12},{"buffer":0,"byteOffset":1908,"byteLength":288,"target":34962,"byteStride":12},{"buffer":0,"byteOffset":2196,"byteLength":192,"target":34962,"byteStride":8},{"buffer":0,"byteOffset":2388,"byteLength":24,"target":34963},{"buffer":0,"byteOffset":2412,"byteLength":24,"target":34963},{"buffer":0,"byteOffset":2436,"byteLength":288,"target":34962,"byteStride":12},{"buffer":0,"byteOffset":2724,"byteLength":288,"target":34962,"byteStride":12},{"buffer":0,"byteOffset":3012,"byteLength":192,"target":34962,"byteStride":8},{"buffer":0,"byteOffset":3204,"byteLength":36,"target":34963},{"buffer":0,"byteOffset":3240,"byteLength":36,"target":34963},{"buffer":0,"byteOffset":3276,"byteLength":288,"target":34962,"byteStride":12},{"buffer":0,"byteOffset":3564,"byteLength":288,"target":34962,"byteStride":12},{"buffer":0,"byteOffset":3852,"byteLength":192,"target":34962,"byteStride":8},{"buffer":0,"byteOffset":4044,"byteLength":24,"target":34963},{"buffer":0,"byteOffset":4068,"byteLength":24,"target":34963},{"buffer":0,"byteOffset":4092,"byteLength":288,"target":34962,"byteStride":12},{"buffer":0,"byteOffset":4380,"byteLength":288,"target":34962,"byteStride":12},{"buffer":0,"byteOffset":4668,"byteLength":192,"target":34962,"byteStride":8},{"buffer":0,"byteOffset":4860,"byteLength":24,"target":34963},{"buffer":0,"byteOffset":4884,"byteLength":24,"target":34963},{"buffer":0,"byteOffset":4908,"byteLength":288,"target":34962,"byteStride":12},{"buffer":0,"byteOffset":5196,"byteLength":288,"target":34962,"byteStride":12},{"buffer":0,"byteOffset":5484,"byteLength":192,"target":34962,"byteStride":8},{"buffer":0,"byteOffset":5676,"byteLength":72,"target":34963},{"buffer":0,"byteOffset":5748,"byteLength":288,"target":34962,"byteStride":12},{"buffer":0,"byteOffset":6036,"byteLength":288,"target":34962,"byteStride":12},{"buffer":0,"byteOffset":6324,"byteLength":192,"target":34962,"byteStride":8},{"buffer":0,"byteOffset":6516,"byteLength":72,"target":34963},{"buffer":0,"byteOffset":6588,"byteLength":288,"target":34962,"byteStride":12},{"buffer":0,"byteOffset":6876,"byteLength":288,"target":34962,"byteStride":12},{"buffer":0,"byteOffset":7164,"byteLength":192,"target":34962,"byteStride":8},{"buffer":0,"byteOffset":7356,"byteLength":36,"target":34963},{"buffer":0,"byteOffset":7392,"byteLength":12,"target":34963},{"buffer":0,"byteOffset":7404,"byteLength":24,"target":34963},{"buffer":0,"byteOffset":7428,"byteLength":288,"target":34962,"byteStride":12},{"buffer":0,"byteOffset":7716,"byteLength":288,"target":34962,"byteStride":12},{"buffer":0,"byteOffset":8004,"byteLength":192,"target":34962,"byteStride":8},{"buffer":0,"byteOffset":8196,"byteLength":36,"target":34963},{"buffer":0,"byteOffset":8232,"byteLength":12,"target":34963},{"buffer":0,"byteOffset":8244,"byteLength":24,"target":34963},{"buffer":0,"byteOffset":8268,"byteLength":288,"target":34962,"byteStride":12},{"buffer":0,"byteOffset":8556,"byteLength":288,"target":34962,"byteStride":12},{"buffer":0,"byteOffset":8844,"byteLength":192,"target":34962,"byteStride":8},{"buffer":0,"byteOffset":9036,"byteLength":72,"target":34963},{"buffer":0,"byteOffset":9108,"byteLength":288,"target":34962,"byteStride":12},{"buffer":0,"byteOffset":9396,"byteLength":288,"target":34962,"byteStride":12},{"buffer":0,"byteOffset":9684,"byteLength":192,"target":34962,"byteStride":8},{"buffer":0,"byteOffset":9876,"byteLength":72,"target":34963},{"buffer":0,"byteOffset":9948,"byteLength":288,"target":34962,"byteStride":12},{"buffer":0,"byteOffset":10236,"byteLength":288,"target":34962,"byteStride":12},{"buffer":0,"byteOffset":10524,"byteLength":192,"target":34962,"byteStride":8},{"buffer":0,"byteOffset":10716,"byteLength":60,"target":34963},{"buffer":0,"byteOffset":10776,"byteLength":12,"target":34963},{"buffer":0,"byteOffset":10788,"byteLength":288,"target":34962,"byteStride":12},{"buffer":0,"byteOffset":11076,"byteLength":288,"target":34962,"byteStride":12},{"buffer":0,"byteOffset":11364,"byteLength":192,"target":34962,"byteStride":8},{"buffer":0,"byteOffset":11556,"byteLength":60,"target":34963},{"buffer":0,"byteOffset":11616,"byteLength":12,"target":34963}],"buffers":[{"byteLength":11628,"uri":"data:application/octet-stream;base64,"}],"accessors":[{"bufferView":0,"componentType":5126,"count":24,"max":[0.1875,0.9375,-0.0625],"min":[0,0.15625,-0.1875],"type":"VEC3"},{"bufferView":1,"componentType":5126,"count":24,"max":[1,1,1],"min":[-1,-1,-1],"type":"VEC3"},{"bufferView":2,"componentType":5126,"count":24,"max":[1,1],"min":[0,0],"type":"VEC2"},{"bufferView":3,"componentType":5123,"count":12,"max":[7],"min":[0],"type":"SCALAR"},{"bufferView":4,"componentType":5123,"count":12,"max":[23],"min":[16],"type":"SCALAR"},{"bufferView":5,"componentType":5126,"count":24,"max":[0.1875,1,0.34375],"min":[0,0.9375,-0.34375],"type":"VEC3"},{"bufferView":6,"componentType":5126,"count":24,"max":[1,1,1],"min":[-1,-1,-1],"type":"VEC3"},{"bufferView":7,"componentType":5126,"count":24,"max":[1,1],"min":[0,0],"type":"VEC2"},{"bufferView":8,"componentType":5123,"count":12,"max":[7],"min":[0],"type":"SCALAR"},{"bufferView":9,"componentType":5123,"count":6,"max":[15],"min":[12],"type":"SCALAR"},{"bufferView":10,"componentType":5126,"count":24,"max":[0.1875,1,0.5],"min":[0,0.15625,0.34375],"type":"VEC3"},{"bufferView":11,"componentType":5126,"count":24,"max":[1,1,1],"min":[-1,-1,-1],"type":"VEC3"},{"bufferView":12,"componentType":5126,"count":24,"max":[1,1],"min":[0,0],"type":"VEC2"},{"bufferView":13,"componentType":5123,"count":12,"max":[7],"min":[0],"type":"SCALAR"},{"bufferView":14,"componentType":5123,"count":12,"max":[23],"min":[16],"type":"SCALAR"},{"bufferView":15,"componentType":5126,"count":24,"max":[0.1875,0.15625,0.5],"min":[0,0,-0.5],"type":"VEC3"},{"bufferView":16,"componentType":5126,"count":24,"max":[1,1,1],"min":[-1,-1,-1],"type":"VEC3"},{"bufferView":17,"componentType":5126,"count":24,"max":[1,1],"min":[0,0],"type":"VEC2"},{"bufferView":18,"componentType":5123,"count":18,"max":[11],"min":[0],"type":"SCALAR"},{"bufferView":19,"componentType":5123,"count":18,"max":[23],"min":[12],"type":"SCALAR"},{"bufferView":20,"componentType":5126,"count":24,"max":[0.1875,1,-0.34375],"min":[0,0.15625,-0.5],"type":"VEC3"},{"bufferView":21,"componentType":5126,"count":24,"max":[1,1,1],"min":[-1,-1,-1],"type":"VEC3"},{"bufferView":22,"componentType":5126,"count":24,"max":[1,1],"min":[0,0],"type":"VEC2"},{"bufferView":23,"componentType":5123,"count":12,"max":[7],"min":[0],"type":"SCALAR"},{"bufferView":24,"componentType":5123,"count":12,"max":[23],"min":[16],"type":"SCALAR"},{"bufferView":25,"componentType":5126,"count":24,"max":[0.1875,0.9375,0.1875],"min":[0,0.15625,0.0625],"type":"VEC3"},{"bufferView":26,"componentType":5126,"count":24,"max":[1,1,1],"min":[-1,-1,-1],"type":"VEC3"},{"bufferView":27,"componentType":5126,"count":24,"max":[1,1],"min":[0,0],"type":"VEC2"},{"bufferView":28,"componentType":5123,"count":12,"max":[7],"min":[0],"type":"SCALAR"},{"bufferView":29,"componentType":5123,"count":12,"max":[23],"min":[16],"type":"SCALAR"},{"bufferView":30,"componentType":5126,"count":24,"max":[0.046875,0.375,0.515625],"min":[-0.015625,0.25,0.4375],"type":"VEC3"},{"bufferView":31,"componentType":5126,"count":24,"max":[1,1,1],"min":[-1,-1,-1],"type":"VEC3"},{"bufferView":32,"componentType":5126,"count":24,"max":[0.0625,0.375],"min":[0,0.25],"type":"VEC2"},{"bufferView":33,"componentType":5123,"count":36,"max":[23],"min":[0],"type":"SCALAR"},{"bufferView":34,"componentType":5126,"count":24,"max":[0.203125,0.375,0.515625],"min":[0.140625,0.25,0.4375],"type":"VEC3"},{"bufferView":35,"componentType":5126,"count":24,"max":[1,1,1],"min":[-1,-1,-1],"type":"VEC3"},{"bufferView":36,"componentType":5126,"count":24,"max":[0.0625,0.375],"min":[0,0.25],"type":"VEC2"},{"bufferView":37,"componentType":5123,"count":36,"max":[23],"min":[0],"type":"SCALAR"},{"bufferView":38,"componentType":5126,"count":24,"max":[0.046875,1,0.515625],"min":[-0.015625,0.9375,0.4375],"type":"VEC3"},{"bufferView":39,"componentType":5126,"count":24,"max":[1,1,1],"min":[-1,-1,-1],"type":"VEC3"},{"bufferView":40,"componentType":5126,"count":24,"max":[0.0625,1],"min":[0,0.9375],"type":"VEC2"},{"bufferView":41,"componentType":5123,"count":18,"max":[11],"min":[0],"type":"SCALAR"},{"bufferView":42,"componentType":5123,"count":6,"max":[15],"min":[12],"type":"SCALAR"},{"bufferView":43,"componentType":5123,"count":12,"max":[23],"min":[16],"type":"SCALAR"},{"bufferView":44,"componentType":5126,"count":24,"max":[0.203125,1,0.515625],"min":[0.140625,0.9375,0.4375],"type":"VEC3"},{"bufferView":45,"componentType":5126,"count":24,"max":[1,1,1],"min":[-1,-1,-1],"type":"VEC3"},{"bufferView":46,"componentType":5126,"count":24,"max":[0.0625,1],"min":[0,0.9375],"type":"VEC2"},{"bufferView":47,"componentType":5123,"count":18,"max":[11],"min":[0],"type":"SCALAR"},{"bufferView":48,"componentType":5123,"count":6,"max":[15],"min":[12],"type":"SCALAR"},{"bufferView":49,"componentType":5123,"count":12,"max":[23],"min":[16],"type":"SCALAR"},{"bufferView":50,"componentType":5126,"count":24,"max":[0,1,-0.40625],"min":[-0.015625,0.9375,-0.46875],"type":"VEC3"},{"bufferView":51,"componentType":5126,"count":24,"max":[1,1,1],"min":[-1,-1,-1],"type":"VEC3"},{"bufferView":52,"componentType":5126,"count":24,"max":[0.96875,1],"min":[0.90625,0.9375],"type":"VEC2"},{"bufferView":53,"componentType":5123,"count":36,"max":[23],"min":[0],"type":"SCALAR"},{"bufferView":54,"componentType":5126,"count":24,"max":[0.203125,1,-0.40625],"min":[0.1875,0.9375,-0.46875],"type":"VEC3"},{"bufferView":55,"componentType":5126,"count":24,"max":[1,1,1],"min":[-1,-1,-1],"type":"VEC3"},{"bufferView":56,"componentType":5126,"count":24,"max":[0.96875,1],"min":[0.90625,0.9375],"type":"VEC2"},{"bufferView":57,"componentType":5123,"count":36,"max":[23],"min":[0],"type":"SCALAR"},{"bufferView":58,"componentType":5126,"count":24,"max":[0,1,-0.28125],"min":[-0.015625,0.96875,-0.40625],"type":"VEC3"},{"bufferView":59,"componentType":5126,"count":24,"max":[1,1,1],"min":[-1,-1,-1],"type":"VEC3"},{"bufferView":60,"componentType":5126,"count":24,"max":[0.90625,1],"min":[0,0.25],"type":"VEC2"},{"bufferView":61,"componentType":5123,"count":30,"max":[19],"min":[0],"type":"SCALAR"},{"bufferView":62,"componentType":5123,"count":6,"max":[23],"min":[20],"type":"SCALAR"},{"bufferView":63,"componentType":5126,"count":24,"max":[0.203125,1,-0.28125],"min":[0.1875,0.96875,-0.40625],"type":"VEC3"},{"bufferView":64,"componentType":5126,"count":24,"max":[1,1,1],"min":[-1,-1,-1],"type":"VEC3"},{"bufferView":65,"componentType":5126,"count":24,"max":[0.90625,1],"min":[0,0.25],"type":"VEC2"},{"bufferView":66,"componentType":5123,"count":30,"max":[19],"min":[0],"type":"SCALAR"},{"bufferView":67,"componentType":5123,"count":6,"max":[23],"min":[20],"type":"SCALAR"}],"materials":[{"pbrMetallicRoughness":{"metallicFactor":0,"roughnessFactor":1,"baseColorTexture":{"index":0}},"alphaMode":"MASK","alphaCutoff":0.05},{"pbrMetallicRoughness":{"metallicFactor":0,"roughnessFactor":1,"baseColorTexture":{"index":1}},"alphaMode":"MASK","alphaCutoff":0.05},{"pbrMetallicRoughness":{"metallicFactor":0,"roughnessFactor":1},"alphaMode":"MASK","alphaCutoff":0.05},{"pbrMetallicRoughness":{"metallicFactor":0,"roughnessFactor":1},"alphaMode":"MASK","alphaCutoff":0.05},{"pbrMetallicRoughness":{"metallicFactor":0,"roughnessFactor":1},"alphaMode":"MASK","alphaCutoff":0.05}],"textures":[{"sampler":0,"source":0},{"sampler":1,"source":1}],"samplers":[{"magFilter":9728,"minFilter":9728,"wrapS":33071,"wrapT":33071},{"magFilter":9728,"minFilter":9728,"wrapS":33071,"wrapT":33071}],"images":[{"mimeType":"image/png","uri":"data:image/png;base64,"},{"mimeType":"image/png","uri":"data:image/png;base64,"}],"meshes":[{"primitives":[{"mode":4,"attributes":{"POSITION":0,"NORMAL":1,"TEXCOORD_0":2},"indices":3,"material":0},{"mode":4,"attributes":{"POSITION":0,"NORMAL":1,"TEXCOORD_0":2},"indices":4,"material":1}]},{"primitives":[{"mode":4,"attributes":{"POSITION":5,"NORMAL":6,"TEXCOORD_0":7},"indices":8,"material":0},{"mode":4,"attributes":{"POSITION":5,"NORMAL":6,"TEXCOORD_0":7},"indices":9,"material":1}]},{"primitives":[{"mode":4,"attributes":{"POSITION":10,"NORMAL":11,"TEXCOORD_0":12},"indices":13,"material":0},{"mode":4,"attributes":{"POSITION":10,"NORMAL":11,"TEXCOORD_0":12},"indices":14,"material":1}]},{"primitives":[{"mode":4,"attributes":{"POSITION":15,"NORMAL":16,"TEXCOORD_0":17},"indices":18,"material":0},{"mode":4,"attributes":{"POSITION":15,"NORMAL":16,"TEXCOORD_0":17},"indices":19,"material":1}]},{"primitives":[{"mode":4,"attributes":{"POSITION":20,"NORMAL":21,"TEXCOORD_0":22},"indices":23,"material":0},{"mode":4,"attributes":{"POSITION":20,"NORMAL":21,"TEXCOORD_0":22},"indices":24,"material":1}]},{"primitives":[{"mode":4,"attributes":{"POSITION":25,"NORMAL":26,"TEXCOORD_0":27},"indices":28,"material":0},{"mode":4,"attributes":{"POSITION":25,"NORMAL":26,"TEXCOORD_0":27},"indices":29,"material":1}]},{"primitives":[{"mode":4,"attributes":{"POSITION":30,"NORMAL":31,"TEXCOORD_0":32},"indices":33,"material":0}]},{"primitives":[{"mode":4,"attributes":{"POSITION":34,"NORMAL":35,"TEXCOORD_0":36},"indices":37,"material":0}]},{"primitives":[{"mode":4,"attributes":{"POSITION":38,"NORMAL":39,"TEXCOORD_0":40},"indices":41,"material":0},{"mode":4,"attributes":{"POSITION":38,"NORMAL":39,"TEXCOORD_0":40},"indices":42,"material":2},{"mode":4,"attributes":{"POSITION":38,"NORMAL":39,"TEXCOORD_0":40},"indices":43,"material":0}]},{"primitives":[{"mode":4,"attributes":{"POSITION":44,"NORMAL":45,"TEXCOORD_0":46},"indices":47,"material":0},{"mode":4,"attributes":{"POSITION":44,"NORMAL":45,"TEXCOORD_0":46},"indices":48,"material":3},{"mode":4,"attributes":{"POSITION":44,"NORMAL":45,"TEXCOORD_0":46},"indices":49,"material":0}]},{"primitives":[{"mode":4,"attributes":{"POSITION":50,"NORMAL":51,"TEXCOORD_0":52},"indices":53,"material":0}]},{"primitives":[{"mode":4,"attributes":{"POSITION":54,"NORMAL":55,"TEXCOORD_0":56},"indices":57,"material":0}]},{"primitives":[{"mode":4,"attributes":{"POSITION":58,"NORMAL":59,"TEXCOORD_0":60},"indices":61,"material":0},{"mode":4,"attributes":{"POSITION":58,"NORMAL":59,"TEXCOORD_0":60},"indices":62,"material":4}]},{"primitives":[{"mode":4,"attributes":{"POSITION":63,"NORMAL":64,"TEXCOORD_0":65},"indices":66,"material":0},{"mode":4,"attributes":{"POSITION":63,"NORMAL":64,"TEXCOORD_0":65},"indices":67,"material":2}]}]}