{"asset":{"version":"2.0","generator":"Blockbench 4.4.2 glTF exporter"},"scenes":[{"nodes":[7],"name":"blockbench_export"}],"scene":0,"nodes":[{"name":"bottom_slab","mesh":0},{"name":"top_slab","mesh":1},{"name":"up","mesh":2},{"name":"south","mesh":3},{"name":"north","mesh":4},{"name":"east","mesh":5},{"name":"west","mesh":6},{"children":[0,1,2,3,4,5,6]}],"bufferViews":[{"buffer":0,"byteOffset":0,"byteLength":288,"target":34962,"byteStride":12},{"buffer":0,"byteOffset":288,"byteLength":288,"target":34962,"byteStride":12},{"buffer":0,"byteOffset":576,"byteLength":192,"target":34962,"byteStride":8},{"buffer":0,"byteOffset":768,"byteLength":24,"target":34963},{"buffer":0,"byteOffset":792,"byteLength":12,"target":34963},{"buffer":0,"byteOffset":804,"byteLength":12,"target":34963},{"buffer":0,"byteOffset":816,"byteLength":24,"target":34963},{"buffer":0,"byteOffset":840,"byteLength":288,"target":34962,"byteStride":12},{"buffer":0,"byteOffset":1128,"byteLength":288,"target":34962,"byteStride":12},{"buffer":0,"byteOffset":1416,"byteLength":192,"target":34962,"byteStride":8},{"buffer":0,"byteOffset":1608,"byteLength":24,"target":34963},{"buffer":0,"byteOffset":1632,"byteLength":12,"target":34963},{"buffer":0,"byteOffset":1644,"byteLength":24,"target":34963},{"buffer":0,"byteOffset":1668,"byteLength":288,"target":34962,"byteStride":12},{"buffer":0,"byteOffset":1956,"byteLength":288,"target":34962,"byteStride":12},{"buffer":0,"byteOffset":2244,"byteLength":192,"target":34962,"byteStride":8},{"buffer":0,"byteOffset":2436,"byteLength":12,"target":34963},{"buffer":0,"byteOffset":2448,"byteLength":288,"target":34962,"byteStride":12},{"buffer":0,"byteOffset":2736,"byteLength":288,"target":34962,"byteStride":12},{"buffer":0,"byteOffset":3024,"byteLength":192,"target":34962,"byteStride":8},{"buffer":0,"byteOffset":3216,"byteLength":12,"target":34963},{"buffer":0,"byteOffset":3228,"byteLength":288,"target":34962,"byteStride":12},{"buffer":0,"byteOffset":3516,"byteLength":288,"target":34962,"byteStride":12},{"buffer":0,"byteOffset":3804,"byteLength":192,"target":34962,"byteStride":8},{"buffer":0,"byteOffset":3996,"byteLength":12,"target":34963},{"buffer":0,"byteOffset":4008,"byteLength":288,"target":34962,"byteStride":12},{"buffer":0,"byteOffset":4296,"byteLength":288,"target":34962,"byteStride":12},{"buffer":0,"byteOffset":4584,"byteLength":192,"target":34962,"byteStride":8},{"buffer":0,"byteOffset":4776,"byteLength":12,"target":34963},{"buffer":0,"byteOffset":4788,"byteLength":288,"target":34962,"byteStride":12},{"buffer":0,"byteOffset":5076,"byteLength":288,"target":34962,"byteStride":12},{"buffer":0,"byteOffset":5364,"byteLength":192,"target":34962,"byteStride":8},{"buffer":0,"byteOffset":5556,"byteLength":12,"target":34963}],"buffers":[{"byteLength":5568,"uri":"data:application/octet-stream;base64,"}],"accessors":[{"bufferView":0,"componentType":5126,"count":24,"max":[1,0.5,1],"min":[0,0,0],"type":"VEC3"},{"bufferView":1,"componentType":5126,"count":24,"max":[1,1,1],"min":[-1,-1,-1],"type":"VEC3"},{"bufferView":2,"componentType":5126,"count":24,"max":[1,1],"min":[0,0],"type":"VEC2"},{"bufferView":3,"componentType":5123,"count":12,"max":[7],"min":[0],"type":"SCALAR"},{"bufferView":4,"componentType":5123,"count":6,"max":[11],"min":[8],"type":"SCALAR"},{"bufferView":5,"componentType":5123,"count":6,"max":[15],"min":[12],"type":"SCALAR"},{"bufferView":6,"componentType":5123,"count":12,"max":[23],"min":[16],"type":"SCALAR"},{"bufferView":7,"componentType":5126,"count":24,"max":[0.9375,0.9375,0.9375],"min":[0.0625,0.5,0.0625],"type":"VEC3"},{"bufferView":8,"componentType":5126,"count":24,"max":[1,1,1],"min":[-1,-1,-1],"type":"VEC3"},{"bufferView":9,"componentType":5126,"count":24,"max":[1,1],"min":[0,0],"type":"VEC2"},{"bufferView":10,"componentType":5123,"count":12,"max":[7],"min":[0],"type":"SCALAR"},{"bufferView":11,"componentType":5123,"count":6,"max":[11],"min":[8],"type":"SCALAR"},{"bufferView":12,"componentType":5123,"count":12,"max":[23],"min":[16],"type":"SCALAR"},{"bufferView":13,"componentType":5126,"count":24,"max":[0.9375,0.9363124966621399,0.9375],"min":[0.0625,0.9362499713897705,0.0625],"type":"VEC3"},{"bufferView":14,"componentType":5126,"count":24,"max":[1,1,1],"min":[-1,-1,-1],"type":"VEC3"},{"bufferView":15,"componentType":5126,"count":24,"max":[1,1],"min":[0,0],"type":"VEC2"},{"bufferView":16,"componentType":5123,"count":6,"max":[15],"min":[12],"type":"SCALAR"},{"bufferView":17,"componentType":5126,"count":24,"max":[0.9375,0.9375,0.9363124966621399],"min":[0.0625,0.5,0.9362499713897705],"type":"VEC3"},{"bufferView":18,"componentType":5126,"count":24,"max":[1,1,1],"min":[-1,-1,-1],"type":"VEC3"},{"bufferView":19,"componentType":5126,"count":24,"max":[1,1],"min":[0,0],"type":"VEC2"},{"bufferView":20,"componentType":5123,"count":6,"max":[23],"min":[20],"type":"SCALAR"},{"bufferView":21,"componentType":5126,"count":24,"max":[0.9375,0.9375,0.0638125017285347],"min":[0.0625,0.5,0.0637499988079071],"type":"VEC3"},{"bufferView":22,"componentType":5126,"count":24,"max":[1,1,1],"min":[-1,-1,-1],"type":"VEC3"},{"bufferView":23,"componentType":5126,"count":24,"max":[1,1],"min":[0,0],"type":"VEC2"},{"bufferView":24,"componentType":5123,"count":6,"max":[19],"min":[16],"type":"SCALAR"},{"bufferView":25,"componentType":5126,"count":24,"max":[0.9363124966621399,0.9375,0.9375],"min":[0.9362499713897705,0.5,0.0625],"type":"VEC3"},{"bufferView":26,"componentType":5126,"count":24,"max":[1,1,1],"min":[-1,-1,-1],"type":"VEC3"},{"bufferView":27,"componentType":5126,"count":24,"max":[1,1],"min":[0,0],"type":"VEC2"},{"bufferView":28,"componentType":5123,"count":6,"max":[7],"min":[4],"type":"SCALAR"},{"bufferView":29,"componentType":5126,"count":24,"max":[0.0638125017285347,0.9375,0.9375],"min":[0.0637499988079071,0.5,0.0625],"type":"VEC3"},{"bufferView":30,"componentType":5126,"count":24,"max":[1,1,1],"min":[-1,-1,-1],"type":"VEC3"},{"bufferView":31,"componentType":5126,"count":24,"max":[1,1],"min":[0,0],"type":"VEC2"},{"bufferView":32,"componentType":5123,"count":6,"max":[3],"min":[0],"type":"SCALAR"}],"materials":[{"pbrMetallicRoughness":{"metallicFactor":0,"roughnessFactor":1,"baseColorTexture":{"index":0}},"alphaMode":"MASK","alphaCutoff":0.05},{"pbrMetallicRoughness":{"metallicFactor":0,"roughnessFactor":1,"baseColorTexture":{"index":1}},"alphaMode":"MASK","alphaCutoff":0.05},{"pbrMetallicRoughness":{"metallicFactor":0,"roughnessFactor":1,"baseColorTexture":{"index":2}},"alphaMode":"MASK","alphaCutoff":0.05},{"pbrMetallicRoughness":{"metallicFactor":0,"roughnessFactor":1,"baseColorTexture":{"index":3}},"alphaMode":"MASK","alphaCutoff":0.05}],"textures":[{"sampler":0,"source":0},{"sampler":1,"source":1},{"sampler":2,"source":2},{"sampler":3,"source":3}],"samplers":[{"magFilter":9728,"minFilter":9728,"wrapS":33071,"wrapT":33071},{"magFilter":9728,"minFilter":9728,"wrapS":33071,"wrapT":33071},{"magFilter":9728,"minFilter":9728,"wrapS":33071,"wrapT":33071},{"magFilter":9728,"minFilter":9728,"wrapS":33071,"wrapT":33071}],"images":[{"mimeType":"image/png","uri":"data:image/png;base64,"},{"mimeType":"image/png","uri":"data:image/png;base64,"},{"mimeType":"image/png","uri":"data:image/png;base64,"},{"mimeType":"image/png","uri":"data:image/png;base64,"}],"meshes":[{"primitives":[{"mode":4,"attributes":{"POSITION":0,"NORMAL":1,"TEXCOORD_0":2},"indices":3,"material":0},{"mode":4,"attributes":{"POSITION":0,"NORMAL":1,"TEXCOORD_0":2},"indices":4,"material":1},{"mode":4,"attributes":{"POSITION":0,"NORMAL":1,"TEXCOORD_0":2},"indices":5,"material":2},{"mode":4,"attributes":{"POSITION":0,"NORMAL":1,"TEXCOORD_0":2},"indices":6,"material":0}]},{"primitives":[{"mode":4,"attributes":{"POSITION":7,"NORMAL":8,"TEXCOORD_0":9},"indices":10,"material":0},{"mode":4,"attributes":{"POSITION":7,"NORMAL":8,"TEXCOORD_0":9},"indices":11,"material":3},{"mode":4,"attributes":{"POSITION":7,"NORMAL":8,"TEXCOORD_0":9},"indices":12,"material":0}]},{"primitives":[{"mode":4,"attributes":{"POSITION":13,"NORMAL":14,"TEXCOORD_0":15},"indices":16,"material":3}]},{"primitives":[{"mode":4,"attributes":{"POSITION":17,"NORMAL":18,"TEXCOORD_0":19},"indices":20,"material":0}]},{"primitives":[{"mode":4,"attributes":{"POSITION":21,"NORMAL":22,"TEXCOORD_0":23},"indices":24,"material":0}]},{"primitives":[{"mode":4,"attributes":{"POSITION":25,"NORMAL":26,"TEXCOORD_0":27},"indices":28,"material":0}]},{"primitives":[{"mode":4,"attributes":{"POSITION":29,"NORMAL":30,"TEXCOORD_0":31},"indices":32,"material":0}]}]}