{"asset":{"version":"2.0","generator":"Blockbench 4.4.2 glTF exporter"},"scenes":[{"nodes":[13],"name":"blockbench_export"}],"scene":0,"nodes":[{"translation":[0,0,0.5],"name":"cube","mesh":0},{"translation":[0,0,0.5],"name":"cube","mesh":1},{"translation":[0,0,0.5],"name":"cube","mesh":2},{"translation":[0,0,0.5],"name":"cube","mesh":3},{"translation":[0,0,0.5],"name":"cube","mesh":4},{"translation":[0,0,0.5],"name":"cube","mesh":5},{"translation":[0,0,0.5],"name":"cube","mesh":6},{"translation":[0,0,0.5],"name":"cube","mesh":7},{"translation":[0,0,0.5],"name":"cube","mesh":8},{"translation":[0,0,0.5],"name":"cube","mesh":9},{"translation":[0,0,0.5],"name":"cube","mesh":10},{"translation":[0,0,0.5],"name":"cube","mesh":11},{"name":"group"},{"children":[0,1,2,3,4,5,6,7,8,9,10,11,12]}],"bufferViews":[{"buffer":0,"byteOffset":0,"byteLength":288,"target":34962,"byteStride":12},{"buffer":0,"byteOffset":288,"byteLength":288,"target":34962,"byteStride":12},{"buffer":0,"byteOffset":576,"byteLength":192,"target":34962,"byteStride":8},{"buffer":0,"byteOffset":768,"byteLength":24,"target":34963},{"buffer":0,"byteOffset":792,"byteLength":12,"target":34963},{"buffer":0,"byteOffset":804,"byteLength":288,"target":34962,"byteStride":12},{"buffer":0,"byteOffset":1092,"byteLength":288,"target":34962,"byteStride":12},{"buffer":0,"byteOffset":1380,"byteLength":192,"target":34962,"byteStride":8},{"buffer":0,"byteOffset":1572,"byteLength":24,"target":34963},{"buffer":0,"byteOffset":1596,"byteLength":24,"target":34963},{"buffer":0,"byteOffset":1620,"byteLength":288,"target":34962,"byteStride":12},{"buffer":0,"byteOffset":1908,"byteLength":288,"target":34962,"byteStride":12},{"buffer":0,"byteOffset":2196,"byteLength":192,"target":34962,"byteStride":8},{"buffer":0,"byteOffset":2388,"byteLength":24,"target":34963},{"buffer":0,"byteOffset":2412,"byteLength":24,"target":34963},{"buffer":0,"byteOffset":2436,"byteLength":24,"target":34963},{"buffer":0,"byteOffset":2460,"byteLength":288,"target":34962,"byteStride":12},{"buffer":0,"byteOffset":2748,"byteLength":288,"target":34962,"byteStride":12},{"buffer":0,"byteOffset":3036,"byteLength":192,"target":34962,"byteStride":8},{"buffer":0,"byteOffset":3228,"byteLength":24,"target":34963},{"buffer":0,"byteOffset":3252,"byteLength":24,"target":34963},{"buffer":0,"byteOffset":3276,"byteLength":288,"target":34962,"byteStride":12},{"buffer":0,"byteOffset":3564,"byteLength":288,"target":34962,"byteStride":12},{"buffer":0,"byteOffset":3852,"byteLength":192,"target":34962,"byteStride":8},{"buffer":0,"byteOffset":4044,"byteLength":24,"target":34963},{"buffer":0,"byteOffset":4068,"byteLength":24,"target":34963},{"buffer":0,"byteOffset":4092,"byteLength":288,"target":34962,"byteStride":12},{"buffer":0,"byteOffset":4380,"byteLength":288,"target":34962,"byteStride":12},{"buffer":0,"byteOffset":4668,"byteLength":192,"target":34962,"byteStride":8},{"buffer":0,"byteOffset":4860,"byteLength":24,"target":34963},{"buffer":0,"byteOffset":4884,"byteLength":24,"target":34963},{"buffer":0,"byteOffset":4908,"byteLength":288,"target":34962,"byteStride":12},{"buffer":0,"byteOffset":5196,"byteLength":288,"target":34962,"byteStride":12},{"buffer":0,"byteOffset":5484,"byteLength":192,"target":34962,"byteStride":8},{"buffer":0,"byteOffset":5676,"byteLength":72,"target":34963},{"buffer":0,"byteOffset":5748,"byteLength":288,"target":34962,"byteStride":12},{"buffer":0,"byteOffset":6036,"byteLength":288,"target":34962,"byteStride":12},{"buffer":0,"byteOffset":6324,"byteLength":192,"target":34962,"byteStride":8},{"buffer":0,"byteOffset":6516,"byteLength":72,"target":34963},{"buffer":0,"byteOffset":6588,"byteLength":288,"target":34962,"byteStride":12},{"buffer":0,"byteOffset":6876,"byteLength":288,"target":34962,"byteStride":12},{"buffer":0,"byteOffset":7164,"byteLength":192,"target":34962,"byteStride":8},{"buffer":0,"byteOffset":7356,"byteLength":72,"target":34963},{"buffer":0,"byteOffset":7428,"byteLength":288,"target":34962,"byteStride":12},{"buffer":0,"byteOffset":7716,"byteLength":288,"target":34962,"byteStride":12},{"buffer":0,"byteOffset":8004,"byteLength":192,"target":34962,"byteStride":8},{"buffer":0,"byteOffset":8196,"byteLength":72,"target":34963},{"buffer":0,"byteOffset":8268,"byteLength":288,"target":34962,"byteStride":12},{"buffer":0,"byteOffset":8556,"byteLength":288,"target":34962,"byteStride":12},{"buffer":0,"byteOffset":8844,"byteLength":192,"target":34962,"byteStride":8},{"buffer":0,"byteOffset":9036,"byteLength":12,"target":34963},{"buffer":0,"byteOffset":9048,"byteLength":60,"target":34963},{"buffer":0,"byteOffset":9108,"byteLength":288,"target":34962,"byteStride":12},{"buffer":0,"byteOffset":9396,"byteLength":288,"target":34962,"byteStride":12},{"buffer":0,"byteOffset":9684,"byteLength":192,"target":34962,"byteStride":8},{"buffer":0,"byteOffset":9876,"byteLength":72,"target":34963}],"buffers":[{"byteLength":9948,"uri":"data:application/octet-stream;base64,"}],"accessors":[{"bufferView":0,"componentType":5126,"count":24,"max":[0.1875,0.0625,0.34375],"min":[0,0,-0.34375],"type":"VEC3"},{"bufferView":1,"componentType":5126,"count":24,"max":[1,1,1],"min":[-1,-1,-1],"type":"VEC3"},{"bufferView":2,"componentType":5126,"count":24,"max":[1,1],"min":[0,0],"type":"VEC2"},{"bufferView":3,"componentType":5123,"count":12,"max":[7],"min":[0],"type":"SCALAR"},{"bufferView":4,"componentType":5123,"count":6,"max":[11],"min":[8],"type":"SCALAR"},{"bufferView":5,"componentType":5126,"count":24,"max":[0.1875,0.8125,0.5],"min":[0,0,0.34375],"type":"VEC3"},{"bufferView":6,"componentType":5126,"count":24,"max":[1,1,1],"min":[-1,-1,-1],"type":"VEC3"},{"bufferView":7,"componentType":5126,"count":24,"max":[1,1],"min":[0,0],"type":"VEC2"},{"bufferView":8,"componentType":5123,"count":12,"max":[7],"min":[0],"type":"SCALAR"},{"bufferView":9,"componentType":5123,"count":12,"max":[23],"min":[16],"type":"SCALAR"},{"bufferView":10,"componentType":5126,"count":24,"max":[0.1875,1,0.5],"min":[0,0.8125,-0.5],"type":"VEC3"},{"bufferView":11,"componentType":5126,"count":24,"max":[1,1,1],"min":[-1,-1,-1],"type":"VEC3"},{"bufferView":12,"componentType":5126,"count":24,"max":[1,1],"min":[0,0.8125],"type":"VEC2"},{"bufferView":13,"componentType":5123,"count":12,"max":[7],"min":[0],"type":"SCALAR"},{"bufferView":14,"componentType":5123,"count":12,"max":[15],"min":[8],"type":"SCALAR"},{"bufferView":15,"componentType":5123,"count":12,"max":[23],"min":[16],"type":"SCALAR"},{"bufferView":16,"componentType":5126,"count":24,"max":[0.1875,0.8125,-0.34375],"min":[0,0,-0.5],"type":"VEC3"},{"bufferView":17,"componentType":5126,"count":24,"max":[1,1,1],"min":[-1,-1,-1],"type":"VEC3"},{"bufferView":18,"componentType":5126,"count":24,"max":[1,1],"min":[0,0],"type":"VEC2"},{"bufferView":19,"componentType":5123,"count":12,"max":[7],"min":[0],"type":"SCALAR"},{"bufferView":20,"componentType":5123,"count":12,"max":[23],"min":[16],"type":"SCALAR"},{"bufferView":21,"componentType":5126,"count":24,"max":[0.1875,0.8125,0.1875],"min":[0,0.0625,0.0625],"type":"VEC3"},{"bufferView":22,"componentType":5126,"count":24,"max":[1,1,1],"min":[-1,-1,-1],"type":"VEC3"},{"bufferView":23,"componentType":5126,"count":24,"max":[1,1],"min":[0,0],"type":"VEC2"},{"bufferView":24,"componentType":5123,"count":12,"max":[7],"min":[0],"type":"SCALAR"},{"bufferView":25,"componentType":5123,"count":12,"max":[23],"min":[16],"type":"SCALAR"},{"bufferView":26,"componentType":5126,"count":24,"max":[0.1875,0.8125,-0.0625],"min":[0,0.0625,-0.1875],"type":"VEC3"},{"bufferView":27,"componentType":5126,"count":24,"max":[1,1,1],"min":[-1,-1,-1],"type":"VEC3"},{"bufferView":28,"componentType":5126,"count":24,"max":[1,1],"min":[0,0],"type":"VEC2"},{"bufferView":29,"componentType":5123,"count":12,"max":[7],"min":[0],"type":"SCALAR"},{"bufferView":30,"componentType":5123,"count":12,"max":[23],"min":[16],"type":"SCALAR"},{"bufferView":31,"componentType":5126,"count":24,"max":[0.046875,0.0625,0.515625],"min":[-0.015625,0,0.4375],"type":"VEC3"},{"bufferView":32,"componentType":5126,"count":24,"max":[1,1,1],"min":[-1,-1,-1],"type":"VEC3"},{"bufferView":33,"componentType":5126,"count":24,"max":[0.0625,0.0625],"min":[0,0],"type":"VEC2"},{"bufferView":34,"componentType":5123,"count":36,"max":[23],"min":[0],"type":"SCALAR"},{"bufferView":35,"componentType":5126,"count":24,"max":[0.203125,0.0625,0.515625],"min":[0.140625,0,0.4375],"type":"VEC3"},{"bufferView":36,"componentType":5126,"count":24,"max":[1,1,1],"min":[-1,-1,-1],"type":"VEC3"},{"bufferView":37,"componentType":5126,"count":24,"max":[0.0625,0.0625],"min":[0,0],"type":"VEC2"},{"bufferView":38,"componentType":5123,"count":36,"max":[23],"min":[0],"type":"SCALAR"},{"bufferView":39,"componentType":5126,"count":24,"max":[0.046875,0.71875,0.515625],"min":[-0.015625,0.59375,0.4375],"type":"VEC3"},{"bufferView":40,"componentType":5126,"count":24,"max":[1,1,1],"min":[-1,-1,-1],"type":"VEC3"},{"bufferView":41,"componentType":5126,"count":24,"max":[0.0625,0.75],"min":[0,0.625],"type":"VEC2"},{"bufferView":42,"componentType":5123,"count":36,"max":[23],"min":[0],"type":"SCALAR"},{"bufferView":43,"componentType":5126,"count":24,"max":[0.203125,0.71875,0.515625],"min":[0.140625,0.59375,0.4375],"type":"VEC3"},{"bufferView":44,"componentType":5126,"count":24,"max":[1,1,1],"min":[-1,-1,-1],"type":"VEC3"},{"bufferView":45,"componentType":5126,"count":24,"max":[0.0625,0.75],"min":[0,0.625],"type":"VEC2"},{"bufferView":46,"componentType":5123,"count":36,"max":[23],"min":[0],"type":"SCALAR"},{"bufferView":47,"componentType":5126,"count":24,"max":[0,0.03125,-0.28125],"min":[-0.015625,0,-0.46875],"type":"VEC3"},{"bufferView":48,"componentType":5126,"count":24,"max":[1,1,1],"min":[-1,-1,-1],"type":"VEC3"},{"bufferView":49,"componentType":5126,"count":24,"max":[0.96875,1],"min":[0,0],"type":"VEC2"},{"bufferView":50,"componentType":5123,"count":6,"max":[3],"min":[0],"type":"SCALAR"},{"bufferView":51,"componentType":5123,"count":30,"max":[23],"min":[4],"type":"SCALAR"},{"bufferView":52,"componentType":5126,"count":24,"max":[0.203125,0.03125,-0.28125],"min":[0.1875,0,-0.46875],"type":"VEC3"},{"bufferView":53,"componentType":5126,"count":24,"max":[1,1,1],"min":[-1,-1,-1],"type":"VEC3"},{"bufferView":54,"componentType":5126,"count":24,"max":[0.96875,0.71875],"min":[0,0],"type":"VEC2"},{"bufferView":55,"componentType":5123,"count":36,"max":[23],"min":[0],"type":"SCALAR"}],"materials":[{"pbrMetallicRoughness":{"metallicFactor":0,"roughnessFactor":1,"baseColorTexture":{"index":0}},"alphaMode":"MASK","alphaCutoff":0.05},{"pbrMetallicRoughness":{"metallicFactor":0,"roughnessFactor":1,"baseColorTexture":{"index":1}},"alphaMode":"MASK","alphaCutoff":0.05},{"pbrMetallicRoughness":{"metallicFactor":0,"roughnessFactor":1,"baseColorTexture":{"index":2}},"alphaMode":"MASK","alphaCutoff":0.05},{"pbrMetallicRoughness":{"metallicFactor":0,"roughnessFactor":1},"alphaMode":"MASK","alphaCutoff":0.05}],"textures":[{"sampler":0,"source":0},{"sampler":1,"source":1},{"sampler":2,"source":2}],"samplers":[{"magFilter":9728,"minFilter":9728,"wrapS":33071,"wrapT":33071},{"magFilter":9728,"minFilter":9728,"wrapS":33071,"wrapT":33071},{"magFilter":9728,"minFilter":9728,"wrapS":33071,"wrapT":33071}],"images":[{"mimeType":"image/png","uri":"data:image/png;base64,"},{"mimeType":"image/png","uri":"data:image/png;base64,"},{"mimeType":"image/png","uri":"data:image/png;base64,"}],"meshes":[{"primitives":[{"mode":4,"attributes":{"POSITION":0,"NORMAL":1,"TEXCOORD_0":2},"indices":3,"material":0},{"mode":4,"attributes":{"POSITION":0,"NORMAL":1,"TEXCOORD_0":2},"indices":4,"material":1}]},{"primitives":[{"mode":4,"attributes":{"POSITION":5,"NORMAL":6,"TEXCOORD_0":7},"indices":8,"material":0},{"mode":4,"attributes":{"POSITION":5,"NORMAL":6,"TEXCOORD_0":7},"indices":9,"material":1}]},{"primitives":[{"mode":4,"attributes":{"POSITION":10,"NORMAL":11,"TEXCOORD_0":12},"indices":13,"material":0},{"mode":4,"attributes":{"POSITION":10,"NORMAL":11,"TEXCOORD_0":12},"indices":14,"material":2},{"mode":4,"attributes":{"POSITION":10,"NORMAL":11,"TEXCOORD_0":12},"indices":15,"material":1}]},{"primitives":[{"mode":4,"attributes":{"POSITION":16,"NORMAL":17,"TEXCOORD_0":18},"indices":19,"material":0},{"mode":4,"attributes":{"POSITION":16,"NORMAL":17,"TEXCOORD_0":18},"indices":20,"material":1}]},{"primitives":[{"mode":4,"attributes":{"POSITION":21,"NORMAL":22,"TEXCOORD_0":23},"indices":24,"material":0},{"mode":4,"attributes":{"POSITION":21,"NORMAL":22,"TEXCOORD_0":23},"indices":25,"material":1}]},{"primitives":[{"mode":4,"attributes":{"POSITION":26,"NORMAL":27,"TEXCOORD_0":28},"indices":29,"material":0},{"mode":4,"attributes":{"POSITION":26,"NORMAL":27,"TEXCOORD_0":28},"indices":30,"material":1}]},{"primitives":[{"mode":4,"attributes":{"POSITION":31,"NORMAL":32,"TEXCOORD_0":33},"indices":34,"material":0}]},{"primitives":[{"mode":4,"attributes":{"POSITION":35,"NORMAL":36,"TEXCOORD_0":37},"indices":38,"material":0}]},{"primitives":[{"mode":4,"attributes":{"POSITION":39,"NORMAL":40,"TEXCOORD_0":41},"indices":42,"material":0}]},{"primitives":[{"mode":4,"attributes":{"POSITION":43,"NORMAL":44,"TEXCOORD_0":45},"indices":46,"material":0}]},{"primitives":[{"mode":4,"attributes":{"POSITION":47,"NORMAL":48,"TEXCOORD_0":49},"indices":50,"material":3},{"mode":4,"attributes":{"POSITION":47,"NORMAL":48,"TEXCOORD_0":49},"indices":51,"material":0}]},{"primitives":[{"mode":4,"attributes":{"POSITION":52,"NORMAL":53,"TEXCOORD_0":54},"indices":55,"material":0}]}]}