{"asset":{"version":"2.0","generator":"Blockbench 4.4.2 glTF exporter"},"scenes":[{"nodes":[14],"name":"blockbench_export"}],"scene":0,"nodes":[{"name":"cube","mesh":0},{"name":"cube","mesh":1},{"name":"cube","mesh":2},{"name":"cube","mesh":3},{"name":"cube","mesh":4},{"name":"cube","mesh":5},{"name":"cube","mesh":6},{"name":"cube","mesh":7},{"name":"cube","mesh":8},{"name":"cube","mesh":9},{"name":"cube","mesh":10},{"name":"cube","mesh":11},{"name":"cube","mesh":12},{"name":"cube","mesh":13},{"children":[0,1,2,3,4,5,6,7,8,9,10,11,12,13]}],"bufferViews":[{"buffer":0,"byteOffset":0,"byteLength":288,"target":34962,"byteStride":12},{"buffer":0,"byteOffset":288,"byteLength":288,"target":34962,"byteStride":12},{"buffer":0,"byteOffset":576,"byteLength":192,"target":34962,"byteStride":8},{"buffer":0,"byteOffset":768,"byteLength":24,"target":34963},{"buffer":0,"byteOffset":792,"byteLength":12,"target":34963},{"buffer":0,"byteOffset":804,"byteLength":12,"target":34963},{"buffer":0,"byteOffset":816,"byteLength":24,"target":34963},{"buffer":0,"byteOffset":840,"byteLength":288,"target":34962,"byteStride":12},{"buffer":0,"byteOffset":1128,"byteLength":288,"target":34962,"byteStride":12},{"buffer":0,"byteOffset":1416,"byteLength":192,"target":34962,"byteStride":8},{"buffer":0,"byteOffset":1608,"byteLength":24,"target":34963},{"buffer":0,"byteOffset":1632,"byteLength":288,"target":34962,"byteStride":12},{"buffer":0,"byteOffset":1920,"byteLength":288,"target":34962,"byteStride":12},{"buffer":0,"byteOffset":2208,"byteLength":192,"target":34962,"byteStride":8},{"buffer":0,"byteOffset":2400,"byteLength":24,"target":34963},{"buffer":0,"byteOffset":2424,"byteLength":12,"target":34963},{"buffer":0,"byteOffset":2436,"byteLength":12,"target":34963},{"buffer":0,"byteOffset":2448,"byteLength":24,"target":34963},{"buffer":0,"byteOffset":2472,"byteLength":288,"target":34962,"byteStride":12},{"buffer":0,"byteOffset":2760,"byteLength":288,"target":34962,"byteStride":12},{"buffer":0,"byteOffset":3048,"byteLength":192,"target":34962,"byteStride":8},{"buffer":0,"byteOffset":3240,"byteLength":12,"target":34963},{"buffer":0,"byteOffset":3252,"byteLength":12,"target":34963},{"buffer":0,"byteOffset":3264,"byteLength":24,"target":34963},{"buffer":0,"byteOffset":3288,"byteLength":288,"target":34962,"byteStride":12},{"buffer":0,"byteOffset":3576,"byteLength":288,"target":34962,"byteStride":12},{"buffer":0,"byteOffset":3864,"byteLength":192,"target":34962,"byteStride":8},{"buffer":0,"byteOffset":4056,"byteLength":12,"target":34963},{"buffer":0,"byteOffset":4068,"byteLength":12,"target":34963},{"buffer":0,"byteOffset":4080,"byteLength":24,"target":34963},{"buffer":0,"byteOffset":4104,"byteLength":288,"target":34962,"byteStride":12},{"buffer":0,"byteOffset":4392,"byteLength":288,"target":34962,"byteStride":12},{"buffer":0,"byteOffset":4680,"byteLength":192,"target":34962,"byteStride":8},{"buffer":0,"byteOffset":4872,"byteLength":24,"target":34963},{"buffer":0,"byteOffset":4896,"byteLength":12,"target":34963},{"buffer":0,"byteOffset":4908,"byteLength":24,"target":34963},{"buffer":0,"byteOffset":4932,"byteLength":288,"target":34962,"byteStride":12},{"buffer":0,"byteOffset":5220,"byteLength":288,"target":34962,"byteStride":12},{"buffer":0,"byteOffset":5508,"byteLength":192,"target":34962,"byteStride":8},{"buffer":0,"byteOffset":5700,"byteLength":24,"target":34963},{"buffer":0,"byteOffset":5724,"byteLength":12,"target":34963},{"buffer":0,"byteOffset":5736,"byteLength":12,"target":34963},{"buffer":0,"byteOffset":5748,"byteLength":288,"target":34962,"byteStride":12},{"buffer":0,"byteOffset":6036,"byteLength":288,"target":34962,"byteStride":12},{"buffer":0,"byteOffset":6324,"byteLength":192,"target":34962,"byteStride":8},{"buffer":0,"byteOffset":6516,"byteLength":24,"target":34963},{"buffer":0,"byteOffset":6540,"byteLength":12,"target":34963},{"buffer":0,"byteOffset":6552,"byteLength":24,"target":34963},{"buffer":0,"byteOffset":6576,"byteLength":288,"target":34962,"byteStride":12},{"buffer":0,"byteOffset":6864,"byteLength":288,"target":34962,"byteStride":12},{"buffer":0,"byteOffset":7152,"byteLength":192,"target":34962,"byteStride":8},{"buffer":0,"byteOffset":7344,"byteLength":24,"target":34963},{"buffer":0,"byteOffset":7368,"byteLength":12,"target":34963},{"buffer":0,"byteOffset":7380,"byteLength":12,"target":34963},{"buffer":0,"byteOffset":7392,"byteLength":288,"target":34962,"byteStride":12},{"buffer":0,"byteOffset":7680,"byteLength":288,"target":34962,"byteStride":12},{"buffer":0,"byteOffset":7968,"byteLength":192,"target":34962,"byteStride":8},{"buffer":0,"byteOffset":8160,"byteLength":24,"target":34963},{"buffer":0,"byteOffset":8184,"byteLength":12,"target":34963},{"buffer":0,"byteOffset":8196,"byteLength":24,"target":34963},{"buffer":0,"byteOffset":8220,"byteLength":288,"target":34962,"byteStride":12},{"buffer":0,"byteOffset":8508,"byteLength":288,"target":34962,"byteStride":12},{"buffer":0,"byteOffset":8796,"byteLength":192,"target":34962,"byteStride":8},{"buffer":0,"byteOffset":8988,"byteLength":24,"target":34963},{"buffer":0,"byteOffset":9012,"byteLength":12,"target":34963},{"buffer":0,"byteOffset":9024,"byteLength":12,"target":34963},{"buffer":0,"byteOffset":9036,"byteLength":288,"target":34962,"byteStride":12},{"buffer":0,"byteOffset":9324,"byteLength":288,"target":34962,"byteStride":12},{"buffer":0,"byteOffset":9612,"byteLength":192,"target":34962,"byteStride":8},{"buffer":0,"byteOffset":9804,"byteLength":24,"target":34963},{"buffer":0,"byteOffset":9828,"byteLength":12,"target":34963},{"buffer":0,"byteOffset":9840,"byteLength":24,"target":34963},{"buffer":0,"byteOffset":9864,"byteLength":288,"target":34962,"byteStride":12},{"buffer":0,"byteOffset":10152,"byteLength":288,"target":34962,"byteStride":12},{"buffer":0,"byteOffset":10440,"byteLength":192,"target":34962,"byteStride":8},{"buffer":0,"byteOffset":10632,"byteLength":24,"target":34963},{"buffer":0,"byteOffset":10656,"byteLength":12,"target":34963},{"buffer":0,"byteOffset":10668,"byteLength":12,"target":34963},{"buffer":0,"byteOffset":10680,"byteLength":288,"target":34962,"byteStride":12},{"buffer":0,"byteOffset":10968,"byteLength":288,"target":34962,"byteStride":12},{"buffer":0,"byteOffset":11256,"byteLength":192,"target":34962,"byteStride":8},{"buffer":0,"byteOffset":11448,"byteLength":12,"target":34963}],"buffers":[{"byteLength":11460,"uri":"data:application/octet-stream;base64,"}],"accessors":[{"bufferView":0,"componentType":5126,"count":24,"max":[0.125,1,1],"min":[0,0.1875,0],"type":"VEC3"},{"bufferView":1,"componentType":5126,"count":24,"max":[1,1,1],"min":[-1,-1,-1],"type":"VEC3"},{"bufferView":2,"componentType":5126,"count":24,"max":[1,1],"min":[0,0],"type":"VEC2"},{"bufferView":3,"componentType":5123,"count":12,"max":[7],"min":[0],"type":"SCALAR"},{"bufferView":4,"componentType":5123,"count":6,"max":[11],"min":[8],"type":"SCALAR"},{"bufferView":5,"componentType":5123,"count":6,"max":[15],"min":[12],"type":"SCALAR"},{"bufferView":6,"componentType":5123,"count":12,"max":[23],"min":[16],"type":"SCALAR"},{"bufferView":7,"componentType":5126,"count":24,"max":[0.875,0.25,0.875],"min":[0.125,0.1875,0.125],"type":"VEC3"},{"bufferView":8,"componentType":5126,"count":24,"max":[1,1,1],"min":[-1,-1,-1],"type":"VEC3"},{"bufferView":9,"componentType":5126,"count":24,"max":[1,1],"min":[0,0],"type":"VEC2"},{"bufferView":10,"componentType":5123,"count":12,"max":[15],"min":[8],"type":"SCALAR"},{"bufferView":11,"componentType":5126,"count":24,"max":[1,1,1],"min":[0.875,0.1875,0],"type":"VEC3"},{"bufferView":12,"componentType":5126,"count":24,"max":[1,1,1],"min":[-1,-1,-1],"type":"VEC3"},{"bufferView":13,"componentType":5126,"count":24,"max":[1,1],"min":[0,0],"type":"VEC2"},{"bufferView":14,"componentType":5123,"count":12,"max":[7],"min":[0],"type":"SCALAR"},{"bufferView":15,"componentType":5123,"count":6,"max":[11],"min":[8],"type":"SCALAR"},{"bufferView":16,"componentType":5123,"count":6,"max":[15],"min":[12],"type":"SCALAR"},{"bufferView":17,"componentType":5123,"count":12,"max":[23],"min":[16],"type":"SCALAR"},{"bufferView":18,"componentType":5126,"count":24,"max":[0.875,1,0.125],"min":[0.125,0.1875,0],"type":"VEC3"},{"bufferView":19,"componentType":5126,"count":24,"max":[1,1,1],"min":[-1,-1,-1],"type":"VEC3"},{"bufferView":20,"componentType":5126,"count":24,"max":[1,1],"min":[0,0],"type":"VEC2"},{"bufferView":21,"componentType":5123,"count":6,"max":[11],"min":[8],"type":"SCALAR"},{"bufferView":22,"componentType":5123,"count":6,"max":[15],"min":[12],"type":"SCALAR"},{"bufferView":23,"componentType":5123,"count":12,"max":[23],"min":[16],"type":"SCALAR"},{"bufferView":24,"componentType":5126,"count":24,"max":[0.875,1,1],"min":[0.125,0.1875,0.875],"type":"VEC3"},{"bufferView":25,"componentType":5126,"count":24,"max":[1,1,1],"min":[-1,-1,-1],"type":"VEC3"},{"bufferView":26,"componentType":5126,"count":24,"max":[1,1],"min":[0,0],"type":"VEC2"},{"bufferView":27,"componentType":5123,"count":6,"max":[11],"min":[8],"type":"SCALAR"},{"bufferView":28,"componentType":5123,"count":6,"max":[15],"min":[12],"type":"SCALAR"},{"bufferView":29,"componentType":5123,"count":12,"max":[23],"min":[16],"type":"SCALAR"},{"bufferView":30,"componentType":5126,"count":24,"max":[0.25,0.1875,0.125],"min":[0,0,0],"type":"VEC3"},{"bufferView":31,"componentType":5126,"count":24,"max":[1,1,1],"min":[-1,-1,-1],"type":"VEC3"},{"bufferView":32,"componentType":5126,"count":24,"max":[1,1],"min":[0,0],"type":"VEC2"},{"bufferView":33,"componentType":5123,"count":12,"max":[7],"min":[0],"type":"SCALAR"},{"bufferView":34,"componentType":5123,"count":6,"max":[15],"min":[12],"type":"SCALAR"},{"bufferView":35,"componentType":5123,"count":12,"max":[23],"min":[16],"type":"SCALAR"},{"bufferView":36,"componentType":5126,"count":24,"max":[0.125,0.1875,0.25],"min":[0,0,0.125],"type":"VEC3"},{"bufferView":37,"componentType":5126,"count":24,"max":[1,1,1],"min":[-1,-1,-1],"type":"VEC3"},{"bufferView":38,"componentType":5126,"count":24,"max":[1,1],"min":[0,0],"type":"VEC2"},{"bufferView":39,"componentType":5123,"count":12,"max":[7],"min":[0],"type":"SCALAR"},{"bufferView":40,"componentType":5123,"count":6,"max":[15],"min":[12],"type":"SCALAR"},{"bufferView":41,"componentType":5123,"count":6,"max":[19],"min":[16],"type":"SCALAR"},{"bufferView":42,"componentType":5126,"count":24,"max":[1,0.1875,0.125],"min":[0.75,0,0],"type":"VEC3"},{"bufferView":43,"componentType":5126,"count":24,"max":[1,1,1],"min":[-1,-1,-1],"type":"VEC3"},{"bufferView":44,"componentType":5126,"count":24,"max":[1,1],"min":[0,0],"type":"VEC2"},{"bufferView":45,"componentType":5123,"count":12,"max":[7],"min":[0],"type":"SCALAR"},{"bufferView":46,"componentType":5123,"count":6,"max":[15],"min":[12],"type":"SCALAR"},{"bufferView":47,"componentType":5123,"count":12,"max":[23],"min":[16],"type":"SCALAR"},{"bufferView":48,"componentType":5126,"count":24,"max":[1,0.1875,0.25],"min":[0.875,0,0.125],"type":"VEC3"},{"bufferView":49,"componentType":5126,"count":24,"max":[1,1,1],"min":[-1,-1,-1],"type":"VEC3"},{"bufferView":50,"componentType":5126,"count":24,"max":[1,1],"min":[0,0],"type":"VEC2"},{"bufferView":51,"componentType":5123,"count":12,"max":[7],"min":[0],"type":"SCALAR"},{"bufferView":52,"componentType":5123,"count":6,"max":[15],"min":[12],"type":"SCALAR"},{"bufferView":53,"componentType":5123,"count":6,"max":[19],"min":[16],"type":"SCALAR"},{"bufferView":54,"componentType":5126,"count":24,"max":[0.25,0.1875,1],"min":[0,0,0.875],"type":"VEC3"},{"bufferView":55,"componentType":5126,"count":24,"max":[1,1,1],"min":[-1,-1,-1],"type":"VEC3"},{"bufferView":56,"componentType":5126,"count":24,"max":[1,1],"min":[0,0],"type":"VEC2"},{"bufferView":57,"componentType":5123,"count":12,"max":[7],"min":[0],"type":"SCALAR"},{"bufferView":58,"componentType":5123,"count":6,"max":[15],"min":[12],"type":"SCALAR"},{"bufferView":59,"componentType":5123,"count":12,"max":[23],"min":[16],"type":"SCALAR"},{"bufferView":60,"componentType":5126,"count":24,"max":[0.125,0.1875,0.875],"min":[0,0,0.75],"type":"VEC3"},{"bufferView":61,"componentType":5126,"count":24,"max":[1,1,1],"min":[-1,-1,-1],"type":"VEC3"},{"bufferView":62,"componentType":5126,"count":24,"max":[1,1],"min":[0,0],"type":"VEC2"},{"bufferView":63,"componentType":5123,"count":12,"max":[7],"min":[0],"type":"SCALAR"},{"bufferView":64,"componentType":5123,"count":6,"max":[15],"min":[12],"type":"SCALAR"},{"bufferView":65,"componentType":5123,"count":6,"max":[23],"min":[20],"type":"SCALAR"},{"bufferView":66,"componentType":5126,"count":24,"max":[1,0.1875,1],"min":[0.75,0,0.875],"type":"VEC3"},{"bufferView":67,"componentType":5126,"count":24,"max":[1,1,1],"min":[-1,-1,-1],"type":"VEC3"},{"bufferView":68,"componentType":5126,"count":24,"max":[1,1],"min":[0,0],"type":"VEC2"},{"bufferView":69,"componentType":5123,"count":12,"max":[7],"min":[0],"type":"SCALAR"},{"bufferView":70,"componentType":5123,"count":6,"max":[15],"min":[12],"type":"SCALAR"},{"bufferView":71,"componentType":5123,"count":12,"max":[23],"min":[16],"type":"SCALAR"},{"bufferView":72,"componentType":5126,"count":24,"max":[1,0.1875,0.875],"min":[0.875,0,0.75],"type":"VEC3"},{"bufferView":73,"componentType":5126,"count":24,"max":[1,1,1],"min":[-1,-1,-1],"type":"VEC3"},{"bufferView":74,"componentType":5126,"count":24,"max":[1,1],"min":[0,0],"type":"VEC2"},{"bufferView":75,"componentType":5123,"count":12,"max":[7],"min":[0],"type":"SCALAR"},{"bufferView":76,"componentType":5123,"count":6,"max":[15],"min":[12],"type":"SCALAR"},{"bufferView":77,"componentType":5123,"count":6,"max":[23],"min":[20],"type":"SCALAR"},{"bufferView":78,"componentType":5126,"count":24,"max":[0.875,0.5625,0.875],"min":[0.125,0.25,0.125],"type":"VEC3"},{"bufferView":79,"componentType":5126,"count":24,"max":[1,1,1],"min":[-1,-1,-1],"type":"VEC3"},{"bufferView":80,"componentType":5126,"count":24,"max":[1,1],"min":[0,0.0625],"type":"VEC2"},{"bufferView":81,"componentType":5123,"count":6,"max":[11],"min":[8],"type":"SCALAR"}],"materials":[{"pbrMetallicRoughness":{"metallicFactor":0,"roughnessFactor":1,"baseColorTexture":{"index":0}},"alphaMode":"MASK","alphaCutoff":0.05},{"pbrMetallicRoughness":{"metallicFactor":0,"roughnessFactor":1,"baseColorTexture":{"index":1}},"alphaMode":"MASK","alphaCutoff":0.05},{"pbrMetallicRoughness":{"metallicFactor":0,"roughnessFactor":1,"baseColorTexture":{"index":2}},"alphaMode":"MASK","alphaCutoff":0.05},{"pbrMetallicRoughness":{"metallicFactor":0,"roughnessFactor":1,"baseColorTexture":{"index":3}},"alphaMode":"MASK","alphaCutoff":0.05},{"pbrMetallicRoughness":{"metallicFactor":0,"roughnessFactor":1,"baseColorTexture":{"index":4}},"alphaMode":"MASK","alphaCutoff":0.05}],"textures":[{"sampler":0,"source":0},{"sampler":1,"source":1},{"sampler":2,"source":2},{"sampler":3,"source":3},{"sampler":4,"source":4}],"samplers":[{"magFilter":9728,"minFilter":9728,"wrapS":33071,"wrapT":33071},{"magFilter":9728,"minFilter":9728,"wrapS":33071,"wrapT":33071},{"magFilter":9728,"minFilter":9728,"wrapS":33071,"wrapT":33071},{"magFilter":9728,"minFilter":9728,"wrapS":33071,"wrapT":33071},{"magFilter":9728,"minFilter":9728,"wrapS":33071,"wrapT":33071}],"images":[{"mimeType":"image/png","uri":"data:image/png;base64,"},{"mimeType":"image/png","uri":"data:image/png;base64,"},{"mimeType":"image/png","uri":"data:image/png;base64,"},{"mimeType":"image/png","uri":"data:image/png;base64,"},{"mimeType":"image/png","uri":"data:image/png;base64,"}],"meshes":[{"primitives":[{"mode":4,"attributes":{"POSITION":0,"NORMAL":1,"TEXCOORD_0":2},"indices":3,"material":0},{"mode":4,"attributes":{"POSITION":0,"NORMAL":1,"TEXCOORD_0":2},"indices":4,"material":1},{"mode":4,"attributes":{"POSITION":0,"NORMAL":1,"TEXCOORD_0":2},"indices":5,"material":2},{"mode":4,"attributes":{"POSITION":0,"NORMAL":1,"TEXCOORD_0":2},"indices":6,"material":0}]},{"primitives":[{"mode":4,"attributes":{"POSITION":7,"NORMAL":8,"TEXCOORD_0":9},"indices":10,"material":2}]},{"primitives":[{"mode":4,"attributes":{"POSITION":11,"NORMAL":12,"TEXCOORD_0":13},"indices":14,"material":0},{"mode":4,"attributes":{"POSITION":11,"NORMAL":12,"TEXCOORD_0":13},"indices":15,"material":1},{"mode":4,"attributes":{"POSITION":11,"NORMAL":12,"TEXCOORD_0":13},"indices":16,"material":2},{"mode":4,"attributes":{"POSITION":11,"NORMAL":12,"TEXCOORD_0":13},"indices":17,"material":0}]},{"primitives":[{"mode":4,"attributes":{"POSITION":18,"NORMAL":19,"TEXCOORD_0":20},"indices":21,"material":1},{"mode":4,"attributes":{"POSITION":18,"NORMAL":19,"TEXCOORD_0":20},"indices":22,"material":2},{"mode":4,"attributes":{"POSITION":18,"NORMAL":19,"TEXCOORD_0":20},"indices":23,"material":0}]},{"primitives":[{"mode":4,"attributes":{"POSITION":24,"NORMAL":25,"TEXCOORD_0":26},"indices":27,"material":1},{"mode":4,"attributes":{"POSITION":24,"NORMAL":25,"TEXCOORD_0":26},"indices":28,"material":2},{"mode":4,"attributes":{"POSITION":24,"NORMAL":25,"TEXCOORD_0":26},"indices":29,"material":0}]},{"primitives":[{"mode":4,"attributes":{"POSITION":30,"NORMAL":31,"TEXCOORD_0":32},"indices":33,"material":0},{"mode":4,"attributes":{"POSITION":30,"NORMAL":31,"TEXCOORD_0":32},"indices":34,"material":3},{"mode":4,"attributes":{"POSITION":30,"NORMAL":31,"TEXCOORD_0":32},"indices":35,"material":0}]},{"primitives":[{"mode":4,"attributes":{"POSITION":36,"NORMAL":37,"TEXCOORD_0":38},"indices":39,"material":0},{"mode":4,"attributes":{"POSITION":36,"NORMAL":37,"TEXCOORD_0":38},"indices":40,"material":3},{"mode":4,"attributes":{"POSITION":36,"NORMAL":37,"TEXCOORD_0":38},"indices":41,"material":0}]},{"primitives":[{"mode":4,"attributes":{"POSITION":42,"NORMAL":43,"TEXCOORD_0":44},"indices":45,"material":0},{"mode":4,"attributes":{"POSITION":42,"NORMAL":43,"TEXCOORD_0":44},"indices":46,"material":3},{"mode":4,"attributes":{"POSITION":42,"NORMAL":43,"TEXCOORD_0":44},"indices":47,"material":0}]},{"primitives":[{"mode":4,"attributes":{"POSITION":48,"NORMAL":49,"TEXCOORD_0":50},"indices":51,"material":0},{"mode":4,"attributes":{"POSITION":48,"NORMAL":49,"TEXCOORD_0":50},"indices":52,"material":3},{"mode":4,"attributes":{"POSITION":48,"NORMAL":49,"TEXCOORD_0":50},"indices":53,"material":0}]},{"primitives":[{"mode":4,"attributes":{"POSITION":54,"NORMAL":55,"TEXCOORD_0":56},"indices":57,"material":0},{"mode":4,"attributes":{"POSITION":54,"NORMAL":55,"TEXCOORD_0":56},"indices":58,"material":3},{"mode":4,"attributes":{"POSITION":54,"NORMAL":55,"TEXCOORD_0":56},"indices":59,"material":0}]},{"primitives":[{"mode":4,"attributes":{"POSITION":60,"NORMAL":61,"TEXCOORD_0":62},"indices":63,"material":0},{"mode":4,"attributes":{"POSITION":60,"NORMAL":61,"TEXCOORD_0":62},"indices":64,"material":3},{"mode":4,"attributes":{"POSITION":60,"NORMAL":61,"TEXCOORD_0":62},"indices":65,"material":0}]},{"primitives":[{"mode":4,"attributes":{"POSITION":66,"NORMAL":67,"TEXCOORD_0":68},"indices":69,"material":0},{"mode":4,"attributes":{"POSITION":66,"NORMAL":67,"TEXCOORD_0":68},"indices":70,"material":3},{"mode":4,"attributes":{"POSITION":66,"NORMAL":67,"TEXCOORD_0":68},"indices":71,"material":0}]},{"primitives":[{"mode":4,"attributes":{"POSITION":72,"NORMAL":73,"TEXCOORD_0":74},"indices":75,"material":0},{"mode":4,"attributes":{"POSITION":72,"NORMAL":73,"TEXCOORD_0":74},"indices":76,"material":3},{"mode":4,"attributes":{"POSITION":72,"NORMAL":73,"TEXCOORD_0":74},"indices":77,"material":0}]},{"primitives":[{"mode":4,"attributes":{"POSITION":78,"NORMAL":79,"TEXCOORD_0":80},"indices":81,"material":4}]}]}