{"asset":{"version":"2.0","generator":"Blockbench 4.4.2 glTF exporter"},"scenes":[{"nodes":[12],"name":"blockbench_export"}],"scene":0,"nodes":[{"name":"cube","mesh":0},{"name":"cube","mesh":1},{"name":"cube","mesh":2},{"name":"cube","mesh":3},{"name":"cube","mesh":4},{"name":"cube","mesh":5},{"name":"cube","mesh":6},{"name":"cube","mesh":7},{"name":"cube","mesh":8},{"name":"cube","mesh":9},{"rotation":[0,0.3826834323650898,0,0.9238795325112867],"translation":[0.5,0.5,0.5],"scale":[1.4142,1,1.4142],"name":"cube","mesh":10},{"rotation":[0,0.3826834323650898,0,0.9238795325112867],"translation":[0.5,0.5,0.5],"scale":[1.4142,1,1.4142],"name":"cube","mesh":11},{"children":[0,1,2,3,4,5,6,7,8,9,10,11]}],"bufferViews":[{"buffer":0,"byteOffset":0,"byteLength":288,"target":34962,"byteStride":12},{"buffer":0,"byteOffset":288,"byteLength":288,"target":34962,"byteStride":12},{"buffer":0,"byteOffset":576,"byteLength":192,"target":34962,"byteStride":8},{"buffer":0,"byteOffset":768,"byteLength":72,"target":34963},{"buffer":0,"byteOffset":840,"byteLength":288,"target":34962,"byteStride":12},{"buffer":0,"byteOffset":1128,"byteLength":288,"target":34962,"byteStride":12},{"buffer":0,"byteOffset":1416,"byteLength":192,"target":34962,"byteStride":8},{"buffer":0,"byteOffset":1608,"byteLength":72,"target":34963},{"buffer":0,"byteOffset":1680,"byteLength":288,"target":34962,"byteStride":12},{"buffer":0,"byteOffset":1968,"byteLength":288,"target":34962,"byteStride":12},{"buffer":0,"byteOffset":2256,"byteLength":192,"target":34962,"byteStride":8},{"buffer":0,"byteOffset":2448,"byteLength":48,"target":34963},{"buffer":0,"byteOffset":2496,"byteLength":288,"target":34962,"byteStride":12},{"buffer":0,"byteOffset":2784,"byteLength":288,"target":34962,"byteStride":12},{"buffer":0,"byteOffset":3072,"byteLength":192,"target":34962,"byteStride":8},{"buffer":0,"byteOffset":3264,"byteLength":48,"target":34963},{"buffer":0,"byteOffset":3312,"byteLength":288,"target":34962,"byteStride":12},{"buffer":0,"byteOffset":3600,"byteLength":288,"target":34962,"byteStride":12},{"buffer":0,"byteOffset":3888,"byteLength":192,"target":34962,"byteStride":8},{"buffer":0,"byteOffset":4080,"byteLength":12,"target":34963},{"buffer":0,"byteOffset":4092,"byteLength":12,"target":34963},{"buffer":0,"byteOffset":4104,"byteLength":288,"target":34962,"byteStride":12},{"buffer":0,"byteOffset":4392,"byteLength":288,"target":34962,"byteStride":12},{"buffer":0,"byteOffset":4680,"byteLength":192,"target":34962,"byteStride":8},{"buffer":0,"byteOffset":4872,"byteLength":24,"target":34963},{"buffer":0,"byteOffset":4896,"byteLength":288,"target":34962,"byteStride":12},{"buffer":0,"byteOffset":5184,"byteLength":288,"target":34962,"byteStride":12},{"buffer":0,"byteOffset":5472,"byteLength":192,"target":34962,"byteStride":8},{"buffer":0,"byteOffset":5664,"byteLength":24,"target":34963},{"buffer":0,"byteOffset":5688,"byteLength":288,"target":34962,"byteStride":12},{"buffer":0,"byteOffset":5976,"byteLength":288,"target":34962,"byteStride":12},{"buffer":0,"byteOffset":6264,"byteLength":192,"target":34962,"byteStride":8},{"buffer":0,"byteOffset":6456,"byteLength":24,"target":34963},{"buffer":0,"byteOffset":6480,"byteLength":288,"target":34962,"byteStride":12},{"buffer":0,"byteOffset":6768,"byteLength":288,"target":34962,"byteStride":12},{"buffer":0,"byteOffset":7056,"byteLength":192,"target":34962,"byteStride":8},{"buffer":0,"byteOffset":7248,"byteLength":24,"target":34963},{"buffer":0,"byteOffset":7272,"byteLength":288,"target":34962,"byteStride":12},{"buffer":0,"byteOffset":7560,"byteLength":288,"target":34962,"byteStride":12},{"buffer":0,"byteOffset":7848,"byteLength":192,"target":34962,"byteStride":8},{"buffer":0,"byteOffset":8040,"byteLength":24,"target":34963},{"buffer":0,"byteOffset":8064,"byteLength":288,"target":34962,"byteStride":12},{"buffer":0,"byteOffset":8352,"byteLength":288,"target":34962,"byteStride":12},{"buffer":0,"byteOffset":8640,"byteLength":192,"target":34962,"byteStride":8},{"buffer":0,"byteOffset":8832,"byteLength":24,"target":34963},{"buffer":0,"byteOffset":8856,"byteLength":288,"target":34962,"byteStride":12},{"buffer":0,"byteOffset":9144,"byteLength":288,"target":34962,"byteStride":12},{"buffer":0,"byteOffset":9432,"byteLength":192,"target":34962,"byteStride":8},{"buffer":0,"byteOffset":9624,"byteLength":24,"target":34963}],"buffers":[{"byteLength":9648,"uri":"data:application/octet-stream;base64,"}],"accessors":[{"bufferView":0,"componentType":5126,"count":24,"max":[0.375,0.375,0.6875],"min":[0.3125,0,0.3125],"type":"VEC3"},{"bufferView":1,"componentType":5126,"count":24,"max":[1,1,1],"min":[-1,-1,-1],"type":"VEC3"},{"bufferView":2,"componentType":5126,"count":24,"max":[0.6875,0.6875],"min":[0.3125,0],"type":"VEC2"},{"bufferView":3,"componentType":5123,"count":36,"max":[23],"min":[0],"type":"SCALAR"},{"bufferView":4,"componentType":5126,"count":24,"max":[0.6875,0.375,0.6875],"min":[0.625,0,0.3125],"type":"VEC3"},{"bufferView":5,"componentType":5126,"count":24,"max":[1,1,1],"min":[-1,-1,-1],"type":"VEC3"},{"bufferView":6,"componentType":5126,"count":24,"max":[0.6875,0.6875],"min":[0.3125,0],"type":"VEC2"},{"bufferView":7,"componentType":5123,"count":36,"max":[23],"min":[0],"type":"SCALAR"},{"bufferView":8,"componentType":5126,"count":24,"max":[0.625,0.375,0.375],"min":[0.375,0,0.3125],"type":"VEC3"},{"bufferView":9,"componentType":5126,"count":24,"max":[1,1,1],"min":[-1,-1,-1],"type":"VEC3"},{"bufferView":10,"componentType":5126,"count":24,"max":[1,1],"min":[0,0],"type":"VEC2"},{"bufferView":11,"componentType":5123,"count":24,"max":[23],"min":[8],"type":"SCALAR"},{"bufferView":12,"componentType":5126,"count":24,"max":[0.625,0.375,0.6875],"min":[0.375,0,0.625],"type":"VEC3"},{"bufferView":13,"componentType":5126,"count":24,"max":[1,1,1],"min":[-1,-1,-1],"type":"VEC3"},{"bufferView":14,"componentType":5126,"count":24,"max":[1,1],"min":[0,0],"type":"VEC2"},{"bufferView":15,"componentType":5123,"count":24,"max":[23],"min":[8],"type":"SCALAR"},{"bufferView":16,"componentType":5126,"count":24,"max":[0.625,0.25,0.625],"min":[0.375,0,0.375],"type":"VEC3"},{"bufferView":17,"componentType":5126,"count":24,"max":[1,1,1],"min":[-1,-1,-1],"type":"VEC3"},{"bufferView":18,"componentType":5126,"count":24,"max":[1,1],"min":[0,0],"type":"VEC2"},{"bufferView":19,"componentType":5123,"count":6,"max":[11],"min":[8],"type":"SCALAR"},{"bufferView":20,"componentType":5123,"count":6,"max":[15],"min":[12],"type":"SCALAR"},{"bufferView":21,"componentType":5126,"count":24,"max":[0.75,1,0.75],"min":[0.25,0.9937499761581421,0.25],"type":"VEC3"},{"bufferView":22,"componentType":5126,"count":24,"max":[1,1,1],"min":[-1,-1,-1],"type":"VEC3"},{"bufferView":23,"componentType":5126,"count":24,"max":[1,1],"min":[0,0],"type":"VEC2"},{"bufferView":24,"componentType":5123,"count":12,"max":[15],"min":[8],"type":"SCALAR"},{"bufferView":25,"componentType":5126,"count":24,"max":[0.75,1,0.250062495470047],"min":[0.25,0.5,0.25],"type":"VEC3"},{"bufferView":26,"componentType":5126,"count":24,"max":[1,1,1],"min":[-1,-1,-1],"type":"VEC3"},{"bufferView":27,"componentType":5126,"count":24,"max":[1,1],"min":[0,0],"type":"VEC2"},{"bufferView":28,"componentType":5123,"count":12,"max":[23],"min":[16],"type":"SCALAR"},{"bufferView":29,"componentType":5126,"count":24,"max":[0.75,1,0.7500625252723694],"min":[0.25,0.5,0.75],"type":"VEC3"},{"bufferView":30,"componentType":5126,"count":24,"max":[1,1,1],"min":[-1,-1,-1],"type":"VEC3"},{"bufferView":31,"componentType":5126,"count":24,"max":[1,1],"min":[0,0],"type":"VEC2"},{"bufferView":32,"componentType":5123,"count":12,"max":[23],"min":[16],"type":"SCALAR"},{"bufferView":33,"componentType":5126,"count":24,"max":[0.250062495470047,1,0.75],"min":[0.25,0.5,0.25],"type":"VEC3"},{"bufferView":34,"componentType":5126,"count":24,"max":[1,1,1],"min":[-1,-1,-1],"type":"VEC3"},{"bufferView":35,"componentType":5126,"count":24,"max":[1,1],"min":[0,0],"type":"VEC2"},{"bufferView":36,"componentType":5123,"count":12,"max":[7],"min":[0],"type":"SCALAR"},{"bufferView":37,"componentType":5126,"count":24,"max":[0.7500625252723694,1,0.75],"min":[0.75,0.5,0.25],"type":"VEC3"},{"bufferView":38,"componentType":5126,"count":24,"max":[1,1,1],"min":[-1,-1,-1],"type":"VEC3"},{"bufferView":39,"componentType":5126,"count":24,"max":[1,1],"min":[0,0],"type":"VEC2"},{"bufferView":40,"componentType":5123,"count":12,"max":[7],"min":[0],"type":"SCALAR"},{"bufferView":41,"componentType":5126,"count":24,"max":[0.3375000059604645,0.5,0.0000625000029685907],"min":[-0.3375000059604645,-0.25,0],"type":"VEC3"},{"bufferView":42,"componentType":5126,"count":24,"max":[1,1,1],"min":[-1,-1,-1],"type":"VEC3"},{"bufferView":43,"componentType":5126,"count":24,"max":[1,1],"min":[0,0],"type":"VEC2"},{"bufferView":44,"componentType":5123,"count":12,"max":[23],"min":[16],"type":"SCALAR"},{"bufferView":45,"componentType":5126,"count":24,"max":[0.0000625000029685907,0.5,0.3375000059604645],"min":[0,-0.25,-0.3375000059604645],"type":"VEC3"},{"bufferView":46,"componentType":5126,"count":24,"max":[1,1,1],"min":[-1,-1,-1],"type":"VEC3"},{"bufferView":47,"componentType":5126,"count":24,"max":[1,1],"min":[0,0],"type":"VEC2"},{"bufferView":48,"componentType":5123,"count":12,"max":[7],"min":[0],"type":"SCALAR"}],"materials":[{"pbrMetallicRoughness":{"metallicFactor":0,"roughnessFactor":1,"baseColorTexture":{"index":0}},"alphaMode":"MASK","alphaCutoff":0.05},{"pbrMetallicRoughness":{"metallicFactor":0,"roughnessFactor":1,"baseColorTexture":{"index":1}},"alphaMode":"MASK","alphaCutoff":0.05},{"pbrMetallicRoughness":{"metallicFactor":0,"roughnessFactor":1,"baseColorTexture":{"index":2}},"alphaMode":"MASK","alphaCutoff":0.05},{"pbrMetallicRoughness":{"metallicFactor":0,"roughnessFactor":1,"baseColorTexture":{"index":3}},"alphaMode":"MASK","alphaCutoff":0.05},{"pbrMetallicRoughness":{"metallicFactor":0,"roughnessFactor":1,"baseColorTexture":{"index":4}},"alphaMode":"MASK","alphaCutoff":0.05}],"textures":[{"sampler":0,"source":0},{"sampler":1,"source":1},{"sampler":2,"source":2},{"sampler":3,"source":3},{"sampler":4,"source":4}],"samplers":[{"magFilter":9728,"minFilter":9728,"wrapS":33071,"wrapT":33071},{"magFilter":9728,"minFilter":9728,"wrapS":33071,"wrapT":33071},{"magFilter":9728,"minFilter":9728,"wrapS":33071,"wrapT":33071},{"magFilter":9728,"minFilter":9728,"wrapS":33071,"wrapT":33071},{"magFilter":9728,"minFilter":9728,"wrapS":33071,"wrapT":33071}],"images":[{"mimeType":"image/png","uri":"data:image/png;base64,"},{"mimeType":"image/png","uri":"data:image/png;base64,"},{"mimeType":"image/png","uri":"data:image/png;base64,"},{"mimeType":"image/png","uri":"data:image/png;base64,"},{"mimeType":"image/png","uri":"data:image/png;base64,"}],"meshes":[{"primitives":[{"mode":4,"attributes":{"POSITION":0,"NORMAL":1,"TEXCOORD_0":2},"indices":3,"material":0}]},{"primitives":[{"mode":4,"attributes":{"POSITION":4,"NORMAL":5,"TEXCOORD_0":6},"indices":7,"material":0}]},{"primitives":[{"mode":4,"attributes":{"POSITION":8,"NORMAL":9,"TEXCOORD_0":10},"indices":11,"material":0}]},{"primitives":[{"mode":4,"attributes":{"POSITION":12,"NORMAL":13,"TEXCOORD_0":14},"indices":15,"material":0}]},{"primitives":[{"mode":4,"attributes":{"POSITION":16,"NORMAL":17,"TEXCOORD_0":18},"indices":19,"material":1},{"mode":4,"attributes":{"POSITION":16,"NORMAL":17,"TEXCOORD_0":18},"indices":20,"material":0}]},{"primitives":[{"mode":4,"attributes":{"POSITION":21,"NORMAL":22,"TEXCOORD_0":23},"indices":24,"material":2}]},{"primitives":[{"mode":4,"attributes":{"POSITION":25,"NORMAL":26,"TEXCOORD_0":27},"indices":28,"material":3}]},{"primitives":[{"mode":4,"attributes":{"POSITION":29,"NORMAL":30,"TEXCOORD_0":31},"indices":32,"material":3}]},{"primitives":[{"mode":4,"attributes":{"POSITION":33,"NORMAL":34,"TEXCOORD_0":35},"indices":36,"material":3}]},{"primitives":[{"mode":4,"attributes":{"POSITION":37,"NORMAL":38,"TEXCOORD_0":39},"indices":40,"material":3}]},{"primitives":[{"mode":4,"attributes":{"POSITION":41,"NORMAL":42,"TEXCOORD_0":43},"indices":44,"material":4}]},{"primitives":[{"mode":4,"attributes":{"POSITION":45,"NORMAL":46,"TEXCOORD_0":47},"indices":48,"material":4}]}]}