{"asset":{"version":"2.0","generator":"Blockbench 4.4.2 glTF exporter"},"scenes":[{"nodes":[7],"name":"blockbench_export"}],"scene":0,"nodes":[{"rotation":[-0.3826834323650898,0,0,0.9238795325112867],"translation":[0.5,0.375,0.325],"name":"cube","mesh":0},{"rotation":[-0.3826834323650898,0,0,0.9238795325112867],"translation":[0.5,0.375,0.325],"name":"cube","mesh":1},{"rotation":[-0.3826834323650898,0,0,0.9238795325112867],"translation":[0.5,0.375,0.325],"name":"cube","mesh":2},{"rotation":[-0.3826834323650898,0,0,0.9238795325112867],"translation":[0.5,0.375,0.325],"name":"cube","mesh":3},{"rotation":[-0.3826834323650898,0,0,0.9238795325112867],"translation":[0.5,0.375,0.325],"name":"cube","mesh":4},{"rotation":[0.3826834323650898,0,0,0.9238795325112867],"translation":[0.5,0.375,0.875],"name":"cube","mesh":5},{"name":"cube","mesh":6},{"children":[0,1,2,3,4,5,6]}],"bufferViews":[{"buffer":0,"byteOffset":0,"byteLength":288,"target":34962,"byteStride":12},{"buffer":0,"byteOffset":288,"byteLength":288,"target":34962,"byteStride":12},{"buffer":0,"byteOffset":576,"byteLength":192,"target":34962,"byteStride":8},{"buffer":0,"byteOffset":768,"byteLength":72,"target":34963},{"buffer":0,"byteOffset":840,"byteLength":288,"target":34962,"byteStride":12},{"buffer":0,"byteOffset":1128,"byteLength":288,"target":34962,"byteStride":12},{"buffer":0,"byteOffset":1416,"byteLength":192,"target":34962,"byteStride":8},{"buffer":0,"byteOffset":1608,"byteLength":12,"target":34963},{"buffer":0,"byteOffset":1620,"byteLength":288,"target":34962,"byteStride":12},{"buffer":0,"byteOffset":1908,"byteLength":288,"target":34962,"byteStride":12},{"buffer":0,"byteOffset":2196,"byteLength":192,"target":34962,"byteStride":8},{"buffer":0,"byteOffset":2388,"byteLength":12,"target":34963},{"buffer":0,"byteOffset":2400,"byteLength":288,"target":34962,"byteStride":12},{"buffer":0,"byteOffset":2688,"byteLength":288,"target":34962,"byteStride":12},{"buffer":0,"byteOffset":2976,"byteLength":192,"target":34962,"byteStride":8},{"buffer":0,"byteOffset":3168,"byteLength":12,"target":34963},{"buffer":0,"byteOffset":3180,"byteLength":288,"target":34962,"byteStride":12},{"buffer":0,"byteOffset":3468,"byteLength":288,"target":34962,"byteStride":12},{"buffer":0,"byteOffset":3756,"byteLength":192,"target":34962,"byteStride":8},{"buffer":0,"byteOffset":3948,"byteLength":12,"target":34963},{"buffer":0,"byteOffset":3960,"byteLength":288,"target":34962,"byteStride":12},{"buffer":0,"byteOffset":4248,"byteLength":288,"target":34962,"byteStride":12},{"buffer":0,"byteOffset":4536,"byteLength":192,"target":34962,"byteStride":8},{"buffer":0,"byteOffset":4728,"byteLength":72,"target":34963},{"buffer":0,"byteOffset":4800,"byteLength":288,"target":34962,"byteStride":12},{"buffer":0,"byteOffset":5088,"byteLength":288,"target":34962,"byteStride":12},{"buffer":0,"byteOffset":5376,"byteLength":192,"target":34962,"byteStride":8},{"buffer":0,"byteOffset":5568,"byteLength":72,"target":34963}],"buffers":[{"byteLength":5640,"uri":"data:application/octet-stream;base64,"}],"accessors":[{"bufferView":0,"componentType":5126,"count":24,"max":[0.11249999701976776,-0.08749999850988388,0.39375001192092896],"min":[-0.11249999701976776,-0.13750000298023224,0.16875000298023224],"type":"VEC3"},{"bufferView":1,"componentType":5126,"count":24,"max":[1,1,1],"min":[-1,-1,-1],"type":"VEC3"},{"bufferView":2,"componentType":5126,"count":24,"max":[0.6875,0.8125],"min":[0.3125,0.4375],"type":"VEC2"},{"bufferView":3,"componentType":5123,"count":36,"max":[23],"min":[0],"type":"SCALAR"},{"bufferView":4,"componentType":5126,"count":24,"max":[0.03750000149011612,-0.08749999850988388,0.3188124895095825],"min":[-0.03750000149011612,-0.13750000298023224,0.3187499940395355],"type":"VEC3"},{"bufferView":5,"componentType":5126,"count":24,"max":[1,1,1],"min":[-1,-1,-1],"type":"VEC3"},{"bufferView":6,"componentType":5126,"count":24,"max":[1,1],"min":[0,0],"type":"VEC2"},{"bufferView":7,"componentType":5123,"count":6,"max":[23],"min":[20],"type":"SCALAR"},{"bufferView":8,"componentType":5126,"count":24,"max":[0.03750000149011612,-0.08749999850988388,0.24381250143051147],"min":[-0.03750000149011612,-0.13750000298023224,0.24375000596046448],"type":"VEC3"},{"bufferView":9,"componentType":5126,"count":24,"max":[1,1,1],"min":[-1,-1,-1],"type":"VEC3"},{"bufferView":10,"componentType":5126,"count":24,"max":[1,1],"min":[0,0],"type":"VEC2"},{"bufferView":11,"componentType":5123,"count":6,"max":[19],"min":[16],"type":"SCALAR"},{"bufferView":12,"componentType":5126,"count":24,"max":[-0.037437498569488525,-0.08749999850988388,0.3187499940395355],"min":[-0.03750000149011612,-0.13750000298023224,0.24375000596046448],"type":"VEC3"},{"bufferView":13,"componentType":5126,"count":24,"max":[1,1,1],"min":[-1,-1,-1],"type":"VEC3"},{"bufferView":14,"componentType":5126,"count":24,"max":[1,1],"min":[0,0],"type":"VEC2"},{"bufferView":15,"componentType":5123,"count":6,"max":[3],"min":[0],"type":"SCALAR"},{"bufferView":16,"componentType":5126,"count":24,"max":[0.037562500685453415,-0.08749999850988388,0.3187499940395355],"min":[0.03750000149011612,-0.13750000298023224,0.24375000596046448],"type":"VEC3"},{"bufferView":17,"componentType":5126,"count":24,"max":[1,1,1],"min":[-1,-1,-1],"type":"VEC3"},{"bufferView":18,"componentType":5126,"count":24,"max":[1,1],"min":[0,0],"type":"VEC2"},{"bufferView":19,"componentType":5123,"count":6,"max":[7],"min":[4],"type":"SCALAR"},{"bufferView":20,"componentType":5126,"count":24,"max":[0.05000000074505806,0.05000000074505806,0],"min":[-0.03750000149011612,-0.05000000074505806,-0.25],"type":"VEC3"},{"bufferView":21,"componentType":5126,"count":24,"max":[1,1,1],"min":[-1,-1,-1],"type":"VEC3"},{"bufferView":22,"componentType":5126,"count":24,"max":[0.875,0.875],"min":[0.125,0.125],"type":"VEC2"},{"bufferView":23,"componentType":5123,"count":36,"max":[23],"min":[0],"type":"SCALAR"},{"bufferView":24,"componentType":5126,"count":24,"max":[0.625,0.5625,1],"min":[0.375,0.0625,0.875],"type":"VEC3"},{"bufferView":25,"componentType":5126,"count":24,"max":[1,1,1],"min":[-1,-1,-1],"type":"VEC3"},{"bufferView":26,"componentType":5126,"count":24,"max":[1,1],"min":[0,0],"type":"VEC2"},{"bufferView":27,"componentType":5123,"count":36,"max":[23],"min":[0],"type":"SCALAR"}],"materials":[{"pbrMetallicRoughness":{"metallicFactor":0,"roughnessFactor":1,"baseColorTexture":{"index":0}},"alphaMode":"MASK","alphaCutoff":0.05},{"pbrMetallicRoughness":{"metallicFactor":0,"roughnessFactor":1,"baseColorTexture":{"index":1}},"alphaMode":"MASK","alphaCutoff":0.05}],"textures":[{"sampler":0,"source":0},{"sampler":1,"source":1}],"samplers":[{"magFilter":9728,"minFilter":9728,"wrapS":33071,"wrapT":33071},{"magFilter":9728,"minFilter":9728,"wrapS":33071,"wrapT":33071}],"images":[{"mimeType":"image/png","uri":"data:image/png;base64,"},{"mimeType":"image/png","uri":"data:image/png;base64,"}],"meshes":[{"primitives":[{"mode":4,"attributes":{"POSITION":0,"NORMAL":1,"TEXCOORD_0":2},"indices":3,"material":0}]},{"primitives":[{"mode":4,"attributes":{"POSITION":4,"NORMAL":5,"TEXCOORD_0":6},"indices":7,"material":0}]},{"primitives":[{"mode":4,"attributes":{"POSITION":8,"NORMAL":9,"TEXCOORD_0":10},"indices":11,"material":0}]},{"primitives":[{"mode":4,"attributes":{"POSITION":12,"NORMAL":13,"TEXCOORD_0":14},"indices":15,"material":0}]},{"primitives":[{"mode":4,"attributes":{"POSITION":16,"NORMAL":17,"TEXCOORD_0":18},"indices":19,"material":0}]},{"primitives":[{"mode":4,"attributes":{"POSITION":20,"NORMAL":21,"TEXCOORD_0":22},"indices":23,"material":1}]},{"primitives":[{"mode":4,"attributes":{"POSITION":24,"NORMAL":25,"TEXCOORD_0":26},"indices":27,"material":1}]}]}