{"asset":{"version":"2.0","generator":"Blockbench 4.4.2 glTF exporter"},"scenes":[{"nodes":[20],"name":"blockbench_export"}],"scene":0,"nodes":[{"name":"Box1","mesh":0},{"name":"Box1","mesh":1},{"name":"Box1","mesh":2},{"name":"Box1","mesh":3},{"name":"Box1","mesh":4},{"name":"Box1","mesh":5},{"name":"Box1","mesh":6},{"name":"cube","mesh":7},{"name":"cube","mesh":8},{"name":"cube","mesh":9},{"name":"cube","mesh":10},{"name":"cube","mesh":11},{"name":"cube","mesh":12},{"name":"cube","mesh":13},{"name":"cube","mesh":14},{"name":"cube","mesh":15},{"name":"cube","mesh":16},{"name":"cube","mesh":17},{"name":"cube","mesh":18},{"name":"group"},{"children":[0,1,2,3,4,5,6,7,8,9,10,11,12,13,14,15,16,17,18,19]}],"bufferViews":[{"buffer":0,"byteOffset":0,"byteLength":288,"target":34962,"byteStride":12},{"buffer":0,"byteOffset":288,"byteLength":288,"target":34962,"byteStride":12},{"buffer":0,"byteOffset":576,"byteLength":192,"target":34962,"byteStride":8},{"buffer":0,"byteOffset":768,"byteLength":24,"target":34963},{"buffer":0,"byteOffset":792,"byteLength":24,"target":34963},{"buffer":0,"byteOffset":816,"byteLength":24,"target":34963},{"buffer":0,"byteOffset":840,"byteLength":288,"target":34962,"byteStride":12},{"buffer":0,"byteOffset":1128,"byteLength":288,"target":34962,"byteStride":12},{"buffer":0,"byteOffset":1416,"byteLength":192,"target":34962,"byteStride":8},{"buffer":0,"byteOffset":1608,"byteLength":24,"target":34963},{"buffer":0,"byteOffset":1632,"byteLength":24,"target":34963},{"buffer":0,"byteOffset":1656,"byteLength":24,"target":34963},{"buffer":0,"byteOffset":1680,"byteLength":288,"target":34962,"byteStride":12},{"buffer":0,"byteOffset":1968,"byteLength":288,"target":34962,"byteStride":12},{"buffer":0,"byteOffset":2256,"byteLength":192,"target":34962,"byteStride":8},{"buffer":0,"byteOffset":2448,"byteLength":24,"target":34963},{"buffer":0,"byteOffset":2472,"byteLength":12,"target":34963},{"buffer":0,"byteOffset":2484,"byteLength":24,"target":34963},{"buffer":0,"byteOffset":2508,"byteLength":288,"target":34962,"byteStride":12},{"buffer":0,"byteOffset":2796,"byteLength":288,"target":34962,"byteStride":12},{"buffer":0,"byteOffset":3084,"byteLength":192,"target":34962,"byteStride":8},{"buffer":0,"byteOffset":3276,"byteLength":24,"target":34963},{"buffer":0,"byteOffset":3300,"byteLength":12,"target":34963},{"buffer":0,"byteOffset":3312,"byteLength":24,"target":34963},{"buffer":0,"byteOffset":3336,"byteLength":288,"target":34962,"byteStride":12},{"buffer":0,"byteOffset":3624,"byteLength":288,"target":34962,"byteStride":12},{"buffer":0,"byteOffset":3912,"byteLength":192,"target":34962,"byteStride":8},{"buffer":0,"byteOffset":4104,"byteLength":24,"target":34963},{"buffer":0,"byteOffset":4128,"byteLength":48,"target":34963},{"buffer":0,"byteOffset":4176,"byteLength":288,"target":34962,"byteStride":12},{"buffer":0,"byteOffset":4464,"byteLength":288,"target":34962,"byteStride":12},{"buffer":0,"byteOffset":4752,"byteLength":192,"target":34962,"byteStride":8},{"buffer":0,"byteOffset":4944,"byteLength":24,"target":34963},{"buffer":0,"byteOffset":4968,"byteLength":12,"target":34963},{"buffer":0,"byteOffset":4980,"byteLength":24,"target":34963},{"buffer":0,"byteOffset":5004,"byteLength":288,"target":34962,"byteStride":12},{"buffer":0,"byteOffset":5292,"byteLength":288,"target":34962,"byteStride":12},{"buffer":0,"byteOffset":5580,"byteLength":192,"target":34962,"byteStride":8},{"buffer":0,"byteOffset":5772,"byteLength":24,"target":34963},{"buffer":0,"byteOffset":5796,"byteLength":12,"target":34963},{"buffer":0,"byteOffset":5808,"byteLength":24,"target":34963},{"buffer":0,"byteOffset":5832,"byteLength":288,"target":34962,"byteStride":12},{"buffer":0,"byteOffset":6120,"byteLength":288,"target":34962,"byteStride":12},{"buffer":0,"byteOffset":6408,"byteLength":192,"target":34962,"byteStride":8},{"buffer":0,"byteOffset":6600,"byteLength":72,"target":34963},{"buffer":0,"byteOffset":6672,"byteLength":288,"target":34962,"byteStride":12},{"buffer":0,"byteOffset":6960,"byteLength":288,"target":34962,"byteStride":12},{"buffer":0,"byteOffset":7248,"byteLength":192,"target":34962,"byteStride":8},{"buffer":0,"byteOffset":7440,"byteLength":72,"target":34963},{"buffer":0,"byteOffset":7512,"byteLength":288,"target":34962,"byteStride":12},{"buffer":0,"byteOffset":7800,"byteLength":288,"target":34962,"byteStride":12},{"buffer":0,"byteOffset":8088,"byteLength":192,"target":34962,"byteStride":8},{"buffer":0,"byteOffset":8280,"byteLength":72,"target":34963},{"buffer":0,"byteOffset":8352,"byteLength":288,"target":34962,"byteStride":12},{"buffer":0,"byteOffset":8640,"byteLength":288,"target":34962,"byteStride":12},{"buffer":0,"byteOffset":8928,"byteLength":192,"target":34962,"byteStride":8},{"buffer":0,"byteOffset":9120,"byteLength":72,"target":34963},{"buffer":0,"byteOffset":9192,"byteLength":288,"target":34962,"byteStride":12},{"buffer":0,"byteOffset":9480,"byteLength":288,"target":34962,"byteStride":12},{"buffer":0,"byteOffset":9768,"byteLength":192,"target":34962,"byteStride":8},{"buffer":0,"byteOffset":9960,"byteLength":72,"target":34963},{"buffer":0,"byteOffset":10032,"byteLength":288,"target":34962,"byteStride":12},{"buffer":0,"byteOffset":10320,"byteLength":288,"target":34962,"byteStride":12},{"buffer":0,"byteOffset":10608,"byteLength":192,"target":34962,"byteStride":8},{"buffer":0,"byteOffset":10800,"byteLength":60,"target":34963},{"buffer":0,"byteOffset":10860,"byteLength":12,"target":34963},{"buffer":0,"byteOffset":10872,"byteLength":288,"target":34962,"byteStride":12},{"buffer":0,"byteOffset":11160,"byteLength":288,"target":34962,"byteStride":12},{"buffer":0,"byteOffset":11448,"byteLength":192,"target":34962,"byteStride":8},{"buffer":0,"byteOffset":11640,"byteLength":72,"target":34963},{"buffer":0,"byteOffset":11712,"byteLength":288,"target":34962,"byteStride":12},{"buffer":0,"byteOffset":12000,"byteLength":288,"target":34962,"byteStride":12},{"buffer":0,"byteOffset":12288,"byteLength":192,"target":34962,"byteStride":8},{"buffer":0,"byteOffset":12480,"byteLength":60,"target":34963},{"buffer":0,"byteOffset":12540,"byteLength":12,"target":34963},{"buffer":0,"byteOffset":12552,"byteLength":288,"target":34962,"byteStride":12},{"buffer":0,"byteOffset":12840,"byteLength":288,"target":34962,"byteStride":12},{"buffer":0,"byteOffset":13128,"byteLength":192,"target":34962,"byteStride":8},{"buffer":0,"byteOffset":13320,"byteLength":36,"target":34963},{"buffer":0,"byteOffset":13356,"byteLength":12,"target":34963},{"buffer":0,"byteOffset":13368,"byteLength":12,"target":34963},{"buffer":0,"byteOffset":13380,"byteLength":12,"target":34963},{"buffer":0,"byteOffset":13392,"byteLength":288,"target":34962,"byteStride":12},{"buffer":0,"byteOffset":13680,"byteLength":288,"target":34962,"byteStride":12},{"buffer":0,"byteOffset":13968,"byteLength":192,"target":34962,"byteStride":8},{"buffer":0,"byteOffset":14160,"byteLength":60,"target":34963},{"buffer":0,"byteOffset":14220,"byteLength":12,"target":34963},{"buffer":0,"byteOffset":14232,"byteLength":288,"target":34962,"byteStride":12},{"buffer":0,"byteOffset":14520,"byteLength":288,"target":34962,"byteStride":12},{"buffer":0,"byteOffset":14808,"byteLength":192,"target":34962,"byteStride":8},{"buffer":0,"byteOffset":15000,"byteLength":36,"target":34963},{"buffer":0,"byteOffset":15036,"byteLength":12,"target":34963},{"buffer":0,"byteOffset":15048,"byteLength":12,"target":34963},{"buffer":0,"byteOffset":15060,"byteLength":12,"target":34963},{"buffer":0,"byteOffset":15072,"byteLength":288,"target":34962,"byteStride":12},{"buffer":0,"byteOffset":15360,"byteLength":288,"target":34962,"byteStride":12},{"buffer":0,"byteOffset":15648,"byteLength":192,"target":34962,"byteStride":8},{"buffer":0,"byteOffset":15840,"byteLength":60,"target":34963},{"buffer":0,"byteOffset":15900,"byteLength":12,"target":34963}],"buffers":[{"byteLength":15912,"uri":"data:application/octet-stream;base64,"}],"accessors":[{"bufferView":0,"componentType":5126,"count":24,"max":[0.1875,0.25,1],"min":[0,0,0],"type":"VEC3"},{"bufferView":1,"componentType":5126,"count":24,"max":[1,1,1],"min":[-1,-1,-1],"type":"VEC3"},{"bufferView":2,"componentType":5126,"count":24,"max":[1,1],"min":[0,0],"type":"VEC2"},{"bufferView":3,"componentType":5123,"count":12,"max":[7],"min":[0],"type":"SCALAR"},{"bufferView":4,"componentType":5123,"count":12,"max":[15],"min":[8],"type":"SCALAR"},{"bufferView":5,"componentType":5123,"count":12,"max":[23],"min":[16],"type":"SCALAR"},{"bufferView":6,"componentType":5126,"count":24,"max":[0.1875,1,1],"min":[0,0.8125,0],"type":"VEC3"},{"bufferView":7,"componentType":5126,"count":24,"max":[1,1,1],"min":[-1,-1,-1],"type":"VEC3"},{"bufferView":8,"componentType":5126,"count":24,"max":[1,1],"min":[0,0],"type":"VEC2"},{"bufferView":9,"componentType":5123,"count":12,"max":[7],"min":[0],"type":"SCALAR"},{"bufferView":10,"componentType":5123,"count":12,"max":[15],"min":[8],"type":"SCALAR"},{"bufferView":11,"componentType":5123,"count":12,"max":[23],"min":[16],"type":"SCALAR"},{"bufferView":12,"componentType":5126,"count":24,"max":[0.1875,0.8125,0.1875],"min":[0,0.25,0],"type":"VEC3"},{"bufferView":13,"componentType":5126,"count":24,"max":[1,1,1],"min":[-1,-1,-1],"type":"VEC3"},{"bufferView":14,"componentType":5126,"count":24,"max":[1,1],"min":[0,0],"type":"VEC2"},{"bufferView":15,"componentType":5123,"count":12,"max":[7],"min":[0],"type":"SCALAR"},{"bufferView":16,"componentType":5123,"count":6,"max":[15],"min":[12],"type":"SCALAR"},{"bufferView":17,"componentType":5123,"count":12,"max":[23],"min":[16],"type":"SCALAR"},{"bufferView":18,"componentType":5126,"count":24,"max":[0.1875,0.8125,1],"min":[0,0.25,0.8125],"type":"VEC3"},{"bufferView":19,"componentType":5126,"count":24,"max":[1,1,1],"min":[-1,-1,-1],"type":"VEC3"},{"bufferView":20,"componentType":5126,"count":24,"max":[1,1],"min":[0,0],"type":"VEC2"},{"bufferView":21,"componentType":5123,"count":12,"max":[7],"min":[0],"type":"SCALAR"},{"bufferView":22,"componentType":5123,"count":6,"max":[15],"min":[12],"type":"SCALAR"},{"bufferView":23,"componentType":5123,"count":12,"max":[23],"min":[16],"type":"SCALAR"},{"bufferView":24,"componentType":5126,"count":24,"max":[0.1875,0.625,0.8125],"min":[0,0.4375,0.1875],"type":"VEC3"},{"bufferView":25,"componentType":5126,"count":24,"max":[1,1,1],"min":[-1,-1,-1],"type":"VEC3"},{"bufferView":26,"componentType":5126,"count":24,"max":[1,0.8125],"min":[0.1875,0.25],"type":"VEC2"},{"bufferView":27,"componentType":5123,"count":12,"max":[7],"min":[0],"type":"SCALAR"},{"bufferView":28,"componentType":5123,"count":24,"max":[23],"min":[8],"type":"SCALAR"},{"bufferView":29,"componentType":5126,"count":24,"max":[0.1875,0.4375,0.5625],"min":[0,0.25,0.4375],"type":"VEC3"},{"bufferView":30,"componentType":5126,"count":24,"max":[1,1,1],"min":[-1,-1,-1],"type":"VEC3"},{"bufferView":31,"componentType":5126,"count":24,"max":[1,1],"min":[0,0],"type":"VEC2"},{"bufferView":32,"componentType":5123,"count":12,"max":[7],"min":[0],"type":"SCALAR"},{"bufferView":33,"componentType":5123,"count":6,"max":[15],"min":[12],"type":"SCALAR"},{"bufferView":34,"componentType":5123,"count":12,"max":[23],"min":[16],"type":"SCALAR"},{"bufferView":35,"componentType":5126,"count":24,"max":[0.1875,0.8125,0.5625],"min":[0,0.625,0.4375],"type":"VEC3"},{"bufferView":36,"componentType":5126,"count":24,"max":[1,1,1],"min":[-1,-1,-1],"type":"VEC3"},{"bufferView":37,"componentType":5126,"count":24,"max":[1,1],"min":[0,0],"type":"VEC2"},{"bufferView":38,"componentType":5123,"count":12,"max":[7],"min":[0],"type":"SCALAR"},{"bufferView":39,"componentType":5123,"count":6,"max":[15],"min":[12],"type":"SCALAR"},{"bufferView":40,"componentType":5123,"count":12,"max":[23],"min":[16],"type":"SCALAR"},{"bufferView":41,"componentType":5126,"count":24,"max":[0.203125,0.0625,0.0625],"min":[0.140625,0,-0.015625],"type":"VEC3"},{"bufferView":42,"componentType":5126,"count":24,"max":[1,1,1],"min":[-1,-1,-1],"type":"VEC3"},{"bufferView":43,"componentType":5126,"count":24,"max":[0.0625,0.0625],"min":[0,0],"type":"VEC2"},{"bufferView":44,"componentType":5123,"count":36,"max":[23],"min":[0],"type":"SCALAR"},{"bufferView":45,"componentType":5126,"count":24,"max":[0.046875,0.0625,0.0625],"min":[-0.015625,0,-0.015625],"type":"VEC3"},{"bufferView":46,"componentType":5126,"count":24,"max":[1,1,1],"min":[-1,-1,-1],"type":"VEC3"},{"bufferView":47,"componentType":5126,"count":24,"max":[0.0625,0.0625],"min":[0,0],"type":"VEC2"},{"bufferView":48,"componentType":5123,"count":36,"max":[23],"min":[0],"type":"SCALAR"},{"bufferView":49,"componentType":5126,"count":24,"max":[0.203125,0.75,0.0625],"min":[0.140625,0.625,-0.015625],"type":"VEC3"},{"bufferView":50,"componentType":5126,"count":24,"max":[1,1,1],"min":[-1,-1,-1],"type":"VEC3"},{"bufferView":51,"componentType":5126,"count":24,"max":[0.0625,0.75],"min":[0,0.625],"type":"VEC2"},{"bufferView":52,"componentType":5123,"count":36,"max":[23],"min":[0],"type":"SCALAR"},{"bufferView":53,"componentType":5126,"count":24,"max":[0.046875,0.75,0.0625],"min":[-0.015625,0.625,-0.015625],"type":"VEC3"},{"bufferView":54,"componentType":5126,"count":24,"max":[1,1,1],"min":[-1,-1,-1],"type":"VEC3"},{"bufferView":55,"componentType":5126,"count":24,"max":[0.0625,0.75],"min":[0,0.625],"type":"VEC2"},{"bufferView":56,"componentType":5123,"count":36,"max":[23],"min":[0],"type":"SCALAR"},{"bufferView":57,"componentType":5126,"count":24,"max":[0.203125,0.0625,0.75],"min":[0.1875,0,0.6875],"type":"VEC3"},{"bufferView":58,"componentType":5126,"count":24,"max":[1,1,1],"min":[-1,-1,-1],"type":"VEC3"},{"bufferView":59,"componentType":5126,"count":24,"max":[0.78125,0.09375],"min":[0.6875,0],"type":"VEC2"},{"bufferView":60,"componentType":5123,"count":36,"max":[23],"min":[0],"type":"SCALAR"},{"bufferView":61,"componentType":5126,"count":24,"max":[0.203125,0.09375,0.8125],"min":[0.1875,0.03125,0.75],"type":"VEC3"},{"bufferView":62,"componentType":5126,"count":24,"max":[1,1,1],"min":[-1,-1,-1],"type":"VEC3"},{"bufferView":63,"componentType":5126,"count":24,"max":[0.8125,1],"min":[0,0],"type":"VEC2"},{"bufferView":64,"componentType":5123,"count":30,"max":[19],"min":[0],"type":"SCALAR"},{"bufferView":65,"componentType":5123,"count":6,"max":[23],"min":[20],"type":"SCALAR"},{"bufferView":66,"componentType":5126,"count":24,"max":[0,0.0625,0.75],"min":[-0.015625,0,0.6875],"type":"VEC3"},{"bufferView":67,"componentType":5126,"count":24,"max":[1,1,1],"min":[-1,-1,-1],"type":"VEC3"},{"bufferView":68,"componentType":5126,"count":24,"max":[0.78125,0.09375],"min":[0.6875,0],"type":"VEC2"},{"bufferView":69,"componentType":5123,"count":36,"max":[23],"min":[0],"type":"SCALAR"},{"bufferView":70,"componentType":5126,"count":24,"max":[0,0.09375,0.84375],"min":[-0.015625,0.0625,0.8125],"type":"VEC3"},{"bufferView":71,"componentType":5126,"count":24,"max":[1,1,1],"min":[-1,-1,-1],"type":"VEC3"},{"bufferView":72,"componentType":5126,"count":24,"max":[0.84375,1],"min":[0,0.03125],"type":"VEC2"},{"bufferView":73,"componentType":5123,"count":30,"max":[19],"min":[0],"type":"SCALAR"},{"bufferView":74,"componentType":5123,"count":6,"max":[23],"min":[20],"type":"SCALAR"},{"bufferView":75,"componentType":5126,"count":24,"max":[0,0.09375,0.75],"min":[-0.015625,0.0625,0.71875],"type":"VEC3"},{"bufferView":76,"componentType":5126,"count":24,"max":[1,1,1],"min":[-1,-1,-1],"type":"VEC3"},{"bufferView":77,"componentType":5126,"count":24,"max":[0.75,1],"min":[0,0.0625],"type":"VEC2"},{"bufferView":78,"componentType":5123,"count":18,"max":[11],"min":[0],"type":"SCALAR"},{"bufferView":79,"componentType":5123,"count":6,"max":[15],"min":[12],"type":"SCALAR"},{"bufferView":80,"componentType":5123,"count":6,"max":[19],"min":[16],"type":"SCALAR"},{"bufferView":81,"componentType":5123,"count":6,"max":[23],"min":[20],"type":"SCALAR"},{"bufferView":82,"componentType":5126,"count":24,"max":[0,0.09375,0.8125],"min":[-0.015625,0.03125,0.75],"type":"VEC3"},{"bufferView":83,"componentType":5126,"count":24,"max":[1,1,1],"min":[-1,-1,-1],"type":"VEC3"},{"bufferView":84,"componentType":5126,"count":24,"max":[0.8125,1],"min":[0,0],"type":"VEC2"},{"bufferView":85,"componentType":5123,"count":30,"max":[19],"min":[0],"type":"SCALAR"},{"bufferView":86,"componentType":5123,"count":6,"max":[23],"min":[20],"type":"SCALAR"},{"bufferView":87,"componentType":5126,"count":24,"max":[0.203125,0.09375,0.75],"min":[0.1875,0.0625,0.71875],"type":"VEC3"},{"bufferView":88,"componentType":5126,"count":24,"max":[1,1,1],"min":[-1,-1,-1],"type":"VEC3"},{"bufferView":89,"componentType":5126,"count":24,"max":[0.75,1],"min":[0,0.0625],"type":"VEC2"},{"bufferView":90,"componentType":5123,"count":18,"max":[11],"min":[0],"type":"SCALAR"},{"bufferView":91,"componentType":5123,"count":6,"max":[15],"min":[12],"type":"SCALAR"},{"bufferView":92,"componentType":5123,"count":6,"max":[19],"min":[16],"type":"SCALAR"},{"bufferView":93,"componentType":5123,"count":6,"max":[23],"min":[20],"type":"SCALAR"},{"bufferView":94,"componentType":5126,"count":24,"max":[0.203125,0.09375,0.84375],"min":[0.1875,0.0625,0.8125],"type":"VEC3"},{"bufferView":95,"componentType":5126,"count":24,"max":[1,1,1],"min":[-1,-1,-1],"type":"VEC3"},{"bufferView":96,"componentType":5126,"count":24,"max":[0.84375,1],"min":[0,0.03125],"type":"VEC2"},{"bufferView":97,"componentType":5123,"count":30,"max":[19],"min":[0],"type":"SCALAR"},{"bufferView":98,"componentType":5123,"count":6,"max":[23],"min":[20],"type":"SCALAR"}],"materials":[{"pbrMetallicRoughness":{"metallicFactor":0,"roughnessFactor":1,"baseColorTexture":{"index":0}},"alphaMode":"MASK","alphaCutoff":0.05},{"pbrMetallicRoughness":{"metallicFactor":0,"roughnessFactor":1,"baseColorTexture":{"index":1}},"alphaMode":"MASK","alphaCutoff":0.05},{"pbrMetallicRoughness":{"metallicFactor":0,"roughnessFactor":1,"baseColorTexture":{"index":2}},"alphaMode":"MASK","alphaCutoff":0.05},{"pbrMetallicRoughness":{"metallicFactor":0,"roughnessFactor":1},"alphaMode":"MASK","alphaCutoff":0.05},{"pbrMetallicRoughness":{"metallicFactor":0,"roughnessFactor":1},"alphaMode":"MASK","alphaCutoff":0.05},{"pbrMetallicRoughness":{"metallicFactor":0,"roughnessFactor":1},"alphaMode":"MASK","alphaCutoff":0.05},{"pbrMetallicRoughness":{"metallicFactor":0,"roughnessFactor":1},"alphaMode":"MASK","alphaCutoff":0.05},{"pbrMetallicRoughness":{"metallicFactor":0,"roughnessFactor":1},"alphaMode":"MASK","alphaCutoff":0.05}],"textures":[{"sampler":0,"source":0},{"sampler":1,"source":1},{"sampler":2,"source":2}],"samplers":[{"magFilter":9728,"minFilter":9728,"wrapS":33071,"wrapT":33071},{"magFilter":9728,"minFilter":9728,"wrapS":33071,"wrapT":33071},{"magFilter":9728,"minFilter":9728,"wrapS":33071,"wrapT":33071}],"images":[{"mimeType":"image/png","uri":"data:image/png;base64,"},{"mimeType":"image/png","uri":"data:image/png;base64,"},{"mimeType":"image/png","uri":"data:image/png;base64,"}],"meshes":[{"primitives":[{"mode":4,"attributes":{"POSITION":0,"NORMAL":1,"TEXCOORD_0":2},"indices":3,"material":0},{"mode":4,"attributes":{"POSITION":0,"NORMAL":1,"TEXCOORD_0":2},"indices":4,"material":1},{"mode":4,"attributes":{"POSITION":0,"NORMAL":1,"TEXCOORD_0":2},"indices":5,"material":2}]},{"primitives":[{"mode":4,"attributes":{"POSITION":6,"NORMAL":7,"TEXCOORD_0":8},"indices":9,"material":0},{"mode":4,"attributes":{"POSITION":6,"NORMAL":7,"TEXCOORD_0":8},"indices":10,"material":1},{"mode":4,"attributes":{"POSITION":6,"NORMAL":7,"TEXCOORD_0":8},"indices":11,"material":2}]},{"primitives":[{"mode":4,"attributes":{"POSITION":12,"NORMAL":13,"TEXCOORD_0":14},"indices":15,"material":0},{"mode":4,"attributes":{"POSITION":12,"NORMAL":13,"TEXCOORD_0":14},"indices":16,"material":1},{"mode":4,"attributes":{"POSITION":12,"NORMAL":13,"TEXCOORD_0":14},"indices":17,"material":2}]},{"primitives":[{"mode":4,"attributes":{"POSITION":18,"NORMAL":19,"TEXCOORD_0":20},"indices":21,"material":0},{"mode":4,"attributes":{"POSITION":18,"NORMAL":19,"TEXCOORD_0":20},"indices":22,"material":1},{"mode":4,"attributes":{"POSITION":18,"NORMAL":19,"TEXCOORD_0":20},"indices":23,"material":2}]},{"primitives":[{"mode":4,"attributes":{"POSITION":24,"NORMAL":25,"TEXCOORD_0":26},"indices":27,"material":0},{"mode":4,"attributes":{"POSITION":24,"NORMAL":25,"TEXCOORD_0":26},"indices":28,"material":2}]},{"primitives":[{"mode":4,"attributes":{"POSITION":29,"NORMAL":30,"TEXCOORD_0":31},"indices":32,"material":0},{"mode":4,"attributes":{"POSITION":29,"NORMAL":30,"TEXCOORD_0":31},"indices":33,"material":1},{"mode":4,"attributes":{"POSITION":29,"NORMAL":30,"TEXCOORD_0":31},"indices":34,"material":2}]},{"primitives":[{"mode":4,"attributes":{"POSITION":35,"NORMAL":36,"TEXCOORD_0":37},"indices":38,"material":0},{"mode":4,"attributes":{"POSITION":35,"NORMAL":36,"TEXCOORD_0":37},"indices":39,"material":1},{"mode":4,"attributes":{"POSITION":35,"NORMAL":36,"TEXCOORD_0":37},"indices":40,"material":2}]},{"primitives":[{"mode":4,"attributes":{"POSITION":41,"NORMAL":42,"TEXCOORD_0":43},"indices":44,"material":0}]},{"primitives":[{"mode":4,"attributes":{"POSITION":45,"NORMAL":46,"TEXCOORD_0":47},"indices":48,"material":0}]},{"primitives":[{"mode":4,"attributes":{"POSITION":49,"NORMAL":50,"TEXCOORD_0":51},"indices":52,"material":0}]},{"primitives":[{"mode":4,"attributes":{"POSITION":53,"NORMAL":54,"TEXCOORD_0":55},"indices":56,"material":0}]},{"primitives":[{"mode":4,"attributes":{"POSITION":57,"NORMAL":58,"TEXCOORD_0":59},"indices":60,"material":0}]},{"primitives":[{"mode":4,"attributes":{"POSITION":61,"NORMAL":62,"TEXCOORD_0":63},"indices":64,"material":0},{"mode":4,"attributes":{"POSITION":61,"NORMAL":62,"TEXCOORD_0":63},"indices":65,"material":3}]},{"primitives":[{"mode":4,"attributes":{"POSITION":66,"NORMAL":67,"TEXCOORD_0":68},"indices":69,"material":0}]},{"primitives":[{"mode":4,"attributes":{"POSITION":70,"NORMAL":71,"TEXCOORD_0":72},"indices":73,"material":0},{"mode":4,"attributes":{"POSITION":70,"NORMAL":71,"TEXCOORD_0":72},"indices":74,"material":4}]},{"primitives":[{"mode":4,"attributes":{"POSITION":75,"NORMAL":76,"TEXCOORD_0":77},"indices":78,"material":0},{"mode":4,"attributes":{"POSITION":75,"NORMAL":76,"TEXCOORD_0":77},"indices":79,"material":4},{"mode":4,"attributes":{"POSITION":75,"NORMAL":76,"TEXCOORD_0":77},"indices":80,"material":4},{"mode":4,"attributes":{"POSITION":75,"NORMAL":76,"TEXCOORD_0":77},"indices":81,"material":0}]},{"primitives":[{"mode":4,"attributes":{"POSITION":82,"NORMAL":83,"TEXCOORD_0":84},"indices":85,"material":0},{"mode":4,"attributes":{"POSITION":82,"NORMAL":83,"TEXCOORD_0":84},"indices":86,"material":5}]},{"primitives":[{"mode":4,"attributes":{"POSITION":87,"NORMAL":88,"TEXCOORD_0":89},"indices":90,"material":0},{"mode":4,"attributes":{"POSITION":87,"NORMAL":88,"TEXCOORD_0":89},"indices":91,"material":6},{"mode":4,"attributes":{"POSITION":87,"NORMAL":88,"TEXCOORD_0":89},"indices":92,"material":6},{"mode":4,"attributes":{"POSITION":87,"NORMAL":88,"TEXCOORD_0":89},"indices":93,"material":0}]},{"primitives":[{"mode":4,"attributes":{"POSITION":94,"NORMAL":95,"TEXCOORD_0":96},"indices":97,"material":0},{"mode":4,"attributes":{"POSITION":94,"NORMAL":95,"TEXCOORD_0":96},"indices":98,"material":7}]}]}