{"asset":{"version":"2.0","generator":"Blockbench 4.4.2 glTF exporter"},"scenes":[{"nodes":[10],"name":"blockbench_export"}],"scene":0,"nodes":[{"name":"cube","mesh":0},{"name":"cube","mesh":1},{"name":"cube","mesh":2},{"name":"cube","mesh":3},{"name":"cube","mesh":4},{"name":"cube","mesh":5},{"name":"cube","mesh":6},{"name":"cube","mesh":7},{"name":"cube","mesh":8},{"name":"group"},{"children":[0,1,2,3,4,5,6,7,8,9]}],"bufferViews":[{"buffer":0,"byteOffset":0,"byteLength":288,"target":34962,"byteStride":12},{"buffer":0,"byteOffset":288,"byteLength":288,"target":34962,"byteStride":12},{"buffer":0,"byteOffset":576,"byteLength":192,"target":34962,"byteStride":8},{"buffer":0,"byteOffset":768,"byteLength":72,"target":34963},{"buffer":0,"byteOffset":840,"byteLength":288,"target":34962,"byteStride":12},{"buffer":0,"byteOffset":1128,"byteLength":288,"target":34962,"byteStride":12},{"buffer":0,"byteOffset":1416,"byteLength":192,"target":34962,"byteStride":8},{"buffer":0,"byteOffset":1608,"byteLength":72,"target":34963},{"buffer":0,"byteOffset":1680,"byteLength":288,"target":34962,"byteStride":12},{"buffer":0,"byteOffset":1968,"byteLength":288,"target":34962,"byteStride":12},{"buffer":0,"byteOffset":2256,"byteLength":192,"target":34962,"byteStride":8},{"buffer":0,"byteOffset":2448,"byteLength":72,"target":34963},{"buffer":0,"byteOffset":2520,"byteLength":288,"target":34962,"byteStride":12},{"buffer":0,"byteOffset":2808,"byteLength":288,"target":34962,"byteStride":12},{"buffer":0,"byteOffset":3096,"byteLength":192,"target":34962,"byteStride":8},{"buffer":0,"byteOffset":3288,"byteLength":72,"target":34963},{"buffer":0,"byteOffset":3360,"byteLength":288,"target":34962,"byteStride":12},{"buffer":0,"byteOffset":3648,"byteLength":288,"target":34962,"byteStride":12},{"buffer":0,"byteOffset":3936,"byteLength":192,"target":34962,"byteStride":8},{"buffer":0,"byteOffset":4128,"byteLength":72,"target":34963},{"buffer":0,"byteOffset":4200,"byteLength":288,"target":34962,"byteStride":12},{"buffer":0,"byteOffset":4488,"byteLength":288,"target":34962,"byteStride":12},{"buffer":0,"byteOffset":4776,"byteLength":192,"target":34962,"byteStride":8},{"buffer":0,"byteOffset":4968,"byteLength":12,"target":34963},{"buffer":0,"byteOffset":4980,"byteLength":60,"target":34963},{"buffer":0,"byteOffset":5040,"byteLength":288,"target":34962,"byteStride":12},{"buffer":0,"byteOffset":5328,"byteLength":288,"target":34962,"byteStride":12},{"buffer":0,"byteOffset":5616,"byteLength":192,"target":34962,"byteStride":8},{"buffer":0,"byteOffset":5808,"byteLength":12,"target":34963},{"buffer":0,"byteOffset":5820,"byteLength":12,"target":34963},{"buffer":0,"byteOffset":5832,"byteLength":12,"target":34963},{"buffer":0,"byteOffset":5844,"byteLength":36,"target":34963},{"buffer":0,"byteOffset":5880,"byteLength":288,"target":34962,"byteStride":12},{"buffer":0,"byteOffset":6168,"byteLength":288,"target":34962,"byteStride":12},{"buffer":0,"byteOffset":6456,"byteLength":192,"target":34962,"byteStride":8},{"buffer":0,"byteOffset":6648,"byteLength":72,"target":34963},{"buffer":0,"byteOffset":6720,"byteLength":288,"target":34962,"byteStride":12},{"buffer":0,"byteOffset":7008,"byteLength":288,"target":34962,"byteStride":12},{"buffer":0,"byteOffset":7296,"byteLength":192,"target":34962,"byteStride":8},{"buffer":0,"byteOffset":7488,"byteLength":24,"target":34963},{"buffer":0,"byteOffset":7512,"byteLength":12,"target":34963},{"buffer":0,"byteOffset":7524,"byteLength":36,"target":34963}],"buffers":[{"byteLength":7560,"uri":"data:application/octet-stream;base64,"}],"accessors":[{"bufferView":0,"componentType":5126,"count":24,"max":[0.1875,1,1],"min":[0,0,0],"type":"VEC3"},{"bufferView":1,"componentType":5126,"count":24,"max":[1,1,1],"min":[-1,-1,-1],"type":"VEC3"},{"bufferView":2,"componentType":5126,"count":24,"max":[1,1],"min":[0,0],"type":"VEC2"},{"bufferView":3,"componentType":5123,"count":36,"max":[23],"min":[0],"type":"SCALAR"},{"bufferView":4,"componentType":5126,"count":24,"max":[0.0625,0.375,1.015625],"min":[-0.015625,0.25,0.9375],"type":"VEC3"},{"bufferView":5,"componentType":5126,"count":24,"max":[1,1,1],"min":[-1,-1,-1],"type":"VEC3"},{"bufferView":6,"componentType":5126,"count":24,"max":[0.0625,0.375],"min":[0,0.25],"type":"VEC2"},{"bufferView":7,"componentType":5123,"count":36,"max":[23],"min":[0],"type":"SCALAR"},{"bufferView":8,"componentType":5126,"count":24,"max":[0.0625,1,1.015625],"min":[-0.015625,0.9375,0.9375],"type":"VEC3"},{"bufferView":9,"componentType":5126,"count":24,"max":[1,1,1],"min":[-1,-1,-1],"type":"VEC3"},{"bufferView":10,"componentType":5126,"count":24,"max":[0.0625,1],"min":[0,0.9375],"type":"VEC2"},{"bufferView":11,"componentType":5123,"count":36,"max":[23],"min":[0],"type":"SCALAR"},{"bufferView":12,"componentType":5126,"count":24,"max":[0.203125,1,1.015625],"min":[0.125,0.9375,0.9375],"type":"VEC3"},{"bufferView":13,"componentType":5126,"count":24,"max":[1,1,1],"min":[-1,-1,-1],"type":"VEC3"},{"bufferView":14,"componentType":5126,"count":24,"max":[0.0625,1],"min":[0,0.9375],"type":"VEC2"},{"bufferView":15,"componentType":5123,"count":36,"max":[23],"min":[0],"type":"SCALAR"},{"bufferView":16,"componentType":5126,"count":24,"max":[0.203125,0.375,1.015625],"min":[0.125,0.25,0.9375],"type":"VEC3"},{"bufferView":17,"componentType":5126,"count":24,"max":[1,1,1],"min":[-1,-1,-1],"type":"VEC3"},{"bufferView":18,"componentType":5126,"count":24,"max":[0.0625,0.375],"min":[0,0.25],"type":"VEC2"},{"bufferView":19,"componentType":5123,"count":36,"max":[23],"min":[0],"type":"SCALAR"},{"bufferView":20,"componentType":5126,"count":24,"max":[0,1,0.3125],"min":[-0.015625,0.96875,0.0625],"type":"VEC3"},{"bufferView":21,"componentType":5126,"count":24,"max":[1,1,1],"min":[-1,-1,-1],"type":"VEC3"},{"bufferView":22,"componentType":5126,"count":24,"max":[0.9375,1],"min":[0,0.75],"type":"VEC2"},{"bufferView":23,"componentType":5123,"count":6,"max":[3],"min":[0],"type":"SCALAR"},{"bufferView":24,"componentType":5123,"count":30,"max":[23],"min":[4],"type":"SCALAR"},{"bufferView":25,"componentType":5126,"count":24,"max":[0,0.96875,0.3125],"min":[-0.015625,0.90625,0.15625],"type":"VEC3"},{"bufferView":26,"componentType":5126,"count":24,"max":[1,1,1],"min":[-1,-1,-1],"type":"VEC3"},{"bufferView":27,"componentType":5126,"count":24,"max":[0.84375,1],"min":[0,0.84375],"type":"VEC2"},{"bufferView":28,"componentType":5123,"count":6,"max":[3],"min":[0],"type":"SCALAR"},{"bufferView":29,"componentType":5123,"count":6,"max":[7],"min":[4],"type":"SCALAR"},{"bufferView":30,"componentType":5123,"count":6,"max":[11],"min":[8],"type":"SCALAR"},{"bufferView":31,"componentType":5123,"count":18,"max":[23],"min":[12],"type":"SCALAR"},{"bufferView":32,"componentType":5126,"count":24,"max":[0.203125,1,0.3125],"min":[0.1875,0.96875,0.0625],"type":"VEC3"},{"bufferView":33,"componentType":5126,"count":24,"max":[1,1,1],"min":[-1,-1,-1],"type":"VEC3"},{"bufferView":34,"componentType":5126,"count":24,"max":[0.9375,1],"min":[0.6875,0.75],"type":"VEC2"},{"bufferView":35,"componentType":5123,"count":36,"max":[23],"min":[0],"type":"SCALAR"},{"bufferView":36,"componentType":5126,"count":24,"max":[0.203125,0.96875,0.3125],"min":[0.1875,0.90625,0.15625],"type":"VEC3"},{"bufferView":37,"componentType":5126,"count":24,"max":[1,1,1],"min":[-1,-1,-1],"type":"VEC3"},{"bufferView":38,"componentType":5126,"count":24,"max":[0.84375,1],"min":[0,0.84375],"type":"VEC2"},{"bufferView":39,"componentType":5123,"count":12,"max":[7],"min":[0],"type":"SCALAR"},{"bufferView":40,"componentType":5123,"count":6,"max":[11],"min":[8],"type":"SCALAR"},{"bufferView":41,"componentType":5123,"count":18,"max":[23],"min":[12],"type":"SCALAR"}],"materials":[{"pbrMetallicRoughness":{"metallicFactor":0,"roughnessFactor":1,"baseColorTexture":{"index":0}},"alphaMode":"MASK","alphaCutoff":0.05},{"pbrMetallicRoughness":{"metallicFactor":0,"roughnessFactor":1},"alphaMode":"MASK","alphaCutoff":0.05},{"pbrMetallicRoughness":{"metallicFactor":0,"roughnessFactor":1},"alphaMode":"MASK","alphaCutoff":0.05},{"pbrMetallicRoughness":{"metallicFactor":0,"roughnessFactor":1},"alphaMode":"MASK","alphaCutoff":0.05}],"textures":[{"sampler":0,"source":0}],"samplers":[{"magFilter":9728,"minFilter":9728,"wrapS":33071,"wrapT":33071}],"images":[{"mimeType":"image/png","uri":"data:image/png;base64,"}],"meshes":[{"primitives":[{"mode":4,"attributes":{"POSITION":0,"NORMAL":1,"TEXCOORD_0":2},"indices":3,"material":0}]},{"primitives":[{"mode":4,"attributes":{"POSITION":4,"NORMAL":5,"TEXCOORD_0":6},"indices":7,"material":0}]},{"primitives":[{"mode":4,"attributes":{"POSITION":8,"NORMAL":9,"TEXCOORD_0":10},"indices":11,"material":0}]},{"primitives":[{"mode":4,"attributes":{"POSITION":12,"NORMAL":13,"TEXCOORD_0":14},"indices":15,"material":0}]},{"primitives":[{"mode":4,"attributes":{"POSITION":16,"NORMAL":17,"TEXCOORD_0":18},"indices":19,"material":0}]},{"primitives":[{"mode":4,"attributes":{"POSITION":20,"NORMAL":21,"TEXCOORD_0":22},"indices":23,"material":1},{"mode":4,"attributes":{"POSITION":20,"NORMAL":21,"TEXCOORD_0":22},"indices":24,"material":0}]},{"primitives":[{"mode":4,"attributes":{"POSITION":25,"NORMAL":26,"TEXCOORD_0":27},"indices":28,"material":2},{"mode":4,"attributes":{"POSITION":25,"NORMAL":26,"TEXCOORD_0":27},"indices":29,"material":0},{"mode":4,"attributes":{"POSITION":25,"NORMAL":26,"TEXCOORD_0":27},"indices":30,"material":2},{"mode":4,"attributes":{"POSITION":25,"NORMAL":26,"TEXCOORD_0":27},"indices":31,"material":0}]},{"primitives":[{"mode":4,"attributes":{"POSITION":32,"NORMAL":33,"TEXCOORD_0":34},"indices":35,"material":0}]},{"primitives":[{"mode":4,"attributes":{"POSITION":36,"NORMAL":37,"TEXCOORD_0":38},"indices":39,"material":0},{"mode":4,"attributes":{"POSITION":36,"NORMAL":37,"TEXCOORD_0":38},"indices":40,"material":3},{"mode":4,"attributes":{"POSITION":36,"NORMAL":37,"TEXCOORD_0":38},"indices":41,"material":0}]}]}