{"asset":{"version":"2.0","generator":"Blockbench 4.4.2 glTF exporter"},"scenes":[{"nodes":[28],"name":"blockbench_export"}],"scene":0,"nodes":[{"name":"Cube1","mesh":0},{"name":"Cube2","mesh":1},{"name":"Cube3","mesh":2},{"name":"Cube4","mesh":3},{"name":"Cube5","mesh":4},{"name":"Cube6","mesh":5},{"name":"Cube7","mesh":6},{"name":"Cube8","mesh":7},{"name":"Cube9","mesh":8},{"name":"Cube10","mesh":9},{"name":"Cube11","mesh":10},{"name":"Cube12","mesh":11},{"name":"Cube13","mesh":12},{"name":"Cube14","mesh":13},{"name":"Cube15","mesh":14},{"name":"Cube16","mesh":15},{"name":"Cube17","mesh":16},{"name":"Cube18","mesh":17},{"name":"Cube19","mesh":18},{"name":"Cube20","mesh":19},{"name":"Cube21","mesh":20},{"name":"Cube22","mesh":21},{"name":"Cube23","mesh":22},{"name":"Cube24","mesh":23},{"name":"Cube25","mesh":24},{"name":"Cube26","mesh":25},{"name":"Cube27","mesh":26},{"name":"Cube28","mesh":27},{"children":[0,1,2,3,4,5,6,7,8,9,10,11,12,13,14,15,16,17,18,19,20,21,22,23,24,25,26,27]}],"bufferViews":[{"buffer":0,"byteOffset":0,"byteLength":288,"target":34962,"byteStride":12},{"buffer":0,"byteOffset":288,"byteLength":288,"target":34962,"byteStride":12},{"buffer":0,"byteOffset":576,"byteLength":192,"target":34962,"byteStride":8},{"buffer":0,"byteOffset":768,"byteLength":72,"target":34963},{"buffer":0,"byteOffset":840,"byteLength":288,"target":34962,"byteStride":12},{"buffer":0,"byteOffset":1128,"byteLength":288,"target":34962,"byteStride":12},{"buffer":0,"byteOffset":1416,"byteLength":192,"target":34962,"byteStride":8},{"buffer":0,"byteOffset":1608,"byteLength":60,"target":34963},{"buffer":0,"byteOffset":1668,"byteLength":288,"target":34962,"byteStride":12},{"buffer":0,"byteOffset":1956,"byteLength":288,"target":34962,"byteStride":12},{"buffer":0,"byteOffset":2244,"byteLength":192,"target":34962,"byteStride":8},{"buffer":0,"byteOffset":2436,"byteLength":60,"target":34963},{"buffer":0,"byteOffset":2496,"byteLength":288,"target":34962,"byteStride":12},{"buffer":0,"byteOffset":2784,"byteLength":288,"target":34962,"byteStride":12},{"buffer":0,"byteOffset":3072,"byteLength":192,"target":34962,"byteStride":8},{"buffer":0,"byteOffset":3264,"byteLength":72,"target":34963},{"buffer":0,"byteOffset":3336,"byteLength":288,"target":34962,"byteStride":12},{"buffer":0,"byteOffset":3624,"byteLength":288,"target":34962,"byteStride":12},{"buffer":0,"byteOffset":3912,"byteLength":192,"target":34962,"byteStride":8},{"buffer":0,"byteOffset":4104,"byteLength":60,"target":34963},{"buffer":0,"byteOffset":4164,"byteLength":288,"target":34962,"byteStride":12},{"buffer":0,"byteOffset":4452,"byteLength":288,"target":34962,"byteStride":12},{"buffer":0,"byteOffset":4740,"byteLength":192,"target":34962,"byteStride":8},{"buffer":0,"byteOffset":4932,"byteLength":72,"target":34963},{"buffer":0,"byteOffset":5004,"byteLength":288,"target":34962,"byteStride":12},{"buffer":0,"byteOffset":5292,"byteLength":288,"target":34962,"byteStride":12},{"buffer":0,"byteOffset":5580,"byteLength":192,"target":34962,"byteStride":8},{"buffer":0,"byteOffset":5772,"byteLength":72,"target":34963},{"buffer":0,"byteOffset":5844,"byteLength":288,"target":34962,"byteStride":12},{"buffer":0,"byteOffset":6132,"byteLength":288,"target":34962,"byteStride":12},{"buffer":0,"byteOffset":6420,"byteLength":192,"target":34962,"byteStride":8},{"buffer":0,"byteOffset":6612,"byteLength":60,"target":34963},{"buffer":0,"byteOffset":6672,"byteLength":288,"target":34962,"byteStride":12},{"buffer":0,"byteOffset":6960,"byteLength":288,"target":34962,"byteStride":12},{"buffer":0,"byteOffset":7248,"byteLength":192,"target":34962,"byteStride":8},{"buffer":0,"byteOffset":7440,"byteLength":72,"target":34963},{"buffer":0,"byteOffset":7512,"byteLength":288,"target":34962,"byteStride":12},{"buffer":0,"byteOffset":7800,"byteLength":288,"target":34962,"byteStride":12},{"buffer":0,"byteOffset":8088,"byteLength":192,"target":34962,"byteStride":8},{"buffer":0,"byteOffset":8280,"byteLength":60,"target":34963},{"buffer":0,"byteOffset":8340,"byteLength":288,"target":34962,"byteStride":12},{"buffer":0,"byteOffset":8628,"byteLength":288,"target":34962,"byteStride":12},{"buffer":0,"byteOffset":8916,"byteLength":192,"target":34962,"byteStride":8},{"buffer":0,"byteOffset":9108,"byteLength":60,"target":34963},{"buffer":0,"byteOffset":9168,"byteLength":288,"target":34962,"byteStride":12},{"buffer":0,"byteOffset":9456,"byteLength":288,"target":34962,"byteStride":12},{"buffer":0,"byteOffset":9744,"byteLength":192,"target":34962,"byteStride":8},{"buffer":0,"byteOffset":9936,"byteLength":60,"target":34963},{"buffer":0,"byteOffset":9996,"byteLength":288,"target":34962,"byteStride":12},{"buffer":0,"byteOffset":10284,"byteLength":288,"target":34962,"byteStride":12},{"buffer":0,"byteOffset":10572,"byteLength":192,"target":34962,"byteStride":8},{"buffer":0,"byteOffset":10764,"byteLength":72,"target":34963},{"buffer":0,"byteOffset":10836,"byteLength":288,"target":34962,"byteStride":12},{"buffer":0,"byteOffset":11124,"byteLength":288,"target":34962,"byteStride":12},{"buffer":0,"byteOffset":11412,"byteLength":192,"target":34962,"byteStride":8},{"buffer":0,"byteOffset":11604,"byteLength":60,"target":34963},{"buffer":0,"byteOffset":11664,"byteLength":288,"target":34962,"byteStride":12},{"buffer":0,"byteOffset":11952,"byteLength":288,"target":34962,"byteStride":12},{"buffer":0,"byteOffset":12240,"byteLength":192,"target":34962,"byteStride":8},{"buffer":0,"byteOffset":12432,"byteLength":60,"target":34963},{"buffer":0,"byteOffset":12492,"byteLength":288,"target":34962,"byteStride":12},{"buffer":0,"byteOffset":12780,"byteLength":288,"target":34962,"byteStride":12},{"buffer":0,"byteOffset":13068,"byteLength":192,"target":34962,"byteStride":8},{"buffer":0,"byteOffset":13260,"byteLength":60,"target":34963},{"buffer":0,"byteOffset":13320,"byteLength":288,"target":34962,"byteStride":12},{"buffer":0,"byteOffset":13608,"byteLength":288,"target":34962,"byteStride":12},{"buffer":0,"byteOffset":13896,"byteLength":192,"target":34962,"byteStride":8},{"buffer":0,"byteOffset":14088,"byteLength":60,"target":34963},{"buffer":0,"byteOffset":14148,"byteLength":288,"target":34962,"byteStride":12},{"buffer":0,"byteOffset":14436,"byteLength":288,"target":34962,"byteStride":12},{"buffer":0,"byteOffset":14724,"byteLength":192,"target":34962,"byteStride":8},{"buffer":0,"byteOffset":14916,"byteLength":60,"target":34963},{"buffer":0,"byteOffset":14976,"byteLength":288,"target":34962,"byteStride":12},{"buffer":0,"byteOffset":15264,"byteLength":288,"target":34962,"byteStride":12},{"buffer":0,"byteOffset":15552,"byteLength":192,"target":34962,"byteStride":8},{"buffer":0,"byteOffset":15744,"byteLength":60,"target":34963},{"buffer":0,"byteOffset":15804,"byteLength":288,"target":34962,"byteStride":12},{"buffer":0,"byteOffset":16092,"byteLength":288,"target":34962,"byteStride":12},{"buffer":0,"byteOffset":16380,"byteLength":192,"target":34962,"byteStride":8},{"buffer":0,"byteOffset":16572,"byteLength":60,"target":34963},{"buffer":0,"byteOffset":16632,"byteLength":288,"target":34962,"byteStride":12},{"buffer":0,"byteOffset":16920,"byteLength":288,"target":34962,"byteStride":12},{"buffer":0,"byteOffset":17208,"byteLength":192,"target":34962,"byteStride":8},{"buffer":0,"byteOffset":17400,"byteLength":48,"target":34963},{"buffer":0,"byteOffset":17448,"byteLength":288,"target":34962,"byteStride":12},{"buffer":0,"byteOffset":17736,"byteLength":288,"target":34962,"byteStride":12},{"buffer":0,"byteOffset":18024,"byteLength":192,"target":34962,"byteStride":8},{"buffer":0,"byteOffset":18216,"byteLength":48,"target":34963},{"buffer":0,"byteOffset":18264,"byteLength":288,"target":34962,"byteStride":12},{"buffer":0,"byteOffset":18552,"byteLength":288,"target":34962,"byteStride":12},{"buffer":0,"byteOffset":18840,"byteLength":192,"target":34962,"byteStride":8},{"buffer":0,"byteOffset":19032,"byteLength":48,"target":34963},{"buffer":0,"byteOffset":19080,"byteLength":288,"target":34962,"byteStride":12},{"buffer":0,"byteOffset":19368,"byteLength":288,"target":34962,"byteStride":12},{"buffer":0,"byteOffset":19656,"byteLength":192,"target":34962,"byteStride":8},{"buffer":0,"byteOffset":19848,"byteLength":48,"target":34963},{"buffer":0,"byteOffset":19896,"byteLength":288,"target":34962,"byteStride":12},{"buffer":0,"byteOffset":20184,"byteLength":288,"target":34962,"byteStride":12},{"buffer":0,"byteOffset":20472,"byteLength":192,"target":34962,"byteStride":8},{"buffer":0,"byteOffset":20664,"byteLength":60,"target":34963},{"buffer":0,"byteOffset":20724,"byteLength":288,"target":34962,"byteStride":12},{"buffer":0,"byteOffset":21012,"byteLength":288,"target":34962,"byteStride":12},{"buffer":0,"byteOffset":21300,"byteLength":192,"target":34962,"byteStride":8},{"buffer":0,"byteOffset":21492,"byteLength":60,"target":34963},{"buffer":0,"byteOffset":21552,"byteLength":288,"target":34962,"byteStride":12},{"buffer":0,"byteOffset":21840,"byteLength":288,"target":34962,"byteStride":12},{"buffer":0,"byteOffset":22128,"byteLength":192,"target":34962,"byteStride":8},{"buffer":0,"byteOffset":22320,"byteLength":60,"target":34963},{"buffer":0,"byteOffset":22380,"byteLength":288,"target":34962,"byteStride":12},{"buffer":0,"byteOffset":22668,"byteLength":288,"target":34962,"byteStride":12},{"buffer":0,"byteOffset":22956,"byteLength":192,"target":34962,"byteStride":8},{"buffer":0,"byteOffset":23148,"byteLength":60,"target":34963}],"buffers":[{"byteLength":23208,"uri":"data:application/octet-stream;base64,"}],"accessors":[{"bufferView":0,"componentType":5126,"count":24,"max":[0.9375,-0.0625,0.53125],"min":[0.0625,-0.125,0.46875],"type":"VEC3"},{"bufferView":1,"componentType":5126,"count":24,"max":[1,1,1],"min":[-1,-1,-1],"type":"VEC3"},{"bufferView":2,"componentType":5126,"count":24,"max":[0.9375,0.53125],"min":[0.0625,0.46875],"type":"VEC2"},{"bufferView":3,"componentType":5123,"count":36,"max":[23],"min":[0],"type":"SCALAR"},{"bufferView":4,"componentType":5126,"count":24,"max":[0.90625,-0.0625,0.625],"min":[0.0625,-0.125,0.53125],"type":"VEC3"},{"bufferView":5,"componentType":5126,"count":24,"max":[1,1,1],"min":[-1,-1,-1],"type":"VEC3"},{"bufferView":6,"componentType":5126,"count":24,"max":[1,1],"min":[0,0],"type":"VEC2"},{"bufferView":7,"componentType":5123,"count":30,"max":[19],"min":[0],"type":"SCALAR"},{"bufferView":8,"componentType":5126,"count":24,"max":[0.875,-0.0625,0.65625],"min":[0.0625,-0.125,0.625],"type":"VEC3"},{"bufferView":9,"componentType":5126,"count":24,"max":[1,1,1],"min":[-1,-1,-1],"type":"VEC3"},{"bufferView":10,"componentType":5126,"count":24,"max":[1,1],"min":[0,0],"type":"VEC2"},{"bufferView":11,"componentType":5123,"count":30,"max":[19],"min":[0],"type":"SCALAR"},{"bufferView":12,"componentType":5126,"count":24,"max":[0.59375,-0.0625,0.40625],"min":[0.09375,-0.125,0.375],"type":"VEC3"},{"bufferView":13,"componentType":5126,"count":24,"max":[1,1,1],"min":[-1,-1,-1],"type":"VEC3"},{"bufferView":14,"componentType":5126,"count":24,"max":[0.59375,0.625],"min":[0.09375,0.59375],"type":"VEC2"},{"bufferView":15,"componentType":5123,"count":36,"max":[23],"min":[0],"type":"SCALAR"},{"bufferView":16,"componentType":5126,"count":24,"max":[0.5625,-0.0625,0.75],"min":[0.09375,-0.125,0.40625],"type":"VEC3"},{"bufferView":17,"componentType":5126,"count":24,"max":[1,1,1],"min":[-1,-1,-1],"type":"VEC3"},{"bufferView":18,"componentType":5126,"count":24,"max":[1,1],"min":[0,0],"type":"VEC2"},{"bufferView":19,"componentType":5123,"count":30,"max":[19],"min":[0],"type":"SCALAR"},{"bufferView":20,"componentType":5126,"count":24,"max":[0.625,-0.0625,0.375],"min":[0.125,-0.125,0.3125],"type":"VEC3"},{"bufferView":21,"componentType":5126,"count":24,"max":[1,1,1],"min":[-1,-1,-1],"type":"VEC3"},{"bufferView":22,"componentType":5126,"count":24,"max":[0.625,0.6875],"min":[0.125,0.625],"type":"VEC2"},{"bufferView":23,"componentType":5123,"count":36,"max":[23],"min":[0],"type":"SCALAR"},{"bufferView":24,"componentType":5126,"count":24,"max":[0.78125,-0.0625,0.78125],"min":[0.125,-0.125,0.75],"type":"VEC3"},{"bufferView":25,"componentType":5126,"count":24,"max":[1,1,1],"min":[-1,-1,-1],"type":"VEC3"},{"bufferView":26,"componentType":5126,"count":24,"max":[0.78125,0.25],"min":[0.125,0.21875],"type":"VEC2"},{"bufferView":27,"componentType":5123,"count":36,"max":[23],"min":[0],"type":"SCALAR"},{"bufferView":28,"componentType":5126,"count":24,"max":[0.75,-0.0625,0.8125],"min":[0.125,-0.125,0.78125],"type":"VEC3"},{"bufferView":29,"componentType":5126,"count":24,"max":[1,1,1],"min":[-1,-1,-1],"type":"VEC3"},{"bufferView":30,"componentType":5126,"count":24,"max":[1,1],"min":[0,0],"type":"VEC2"},{"bufferView":31,"componentType":5123,"count":30,"max":[19],"min":[0],"type":"SCALAR"},{"bufferView":32,"componentType":5126,"count":24,"max":[0.65625,-0.0625,0.3125],"min":[0.15625,-0.125,0.28125],"type":"VEC3"},{"bufferView":33,"componentType":5126,"count":24,"max":[1,1,1],"min":[-1,-1,-1],"type":"VEC3"},{"bufferView":34,"componentType":5126,"count":24,"max":[0.65625,0.71875],"min":[0.15625,0.6875],"type":"VEC2"},{"bufferView":35,"componentType":5123,"count":36,"max":[23],"min":[0],"type":"SCALAR"},{"bufferView":36,"componentType":5126,"count":24,"max":[0.71875,-0.0625,0.84375],"min":[0.15625,-0.125,0.8125],"type":"VEC3"},{"bufferView":37,"componentType":5126,"count":24,"max":[1,1,1],"min":[-1,-1,-1],"type":"VEC3"},{"bufferView":38,"componentType":5126,"count":24,"max":[1,1],"min":[0,0],"type":"VEC2"},{"bufferView":39,"componentType":5123,"count":30,"max":[19],"min":[0],"type":"SCALAR"},{"bufferView":40,"componentType":5126,"count":24,"max":[0.65625,-0.0625,0.28125],"min":[0.1875,-0.125,0.25],"type":"VEC3"},{"bufferView":41,"componentType":5126,"count":24,"max":[1,1,1],"min":[-1,-1,-1],"type":"VEC3"},{"bufferView":42,"componentType":5126,"count":24,"max":[1,1],"min":[0,0],"type":"VEC2"},{"bufferView":43,"componentType":5123,"count":30,"max":[23],"min":[0],"type":"SCALAR"},{"bufferView":44,"componentType":5126,"count":24,"max":[0.6875,-0.0625,0.875],"min":[0.1875,-0.125,0.84375],"type":"VEC3"},{"bufferView":45,"componentType":5126,"count":24,"max":[1,1,1],"min":[-1,-1,-1],"type":"VEC3"},{"bufferView":46,"componentType":5126,"count":24,"max":[1,1],"min":[0,0],"type":"VEC2"},{"bufferView":47,"componentType":5123,"count":30,"max":[19],"min":[0],"type":"SCALAR"},{"bufferView":48,"componentType":5126,"count":24,"max":[0.6875,-0.0625,0.25],"min":[0.21875,-0.125,0.21875],"type":"VEC3"},{"bufferView":49,"componentType":5126,"count":24,"max":[1,1,1],"min":[-1,-1,-1],"type":"VEC3"},{"bufferView":50,"componentType":5126,"count":24,"max":[0.6875,0.78125],"min":[0.21875,0.75],"type":"VEC2"},{"bufferView":51,"componentType":5123,"count":36,"max":[23],"min":[0],"type":"SCALAR"},{"bufferView":52,"componentType":5126,"count":24,"max":[0.6875,-0.0625,0.21875],"min":[0.25,-0.125,0.1875],"type":"VEC3"},{"bufferView":53,"componentType":5126,"count":24,"max":[1,1,1],"min":[-1,-1,-1],"type":"VEC3"},{"bufferView":54,"componentType":5126,"count":24,"max":[1,1],"min":[0,0],"type":"VEC2"},{"bufferView":55,"componentType":5123,"count":30,"max":[23],"min":[0],"type":"SCALAR"},{"bufferView":56,"componentType":5126,"count":24,"max":[0.625,-0.0625,0.90625],"min":[0.25,-0.125,0.875],"type":"VEC3"},{"bufferView":57,"componentType":5126,"count":24,"max":[1,1,1],"min":[-1,-1,-1],"type":"VEC3"},{"bufferView":58,"componentType":5126,"count":24,"max":[1,1],"min":[0,0],"type":"VEC2"},{"bufferView":59,"componentType":5123,"count":30,"max":[19],"min":[0],"type":"SCALAR"},{"bufferView":60,"componentType":5126,"count":24,"max":[0.6875,-0.0625,0.1875],"min":[0.28125,-0.125,0.15625],"type":"VEC3"},{"bufferView":61,"componentType":5126,"count":24,"max":[1,1,1],"min":[-1,-1,-1],"type":"VEC3"},{"bufferView":62,"componentType":5126,"count":24,"max":[1,1],"min":[0,0],"type":"VEC2"},{"bufferView":63,"componentType":5123,"count":30,"max":[23],"min":[0],"type":"SCALAR"},{"bufferView":64,"componentType":5126,"count":24,"max":[0.6875,-0.0625,0.15625],"min":[0.3125,-0.125,0.125],"type":"VEC3"},{"bufferView":65,"componentType":5126,"count":24,"max":[1,1,1],"min":[-1,-1,-1],"type":"VEC3"},{"bufferView":66,"componentType":5126,"count":24,"max":[1,1],"min":[0,0],"type":"VEC2"},{"bufferView":67,"componentType":5123,"count":30,"max":[23],"min":[0],"type":"SCALAR"},{"bufferView":68,"componentType":5126,"count":24,"max":[0.53125,-0.0625,0.9375],"min":[0.34375,-0.125,0.90625],"type":"VEC3"},{"bufferView":69,"componentType":5126,"count":24,"max":[1,1,1],"min":[-1,-1,-1],"type":"VEC3"},{"bufferView":70,"componentType":5126,"count":24,"max":[1,1],"min":[0,0],"type":"VEC2"},{"bufferView":71,"componentType":5123,"count":30,"max":[19],"min":[0],"type":"SCALAR"},{"bufferView":72,"componentType":5126,"count":24,"max":[0.65625,-0.0625,0.125],"min":[0.375,-0.125,0.09375],"type":"VEC3"},{"bufferView":73,"componentType":5126,"count":24,"max":[1,1,1],"min":[-1,-1,-1],"type":"VEC3"},{"bufferView":74,"componentType":5126,"count":24,"max":[1,1],"min":[0,0],"type":"VEC2"},{"bufferView":75,"componentType":5123,"count":30,"max":[23],"min":[0],"type":"SCALAR"},{"bufferView":76,"componentType":5126,"count":24,"max":[0.625,-0.0625,0.09375],"min":[0.46875,-0.125,0.0625],"type":"VEC3"},{"bufferView":77,"componentType":5126,"count":24,"max":[1,1,1],"min":[-1,-1,-1],"type":"VEC3"},{"bufferView":78,"componentType":5126,"count":24,"max":[1,1],"min":[0,0],"type":"VEC2"},{"bufferView":79,"componentType":5123,"count":30,"max":[23],"min":[0],"type":"SCALAR"},{"bufferView":80,"componentType":5126,"count":24,"max":[0.9375,-0.0625,0.46875],"min":[0.5625,-0.125,0.4375],"type":"VEC3"},{"bufferView":81,"componentType":5126,"count":24,"max":[1,1,1],"min":[-1,-1,-1],"type":"VEC3"},{"bufferView":82,"componentType":5126,"count":24,"max":[1,1],"min":[0,0],"type":"VEC2"},{"bufferView":83,"componentType":5123,"count":24,"max":[23],"min":[0],"type":"SCALAR"},{"bufferView":84,"componentType":5126,"count":24,"max":[0.875,-0.0625,0.6875],"min":[0.5625,-0.125,0.65625],"type":"VEC3"},{"bufferView":85,"componentType":5126,"count":24,"max":[1,1,1],"min":[-1,-1,-1],"type":"VEC3"},{"bufferView":86,"componentType":5126,"count":24,"max":[1,1],"min":[0,0],"type":"VEC2"},{"bufferView":87,"componentType":5123,"count":24,"max":[19],"min":[0],"type":"SCALAR"},{"bufferView":88,"componentType":5126,"count":24,"max":[0.84375,-0.0625,0.71875],"min":[0.5625,-0.125,0.6875],"type":"VEC3"},{"bufferView":89,"componentType":5126,"count":24,"max":[1,1,1],"min":[-1,-1,-1],"type":"VEC3"},{"bufferView":90,"componentType":5126,"count":24,"max":[1,1],"min":[0,0],"type":"VEC2"},{"bufferView":91,"componentType":5123,"count":24,"max":[19],"min":[0],"type":"SCALAR"},{"bufferView":92,"componentType":5126,"count":24,"max":[0.8125,-0.0625,0.75],"min":[0.5625,-0.125,0.71875],"type":"VEC3"},{"bufferView":93,"componentType":5126,"count":24,"max":[1,1,1],"min":[-1,-1,-1],"type":"VEC3"},{"bufferView":94,"componentType":5126,"count":24,"max":[1,1],"min":[0,0],"type":"VEC2"},{"bufferView":95,"componentType":5123,"count":24,"max":[19],"min":[0],"type":"SCALAR"},{"bufferView":96,"componentType":5126,"count":24,"max":[0.9375,-0.0625,0.4375],"min":[0.59375,-0.125,0.40625],"type":"VEC3"},{"bufferView":97,"componentType":5126,"count":24,"max":[1,1,1],"min":[-1,-1,-1],"type":"VEC3"},{"bufferView":98,"componentType":5126,"count":24,"max":[1,1],"min":[0,0],"type":"VEC2"},{"bufferView":99,"componentType":5123,"count":30,"max":[23],"min":[0],"type":"SCALAR"},{"bufferView":100,"componentType":5126,"count":24,"max":[0.9375,-0.0625,0.40625],"min":[0.625,-0.125,0.375],"type":"VEC3"},{"bufferView":101,"componentType":5126,"count":24,"max":[1,1,1],"min":[-1,-1,-1],"type":"VEC3"},{"bufferView":102,"componentType":5126,"count":24,"max":[1,1],"min":[0,0],"type":"VEC2"},{"bufferView":103,"componentType":5123,"count":30,"max":[23],"min":[0],"type":"SCALAR"},{"bufferView":104,"componentType":5126,"count":24,"max":[0.90625,-0.0625,0.375],"min":[0.6875,-0.125,0.34375],"type":"VEC3"},{"bufferView":105,"componentType":5126,"count":24,"max":[1,1,1],"min":[-1,-1,-1],"type":"VEC3"},{"bufferView":106,"componentType":5126,"count":24,"max":[1,1],"min":[0,0],"type":"VEC2"},{"bufferView":107,"componentType":5123,"count":30,"max":[23],"min":[0],"type":"SCALAR"},{"bufferView":108,"componentType":5126,"count":24,"max":[0.875,-0.0625,0.34375],"min":[0.75,-0.125,0.3125],"type":"VEC3"},{"bufferView":109,"componentType":5126,"count":24,"max":[1,1,1],"min":[-1,-1,-1],"type":"VEC3"},{"bufferView":110,"componentType":5126,"count":24,"max":[1,1],"min":[0,0],"type":"VEC2"},{"bufferView":111,"componentType":5123,"count":30,"max":[23],"min":[0],"type":"SCALAR"}],"materials":[{"pbrMetallicRoughness":{"metallicFactor":0,"roughnessFactor":1,"baseColorTexture":{"index":0}},"alphaMode":"MASK","alphaCutoff":0.05}],"textures":[{"sampler":0,"source":0}],"samplers":[{"magFilter":9728,"minFilter":9728,"wrapS":33071,"wrapT":33071}],"images":[{"mimeType":"image/png","uri":"data:image/png;base64,"}],"meshes":[{"primitives":[{"mode":4,"attributes":{"POSITION":0,"NORMAL":1,"TEXCOORD_0":2},"indices":3,"material":0}]},{"primitives":[{"mode":4,"attributes":{"POSITION":4,"NORMAL":5,"TEXCOORD_0":6},"indices":7,"material":0}]},{"primitives":[{"mode":4,"attributes":{"POSITION":8,"NORMAL":9,"TEXCOORD_0":10},"indices":11,"material":0}]},{"primitives":[{"mode":4,"attributes":{"POSITION":12,"NORMAL":13,"TEXCOORD_0":14},"indices":15,"material":0}]},{"primitives":[{"mode":4,"attributes":{"POSITION":16,"NORMAL":17,"TEXCOORD_0":18},"indices":19,"material":0}]},{"primitives":[{"mode":4,"attributes":{"POSITION":20,"NORMAL":21,"TEXCOORD_0":22},"indices":23,"material":0}]},{"primitives":[{"mode":4,"attributes":{"POSITION":24,"NORMAL":25,"TEXCOORD_0":26},"indices":27,"material":0}]},{"primitives":[{"mode":4,"attributes":{"POSITION":28,"NORMAL":29,"TEXCOORD_0":30},"indices":31,"material":0}]},{"primitives":[{"mode":4,"attributes":{"POSITION":32,"NORMAL":33,"TEXCOORD_0":34},"indices":35,"material":0}]},{"primitives":[{"mode":4,"attributes":{"POSITION":36,"NORMAL":37,"TEXCOORD_0":38},"indices":39,"material":0}]},{"primitives":[{"mode":4,"attributes":{"POSITION":40,"NORMAL":41,"TEXCOORD_0":42},"indices":43,"material":0}]},{"primitives":[{"mode":4,"attributes":{"POSITION":44,"NORMAL":45,"TEXCOORD_0":46},"indices":47,"material":0}]},{"primitives":[{"mode":4,"attributes":{"POSITION":48,"NORMAL":49,"TEXCOORD_0":50},"indices":51,"material":0}]},{"primitives":[{"mode":4,"attributes":{"POSITION":52,"NORMAL":53,"TEXCOORD_0":54},"indices":55,"material":0}]},{"primitives":[{"mode":4,"attributes":{"POSITION":56,"NORMAL":57,"TEXCOORD_0":58},"indices":59,"material":0}]},{"primitives":[{"mode":4,"attributes":{"POSITION":60,"NORMAL":61,"TEXCOORD_0":62},"indices":63,"material":0}]},{"primitives":[{"mode":4,"attributes":{"POSITION":64,"NORMAL":65,"TEXCOORD_0":66},"indices":67,"material":0}]},{"primitives":[{"mode":4,"attributes":{"POSITION":68,"NORMAL":69,"TEXCOORD_0":70},"indices":71,"material":0}]},{"primitives":[{"mode":4,"attributes":{"POSITION":72,"NORMAL":73,"TEXCOORD_0":74},"indices":75,"material":0}]},{"primitives":[{"mode":4,"attributes":{"POSITION":76,"NORMAL":77,"TEXCOORD_0":78},"indices":79,"material":0}]},{"primitives":[{"mode":4,"attributes":{"POSITION":80,"NORMAL":81,"TEXCOORD_0":82},"indices":83,"material":0}]},{"primitives":[{"mode":4,"attributes":{"POSITION":84,"NORMAL":85,"TEXCOORD_0":86},"indices":87,"material":0}]},{"primitives":[{"mode":4,"attributes":{"POSITION":88,"NORMAL":89,"TEXCOORD_0":90},"indices":91,"material":0}]},{"primitives":[{"mode":4,"attributes":{"POSITION":92,"NORMAL":93,"TEXCOORD_0":94},"indices":95,"material":0}]},{"primitives":[{"mode":4,"attributes":{"POSITION":96,"NORMAL":97,"TEXCOORD_0":98},"indices":99,"material":0}]},{"primitives":[{"mode":4,"attributes":{"POSITION":100,"NORMAL":101,"TEXCOORD_0":102},"indices":103,"material":0}]},{"primitives":[{"mode":4,"attributes":{"POSITION":104,"NORMAL":105,"TEXCOORD_0":106},"indices":107,"material":0}]},{"primitives":[{"mode":4,"attributes":{"POSITION":108,"NORMAL":109,"TEXCOORD_0":110},"indices":111,"material":0}]}]}