{"asset":{"version":"2.0","generator":"Blockbench 4.4.2 glTF exporter"},"scenes":[{"nodes":[15],"name":"blockbench_export"}],"scene":0,"nodes":[{"name":"Box1","mesh":0},{"name":"Box2","mesh":1},{"name":"Box2","mesh":2},{"name":"Box2","mesh":3},{"name":"Box2","mesh":4},{"name":"Box2","mesh":5},{"name":"Box2","mesh":6},{"name":"Box2","mesh":7},{"name":"Box2","mesh":8},{"name":"Box2","mesh":9},{"name":"Box2","mesh":10},{"name":"Box2","mesh":11},{"name":"Box2","mesh":12},{"name":"Box2","mesh":13},{"name":"Box2","mesh":14},{"children":[0,1,2,3,4,5,6,7,8,9,10,11,12,13,14]}],"bufferViews":[{"buffer":0,"byteOffset":0,"byteLength":288,"target":34962,"byteStride":12},{"buffer":0,"byteOffset":288,"byteLength":288,"target":34962,"byteStride":12},{"buffer":0,"byteOffset":576,"byteLength":192,"target":34962,"byteStride":8},{"buffer":0,"byteOffset":768,"byteLength":24,"target":34963},{"buffer":0,"byteOffset":792,"byteLength":12,"target":34963},{"buffer":0,"byteOffset":804,"byteLength":24,"target":34963},{"buffer":0,"byteOffset":828,"byteLength":288,"target":34962,"byteStride":12},{"buffer":0,"byteOffset":1116,"byteLength":288,"target":34962,"byteStride":12},{"buffer":0,"byteOffset":1404,"byteLength":192,"target":34962,"byteStride":8},{"buffer":0,"byteOffset":1596,"byteLength":60,"target":34963},{"buffer":0,"byteOffset":1656,"byteLength":288,"target":34962,"byteStride":12},{"buffer":0,"byteOffset":1944,"byteLength":288,"target":34962,"byteStride":12},{"buffer":0,"byteOffset":2232,"byteLength":192,"target":34962,"byteStride":8},{"buffer":0,"byteOffset":2424,"byteLength":48,"target":34963},{"buffer":0,"byteOffset":2472,"byteLength":288,"target":34962,"byteStride":12},{"buffer":0,"byteOffset":2760,"byteLength":288,"target":34962,"byteStride":12},{"buffer":0,"byteOffset":3048,"byteLength":192,"target":34962,"byteStride":8},{"buffer":0,"byteOffset":3240,"byteLength":48,"target":34963},{"buffer":0,"byteOffset":3288,"byteLength":288,"target":34962,"byteStride":12},{"buffer":0,"byteOffset":3576,"byteLength":288,"target":34962,"byteStride":12},{"buffer":0,"byteOffset":3864,"byteLength":192,"target":34962,"byteStride":8},{"buffer":0,"byteOffset":4056,"byteLength":48,"target":34963},{"buffer":0,"byteOffset":4104,"byteLength":288,"target":34962,"byteStride":12},{"buffer":0,"byteOffset":4392,"byteLength":288,"target":34962,"byteStride":12},{"buffer":0,"byteOffset":4680,"byteLength":192,"target":34962,"byteStride":8},{"buffer":0,"byteOffset":4872,"byteLength":60,"target":34963},{"buffer":0,"byteOffset":4932,"byteLength":288,"target":34962,"byteStride":12},{"buffer":0,"byteOffset":5220,"byteLength":288,"target":34962,"byteStride":12},{"buffer":0,"byteOffset":5508,"byteLength":192,"target":34962,"byteStride":8},{"buffer":0,"byteOffset":5700,"byteLength":48,"target":34963},{"buffer":0,"byteOffset":5748,"byteLength":288,"target":34962,"byteStride":12},{"buffer":0,"byteOffset":6036,"byteLength":288,"target":34962,"byteStride":12},{"buffer":0,"byteOffset":6324,"byteLength":192,"target":34962,"byteStride":8},{"buffer":0,"byteOffset":6516,"byteLength":48,"target":34963},{"buffer":0,"byteOffset":6564,"byteLength":288,"target":34962,"byteStride":12},{"buffer":0,"byteOffset":6852,"byteLength":288,"target":34962,"byteStride":12},{"buffer":0,"byteOffset":7140,"byteLength":192,"target":34962,"byteStride":8},{"buffer":0,"byteOffset":7332,"byteLength":48,"target":34963},{"buffer":0,"byteOffset":7380,"byteLength":288,"target":34962,"byteStride":12},{"buffer":0,"byteOffset":7668,"byteLength":288,"target":34962,"byteStride":12},{"buffer":0,"byteOffset":7956,"byteLength":192,"target":34962,"byteStride":8},{"buffer":0,"byteOffset":8148,"byteLength":48,"target":34963},{"buffer":0,"byteOffset":8196,"byteLength":288,"target":34962,"byteStride":12},{"buffer":0,"byteOffset":8484,"byteLength":288,"target":34962,"byteStride":12},{"buffer":0,"byteOffset":8772,"byteLength":192,"target":34962,"byteStride":8},{"buffer":0,"byteOffset":8964,"byteLength":48,"target":34963},{"buffer":0,"byteOffset":9012,"byteLength":288,"target":34962,"byteStride":12},{"buffer":0,"byteOffset":9300,"byteLength":288,"target":34962,"byteStride":12},{"buffer":0,"byteOffset":9588,"byteLength":192,"target":34962,"byteStride":8},{"buffer":0,"byteOffset":9780,"byteLength":48,"target":34963},{"buffer":0,"byteOffset":9828,"byteLength":288,"target":34962,"byteStride":12},{"buffer":0,"byteOffset":10116,"byteLength":288,"target":34962,"byteStride":12},{"buffer":0,"byteOffset":10404,"byteLength":192,"target":34962,"byteStride":8},{"buffer":0,"byteOffset":10596,"byteLength":48,"target":34963},{"buffer":0,"byteOffset":10644,"byteLength":288,"target":34962,"byteStride":12},{"buffer":0,"byteOffset":10932,"byteLength":288,"target":34962,"byteStride":12},{"buffer":0,"byteOffset":11220,"byteLength":192,"target":34962,"byteStride":8},{"buffer":0,"byteOffset":11412,"byteLength":48,"target":34963},{"buffer":0,"byteOffset":11460,"byteLength":288,"target":34962,"byteStride":12},{"buffer":0,"byteOffset":11748,"byteLength":288,"target":34962,"byteStride":12},{"buffer":0,"byteOffset":12036,"byteLength":192,"target":34962,"byteStride":8},{"buffer":0,"byteOffset":12228,"byteLength":48,"target":34963}],"buffers":[{"byteLength":12276,"uri":"data:application/octet-stream;base64,"}],"accessors":[{"bufferView":0,"componentType":5126,"count":24,"max":[0.1875,1,1],"min":[0,0,0],"type":"VEC3"},{"bufferView":1,"componentType":5126,"count":24,"max":[1,1,1],"min":[-1,-1,-1],"type":"VEC3"},{"bufferView":2,"componentType":5126,"count":24,"max":[1,1],"min":[0,0],"type":"VEC2"},{"bufferView":3,"componentType":5123,"count":12,"max":[7],"min":[0],"type":"SCALAR"},{"bufferView":4,"componentType":5123,"count":6,"max":[11],"min":[8],"type":"SCALAR"},{"bufferView":5,"componentType":5123,"count":12,"max":[23],"min":[16],"type":"SCALAR"},{"bufferView":6,"componentType":5126,"count":24,"max":[0,0.75,0.9375],"min":[-0.015625,0.65625,0],"type":"VEC3"},{"bufferView":7,"componentType":5126,"count":24,"max":[1,1,1],"min":[-1,-1,-1],"type":"VEC3"},{"bufferView":8,"componentType":5126,"count":24,"max":[1,1],"min":[0,0],"type":"VEC2"},{"bufferView":9,"componentType":5123,"count":30,"max":[23],"min":[4],"type":"SCALAR"},{"bufferView":10,"componentType":5126,"count":24,"max":[0,0.78125,0.0625],"min":[-0.015625,0.75,0],"type":"VEC3"},{"bufferView":11,"componentType":5126,"count":24,"max":[1,1,1],"min":[-1,-1,-1],"type":"VEC3"},{"bufferView":12,"componentType":5126,"count":24,"max":[1,1],"min":[0,0],"type":"VEC2"},{"bufferView":13,"componentType":5123,"count":24,"max":[23],"min":[4],"type":"SCALAR"},{"bufferView":14,"componentType":5126,"count":24,"max":[0,0.65625,0.0625],"min":[-0.015625,0.625,0],"type":"VEC3"},{"bufferView":15,"componentType":5126,"count":24,"max":[1,1,1],"min":[-1,-1,-1],"type":"VEC3"},{"bufferView":16,"componentType":5126,"count":24,"max":[1,1],"min":[0,0],"type":"VEC2"},{"bufferView":17,"componentType":5123,"count":24,"max":[23],"min":[4],"type":"SCALAR"},{"bufferView":18,"componentType":5126,"count":24,"max":[0,0.71875,0.96875],"min":[-0.015625,0.6875,0.9375],"type":"VEC3"},{"bufferView":19,"componentType":5126,"count":24,"max":[1,1,1],"min":[-1,-1,-1],"type":"VEC3"},{"bufferView":20,"componentType":5126,"count":24,"max":[1,1],"min":[0,0],"type":"VEC2"},{"bufferView":21,"componentType":5123,"count":24,"max":[19],"min":[4],"type":"SCALAR"},{"bufferView":22,"componentType":5126,"count":24,"max":[0.203125,0.75,0.9375],"min":[0.1875,0.65625,0],"type":"VEC3"},{"bufferView":23,"componentType":5126,"count":24,"max":[1,1,1],"min":[-1,-1,-1],"type":"VEC3"},{"bufferView":24,"componentType":5126,"count":24,"max":[1,1],"min":[0,0],"type":"VEC2"},{"bufferView":25,"componentType":5123,"count":30,"max":[23],"min":[0],"type":"SCALAR"},{"bufferView":26,"componentType":5126,"count":24,"max":[0.203125,0.78125,0.0625],"min":[0.1875,0.75,0],"type":"VEC3"},{"bufferView":27,"componentType":5126,"count":24,"max":[1,1,1],"min":[-1,-1,-1],"type":"VEC3"},{"bufferView":28,"componentType":5126,"count":24,"max":[1,1],"min":[0,0],"type":"VEC2"},{"bufferView":29,"componentType":5123,"count":24,"max":[23],"min":[0],"type":"SCALAR"},{"bufferView":30,"componentType":5126,"count":24,"max":[0.203125,0.65625,0.0625],"min":[0.1875,0.625,0],"type":"VEC3"},{"bufferView":31,"componentType":5126,"count":24,"max":[1,1,1],"min":[-1,-1,-1],"type":"VEC3"},{"bufferView":32,"componentType":5126,"count":24,"max":[1,1],"min":[0,0],"type":"VEC2"},{"bufferView":33,"componentType":5123,"count":24,"max":[23],"min":[0],"type":"SCALAR"},{"bufferView":34,"componentType":5126,"count":24,"max":[0.203125,0.71875,0.96875],"min":[0.1875,0.6875,0.9375],"type":"VEC3"},{"bufferView":35,"componentType":5126,"count":24,"max":[1,1,1],"min":[-1,-1,-1],"type":"VEC3"},{"bufferView":36,"componentType":5126,"count":24,"max":[1,1],"min":[0,0],"type":"VEC2"},{"bufferView":37,"componentType":5123,"count":24,"max":[19],"min":[0],"type":"SCALAR"},{"bufferView":38,"componentType":5126,"count":24,"max":[0.203125,0.03125,0.96875],"min":[0.1875,0,0.9375],"type":"VEC3"},{"bufferView":39,"componentType":5126,"count":24,"max":[1,1,1],"min":[-1,-1,-1],"type":"VEC3"},{"bufferView":40,"componentType":5126,"count":24,"max":[1,1],"min":[0,0],"type":"VEC2"},{"bufferView":41,"componentType":5123,"count":24,"max":[19],"min":[0],"type":"SCALAR"},{"bufferView":42,"componentType":5126,"count":24,"max":[0.203125,0.09375,0.0625],"min":[0.1875,0.0625,0],"type":"VEC3"},{"bufferView":43,"componentType":5126,"count":24,"max":[1,1,1],"min":[-1,-1,-1],"type":"VEC3"},{"bufferView":44,"componentType":5126,"count":24,"max":[1,1],"min":[0,0],"type":"VEC2"},{"bufferView":45,"componentType":5123,"count":24,"max":[23],"min":[0],"type":"SCALAR"},{"bufferView":46,"componentType":5126,"count":24,"max":[0.203125,0.0625,0.9375],"min":[0.1875,0,0],"type":"VEC3"},{"bufferView":47,"componentType":5126,"count":24,"max":[1,1,1],"min":[-1,-1,-1],"type":"VEC3"},{"bufferView":48,"componentType":5126,"count":24,"max":[1,1],"min":[0,0],"type":"VEC2"},{"bufferView":49,"componentType":5123,"count":24,"max":[23],"min":[0],"type":"SCALAR"},{"bufferView":50,"componentType":5126,"count":24,"max":[0,0.03125,0.96875],"min":[-0.015625,0,0.9375],"type":"VEC3"},{"bufferView":51,"componentType":5126,"count":24,"max":[1,1,1],"min":[-1,-1,-1],"type":"VEC3"},{"bufferView":52,"componentType":5126,"count":24,"max":[1,1],"min":[0,0],"type":"VEC2"},{"bufferView":53,"componentType":5123,"count":24,"max":[19],"min":[4],"type":"SCALAR"},{"bufferView":54,"componentType":5126,"count":24,"max":[0,0.09375,0.0625],"min":[-0.015625,0.0625,0],"type":"VEC3"},{"bufferView":55,"componentType":5126,"count":24,"max":[1,1,1],"min":[-1,-1,-1],"type":"VEC3"},{"bufferView":56,"componentType":5126,"count":24,"max":[1,1],"min":[0,0],"type":"VEC2"},{"bufferView":57,"componentType":5123,"count":24,"max":[23],"min":[4],"type":"SCALAR"},{"bufferView":58,"componentType":5126,"count":24,"max":[0,0.0625,0.9375],"min":[-0.015625,0,0],"type":"VEC3"},{"bufferView":59,"componentType":5126,"count":24,"max":[1,1,1],"min":[-1,-1,-1],"type":"VEC3"},{"bufferView":60,"componentType":5126,"count":24,"max":[1,1],"min":[0,0],"type":"VEC2"},{"bufferView":61,"componentType":5123,"count":24,"max":[23],"min":[4],"type":"SCALAR"}],"materials":[{"pbrMetallicRoughness":{"metallicFactor":0,"roughnessFactor":1,"baseColorTexture":{"index":0}},"alphaMode":"MASK","alphaCutoff":0.05},{"pbrMetallicRoughness":{"metallicFactor":0,"roughnessFactor":1,"baseColorTexture":{"index":1}},"alphaMode":"MASK","alphaCutoff":0.05},{"pbrMetallicRoughness":{"metallicFactor":0,"roughnessFactor":1,"baseColorTexture":{"index":2}},"alphaMode":"MASK","alphaCutoff":0.05}],"textures":[{"sampler":0,"source":0},{"sampler":1,"source":1},{"sampler":2,"source":2}],"samplers":[{"magFilter":9728,"minFilter":9728,"wrapS":33071,"wrapT":33071},{"magFilter":9728,"minFilter":9728,"wrapS":33071,"wrapT":33071},{"magFilter":9728,"minFilter":9728,"wrapS":33071,"wrapT":33071}],"images":[{"mimeType":"image/png","uri":"data:image/png;base64,"},{"mimeType":"image/png","uri":"data:image/png;base64,"},{"mimeType":"image/png","uri":"data:image/png;base64,"}],"meshes":[{"primitives":[{"mode":4,"attributes":{"POSITION":0,"NORMAL":1,"TEXCOORD_0":2},"indices":3,"material":0},{"mode":4,"attributes":{"POSITION":0,"NORMAL":1,"TEXCOORD_0":2},"indices":4,"material":1},{"mode":4,"attributes":{"POSITION":0,"NORMAL":1,"TEXCOORD_0":2},"indices":5,"material":2}]},{"primitives":[{"mode":4,"attributes":{"POSITION":6,"NORMAL":7,"TEXCOORD_0":8},"indices":9,"material":0}]},{"primitives":[{"mode":4,"attributes":{"POSITION":10,"NORMAL":11,"TEXCOORD_0":12},"indices":13,"material":0}]},{"primitives":[{"mode":4,"attributes":{"POSITION":14,"NORMAL":15,"TEXCOORD_0":16},"indices":17,"material":0}]},{"primitives":[{"mode":4,"attributes":{"POSITION":18,"NORMAL":19,"TEXCOORD_0":20},"indices":21,"material":0}]},{"primitives":[{"mode":4,"attributes":{"POSITION":22,"NORMAL":23,"TEXCOORD_0":24},"indices":25,"material":0}]},{"primitives":[{"mode":4,"attributes":{"POSITION":26,"NORMAL":27,"TEXCOORD_0":28},"indices":29,"material":0}]},{"primitives":[{"mode":4,"attributes":{"POSITION":30,"NORMAL":31,"TEXCOORD_0":32},"indices":33,"material":0}]},{"primitives":[{"mode":4,"attributes":{"POSITION":34,"NORMAL":35,"TEXCOORD_0":36},"indices":37,"material":0}]},{"primitives":[{"mode":4,"attributes":{"POSITION":38,"NORMAL":39,"TEXCOORD_0":40},"indices":41,"material":0}]},{"primitives":[{"mode":4,"attributes":{"POSITION":42,"NORMAL":43,"TEXCOORD_0":44},"indices":45,"material":0}]},{"primitives":[{"mode":4,"attributes":{"POSITION":46,"NORMAL":47,"TEXCOORD_0":48},"indices":49,"material":0}]},{"primitives":[{"mode":4,"attributes":{"POSITION":50,"NORMAL":51,"TEXCOORD_0":52},"indices":53,"material":0}]},{"primitives":[{"mode":4,"attributes":{"POSITION":54,"NORMAL":55,"TEXCOORD_0":56},"indices":57,"material":0}]},{"primitives":[{"mode":4,"attributes":{"POSITION":58,"NORMAL":59,"TEXCOORD_0":60},"indices":61,"material":0}]}]}