{"asset":{"version":"2.0","generator":"Blockbench 4.4.2 glTF exporter"},"scenes":[{"nodes":[20],"name":"blockbench_export"}],"scene":0,"nodes":[{"name":"Box1","mesh":0},{"name":"Box1","mesh":1},{"name":"Box1","mesh":2},{"name":"Box1","mesh":3},{"name":"Box1","mesh":4},{"name":"Box1","mesh":5},{"name":"Box1","mesh":6},{"name":"Box1","mesh":7},{"name":"Box1","mesh":8},{"name":"Box1","mesh":9},{"name":"Box1","mesh":10},{"name":"cube","mesh":11},{"name":"cube","mesh":12},{"name":"cube","mesh":13},{"name":"cube","mesh":14},{"name":"cube","mesh":15},{"name":"cube","mesh":16},{"name":"cube","mesh":17},{"name":"cube","mesh":18},{"translation":[0.5,0.5,0.5],"name":"group"},{"children":[0,1,2,3,4,5,6,7,8,9,10,11,12,13,14,15,16,17,18,19]}],"bufferViews":[{"buffer":0,"byteOffset":0,"byteLength":288,"target":34962,"byteStride":12},{"buffer":0,"byteOffset":288,"byteLength":288,"target":34962,"byteStride":12},{"buffer":0,"byteOffset":576,"byteLength":192,"target":34962,"byteStride":8},{"buffer":0,"byteOffset":768,"byteLength":24,"target":34963},{"buffer":0,"byteOffset":792,"byteLength":12,"target":34963},{"buffer":0,"byteOffset":804,"byteLength":24,"target":34963},{"buffer":0,"byteOffset":828,"byteLength":288,"target":34962,"byteStride":12},{"buffer":0,"byteOffset":1116,"byteLength":288,"target":34962,"byteStride":12},{"buffer":0,"byteOffset":1404,"byteLength":192,"target":34962,"byteStride":8},{"buffer":0,"byteOffset":1596,"byteLength":24,"target":34963},{"buffer":0,"byteOffset":1620,"byteLength":12,"target":34963},{"buffer":0,"byteOffset":1632,"byteLength":24,"target":34963},{"buffer":0,"byteOffset":1656,"byteLength":288,"target":34962,"byteStride":12},{"buffer":0,"byteOffset":1944,"byteLength":288,"target":34962,"byteStride":12},{"buffer":0,"byteOffset":2232,"byteLength":192,"target":34962,"byteStride":8},{"buffer":0,"byteOffset":2424,"byteLength":48,"target":34963},{"buffer":0,"byteOffset":2472,"byteLength":288,"target":34962,"byteStride":12},{"buffer":0,"byteOffset":2760,"byteLength":288,"target":34962,"byteStride":12},{"buffer":0,"byteOffset":3048,"byteLength":192,"target":34962,"byteStride":8},{"buffer":0,"byteOffset":3240,"byteLength":36,"target":34963},{"buffer":0,"byteOffset":3276,"byteLength":288,"target":34962,"byteStride":12},{"buffer":0,"byteOffset":3564,"byteLength":288,"target":34962,"byteStride":12},{"buffer":0,"byteOffset":3852,"byteLength":192,"target":34962,"byteStride":8},{"buffer":0,"byteOffset":4044,"byteLength":36,"target":34963},{"buffer":0,"byteOffset":4080,"byteLength":288,"target":34962,"byteStride":12},{"buffer":0,"byteOffset":4368,"byteLength":288,"target":34962,"byteStride":12},{"buffer":0,"byteOffset":4656,"byteLength":192,"target":34962,"byteStride":8},{"buffer":0,"byteOffset":4848,"byteLength":36,"target":34963},{"buffer":0,"byteOffset":4884,"byteLength":288,"target":34962,"byteStride":12},{"buffer":0,"byteOffset":5172,"byteLength":288,"target":34962,"byteStride":12},{"buffer":0,"byteOffset":5460,"byteLength":192,"target":34962,"byteStride":8},{"buffer":0,"byteOffset":5652,"byteLength":24,"target":34963},{"buffer":0,"byteOffset":5676,"byteLength":12,"target":34963},{"buffer":0,"byteOffset":5688,"byteLength":24,"target":34963},{"buffer":0,"byteOffset":5712,"byteLength":288,"target":34962,"byteStride":12},{"buffer":0,"byteOffset":6000,"byteLength":288,"target":34962,"byteStride":12},{"buffer":0,"byteOffset":6288,"byteLength":192,"target":34962,"byteStride":8},{"buffer":0,"byteOffset":6480,"byteLength":48,"target":34963},{"buffer":0,"byteOffset":6528,"byteLength":288,"target":34962,"byteStride":12},{"buffer":0,"byteOffset":6816,"byteLength":288,"target":34962,"byteStride":12},{"buffer":0,"byteOffset":7104,"byteLength":192,"target":34962,"byteStride":8},{"buffer":0,"byteOffset":7296,"byteLength":36,"target":34963},{"buffer":0,"byteOffset":7332,"byteLength":288,"target":34962,"byteStride":12},{"buffer":0,"byteOffset":7620,"byteLength":288,"target":34962,"byteStride":12},{"buffer":0,"byteOffset":7908,"byteLength":192,"target":34962,"byteStride":8},{"buffer":0,"byteOffset":8100,"byteLength":36,"target":34963},{"buffer":0,"byteOffset":8136,"byteLength":288,"target":34962,"byteStride":12},{"buffer":0,"byteOffset":8424,"byteLength":288,"target":34962,"byteStride":12},{"buffer":0,"byteOffset":8712,"byteLength":192,"target":34962,"byteStride":8},{"buffer":0,"byteOffset":8904,"byteLength":36,"target":34963},{"buffer":0,"byteOffset":8940,"byteLength":288,"target":34962,"byteStride":12},{"buffer":0,"byteOffset":9228,"byteLength":288,"target":34962,"byteStride":12},{"buffer":0,"byteOffset":9516,"byteLength":192,"target":34962,"byteStride":8},{"buffer":0,"byteOffset":9708,"byteLength":72,"target":34963},{"buffer":0,"byteOffset":9780,"byteLength":288,"target":34962,"byteStride":12},{"buffer":0,"byteOffset":10068,"byteLength":288,"target":34962,"byteStride":12},{"buffer":0,"byteOffset":10356,"byteLength":192,"target":34962,"byteStride":8},{"buffer":0,"byteOffset":10548,"byteLength":72,"target":34963},{"buffer":0,"byteOffset":10620,"byteLength":288,"target":34962,"byteStride":12},{"buffer":0,"byteOffset":10908,"byteLength":288,"target":34962,"byteStride":12},{"buffer":0,"byteOffset":11196,"byteLength":192,"target":34962,"byteStride":8},{"buffer":0,"byteOffset":11388,"byteLength":72,"target":34963},{"buffer":0,"byteOffset":11460,"byteLength":288,"target":34962,"byteStride":12},{"buffer":0,"byteOffset":11748,"byteLength":288,"target":34962,"byteStride":12},{"buffer":0,"byteOffset":12036,"byteLength":192,"target":34962,"byteStride":8},{"buffer":0,"byteOffset":12228,"byteLength":72,"target":34963},{"buffer":0,"byteOffset":12300,"byteLength":288,"target":34962,"byteStride":12},{"buffer":0,"byteOffset":12588,"byteLength":288,"target":34962,"byteStride":12},{"buffer":0,"byteOffset":12876,"byteLength":192,"target":34962,"byteStride":8},{"buffer":0,"byteOffset":13068,"byteLength":72,"target":34963},{"buffer":0,"byteOffset":13140,"byteLength":288,"target":34962,"byteStride":12},{"buffer":0,"byteOffset":13428,"byteLength":288,"target":34962,"byteStride":12},{"buffer":0,"byteOffset":13716,"byteLength":192,"target":34962,"byteStride":8},{"buffer":0,"byteOffset":13908,"byteLength":72,"target":34963},{"buffer":0,"byteOffset":13980,"byteLength":288,"target":34962,"byteStride":12},{"buffer":0,"byteOffset":14268,"byteLength":288,"target":34962,"byteStride":12},{"buffer":0,"byteOffset":14556,"byteLength":192,"target":34962,"byteStride":8},{"buffer":0,"byteOffset":14748,"byteLength":72,"target":34963},{"buffer":0,"byteOffset":14820,"byteLength":288,"target":34962,"byteStride":12},{"buffer":0,"byteOffset":15108,"byteLength":288,"target":34962,"byteStride":12},{"buffer":0,"byteOffset":15396,"byteLength":192,"target":34962,"byteStride":8},{"buffer":0,"byteOffset":15588,"byteLength":72,"target":34963}],"buffers":[{"byteLength":15660,"uri":"data:application/octet-stream;base64,"}],"accessors":[{"bufferView":0,"componentType":5126,"count":24,"max":[0.15625,1,1],"min":[0.03125,0,0],"type":"VEC3"},{"bufferView":1,"componentType":5126,"count":24,"max":[1,1,1],"min":[-1,-1,-1],"type":"VEC3"},{"bufferView":2,"componentType":5126,"count":24,"max":[1,1],"min":[0,0],"type":"VEC2"},{"bufferView":3,"componentType":5123,"count":12,"max":[7],"min":[0],"type":"SCALAR"},{"bufferView":4,"componentType":5123,"count":6,"max":[15],"min":[12],"type":"SCALAR"},{"bufferView":5,"componentType":5123,"count":12,"max":[23],"min":[16],"type":"SCALAR"},{"bufferView":6,"componentType":5126,"count":24,"max":[0.03125,0.15625,1],"min":[0,0,0],"type":"VEC3"},{"bufferView":7,"componentType":5126,"count":24,"max":[1,1,1],"min":[-1,-1,-1],"type":"VEC3"},{"bufferView":8,"componentType":5126,"count":24,"max":[1,1],"min":[0,0],"type":"VEC2"},{"bufferView":9,"componentType":5123,"count":12,"max":[11],"min":[4],"type":"SCALAR"},{"bufferView":10,"componentType":5123,"count":6,"max":[15],"min":[12],"type":"SCALAR"},{"bufferView":11,"componentType":5123,"count":12,"max":[23],"min":[16],"type":"SCALAR"},{"bufferView":12,"componentType":5126,"count":24,"max":[0.03125,1,1],"min":[0,0.90625,0],"type":"VEC3"},{"bufferView":13,"componentType":5126,"count":24,"max":[1,1,1],"min":[-1,-1,-1],"type":"VEC3"},{"bufferView":14,"componentType":5126,"count":24,"max":[1,1],"min":[0,0],"type":"VEC2"},{"bufferView":15,"componentType":5123,"count":24,"max":[23],"min":[4],"type":"SCALAR"},{"bufferView":16,"componentType":5126,"count":24,"max":[0.03125,0.90625,1],"min":[0,0.15625,0.84375],"type":"VEC3"},{"bufferView":17,"componentType":5126,"count":24,"max":[1,1,1],"min":[-1,-1,-1],"type":"VEC3"},{"bufferView":18,"componentType":5126,"count":24,"max":[1,1],"min":[0,0],"type":"VEC2"},{"bufferView":19,"componentType":5123,"count":18,"max":[23],"min":[4],"type":"SCALAR"},{"bufferView":20,"componentType":5126,"count":24,"max":[0.03125,0.90625,0.59375],"min":[0,0.15625,0.40625],"type":"VEC3"},{"bufferView":21,"componentType":5126,"count":24,"max":[1,1,1],"min":[-1,-1,-1],"type":"VEC3"},{"bufferView":22,"componentType":5126,"count":24,"max":[1,1],"min":[0,0],"type":"VEC2"},{"bufferView":23,"componentType":5123,"count":18,"max":[23],"min":[4],"type":"SCALAR"},{"bufferView":24,"componentType":5126,"count":24,"max":[0.03125,0.90625,0.15625],"min":[0,0.15625,0],"type":"VEC3"},{"bufferView":25,"componentType":5126,"count":24,"max":[1,1,1],"min":[-1,-1,-1],"type":"VEC3"},{"bufferView":26,"componentType":5126,"count":24,"max":[1,1],"min":[0,0],"type":"VEC2"},{"bufferView":27,"componentType":5123,"count":18,"max":[23],"min":[4],"type":"SCALAR"},{"bufferView":28,"componentType":5126,"count":24,"max":[0.1875,0.15625,1],"min":[0.15625,0,0],"type":"VEC3"},{"bufferView":29,"componentType":5126,"count":24,"max":[1,1,1],"min":[-1,-1,-1],"type":"VEC3"},{"bufferView":30,"componentType":5126,"count":24,"max":[1,1],"min":[0,0],"type":"VEC2"},{"bufferView":31,"componentType":5123,"count":12,"max":[11],"min":[0],"type":"SCALAR"},{"bufferView":32,"componentType":5123,"count":6,"max":[15],"min":[12],"type":"SCALAR"},{"bufferView":33,"componentType":5123,"count":12,"max":[23],"min":[16],"type":"SCALAR"},{"bufferView":34,"componentType":5126,"count":24,"max":[0.1875,1,1],"min":[0.15625,0.90625,0],"type":"VEC3"},{"bufferView":35,"componentType":5126,"count":24,"max":[1,1,1],"min":[-1,-1,-1],"type":"VEC3"},{"bufferView":36,"componentType":5126,"count":24,"max":[1,1],"min":[0,0],"type":"VEC2"},{"bufferView":37,"componentType":5123,"count":24,"max":[23],"min":[0],"type":"SCALAR"},{"bufferView":38,"componentType":5126,"count":24,"max":[0.1875,0.90625,1],"min":[0.15625,0.15625,0.84375],"type":"VEC3"},{"bufferView":39,"componentType":5126,"count":24,"max":[1,1,1],"min":[-1,-1,-1],"type":"VEC3"},{"bufferView":40,"componentType":5126,"count":24,"max":[1,1],"min":[0,0],"type":"VEC2"},{"bufferView":41,"componentType":5123,"count":18,"max":[23],"min":[0],"type":"SCALAR"},{"bufferView":42,"componentType":5126,"count":24,"max":[0.1875,0.90625,0.59375],"min":[0.15625,0.15625,0.40625],"type":"VEC3"},{"bufferView":43,"componentType":5126,"count":24,"max":[1,1,1],"min":[-1,-1,-1],"type":"VEC3"},{"bufferView":44,"componentType":5126,"count":24,"max":[1,1],"min":[0,0],"type":"VEC2"},{"bufferView":45,"componentType":5123,"count":18,"max":[23],"min":[0],"type":"SCALAR"},{"bufferView":46,"componentType":5126,"count":24,"max":[0.1875,0.90625,0.15625],"min":[0.15625,0.15625,0],"type":"VEC3"},{"bufferView":47,"componentType":5126,"count":24,"max":[1,1,1],"min":[-1,-1,-1],"type":"VEC3"},{"bufferView":48,"componentType":5126,"count":24,"max":[1,1],"min":[0,0],"type":"VEC2"},{"bufferView":49,"componentType":5123,"count":18,"max":[23],"min":[0],"type":"SCALAR"},{"bufferView":50,"componentType":5126,"count":24,"max":[0.203125,0.375,1.015625],"min":[0.125,0.25,0.9375],"type":"VEC3"},{"bufferView":51,"componentType":5126,"count":24,"max":[1,1,1],"min":[-1,-1,-1],"type":"VEC3"},{"bufferView":52,"componentType":5126,"count":24,"max":[0.0625,0.375],"min":[0,0.25],"type":"VEC2"},{"bufferView":53,"componentType":5123,"count":36,"max":[23],"min":[0],"type":"SCALAR"},{"bufferView":54,"componentType":5126,"count":24,"max":[0.0625,0.375,1.015625],"min":[-0.015625,0.25,0.9375],"type":"VEC3"},{"bufferView":55,"componentType":5126,"count":24,"max":[1,1,1],"min":[-1,-1,-1],"type":"VEC3"},{"bufferView":56,"componentType":5126,"count":24,"max":[0.0625,0.375],"min":[0,0.25],"type":"VEC2"},{"bufferView":57,"componentType":5123,"count":36,"max":[23],"min":[0],"type":"SCALAR"},{"bufferView":58,"componentType":5126,"count":24,"max":[0.203125,1,1.015625],"min":[0.125,0.9375,0.9375],"type":"VEC3"},{"bufferView":59,"componentType":5126,"count":24,"max":[1,1,1],"min":[-1,-1,-1],"type":"VEC3"},{"bufferView":60,"componentType":5126,"count":24,"max":[0.0625,1],"min":[0,0.9375],"type":"VEC2"},{"bufferView":61,"componentType":5123,"count":36,"max":[23],"min":[0],"type":"SCALAR"},{"bufferView":62,"componentType":5126,"count":24,"max":[0.0625,1,1.015625],"min":[-0.015625,0.9375,0.9375],"type":"VEC3"},{"bufferView":63,"componentType":5126,"count":24,"max":[1,1,1],"min":[-1,-1,-1],"type":"VEC3"},{"bufferView":64,"componentType":5126,"count":24,"max":[0.0625,1],"min":[0,0.9375],"type":"VEC2"},{"bufferView":65,"componentType":5123,"count":36,"max":[23],"min":[0],"type":"SCALAR"},{"bufferView":66,"componentType":5126,"count":24,"max":[0.203125,1,0.3125],"min":[0.1875,0.9375,0.28125],"type":"VEC3"},{"bufferView":67,"componentType":5126,"count":24,"max":[1,1,1],"min":[-1,-1,-1],"type":"VEC3"},{"bufferView":68,"componentType":5126,"count":24,"max":[0.71875,1],"min":[0.6875,0.9375],"type":"VEC2"},{"bufferView":69,"componentType":5123,"count":36,"max":[23],"min":[0],"type":"SCALAR"},{"bufferView":70,"componentType":5126,"count":24,"max":[0.203125,1,0.28125],"min":[0.1875,0.96875,0.25],"type":"VEC3"},{"bufferView":71,"componentType":5126,"count":24,"max":[1,1,1],"min":[-1,-1,-1],"type":"VEC3"},{"bufferView":72,"componentType":5126,"count":24,"max":[0.75,1],"min":[0.71875,0.96875],"type":"VEC2"},{"bufferView":73,"componentType":5123,"count":36,"max":[23],"min":[0],"type":"SCALAR"},{"bufferView":74,"componentType":5126,"count":24,"max":[0,1,0.3125],"min":[-0.015625,0.9375,0.28125],"type":"VEC3"},{"bufferView":75,"componentType":5126,"count":24,"max":[1,1,1],"min":[-1,-1,-1],"type":"VEC3"},{"bufferView":76,"componentType":5126,"count":24,"max":[0.71875,1],"min":[0.6875,0.9375],"type":"VEC2"},{"bufferView":77,"componentType":5123,"count":36,"max":[23],"min":[0],"type":"SCALAR"},{"bufferView":78,"componentType":5126,"count":24,"max":[0,1,0.28125],"min":[-0.015625,0.96875,0.25],"type":"VEC3"},{"bufferView":79,"componentType":5126,"count":24,"max":[1,1,1],"min":[-1,-1,-1],"type":"VEC3"},{"bufferView":80,"componentType":5126,"count":24,"max":[0.75,1],"min":[0.71875,0.96875],"type":"VEC2"},{"bufferView":81,"componentType":5123,"count":36,"max":[23],"min":[0],"type":"SCALAR"}],"materials":[{"pbrMetallicRoughness":{"metallicFactor":0,"roughnessFactor":1,"baseColorTexture":{"index":0}},"alphaMode":"MASK","alphaCutoff":0.05},{"pbrMetallicRoughness":{"metallicFactor":0,"roughnessFactor":1,"baseColorTexture":{"index":1}},"alphaMode":"MASK","alphaCutoff":0.05},{"pbrMetallicRoughness":{"metallicFactor":0,"roughnessFactor":1,"baseColorTexture":{"index":2}},"alphaMode":"MASK","alphaCutoff":0.05}],"textures":[{"sampler":0,"source":0},{"sampler":1,"source":1},{"sampler":2,"source":2}],"samplers":[{"magFilter":9728,"minFilter":9728,"wrapS":33071,"wrapT":33071},{"magFilter":9728,"minFilter":9728,"wrapS":33071,"wrapT":33071},{"magFilter":9728,"minFilter":9728,"wrapS":33071,"wrapT":33071}],"images":[{"mimeType":"image/png","uri":"data:image/png;base64,"},{"mimeType":"image/png","uri":"data:image/png;base64,"},{"mimeType":"image/png","uri":"data:image/png;base64,"}],"meshes":[{"primitives":[{"mode":4,"attributes":{"POSITION":0,"NORMAL":1,"TEXCOORD_0":2},"indices":3,"material":0},{"mode":4,"attributes":{"POSITION":0,"NORMAL":1,"TEXCOORD_0":2},"indices":4,"material":1},{"mode":4,"attributes":{"POSITION":0,"NORMAL":1,"TEXCOORD_0":2},"indices":5,"material":2}]},{"primitives":[{"mode":4,"attributes":{"POSITION":6,"NORMAL":7,"TEXCOORD_0":8},"indices":9,"material":0},{"mode":4,"attributes":{"POSITION":6,"NORMAL":7,"TEXCOORD_0":8},"indices":10,"material":1},{"mode":4,"attributes":{"POSITION":6,"NORMAL":7,"TEXCOORD_0":8},"indices":11,"material":0}]},{"primitives":[{"mode":4,"attributes":{"POSITION":12,"NORMAL":13,"TEXCOORD_0":14},"indices":15,"material":0}]},{"primitives":[{"mode":4,"attributes":{"POSITION":16,"NORMAL":17,"TEXCOORD_0":18},"indices":19,"material":0}]},{"primitives":[{"mode":4,"attributes":{"POSITION":20,"NORMAL":21,"TEXCOORD_0":22},"indices":23,"material":0}]},{"primitives":[{"mode":4,"attributes":{"POSITION":24,"NORMAL":25,"TEXCOORD_0":26},"indices":27,"material":0}]},{"primitives":[{"mode":4,"attributes":{"POSITION":28,"NORMAL":29,"TEXCOORD_0":30},"indices":31,"material":0},{"mode":4,"attributes":{"POSITION":28,"NORMAL":29,"TEXCOORD_0":30},"indices":32,"material":1},{"mode":4,"attributes":{"POSITION":28,"NORMAL":29,"TEXCOORD_0":30},"indices":33,"material":0}]},{"primitives":[{"mode":4,"attributes":{"POSITION":34,"NORMAL":35,"TEXCOORD_0":36},"indices":37,"material":0}]},{"primitives":[{"mode":4,"attributes":{"POSITION":38,"NORMAL":39,"TEXCOORD_0":40},"indices":41,"material":0}]},{"primitives":[{"mode":4,"attributes":{"POSITION":42,"NORMAL":43,"TEXCOORD_0":44},"indices":45,"material":0}]},{"primitives":[{"mode":4,"attributes":{"POSITION":46,"NORMAL":47,"TEXCOORD_0":48},"indices":49,"material":0}]},{"primitives":[{"mode":4,"attributes":{"POSITION":50,"NORMAL":51,"TEXCOORD_0":52},"indices":53,"material":0}]},{"primitives":[{"mode":4,"attributes":{"POSITION":54,"NORMAL":55,"TEXCOORD_0":56},"indices":57,"material":0}]},{"primitives":[{"mode":4,"attributes":{"POSITION":58,"NORMAL":59,"TEXCOORD_0":60},"indices":61,"material":0}]},{"primitives":[{"mode":4,"attributes":{"POSITION":62,"NORMAL":63,"TEXCOORD_0":64},"indices":65,"material":0}]},{"primitives":[{"mode":4,"attributes":{"POSITION":66,"NORMAL":67,"TEXCOORD_0":68},"indices":69,"material":0}]},{"primitives":[{"mode":4,"attributes":{"POSITION":70,"NORMAL":71,"TEXCOORD_0":72},"indices":73,"material":0}]},{"primitives":[{"mode":4,"attributes":{"POSITION":74,"NORMAL":75,"TEXCOORD_0":76},"indices":77,"material":0}]},{"primitives":[{"mode":4,"attributes":{"POSITION":78,"NORMAL":79,"TEXCOORD_0":80},"indices":81,"material":0}]}]}