{"asset":{"version":"2.0","generator":"Blockbench 4.4.2 glTF exporter"},"scenes":[{"nodes":[7],"name":"blockbench_export"}],"scene":0,"nodes":[{"name":"cube","mesh":0},{"name":"cube","mesh":1},{"name":"cube","mesh":2},{"name":"cube","mesh":3},{"name":"cube","mesh":4},{"rotation":[0,0.3826834323650898,0,0.9238795325112867],"translation":[0.5,0.5,0.5],"scale":[1.4142,1,1.4142],"name":"cube","mesh":5},{"rotation":[0,0.3826834323650898,0,0.9238795325112867],"translation":[0.5,0.5,0.5],"scale":[1.4142,1,1.4142],"name":"cube","mesh":6},{"children":[0,1,2,3,4,5,6]}],"bufferViews":[{"buffer":0,"byteOffset":0,"byteLength":288,"target":34962,"byteStride":12},{"buffer":0,"byteOffset":288,"byteLength":288,"target":34962,"byteStride":12},{"buffer":0,"byteOffset":576,"byteLength":192,"target":34962,"byteStride":8},{"buffer":0,"byteOffset":768,"byteLength":12,"target":34963},{"buffer":0,"byteOffset":780,"byteLength":60,"target":34963},{"buffer":0,"byteOffset":840,"byteLength":288,"target":34962,"byteStride":12},{"buffer":0,"byteOffset":1128,"byteLength":288,"target":34962,"byteStride":12},{"buffer":0,"byteOffset":1416,"byteLength":192,"target":34962,"byteStride":8},{"buffer":0,"byteOffset":1608,"byteLength":36,"target":34963},{"buffer":0,"byteOffset":1644,"byteLength":36,"target":34963},{"buffer":0,"byteOffset":1680,"byteLength":288,"target":34962,"byteStride":12},{"buffer":0,"byteOffset":1968,"byteLength":288,"target":34962,"byteStride":12},{"buffer":0,"byteOffset":2256,"byteLength":192,"target":34962,"byteStride":8},{"buffer":0,"byteOffset":2448,"byteLength":12,"target":34963},{"buffer":0,"byteOffset":2460,"byteLength":12,"target":34963},{"buffer":0,"byteOffset":2472,"byteLength":48,"target":34963},{"buffer":0,"byteOffset":2520,"byteLength":288,"target":34962,"byteStride":12},{"buffer":0,"byteOffset":2808,"byteLength":288,"target":34962,"byteStride":12},{"buffer":0,"byteOffset":3096,"byteLength":192,"target":34962,"byteStride":8},{"buffer":0,"byteOffset":3288,"byteLength":36,"target":34963},{"buffer":0,"byteOffset":3324,"byteLength":36,"target":34963},{"buffer":0,"byteOffset":3360,"byteLength":288,"target":34962,"byteStride":12},{"buffer":0,"byteOffset":3648,"byteLength":288,"target":34962,"byteStride":12},{"buffer":0,"byteOffset":3936,"byteLength":192,"target":34962,"byteStride":8},{"buffer":0,"byteOffset":4128,"byteLength":12,"target":34963},{"buffer":0,"byteOffset":4140,"byteLength":36,"target":34963},{"buffer":0,"byteOffset":4176,"byteLength":288,"target":34962,"byteStride":12},{"buffer":0,"byteOffset":4464,"byteLength":288,"target":34962,"byteStride":12},{"buffer":0,"byteOffset":4752,"byteLength":192,"target":34962,"byteStride":8},{"buffer":0,"byteOffset":4944,"byteLength":24,"target":34963},{"buffer":0,"byteOffset":4968,"byteLength":288,"target":34962,"byteStride":12},{"buffer":0,"byteOffset":5256,"byteLength":288,"target":34962,"byteStride":12},{"buffer":0,"byteOffset":5544,"byteLength":192,"target":34962,"byteStride":8},{"buffer":0,"byteOffset":5736,"byteLength":24,"target":34963}],"buffers":[{"byteLength":5760,"uri":"data:application/octet-stream;base64,"}],"accessors":[{"bufferView":0,"componentType":5126,"count":24,"max":[0.3125,0.25,1],"min":[0.0625,0,0],"type":"VEC3"},{"bufferView":1,"componentType":5126,"count":24,"max":[1,1,1],"min":[-1,-1,-1],"type":"VEC3"},{"bufferView":2,"componentType":5126,"count":24,"max":[1,1],"min":[0,0.5],"type":"VEC2"},{"bufferView":3,"componentType":5123,"count":6,"max":[3],"min":[0],"type":"SCALAR"},{"bufferView":4,"componentType":5123,"count":30,"max":[23],"min":[4],"type":"SCALAR"},{"bufferView":5,"componentType":5126,"count":24,"max":[1,0.4375,0.9375],"min":[0,0.1875,0.6875],"type":"VEC3"},{"bufferView":6,"componentType":5126,"count":24,"max":[1,1,1],"min":[-1,-1,-1],"type":"VEC3"},{"bufferView":7,"componentType":5126,"count":24,"max":[1,1],"min":[0,0.5],"type":"VEC2"},{"bufferView":8,"componentType":5123,"count":18,"max":[11],"min":[0],"type":"SCALAR"},{"bufferView":9,"componentType":5123,"count":18,"max":[23],"min":[12],"type":"SCALAR"},{"bufferView":10,"componentType":5126,"count":24,"max":[0.9375,0.25,1],"min":[0.6875,0,0],"type":"VEC3"},{"bufferView":11,"componentType":5126,"count":24,"max":[1,1,1],"min":[-1,-1,-1],"type":"VEC3"},{"bufferView":12,"componentType":5126,"count":24,"max":[1,1],"min":[0,0.5],"type":"VEC2"},{"bufferView":13,"componentType":5123,"count":6,"max":[3],"min":[0],"type":"SCALAR"},{"bufferView":14,"componentType":5123,"count":6,"max":[7],"min":[4],"type":"SCALAR"},{"bufferView":15,"componentType":5123,"count":24,"max":[23],"min":[8],"type":"SCALAR"},{"bufferView":16,"componentType":5126,"count":24,"max":[1,0.4375,0.3125],"min":[0,0.1875,0.0625],"type":"VEC3"},{"bufferView":17,"componentType":5126,"count":24,"max":[1,1,1],"min":[-1,-1,-1],"type":"VEC3"},{"bufferView":18,"componentType":5126,"count":24,"max":[1,1],"min":[0,0.5],"type":"VEC2"},{"bufferView":19,"componentType":5123,"count":18,"max":[11],"min":[0],"type":"SCALAR"},{"bufferView":20,"componentType":5123,"count":18,"max":[23],"min":[12],"type":"SCALAR"},{"bufferView":21,"componentType":5126,"count":24,"max":[0.6875,0.0625,1],"min":[0.3125,0,0],"type":"VEC3"},{"bufferView":22,"componentType":5126,"count":24,"max":[1,1,1],"min":[-1,-1,-1],"type":"VEC3"},{"bufferView":23,"componentType":5126,"count":24,"max":[1,1],"min":[0,0],"type":"VEC2"},{"bufferView":24,"componentType":5123,"count":6,"max":[11],"min":[8],"type":"SCALAR"},{"bufferView":25,"componentType":5123,"count":18,"max":[23],"min":[12],"type":"SCALAR"},{"bufferView":26,"componentType":5126,"count":24,"max":[0.44999998807907104,0.5625,0.0000625000029685907],"min":[-0.44999998807907104,-0.4375,0],"type":"VEC3"},{"bufferView":27,"componentType":5126,"count":24,"max":[1,1,1],"min":[-1,-1,-1],"type":"VEC3"},{"bufferView":28,"componentType":5126,"count":24,"max":[1,1],"min":[0,0],"type":"VEC2"},{"bufferView":29,"componentType":5123,"count":12,"max":[23],"min":[16],"type":"SCALAR"},{"bufferView":30,"componentType":5126,"count":24,"max":[0.0000625000029685907,0.5625,0.44999998807907104],"min":[0,-0.4375,-0.44999998807907104],"type":"VEC3"},{"bufferView":31,"componentType":5126,"count":24,"max":[1,1,1],"min":[-1,-1,-1],"type":"VEC3"},{"bufferView":32,"componentType":5126,"count":24,"max":[1,1],"min":[0,0],"type":"VEC2"},{"bufferView":33,"componentType":5123,"count":12,"max":[7],"min":[0],"type":"SCALAR"}],"materials":[{"pbrMetallicRoughness":{"metallicFactor":0,"roughnessFactor":1,"baseColorTexture":{"index":0}},"alphaMode":"MASK","alphaCutoff":0.05},{"pbrMetallicRoughness":{"metallicFactor":0,"roughnessFactor":1,"baseColorTexture":{"index":1}},"alphaMode":"MASK","alphaCutoff":0.05},{"pbrMetallicRoughness":{"metallicFactor":0,"roughnessFactor":1,"baseColorTexture":{"index":2}},"alphaMode":"MASK","alphaCutoff":0.05}],"textures":[{"sampler":0,"source":0,"name":"#lit_log"},{"sampler":1,"source":1},{"sampler":2,"source":2,"name":"#fire"}],"samplers":[{"magFilter":9728,"minFilter":9728,"wrapS":33071,"wrapT":33071},{"magFilter":9728,"minFilter":9728,"wrapS":33071,"wrapT":33071},{"magFilter":9728,"minFilter":9728,"wrapS":33071,"wrapT":33071}],"images":[{"mimeType":"image/png","uri":"data:image/png;base64,"},{"mimeType":"image/png","uri":"data:image/png;base64,"},{"mimeType":"image/png","uri":"data:image/png;base64,"}],"meshes":[{"primitives":[{"mode":4,"attributes":{"POSITION":0,"NORMAL":1,"TEXCOORD_0":2},"indices":3,"material":0},{"mode":4,"attributes":{"POSITION":0,"NORMAL":1,"TEXCOORD_0":2},"indices":4,"material":1}]},{"primitives":[{"mode":4,"attributes":{"POSITION":5,"NORMAL":6,"TEXCOORD_0":7},"indices":8,"material":1},{"mode":4,"attributes":{"POSITION":5,"NORMAL":6,"TEXCOORD_0":7},"indices":9,"material":0}]},{"primitives":[{"mode":4,"attributes":{"POSITION":10,"NORMAL":11,"TEXCOORD_0":12},"indices":13,"material":1},{"mode":4,"attributes":{"POSITION":10,"NORMAL":11,"TEXCOORD_0":12},"indices":14,"material":0},{"mode":4,"attributes":{"POSITION":10,"NORMAL":11,"TEXCOORD_0":12},"indices":15,"material":1}]},{"primitives":[{"mode":4,"attributes":{"POSITION":16,"NORMAL":17,"TEXCOORD_0":18},"indices":19,"material":1},{"mode":4,"attributes":{"POSITION":16,"NORMAL":17,"TEXCOORD_0":18},"indices":20,"material":0}]},{"primitives":[{"mode":4,"attributes":{"POSITION":21,"NORMAL":22,"TEXCOORD_0":23},"indices":24,"material":0},{"mode":4,"attributes":{"POSITION":21,"NORMAL":22,"TEXCOORD_0":23},"indices":25,"material":1}]},{"primitives":[{"mode":4,"attributes":{"POSITION":26,"NORMAL":27,"TEXCOORD_0":28},"indices":29,"material":2}]},{"primitives":[{"mode":4,"attributes":{"POSITION":30,"NORMAL":31,"TEXCOORD_0":32},"indices":33,"material":2}]}]}