{"asset":{"version":"2.0","generator":"Blockbench 4.4.2 glTF exporter"},"scenes":[{"nodes":[15],"name":"blockbench_export"}],"scene":0,"nodes":[{"name":"Box1","mesh":0},{"name":"Box2","mesh":1},{"name":"Box2","mesh":2},{"name":"Box2","mesh":3},{"name":"Box2","mesh":4},{"name":"Box2","mesh":5},{"name":"Box2","mesh":6},{"name":"Box2","mesh":7},{"name":"Box2","mesh":8},{"name":"Box2","mesh":9},{"name":"Box2","mesh":10},{"name":"Box2","mesh":11},{"name":"Box2","mesh":12},{"name":"Box2","mesh":13},{"name":"Box2","mesh":14},{"children":[0,1,2,3,4,5,6,7,8,9,10,11,12,13,14]}],"bufferViews":[{"buffer":0,"byteOffset":0,"byteLength":288,"target":34962,"byteStride":12},{"buffer":0,"byteOffset":288,"byteLength":288,"target":34962,"byteStride":12},{"buffer":0,"byteOffset":576,"byteLength":192,"target":34962,"byteStride":8},{"buffer":0,"byteOffset":768,"byteLength":24,"target":34963},{"buffer":0,"byteOffset":792,"byteLength":24,"target":34963},{"buffer":0,"byteOffset":816,"byteLength":24,"target":34963},{"buffer":0,"byteOffset":840,"byteLength":288,"target":34962,"byteStride":12},{"buffer":0,"byteOffset":1128,"byteLength":288,"target":34962,"byteStride":12},{"buffer":0,"byteOffset":1416,"byteLength":192,"target":34962,"byteStride":8},{"buffer":0,"byteOffset":1608,"byteLength":24,"target":34963},{"buffer":0,"byteOffset":1632,"byteLength":24,"target":34963},{"buffer":0,"byteOffset":1656,"byteLength":24,"target":34963},{"buffer":0,"byteOffset":1680,"byteLength":288,"target":34962,"byteStride":12},{"buffer":0,"byteOffset":1968,"byteLength":288,"target":34962,"byteStride":12},{"buffer":0,"byteOffset":2256,"byteLength":192,"target":34962,"byteStride":8},{"buffer":0,"byteOffset":2448,"byteLength":24,"target":34963},{"buffer":0,"byteOffset":2472,"byteLength":24,"target":34963},{"buffer":0,"byteOffset":2496,"byteLength":24,"target":34963},{"buffer":0,"byteOffset":2520,"byteLength":288,"target":34962,"byteStride":12},{"buffer":0,"byteOffset":2808,"byteLength":288,"target":34962,"byteStride":12},{"buffer":0,"byteOffset":3096,"byteLength":192,"target":34962,"byteStride":8},{"buffer":0,"byteOffset":3288,"byteLength":24,"target":34963},{"buffer":0,"byteOffset":3312,"byteLength":24,"target":34963},{"buffer":0,"byteOffset":3336,"byteLength":24,"target":34963},{"buffer":0,"byteOffset":3360,"byteLength":288,"target":34962,"byteStride":12},{"buffer":0,"byteOffset":3648,"byteLength":288,"target":34962,"byteStride":12},{"buffer":0,"byteOffset":3936,"byteLength":192,"target":34962,"byteStride":8},{"buffer":0,"byteOffset":4128,"byteLength":24,"target":34963},{"buffer":0,"byteOffset":4152,"byteLength":24,"target":34963},{"buffer":0,"byteOffset":4176,"byteLength":24,"target":34963},{"buffer":0,"byteOffset":4200,"byteLength":288,"target":34962,"byteStride":12},{"buffer":0,"byteOffset":4488,"byteLength":288,"target":34962,"byteStride":12},{"buffer":0,"byteOffset":4776,"byteLength":192,"target":34962,"byteStride":8},{"buffer":0,"byteOffset":4968,"byteLength":24,"target":34963},{"buffer":0,"byteOffset":4992,"byteLength":24,"target":34963},{"buffer":0,"byteOffset":5016,"byteLength":24,"target":34963},{"buffer":0,"byteOffset":5040,"byteLength":288,"target":34962,"byteStride":12},{"buffer":0,"byteOffset":5328,"byteLength":288,"target":34962,"byteStride":12},{"buffer":0,"byteOffset":5616,"byteLength":192,"target":34962,"byteStride":8},{"buffer":0,"byteOffset":5808,"byteLength":24,"target":34963},{"buffer":0,"byteOffset":5832,"byteLength":24,"target":34963},{"buffer":0,"byteOffset":5856,"byteLength":24,"target":34963},{"buffer":0,"byteOffset":5880,"byteLength":288,"target":34962,"byteStride":12},{"buffer":0,"byteOffset":6168,"byteLength":288,"target":34962,"byteStride":12},{"buffer":0,"byteOffset":6456,"byteLength":192,"target":34962,"byteStride":8},{"buffer":0,"byteOffset":6648,"byteLength":24,"target":34963},{"buffer":0,"byteOffset":6672,"byteLength":24,"target":34963},{"buffer":0,"byteOffset":6696,"byteLength":24,"target":34963},{"buffer":0,"byteOffset":6720,"byteLength":288,"target":34962,"byteStride":12},{"buffer":0,"byteOffset":7008,"byteLength":288,"target":34962,"byteStride":12},{"buffer":0,"byteOffset":7296,"byteLength":192,"target":34962,"byteStride":8},{"buffer":0,"byteOffset":7488,"byteLength":24,"target":34963},{"buffer":0,"byteOffset":7512,"byteLength":24,"target":34963},{"buffer":0,"byteOffset":7536,"byteLength":24,"target":34963},{"buffer":0,"byteOffset":7560,"byteLength":288,"target":34962,"byteStride":12},{"buffer":0,"byteOffset":7848,"byteLength":288,"target":34962,"byteStride":12},{"buffer":0,"byteOffset":8136,"byteLength":192,"target":34962,"byteStride":8},{"buffer":0,"byteOffset":8328,"byteLength":24,"target":34963},{"buffer":0,"byteOffset":8352,"byteLength":24,"target":34963},{"buffer":0,"byteOffset":8376,"byteLength":24,"target":34963},{"buffer":0,"byteOffset":8400,"byteLength":288,"target":34962,"byteStride":12},{"buffer":0,"byteOffset":8688,"byteLength":288,"target":34962,"byteStride":12},{"buffer":0,"byteOffset":8976,"byteLength":192,"target":34962,"byteStride":8},{"buffer":0,"byteOffset":9168,"byteLength":24,"target":34963},{"buffer":0,"byteOffset":9192,"byteLength":24,"target":34963},{"buffer":0,"byteOffset":9216,"byteLength":24,"target":34963},{"buffer":0,"byteOffset":9240,"byteLength":288,"target":34962,"byteStride":12},{"buffer":0,"byteOffset":9528,"byteLength":288,"target":34962,"byteStride":12},{"buffer":0,"byteOffset":9816,"byteLength":192,"target":34962,"byteStride":8},{"buffer":0,"byteOffset":10008,"byteLength":24,"target":34963},{"buffer":0,"byteOffset":10032,"byteLength":24,"target":34963},{"buffer":0,"byteOffset":10056,"byteLength":24,"target":34963},{"buffer":0,"byteOffset":10080,"byteLength":288,"target":34962,"byteStride":12},{"buffer":0,"byteOffset":10368,"byteLength":288,"target":34962,"byteStride":12},{"buffer":0,"byteOffset":10656,"byteLength":192,"target":34962,"byteStride":8},{"buffer":0,"byteOffset":10848,"byteLength":24,"target":34963},{"buffer":0,"byteOffset":10872,"byteLength":24,"target":34963},{"buffer":0,"byteOffset":10896,"byteLength":24,"target":34963},{"buffer":0,"byteOffset":10920,"byteLength":288,"target":34962,"byteStride":12},{"buffer":0,"byteOffset":11208,"byteLength":288,"target":34962,"byteStride":12},{"buffer":0,"byteOffset":11496,"byteLength":192,"target":34962,"byteStride":8},{"buffer":0,"byteOffset":11688,"byteLength":24,"target":34963},{"buffer":0,"byteOffset":11712,"byteLength":24,"target":34963},{"buffer":0,"byteOffset":11736,"byteLength":24,"target":34963},{"buffer":0,"byteOffset":11760,"byteLength":288,"target":34962,"byteStride":12},{"buffer":0,"byteOffset":12048,"byteLength":288,"target":34962,"byteStride":12},{"buffer":0,"byteOffset":12336,"byteLength":192,"target":34962,"byteStride":8},{"buffer":0,"byteOffset":12528,"byteLength":24,"target":34963},{"buffer":0,"byteOffset":12552,"byteLength":24,"target":34963},{"buffer":0,"byteOffset":12576,"byteLength":24,"target":34963}],"buffers":[{"byteLength":12600,"uri":"data:application/octet-stream;base64,"}],"accessors":[{"bufferView":0,"componentType":5126,"count":24,"max":[1,0.15625,1],"min":[0,0.03125,0],"type":"VEC3"},{"bufferView":1,"componentType":5126,"count":24,"max":[1,1,1],"min":[-1,-1,-1],"type":"VEC3"},{"bufferView":2,"componentType":5126,"count":24,"max":[1,1],"min":[0,0],"type":"VEC2"},{"bufferView":3,"componentType":5123,"count":12,"max":[7],"min":[0],"type":"SCALAR"},{"bufferView":4,"componentType":5123,"count":12,"max":[15],"min":[8],"type":"SCALAR"},{"bufferView":5,"componentType":5123,"count":12,"max":[23],"min":[16],"type":"SCALAR"},{"bufferView":6,"componentType":5126,"count":24,"max":[1,0.1875,0.125],"min":[0,0.15625,0],"type":"VEC3"},{"bufferView":7,"componentType":5126,"count":24,"max":[1,1,1],"min":[-1,-1,-1],"type":"VEC3"},{"bufferView":8,"componentType":5126,"count":24,"max":[1,1],"min":[0,0],"type":"VEC2"},{"bufferView":9,"componentType":5123,"count":12,"max":[7],"min":[0],"type":"SCALAR"},{"bufferView":10,"componentType":5123,"count":12,"max":[15],"min":[8],"type":"SCALAR"},{"bufferView":11,"componentType":5123,"count":12,"max":[23],"min":[16],"type":"SCALAR"},{"bufferView":12,"componentType":5126,"count":24,"max":[0.875,0.1875,0.625],"min":[0.125,0.15625,0.375],"type":"VEC3"},{"bufferView":13,"componentType":5126,"count":24,"max":[1,1,1],"min":[-1,-1,-1],"type":"VEC3"},{"bufferView":14,"componentType":5126,"count":24,"max":[0.875,1],"min":[0.125,0.375],"type":"VEC2"},{"bufferView":15,"componentType":5123,"count":12,"max":[7],"min":[0],"type":"SCALAR"},{"bufferView":16,"componentType":5123,"count":12,"max":[15],"min":[8],"type":"SCALAR"},{"bufferView":17,"componentType":5123,"count":12,"max":[23],"min":[16],"type":"SCALAR"},{"bufferView":18,"componentType":5126,"count":24,"max":[1,0.1875,1],"min":[0,0.15625,0.875],"type":"VEC3"},{"bufferView":19,"componentType":5126,"count":24,"max":[1,1,1],"min":[-1,-1,-1],"type":"VEC3"},{"bufferView":20,"componentType":5126,"count":24,"max":[1,1],"min":[0,0],"type":"VEC2"},{"bufferView":21,"componentType":5123,"count":12,"max":[7],"min":[0],"type":"SCALAR"},{"bufferView":22,"componentType":5123,"count":12,"max":[15],"min":[8],"type":"SCALAR"},{"bufferView":23,"componentType":5123,"count":12,"max":[23],"min":[16],"type":"SCALAR"},{"bufferView":24,"componentType":5126,"count":24,"max":[0.125,0.1875,0.875],"min":[0,0.15625,0.125],"type":"VEC3"},{"bufferView":25,"componentType":5126,"count":24,"max":[1,1,1],"min":[-1,-1,-1],"type":"VEC3"},{"bufferView":26,"componentType":5126,"count":24,"max":[1,1],"min":[0,0.125],"type":"VEC2"},{"bufferView":27,"componentType":5123,"count":12,"max":[7],"min":[0],"type":"SCALAR"},{"bufferView":28,"componentType":5123,"count":12,"max":[15],"min":[8],"type":"SCALAR"},{"bufferView":29,"componentType":5123,"count":12,"max":[23],"min":[16],"type":"SCALAR"},{"bufferView":30,"componentType":5126,"count":24,"max":[1,0.1875,0.875],"min":[0.875,0.15625,0.125],"type":"VEC3"},{"bufferView":31,"componentType":5126,"count":24,"max":[1,1,1],"min":[-1,-1,-1],"type":"VEC3"},{"bufferView":32,"componentType":5126,"count":24,"max":[1,1],"min":[0,0.125],"type":"VEC2"},{"bufferView":33,"componentType":5123,"count":12,"max":[7],"min":[0],"type":"SCALAR"},{"bufferView":34,"componentType":5123,"count":12,"max":[15],"min":[8],"type":"SCALAR"},{"bufferView":35,"componentType":5123,"count":12,"max":[23],"min":[16],"type":"SCALAR"},{"bufferView":36,"componentType":5126,"count":24,"max":[0.625,0.1875,0.375],"min":[0.375,0.15625,0.125],"type":"VEC3"},{"bufferView":37,"componentType":5126,"count":24,"max":[1,1,1],"min":[-1,-1,-1],"type":"VEC3"},{"bufferView":38,"componentType":5126,"count":24,"max":[0.875,1],"min":[0.125,0.125],"type":"VEC2"},{"bufferView":39,"componentType":5123,"count":12,"max":[7],"min":[0],"type":"SCALAR"},{"bufferView":40,"componentType":5123,"count":12,"max":[15],"min":[8],"type":"SCALAR"},{"bufferView":41,"componentType":5123,"count":12,"max":[23],"min":[16],"type":"SCALAR"},{"bufferView":42,"componentType":5126,"count":24,"max":[0.625,0.1875,0.875],"min":[0.375,0.15625,0.625],"type":"VEC3"},{"bufferView":43,"componentType":5126,"count":24,"max":[1,1,1],"min":[-1,-1,-1],"type":"VEC3"},{"bufferView":44,"componentType":5126,"count":24,"max":[0.875,1],"min":[0.125,0.125],"type":"VEC2"},{"bufferView":45,"componentType":5123,"count":12,"max":[7],"min":[0],"type":"SCALAR"},{"bufferView":46,"componentType":5123,"count":12,"max":[15],"min":[8],"type":"SCALAR"},{"bufferView":47,"componentType":5123,"count":12,"max":[23],"min":[16],"type":"SCALAR"},{"bufferView":48,"componentType":5126,"count":24,"max":[0.625,0.03125,0.875],"min":[0.375,0,0.625],"type":"VEC3"},{"bufferView":49,"componentType":5126,"count":24,"max":[1,1,1],"min":[-1,-1,-1],"type":"VEC3"},{"bufferView":50,"componentType":5126,"count":24,"max":[0.875,1],"min":[0.125,0.125],"type":"VEC2"},{"bufferView":51,"componentType":5123,"count":12,"max":[7],"min":[0],"type":"SCALAR"},{"bufferView":52,"componentType":5123,"count":12,"max":[15],"min":[8],"type":"SCALAR"},{"bufferView":53,"componentType":5123,"count":12,"max":[23],"min":[16],"type":"SCALAR"},{"bufferView":54,"componentType":5126,"count":24,"max":[1,0.03125,0.125],"min":[0,0,0],"type":"VEC3"},{"bufferView":55,"componentType":5126,"count":24,"max":[1,1,1],"min":[-1,-1,-1],"type":"VEC3"},{"bufferView":56,"componentType":5126,"count":24,"max":[1,1],"min":[0,0],"type":"VEC2"},{"bufferView":57,"componentType":5123,"count":12,"max":[7],"min":[0],"type":"SCALAR"},{"bufferView":58,"componentType":5123,"count":12,"max":[15],"min":[8],"type":"SCALAR"},{"bufferView":59,"componentType":5123,"count":12,"max":[23],"min":[16],"type":"SCALAR"},{"bufferView":60,"componentType":5126,"count":24,"max":[0.875,0.03125,0.625],"min":[0.125,0,0.375],"type":"VEC3"},{"bufferView":61,"componentType":5126,"count":24,"max":[1,1,1],"min":[-1,-1,-1],"type":"VEC3"},{"bufferView":62,"componentType":5126,"count":24,"max":[0.875,1],"min":[0.125,0.375],"type":"VEC2"},{"bufferView":63,"componentType":5123,"count":12,"max":[7],"min":[0],"type":"SCALAR"},{"bufferView":64,"componentType":5123,"count":12,"max":[15],"min":[8],"type":"SCALAR"},{"bufferView":65,"componentType":5123,"count":12,"max":[23],"min":[16],"type":"SCALAR"},{"bufferView":66,"componentType":5126,"count":24,"max":[1,0.03125,1],"min":[0,0,0.875],"type":"VEC3"},{"bufferView":67,"componentType":5126,"count":24,"max":[1,1,1],"min":[-1,-1,-1],"type":"VEC3"},{"bufferView":68,"componentType":5126,"count":24,"max":[1,1],"min":[0,0],"type":"VEC2"},{"bufferView":69,"componentType":5123,"count":12,"max":[7],"min":[0],"type":"SCALAR"},{"bufferView":70,"componentType":5123,"count":12,"max":[15],"min":[8],"type":"SCALAR"},{"bufferView":71,"componentType":5123,"count":12,"max":[23],"min":[16],"type":"SCALAR"},{"bufferView":72,"componentType":5126,"count":24,"max":[0.125,0.03125,0.875],"min":[0,0,0.125],"type":"VEC3"},{"bufferView":73,"componentType":5126,"count":24,"max":[1,1,1],"min":[-1,-1,-1],"type":"VEC3"},{"bufferView":74,"componentType":5126,"count":24,"max":[1,1],"min":[0,0.125],"type":"VEC2"},{"bufferView":75,"componentType":5123,"count":12,"max":[7],"min":[0],"type":"SCALAR"},{"bufferView":76,"componentType":5123,"count":12,"max":[15],"min":[8],"type":"SCALAR"},{"bufferView":77,"componentType":5123,"count":12,"max":[23],"min":[16],"type":"SCALAR"},{"bufferView":78,"componentType":5126,"count":24,"max":[1,0.03125,0.875],"min":[0.875,0,0.125],"type":"VEC3"},{"bufferView":79,"componentType":5126,"count":24,"max":[1,1,1],"min":[-1,-1,-1],"type":"VEC3"},{"bufferView":80,"componentType":5126,"count":24,"max":[1,1],"min":[0,0.125],"type":"VEC2"},{"bufferView":81,"componentType":5123,"count":12,"max":[7],"min":[0],"type":"SCALAR"},{"bufferView":82,"componentType":5123,"count":12,"max":[15],"min":[8],"type":"SCALAR"},{"bufferView":83,"componentType":5123,"count":12,"max":[23],"min":[16],"type":"SCALAR"},{"bufferView":84,"componentType":5126,"count":24,"max":[0.625,0.03125,0.375],"min":[0.375,0,0.125],"type":"VEC3"},{"bufferView":85,"componentType":5126,"count":24,"max":[1,1,1],"min":[-1,-1,-1],"type":"VEC3"},{"bufferView":86,"componentType":5126,"count":24,"max":[0.875,1],"min":[0.125,0.125],"type":"VEC2"},{"bufferView":87,"componentType":5123,"count":12,"max":[7],"min":[0],"type":"SCALAR"},{"bufferView":88,"componentType":5123,"count":12,"max":[15],"min":[8],"type":"SCALAR"},{"bufferView":89,"componentType":5123,"count":12,"max":[23],"min":[16],"type":"SCALAR"}],"materials":[{"pbrMetallicRoughness":{"metallicFactor":0,"roughnessFactor":1,"baseColorTexture":{"index":0}},"alphaMode":"MASK","alphaCutoff":0.05},{"pbrMetallicRoughness":{"metallicFactor":0,"roughnessFactor":1,"baseColorTexture":{"index":1}},"alphaMode":"MASK","alphaCutoff":0.05}],"textures":[{"sampler":0,"source":0},{"sampler":1,"source":1}],"samplers":[{"magFilter":9728,"minFilter":9728,"wrapS":33071,"wrapT":33071},{"magFilter":9728,"minFilter":9728,"wrapS":33071,"wrapT":33071}],"images":[{"mimeType":"image/png","uri":"data:image/png;base64,"},{"mimeType":"image/png","uri":"data:image/png;base64,"}],"meshes":[{"primitives":[{"mode":4,"attributes":{"POSITION":0,"NORMAL":1,"TEXCOORD_0":2},"indices":3,"material":0},{"mode":4,"attributes":{"POSITION":0,"NORMAL":1,"TEXCOORD_0":2},"indices":4,"material":1},{"mode":4,"attributes":{"POSITION":0,"NORMAL":1,"TEXCOORD_0":2},"indices":5,"material":0}]},{"primitives":[{"mode":4,"attributes":{"POSITION":6,"NORMAL":7,"TEXCOORD_0":8},"indices":9,"material":0},{"mode":4,"attributes":{"POSITION":6,"NORMAL":7,"TEXCOORD_0":8},"indices":10,"material":1},{"mode":4,"attributes":{"POSITION":6,"NORMAL":7,"TEXCOORD_0":8},"indices":11,"material":0}]},{"primitives":[{"mode":4,"attributes":{"POSITION":12,"NORMAL":13,"TEXCOORD_0":14},"indices":15,"material":0},{"mode":4,"attributes":{"POSITION":12,"NORMAL":13,"TEXCOORD_0":14},"indices":16,"material":1},{"mode":4,"attributes":{"POSITION":12,"NORMAL":13,"TEXCOORD_0":14},"indices":17,"material":0}]},{"primitives":[{"mode":4,"attributes":{"POSITION":18,"NORMAL":19,"TEXCOORD_0":20},"indices":21,"material":0},{"mode":4,"attributes":{"POSITION":18,"NORMAL":19,"TEXCOORD_0":20},"indices":22,"material":1},{"mode":4,"attributes":{"POSITION":18,"NORMAL":19,"TEXCOORD_0":20},"indices":23,"material":0}]},{"primitives":[{"mode":4,"attributes":{"POSITION":24,"NORMAL":25,"TEXCOORD_0":26},"indices":27,"material":0},{"mode":4,"attributes":{"POSITION":24,"NORMAL":25,"TEXCOORD_0":26},"indices":28,"material":1},{"mode":4,"attributes":{"POSITION":24,"NORMAL":25,"TEXCOORD_0":26},"indices":29,"material":0}]},{"primitives":[{"mode":4,"attributes":{"POSITION":30,"NORMAL":31,"TEXCOORD_0":32},"indices":33,"material":0},{"mode":4,"attributes":{"POSITION":30,"NORMAL":31,"TEXCOORD_0":32},"indices":34,"material":1},{"mode":4,"attributes":{"POSITION":30,"NORMAL":31,"TEXCOORD_0":32},"indices":35,"material":0}]},{"primitives":[{"mode":4,"attributes":{"POSITION":36,"NORMAL":37,"TEXCOORD_0":38},"indices":39,"material":0},{"mode":4,"attributes":{"POSITION":36,"NORMAL":37,"TEXCOORD_0":38},"indices":40,"material":1},{"mode":4,"attributes":{"POSITION":36,"NORMAL":37,"TEXCOORD_0":38},"indices":41,"material":0}]},{"primitives":[{"mode":4,"attributes":{"POSITION":42,"NORMAL":43,"TEXCOORD_0":44},"indices":45,"material":0},{"mode":4,"attributes":{"POSITION":42,"NORMAL":43,"TEXCOORD_0":44},"indices":46,"material":1},{"mode":4,"attributes":{"POSITION":42,"NORMAL":43,"TEXCOORD_0":44},"indices":47,"material":0}]},{"primitives":[{"mode":4,"attributes":{"POSITION":48,"NORMAL":49,"TEXCOORD_0":50},"indices":51,"material":0},{"mode":4,"attributes":{"POSITION":48,"NORMAL":49,"TEXCOORD_0":50},"indices":52,"material":1},{"mode":4,"attributes":{"POSITION":48,"NORMAL":49,"TEXCOORD_0":50},"indices":53,"material":0}]},{"primitives":[{"mode":4,"attributes":{"POSITION":54,"NORMAL":55,"TEXCOORD_0":56},"indices":57,"material":0},{"mode":4,"attributes":{"POSITION":54,"NORMAL":55,"TEXCOORD_0":56},"indices":58,"material":1},{"mode":4,"attributes":{"POSITION":54,"NORMAL":55,"TEXCOORD_0":56},"indices":59,"material":0}]},{"primitives":[{"mode":4,"attributes":{"POSITION":60,"NORMAL":61,"TEXCOORD_0":62},"indices":63,"material":0},{"mode":4,"attributes":{"POSITION":60,"NORMAL":61,"TEXCOORD_0":62},"indices":64,"material":1},{"mode":4,"attributes":{"POSITION":60,"NORMAL":61,"TEXCOORD_0":62},"indices":65,"material":0}]},{"primitives":[{"mode":4,"attributes":{"POSITION":66,"NORMAL":67,"TEXCOORD_0":68},"indices":69,"material":0},{"mode":4,"attributes":{"POSITION":66,"NORMAL":67,"TEXCOORD_0":68},"indices":70,"material":1},{"mode":4,"attributes":{"POSITION":66,"NORMAL":67,"TEXCOORD_0":68},"indices":71,"material":0}]},{"primitives":[{"mode":4,"attributes":{"POSITION":72,"NORMAL":73,"TEXCOORD_0":74},"indices":75,"material":0},{"mode":4,"attributes":{"POSITION":72,"NORMAL":73,"TEXCOORD_0":74},"indices":76,"material":1},{"mode":4,"attributes":{"POSITION":72,"NORMAL":73,"TEXCOORD_0":74},"indices":77,"material":0}]},{"primitives":[{"mode":4,"attributes":{"POSITION":78,"NORMAL":79,"TEXCOORD_0":80},"indices":81,"material":0},{"mode":4,"attributes":{"POSITION":78,"NORMAL":79,"TEXCOORD_0":80},"indices":82,"material":1},{"mode":4,"attributes":{"POSITION":78,"NORMAL":79,"TEXCOORD_0":80},"indices":83,"material":0}]},{"primitives":[{"mode":4,"attributes":{"POSITION":84,"NORMAL":85,"TEXCOORD_0":86},"indices":87,"material":0},{"mode":4,"attributes":{"POSITION":84,"NORMAL":85,"TEXCOORD_0":86},"indices":88,"material":1},{"mode":4,"attributes":{"POSITION":84,"NORMAL":85,"TEXCOORD_0":86},"indices":89,"material":0}]}]}