{"asset":{"version":"2.0","generator":"Blockbench 4.4.2 glTF exporter"},"scenes":[{"nodes":[26],"name":"blockbench_export"}],"scene":0,"nodes":[{"name":"cube","mesh":0},{"name":"cube","mesh":1},{"name":"cube","mesh":2},{"name":"cube","mesh":3},{"name":"cube","mesh":4},{"name":"cube","mesh":5},{"name":"cube","mesh":6},{"name":"cube","mesh":7},{"name":"cube","mesh":8},{"name":"cube","mesh":9},{"name":"cube","mesh":10},{"name":"cube","mesh":11},{"name":"cube","mesh":12},{"name":"cube","mesh":13},{"name":"cube","mesh":14},{"name":"cube","mesh":15},{"name":"cube","mesh":16},{"name":"cube","mesh":17},{"name":"cube","mesh":18},{"name":"cube","mesh":19},{"name":"cube","mesh":20},{"name":"cube","mesh":21},{"name":"cube","mesh":22},{"name":"cube","mesh":23},{"name":"cube","mesh":24},{"translation":[0.5,0.5,0.5],"name":"group"},{"children":[0,1,2,3,4,5,6,7,8,9,10,11,12,13,14,15,16,17,18,19,20,21,22,23,24,25]}],"bufferViews":[{"buffer":0,"byteOffset":0,"byteLength":288,"target":34962,"byteStride":12},{"buffer":0,"byteOffset":288,"byteLength":288,"target":34962,"byteStride":12},{"buffer":0,"byteOffset":576,"byteLength":192,"target":34962,"byteStride":8},{"buffer":0,"byteOffset":768,"byteLength":60,"target":34963},{"buffer":0,"byteOffset":828,"byteLength":288,"target":34962,"byteStride":12},{"buffer":0,"byteOffset":1116,"byteLength":288,"target":34962,"byteStride":12},{"buffer":0,"byteOffset":1404,"byteLength":192,"target":34962,"byteStride":8},{"buffer":0,"byteOffset":1596,"byteLength":48,"target":34963},{"buffer":0,"byteOffset":1644,"byteLength":288,"target":34962,"byteStride":12},{"buffer":0,"byteOffset":1932,"byteLength":288,"target":34962,"byteStride":12},{"buffer":0,"byteOffset":2220,"byteLength":192,"target":34962,"byteStride":8},{"buffer":0,"byteOffset":2412,"byteLength":48,"target":34963},{"buffer":0,"byteOffset":2460,"byteLength":288,"target":34962,"byteStride":12},{"buffer":0,"byteOffset":2748,"byteLength":288,"target":34962,"byteStride":12},{"buffer":0,"byteOffset":3036,"byteLength":192,"target":34962,"byteStride":8},{"buffer":0,"byteOffset":3228,"byteLength":48,"target":34963},{"buffer":0,"byteOffset":3276,"byteLength":288,"target":34962,"byteStride":12},{"buffer":0,"byteOffset":3564,"byteLength":288,"target":34962,"byteStride":12},{"buffer":0,"byteOffset":3852,"byteLength":192,"target":34962,"byteStride":8},{"buffer":0,"byteOffset":4044,"byteLength":72,"target":34963},{"buffer":0,"byteOffset":4116,"byteLength":288,"target":34962,"byteStride":12},{"buffer":0,"byteOffset":4404,"byteLength":288,"target":34962,"byteStride":12},{"buffer":0,"byteOffset":4692,"byteLength":192,"target":34962,"byteStride":8},{"buffer":0,"byteOffset":4884,"byteLength":48,"target":34963},{"buffer":0,"byteOffset":4932,"byteLength":288,"target":34962,"byteStride":12},{"buffer":0,"byteOffset":5220,"byteLength":288,"target":34962,"byteStride":12},{"buffer":0,"byteOffset":5508,"byteLength":192,"target":34962,"byteStride":8},{"buffer":0,"byteOffset":5700,"byteLength":48,"target":34963},{"buffer":0,"byteOffset":5748,"byteLength":288,"target":34962,"byteStride":12},{"buffer":0,"byteOffset":6036,"byteLength":288,"target":34962,"byteStride":12},{"buffer":0,"byteOffset":6324,"byteLength":192,"target":34962,"byteStride":8},{"buffer":0,"byteOffset":6516,"byteLength":72,"target":34963},{"buffer":0,"byteOffset":6588,"byteLength":288,"target":34962,"byteStride":12},{"buffer":0,"byteOffset":6876,"byteLength":288,"target":34962,"byteStride":12},{"buffer":0,"byteOffset":7164,"byteLength":192,"target":34962,"byteStride":8},{"buffer":0,"byteOffset":7356,"byteLength":60,"target":34963},{"buffer":0,"byteOffset":7416,"byteLength":288,"target":34962,"byteStride":12},{"buffer":0,"byteOffset":7704,"byteLength":288,"target":34962,"byteStride":12},{"buffer":0,"byteOffset":7992,"byteLength":192,"target":34962,"byteStride":8},{"buffer":0,"byteOffset":8184,"byteLength":48,"target":34963},{"buffer":0,"byteOffset":8232,"byteLength":288,"target":34962,"byteStride":12},{"buffer":0,"byteOffset":8520,"byteLength":288,"target":34962,"byteStride":12},{"buffer":0,"byteOffset":8808,"byteLength":192,"target":34962,"byteStride":8},{"buffer":0,"byteOffset":9000,"byteLength":48,"target":34963},{"buffer":0,"byteOffset":9048,"byteLength":288,"target":34962,"byteStride":12},{"buffer":0,"byteOffset":9336,"byteLength":288,"target":34962,"byteStride":12},{"buffer":0,"byteOffset":9624,"byteLength":192,"target":34962,"byteStride":8},{"buffer":0,"byteOffset":9816,"byteLength":72,"target":34963},{"buffer":0,"byteOffset":9888,"byteLength":288,"target":34962,"byteStride":12},{"buffer":0,"byteOffset":10176,"byteLength":288,"target":34962,"byteStride":12},{"buffer":0,"byteOffset":10464,"byteLength":192,"target":34962,"byteStride":8},{"buffer":0,"byteOffset":10656,"byteLength":72,"target":34963},{"buffer":0,"byteOffset":10728,"byteLength":288,"target":34962,"byteStride":12},{"buffer":0,"byteOffset":11016,"byteLength":288,"target":34962,"byteStride":12},{"buffer":0,"byteOffset":11304,"byteLength":192,"target":34962,"byteStride":8},{"buffer":0,"byteOffset":11496,"byteLength":36,"target":34963},{"buffer":0,"byteOffset":11532,"byteLength":288,"target":34962,"byteStride":12},{"buffer":0,"byteOffset":11820,"byteLength":288,"target":34962,"byteStride":12},{"buffer":0,"byteOffset":12108,"byteLength":192,"target":34962,"byteStride":8},{"buffer":0,"byteOffset":12300,"byteLength":72,"target":34963},{"buffer":0,"byteOffset":12372,"byteLength":288,"target":34962,"byteStride":12},{"buffer":0,"byteOffset":12660,"byteLength":288,"target":34962,"byteStride":12},{"buffer":0,"byteOffset":12948,"byteLength":192,"target":34962,"byteStride":8},{"buffer":0,"byteOffset":13140,"byteLength":72,"target":34963},{"buffer":0,"byteOffset":13212,"byteLength":288,"target":34962,"byteStride":12},{"buffer":0,"byteOffset":13500,"byteLength":288,"target":34962,"byteStride":12},{"buffer":0,"byteOffset":13788,"byteLength":192,"target":34962,"byteStride":8},{"buffer":0,"byteOffset":13980,"byteLength":72,"target":34963},{"buffer":0,"byteOffset":14052,"byteLength":288,"target":34962,"byteStride":12},{"buffer":0,"byteOffset":14340,"byteLength":288,"target":34962,"byteStride":12},{"buffer":0,"byteOffset":14628,"byteLength":192,"target":34962,"byteStride":8},{"buffer":0,"byteOffset":14820,"byteLength":72,"target":34963},{"buffer":0,"byteOffset":14892,"byteLength":288,"target":34962,"byteStride":12},{"buffer":0,"byteOffset":15180,"byteLength":288,"target":34962,"byteStride":12},{"buffer":0,"byteOffset":15468,"byteLength":192,"target":34962,"byteStride":8},{"buffer":0,"byteOffset":15660,"byteLength":72,"target":34963},{"buffer":0,"byteOffset":15732,"byteLength":288,"target":34962,"byteStride":12},{"buffer":0,"byteOffset":16020,"byteLength":288,"target":34962,"byteStride":12},{"buffer":0,"byteOffset":16308,"byteLength":192,"target":34962,"byteStride":8},{"buffer":0,"byteOffset":16500,"byteLength":72,"target":34963},{"buffer":0,"byteOffset":16572,"byteLength":288,"target":34962,"byteStride":12},{"buffer":0,"byteOffset":16860,"byteLength":288,"target":34962,"byteStride":12},{"buffer":0,"byteOffset":17148,"byteLength":192,"target":34962,"byteStride":8},{"buffer":0,"byteOffset":17340,"byteLength":72,"target":34963},{"buffer":0,"byteOffset":17412,"byteLength":288,"target":34962,"byteStride":12},{"buffer":0,"byteOffset":17700,"byteLength":288,"target":34962,"byteStride":12},{"buffer":0,"byteOffset":17988,"byteLength":192,"target":34962,"byteStride":8},{"buffer":0,"byteOffset":18180,"byteLength":72,"target":34963},{"buffer":0,"byteOffset":18252,"byteLength":288,"target":34962,"byteStride":12},{"buffer":0,"byteOffset":18540,"byteLength":288,"target":34962,"byteStride":12},{"buffer":0,"byteOffset":18828,"byteLength":192,"target":34962,"byteStride":8},{"buffer":0,"byteOffset":19020,"byteLength":72,"target":34963},{"buffer":0,"byteOffset":19092,"byteLength":288,"target":34962,"byteStride":12},{"buffer":0,"byteOffset":19380,"byteLength":288,"target":34962,"byteStride":12},{"buffer":0,"byteOffset":19668,"byteLength":192,"target":34962,"byteStride":8},{"buffer":0,"byteOffset":19860,"byteLength":72,"target":34963},{"buffer":0,"byteOffset":19932,"byteLength":288,"target":34962,"byteStride":12},{"buffer":0,"byteOffset":20220,"byteLength":288,"target":34962,"byteStride":12},{"buffer":0,"byteOffset":20508,"byteLength":192,"target":34962,"byteStride":8},{"buffer":0,"byteOffset":20700,"byteLength":72,"target":34963}],"buffers":[{"byteLength":20772,"uri":"data:application/octet-stream;base64,"}],"accessors":[{"bufferView":0,"componentType":5126,"count":24,"max":[0.1875,0.125,0.1875],"min":[0,0,0],"type":"VEC3"},{"bufferView":1,"componentType":5126,"count":24,"max":[1,1,1],"min":[-1,-1,-1],"type":"VEC3"},{"bufferView":2,"componentType":5126,"count":24,"max":[1,1],"min":[0,0],"type":"VEC2"},{"bufferView":3,"componentType":5123,"count":30,"max":[23],"min":[0],"type":"SCALAR"},{"bufferView":4,"componentType":5126,"count":24,"max":[0.1875,0.3125,0.8125],"min":[0,0.15625,0.5],"type":"VEC3"},{"bufferView":5,"componentType":5126,"count":24,"max":[1,1,1],"min":[-1,-1,-1],"type":"VEC3"},{"bufferView":6,"componentType":5126,"count":24,"max":[1,1],"min":[0,0],"type":"VEC2"},{"bufferView":7,"componentType":5123,"count":24,"max":[15],"min":[0],"type":"SCALAR"},{"bufferView":8,"componentType":5126,"count":24,"max":[0.1875,0.625,0.8125],"min":[0,0.5,0.5],"type":"VEC3"},{"bufferView":9,"componentType":5126,"count":24,"max":[1,1,1],"min":[-1,-1,-1],"type":"VEC3"},{"bufferView":10,"componentType":5126,"count":24,"max":[1,1],"min":[0,0],"type":"VEC2"},{"bufferView":11,"componentType":5123,"count":24,"max":[15],"min":[0],"type":"SCALAR"},{"bufferView":12,"componentType":5126,"count":24,"max":[0.15625,0.15625,0.4375],"min":[0.03125,0,0.1875],"type":"VEC3"},{"bufferView":13,"componentType":5126,"count":24,"max":[1,1,1],"min":[-1,-1,-1],"type":"VEC3"},{"bufferView":14,"componentType":5126,"count":24,"max":[1,1],"min":[0,0],"type":"VEC2"},{"bufferView":15,"componentType":5123,"count":24,"max":[23],"min":[0],"type":"SCALAR"},{"bufferView":16,"componentType":5126,"count":24,"max":[0.1875,0.8125,0.5625],"min":[0,0.625,0.4375],"type":"VEC3"},{"bufferView":17,"componentType":5126,"count":24,"max":[1,1,1],"min":[-1,-1,-1],"type":"VEC3"},{"bufferView":18,"componentType":5126,"count":24,"max":[1,0.8125],"min":[0,0.4375],"type":"VEC2"},{"bufferView":19,"componentType":5123,"count":36,"max":[23],"min":[0],"type":"SCALAR"},{"bufferView":20,"componentType":5126,"count":24,"max":[0.1875,1,0.5],"min":[0,0.8125,0.1875],"type":"VEC3"},{"bufferView":21,"componentType":5126,"count":24,"max":[1,1,1],"min":[-1,-1,-1],"type":"VEC3"},{"bufferView":22,"componentType":5126,"count":24,"max":[1,1],"min":[0,0],"type":"VEC2"},{"bufferView":23,"componentType":5123,"count":24,"max":[15],"min":[0],"type":"SCALAR"},{"bufferView":24,"componentType":5126,"count":24,"max":[0.1875,0.3125,0.5],"min":[0,0.15625,0.1875],"type":"VEC3"},{"bufferView":25,"componentType":5126,"count":24,"max":[1,1,1],"min":[-1,-1,-1],"type":"VEC3"},{"bufferView":26,"componentType":5126,"count":24,"max":[1,1],"min":[0,0],"type":"VEC2"},{"bufferView":27,"componentType":5123,"count":24,"max":[15],"min":[0],"type":"SCALAR"},{"bufferView":28,"componentType":5126,"count":24,"max":[0.1875,1,1],"min":[0,0.15625,0.8125],"type":"VEC3"},{"bufferView":29,"componentType":5126,"count":24,"max":[1,1,1],"min":[-1,-1,-1],"type":"VEC3"},{"bufferView":30,"componentType":5126,"count":24,"max":[1,1],"min":[0,0.15625],"type":"VEC2"},{"bufferView":31,"componentType":5123,"count":36,"max":[23],"min":[0],"type":"SCALAR"},{"bufferView":32,"componentType":5126,"count":24,"max":[0.1875,1,0.1875],"min":[0,0.125,0],"type":"VEC3"},{"bufferView":33,"componentType":5126,"count":24,"max":[1,1,1],"min":[-1,-1,-1],"type":"VEC3"},{"bufferView":34,"componentType":5126,"count":24,"max":[1,1],"min":[0,0],"type":"VEC2"},{"bufferView":35,"componentType":5123,"count":30,"max":[23],"min":[0],"type":"SCALAR"},{"bufferView":36,"componentType":5126,"count":24,"max":[0.1875,1,0.8125],"min":[0,0.8125,0.5],"type":"VEC3"},{"bufferView":37,"componentType":5126,"count":24,"max":[1,1,1],"min":[-1,-1,-1],"type":"VEC3"},{"bufferView":38,"componentType":5126,"count":24,"max":[1,1],"min":[0,0],"type":"VEC2"},{"bufferView":39,"componentType":5123,"count":24,"max":[15],"min":[0],"type":"SCALAR"},{"bufferView":40,"componentType":5126,"count":24,"max":[0.1875,0.625,0.5],"min":[0,0.5,0.1875],"type":"VEC3"},{"bufferView":41,"componentType":5126,"count":24,"max":[1,1,1],"min":[-1,-1,-1],"type":"VEC3"},{"bufferView":42,"componentType":5126,"count":24,"max":[1,1],"min":[0,0],"type":"VEC2"},{"bufferView":43,"componentType":5123,"count":24,"max":[15],"min":[0],"type":"SCALAR"},{"bufferView":44,"componentType":5126,"count":24,"max":[0.1875,0.5,0.5625],"min":[0,0.3125,0.4375],"type":"VEC3"},{"bufferView":45,"componentType":5126,"count":24,"max":[1,1,1],"min":[-1,-1,-1],"type":"VEC3"},{"bufferView":46,"componentType":5126,"count":24,"max":[1,0.5625],"min":[0,0.3125],"type":"VEC2"},{"bufferView":47,"componentType":5123,"count":36,"max":[23],"min":[0],"type":"SCALAR"},{"bufferView":48,"componentType":5126,"count":24,"max":[0.1875,0.15625,0.5625],"min":[0,0,0.4375],"type":"VEC3"},{"bufferView":49,"componentType":5126,"count":24,"max":[1,1,1],"min":[-1,-1,-1],"type":"VEC3"},{"bufferView":50,"componentType":5126,"count":24,"max":[1,1],"min":[0,0],"type":"VEC2"},{"bufferView":51,"componentType":5123,"count":36,"max":[23],"min":[0],"type":"SCALAR"},{"bufferView":52,"componentType":5126,"count":24,"max":[0.15625,0.15625,0.8125],"min":[0.03125,0,0.5625],"type":"VEC3"},{"bufferView":53,"componentType":5126,"count":24,"max":[1,1,1],"min":[-1,-1,-1],"type":"VEC3"},{"bufferView":54,"componentType":5126,"count":24,"max":[1,1],"min":[0,0],"type":"VEC2"},{"bufferView":55,"componentType":5123,"count":18,"max":[15],"min":[0],"type":"SCALAR"},{"bufferView":56,"componentType":5126,"count":24,"max":[0,0.0625,0.78125],"min":[-0.015625,0,0.75],"type":"VEC3"},{"bufferView":57,"componentType":5126,"count":24,"max":[1,1,1],"min":[-1,-1,-1],"type":"VEC3"},{"bufferView":58,"componentType":5126,"count":24,"max":[0.75,0.0625],"min":[0.71875,0],"type":"VEC2"},{"bufferView":59,"componentType":5123,"count":36,"max":[23],"min":[0],"type":"SCALAR"},{"bufferView":60,"componentType":5126,"count":24,"max":[0,0.09375,0.8125],"min":[-0.015625,0.03125,0.78125],"type":"VEC3"},{"bufferView":61,"componentType":5126,"count":24,"max":[1,1,1],"min":[-1,-1,-1],"type":"VEC3"},{"bufferView":62,"componentType":5126,"count":24,"max":[0.78125,0.09375],"min":[0.75,0.03125],"type":"VEC2"},{"bufferView":63,"componentType":5123,"count":36,"max":[23],"min":[0],"type":"SCALAR"},{"bufferView":64,"componentType":5126,"count":24,"max":[0,0.09375,0.875],"min":[-0.015625,0.0625,0.8125],"type":"VEC3"},{"bufferView":65,"componentType":5126,"count":24,"max":[1,1,1],"min":[-1,-1,-1],"type":"VEC3"},{"bufferView":66,"componentType":5126,"count":24,"max":[0.84375,0.09375],"min":[0.71875,0],"type":"VEC2"},{"bufferView":67,"componentType":5123,"count":36,"max":[23],"min":[0],"type":"SCALAR"},{"bufferView":68,"componentType":5126,"count":24,"max":[0.203125,0.0625,0.78125],"min":[0.1875,0,0.75],"type":"VEC3"},{"bufferView":69,"componentType":5126,"count":24,"max":[1,1,1],"min":[-1,-1,-1],"type":"VEC3"},{"bufferView":70,"componentType":5126,"count":24,"max":[0.75,0.0625],"min":[0.71875,0],"type":"VEC2"},{"bufferView":71,"componentType":5123,"count":36,"max":[23],"min":[0],"type":"SCALAR"},{"bufferView":72,"componentType":5126,"count":24,"max":[0.203125,0.09375,0.8125],"min":[0.1875,0.03125,0.78125],"type":"VEC3"},{"bufferView":73,"componentType":5126,"count":24,"max":[1,1,1],"min":[-1,-1,-1],"type":"VEC3"},{"bufferView":74,"componentType":5126,"count":24,"max":[0.78125,0.09375],"min":[0.75,0.03125],"type":"VEC2"},{"bufferView":75,"componentType":5123,"count":36,"max":[23],"min":[0],"type":"SCALAR"},{"bufferView":76,"componentType":5126,"count":24,"max":[0.203125,0.09375,0.875],"min":[0.1875,0.0625,0.8125],"type":"VEC3"},{"bufferView":77,"componentType":5126,"count":24,"max":[1,1,1],"min":[-1,-1,-1],"type":"VEC3"},{"bufferView":78,"componentType":5126,"count":24,"max":[0.84375,0.09375],"min":[0.71875,0],"type":"VEC2"},{"bufferView":79,"componentType":5123,"count":36,"max":[23],"min":[0],"type":"SCALAR"},{"bufferView":80,"componentType":5126,"count":24,"max":[0.1875,0.15625,1],"min":[0,0,0.8125],"type":"VEC3"},{"bufferView":81,"componentType":5126,"count":24,"max":[1,1,1],"min":[-1,-1,-1],"type":"VEC3"},{"bufferView":82,"componentType":5126,"count":24,"max":[1,0.46875],"min":[0,0.15625],"type":"VEC2"},{"bufferView":83,"componentType":5123,"count":36,"max":[23],"min":[0],"type":"SCALAR"},{"bufferView":84,"componentType":5126,"count":24,"max":[0.0625,0.75,0.0625],"min":[-0.015625,0.625,-0.015625],"type":"VEC3"},{"bufferView":85,"componentType":5126,"count":24,"max":[1,1,1],"min":[-1,-1,-1],"type":"VEC3"},{"bufferView":86,"componentType":5126,"count":24,"max":[0.0625,0.75],"min":[0,0.625],"type":"VEC2"},{"bufferView":87,"componentType":5123,"count":36,"max":[23],"min":[0],"type":"SCALAR"},{"bufferView":88,"componentType":5126,"count":24,"max":[0.0625,0.0625,0.0625],"min":[-0.015625,0,-0.015625],"type":"VEC3"},{"bufferView":89,"componentType":5126,"count":24,"max":[1,1,1],"min":[-1,-1,-1],"type":"VEC3"},{"bufferView":90,"componentType":5126,"count":24,"max":[0.0625,0.0625],"min":[0,0],"type":"VEC2"},{"bufferView":91,"componentType":5123,"count":36,"max":[23],"min":[0],"type":"SCALAR"},{"bufferView":92,"componentType":5126,"count":24,"max":[0.203125,0.0625,0.0625],"min":[0.125,0,-0.015625],"type":"VEC3"},{"bufferView":93,"componentType":5126,"count":24,"max":[1,1,1],"min":[-1,-1,-1],"type":"VEC3"},{"bufferView":94,"componentType":5126,"count":24,"max":[0.0625,0.0625],"min":[0,0],"type":"VEC2"},{"bufferView":95,"componentType":5123,"count":36,"max":[23],"min":[0],"type":"SCALAR"},{"bufferView":96,"componentType":5126,"count":24,"max":[0.203125,0.75,0.0625],"min":[0.125,0.625,-0.015625],"type":"VEC3"},{"bufferView":97,"componentType":5126,"count":24,"max":[1,1,1],"min":[-1,-1,-1],"type":"VEC3"},{"bufferView":98,"componentType":5126,"count":24,"max":[0.0625,0.75],"min":[0,0.625],"type":"VEC2"},{"bufferView":99,"componentType":5123,"count":36,"max":[23],"min":[0],"type":"SCALAR"}],"materials":[{"pbrMetallicRoughness":{"metallicFactor":0,"roughnessFactor":1,"baseColorTexture":{"index":0}},"alphaMode":"MASK","alphaCutoff":0.05}],"textures":[{"sampler":0,"source":0}],"samplers":[{"magFilter":9728,"minFilter":9728,"wrapS":33071,"wrapT":33071}],"images":[{"mimeType":"image/png","uri":"data:image/png;base64,"}],"meshes":[{"primitives":[{"mode":4,"attributes":{"POSITION":0,"NORMAL":1,"TEXCOORD_0":2},"indices":3,"material":0}]},{"primitives":[{"mode":4,"attributes":{"POSITION":4,"NORMAL":5,"TEXCOORD_0":6},"indices":7,"material":0}]},{"primitives":[{"mode":4,"attributes":{"POSITION":8,"NORMAL":9,"TEXCOORD_0":10},"indices":11,"material":0}]},{"primitives":[{"mode":4,"attributes":{"POSITION":12,"NORMAL":13,"TEXCOORD_0":14},"indices":15,"material":0}]},{"primitives":[{"mode":4,"attributes":{"POSITION":16,"NORMAL":17,"TEXCOORD_0":18},"indices":19,"material":0}]},{"primitives":[{"mode":4,"attributes":{"POSITION":20,"NORMAL":21,"TEXCOORD_0":22},"indices":23,"material":0}]},{"primitives":[{"mode":4,"attributes":{"POSITION":24,"NORMAL":25,"TEXCOORD_0":26},"indices":27,"material":0}]},{"primitives":[{"mode":4,"attributes":{"POSITION":28,"NORMAL":29,"TEXCOORD_0":30},"indices":31,"material":0}]},{"primitives":[{"mode":4,"attributes":{"POSITION":32,"NORMAL":33,"TEXCOORD_0":34},"indices":35,"material":0}]},{"primitives":[{"mode":4,"attributes":{"POSITION":36,"NORMAL":37,"TEXCOORD_0":38},"indices":39,"material":0}]},{"primitives":[{"mode":4,"attributes":{"POSITION":40,"NORMAL":41,"TEXCOORD_0":42},"indices":43,"material":0}]},{"primitives":[{"mode":4,"attributes":{"POSITION":44,"NORMAL":45,"TEXCOORD_0":46},"indices":47,"material":0}]},{"primitives":[{"mode":4,"attributes":{"POSITION":48,"NORMAL":49,"TEXCOORD_0":50},"indices":51,"material":0}]},{"primitives":[{"mode":4,"attributes":{"POSITION":52,"NORMAL":53,"TEXCOORD_0":54},"indices":55,"material":0}]},{"primitives":[{"mode":4,"attributes":{"POSITION":56,"NORMAL":57,"TEXCOORD_0":58},"indices":59,"material":0}]},{"primitives":[{"mode":4,"attributes":{"POSITION":60,"NORMAL":61,"TEXCOORD_0":62},"indices":63,"material":0}]},{"primitives":[{"mode":4,"attributes":{"POSITION":64,"NORMAL":65,"TEXCOORD_0":66},"indices":67,"material":0}]},{"primitives":[{"mode":4,"attributes":{"POSITION":68,"NORMAL":69,"TEXCOORD_0":70},"indices":71,"material":0}]},{"primitives":[{"mode":4,"attributes":{"POSITION":72,"NORMAL":73,"TEXCOORD_0":74},"indices":75,"material":0}]},{"primitives":[{"mode":4,"attributes":{"POSITION":76,"NORMAL":77,"TEXCOORD_0":78},"indices":79,"material":0}]},{"primitives":[{"mode":4,"attributes":{"POSITION":80,"NORMAL":81,"TEXCOORD_0":82},"indices":83,"material":0}]},{"primitives":[{"mode":4,"attributes":{"POSITION":84,"NORMAL":85,"TEXCOORD_0":86},"indices":87,"material":0}]},{"primitives":[{"mode":4,"attributes":{"POSITION":88,"NORMAL":89,"TEXCOORD_0":90},"indices":91,"material":0}]},{"primitives":[{"mode":4,"attributes":{"POSITION":92,"NORMAL":93,"TEXCOORD_0":94},"indices":95,"material":0}]},{"primitives":[{"mode":4,"attributes":{"POSITION":96,"NORMAL":97,"TEXCOORD_0":98},"indices":99,"material":0}]}]}