{"asset":{"version":"2.0","generator":"Blockbench 4.4.2 glTF exporter"},"scenes":[{"nodes":[7],"name":"blockbench_export"}],"scene":0,"nodes":[{"name":"cube","mesh":0},{"name":"cube","mesh":1},{"name":"cube","mesh":2},{"name":"cube","mesh":3},{"name":"cube","mesh":4},{"rotation":[0,0.3826834323650898,0,0.9238795325112867],"translation":[0.5,0.5,0.5],"scale":[1.4142,1,1.4142],"name":"cube","mesh":5},{"rotation":[0,0.3826834323650898,0,0.9238795325112867],"translation":[0.5,0.5,0.5],"scale":[1.4142,1,1.4142],"name":"cube","mesh":6},{"children":[0,1,2,3,4,5,6]}],"bufferViews":[{"buffer":0,"byteOffset":0,"byteLength":288,"target":34962,"byteStride":12},{"buffer":0,"byteOffset":288,"byteLength":288,"target":34962,"byteStride":12},{"buffer":0,"byteOffset":576,"byteLength":192,"target":34962,"byteStride":8},{"buffer":0,"byteOffset":768,"byteLength":24,"target":34963},{"buffer":0,"byteOffset":792,"byteLength":288,"target":34962,"byteStride":12},{"buffer":0,"byteOffset":1080,"byteLength":288,"target":34962,"byteStride":12},{"buffer":0,"byteOffset":1368,"byteLength":192,"target":34962,"byteStride":8},{"buffer":0,"byteOffset":1560,"byteLength":24,"target":34963},{"buffer":0,"byteOffset":1584,"byteLength":288,"target":34962,"byteStride":12},{"buffer":0,"byteOffset":1872,"byteLength":288,"target":34962,"byteStride":12},{"buffer":0,"byteOffset":2160,"byteLength":192,"target":34962,"byteStride":8},{"buffer":0,"byteOffset":2352,"byteLength":24,"target":34963},{"buffer":0,"byteOffset":2376,"byteLength":288,"target":34962,"byteStride":12},{"buffer":0,"byteOffset":2664,"byteLength":288,"target":34962,"byteStride":12},{"buffer":0,"byteOffset":2952,"byteLength":192,"target":34962,"byteStride":8},{"buffer":0,"byteOffset":3144,"byteLength":24,"target":34963},{"buffer":0,"byteOffset":3168,"byteLength":288,"target":34962,"byteStride":12},{"buffer":0,"byteOffset":3456,"byteLength":288,"target":34962,"byteStride":12},{"buffer":0,"byteOffset":3744,"byteLength":192,"target":34962,"byteStride":8},{"buffer":0,"byteOffset":3936,"byteLength":24,"target":34963},{"buffer":0,"byteOffset":3960,"byteLength":288,"target":34962,"byteStride":12},{"buffer":0,"byteOffset":4248,"byteLength":288,"target":34962,"byteStride":12},{"buffer":0,"byteOffset":4536,"byteLength":192,"target":34962,"byteStride":8},{"buffer":0,"byteOffset":4728,"byteLength":24,"target":34963},{"buffer":0,"byteOffset":4752,"byteLength":288,"target":34962,"byteStride":12},{"buffer":0,"byteOffset":5040,"byteLength":288,"target":34962,"byteStride":12},{"buffer":0,"byteOffset":5328,"byteLength":192,"target":34962,"byteStride":8},{"buffer":0,"byteOffset":5520,"byteLength":24,"target":34963}],"buffers":[{"byteLength":5544,"uri":"data:application/octet-stream;base64,"}],"accessors":[{"bufferView":0,"componentType":5126,"count":24,"max":[1,1.0000624656677246,1],"min":[0,1,0],"type":"VEC3"},{"bufferView":1,"componentType":5126,"count":24,"max":[1,1,1],"min":[-1,-1,-1],"type":"VEC3"},{"bufferView":2,"componentType":5126,"count":24,"max":[1,1],"min":[0,0],"type":"VEC2"},{"bufferView":3,"componentType":5123,"count":12,"max":[15],"min":[8],"type":"SCALAR"},{"bufferView":4,"componentType":5126,"count":24,"max":[1,1,0.0006249999860301614],"min":[0,0.3125,0],"type":"VEC3"},{"bufferView":5,"componentType":5126,"count":24,"max":[1,1,1],"min":[-1,-1,-1],"type":"VEC3"},{"bufferView":6,"componentType":5126,"count":24,"max":[1,1],"min":[0,0],"type":"VEC2"},{"bufferView":7,"componentType":5123,"count":12,"max":[23],"min":[16],"type":"SCALAR"},{"bufferView":8,"componentType":5126,"count":24,"max":[1,1,1],"min":[0,0.3125,0.9993749856948853],"type":"VEC3"},{"bufferView":9,"componentType":5126,"count":24,"max":[1,1,1],"min":[-1,-1,-1],"type":"VEC3"},{"bufferView":10,"componentType":5126,"count":24,"max":[1,1],"min":[0,0],"type":"VEC2"},{"bufferView":11,"componentType":5123,"count":12,"max":[23],"min":[16],"type":"SCALAR"},{"bufferView":12,"componentType":5126,"count":24,"max":[0.0006249999860301614,1,1],"min":[0,0.3125,0],"type":"VEC3"},{"bufferView":13,"componentType":5126,"count":24,"max":[1,1,1],"min":[-1,-1,-1],"type":"VEC3"},{"bufferView":14,"componentType":5126,"count":24,"max":[1,1],"min":[0,0],"type":"VEC2"},{"bufferView":15,"componentType":5123,"count":12,"max":[7],"min":[0],"type":"SCALAR"},{"bufferView":16,"componentType":5126,"count":24,"max":[1,1,1],"min":[0.9993749856948853,0.3125,0],"type":"VEC3"},{"bufferView":17,"componentType":5126,"count":24,"max":[1,1,1],"min":[-1,-1,-1],"type":"VEC3"},{"bufferView":18,"componentType":5126,"count":24,"max":[1,1],"min":[0,0],"type":"VEC2"},{"bufferView":19,"componentType":5123,"count":12,"max":[7],"min":[0],"type":"SCALAR"},{"bufferView":20,"componentType":5126,"count":24,"max":[0.4937500059604645,0.4937500059604645,0.0000625000029685907],"min":[-0.4937500059604645,-0.5,0],"type":"VEC3"},{"bufferView":21,"componentType":5126,"count":24,"max":[1,1,1],"min":[-1,-1,-1],"type":"VEC3"},{"bufferView":22,"componentType":5126,"count":24,"max":[1,1],"min":[0,0],"type":"VEC2"},{"bufferView":23,"componentType":5123,"count":12,"max":[23],"min":[16],"type":"SCALAR"},{"bufferView":24,"componentType":5126,"count":24,"max":[0.0000625000029685907,0.4937500059604645,0.4937500059604645],"min":[0,-0.5,-0.4937500059604645],"type":"VEC3"},{"bufferView":25,"componentType":5126,"count":24,"max":[1,1,1],"min":[-1,-1,-1],"type":"VEC3"},{"bufferView":26,"componentType":5126,"count":24,"max":[1,1],"min":[0,0],"type":"VEC2"},{"bufferView":27,"componentType":5123,"count":12,"max":[7],"min":[0],"type":"SCALAR"}],"materials":[{"pbrMetallicRoughness":{"metallicFactor":0,"roughnessFactor":1,"baseColorTexture":{"index":0}},"alphaMode":"MASK","alphaCutoff":0.05},{"pbrMetallicRoughness":{"metallicFactor":0,"roughnessFactor":1,"baseColorTexture":{"index":1}},"alphaMode":"MASK","alphaCutoff":0.05},{"pbrMetallicRoughness":{"metallicFactor":0,"roughnessFactor":1,"baseColorTexture":{"index":2}},"alphaMode":"MASK","alphaCutoff":0.05}],"textures":[{"sampler":0,"source":0},{"sampler":1,"source":1},{"sampler":2,"source":2}],"samplers":[{"magFilter":9728,"minFilter":9728,"wrapS":33071,"wrapT":33071},{"magFilter":9728,"minFilter":9728,"wrapS":33071,"wrapT":33071},{"magFilter":9728,"minFilter":9728,"wrapS":33071,"wrapT":33071}],"images":[{"mimeType":"image/png","uri":"data:image/png;base64,"},{"mimeType":"image/png","uri":"data:image/png;base64,"},{"mimeType":"image/png","uri":"data:image/png;base64,"}],"meshes":[{"primitives":[{"mode":4,"attributes":{"POSITION":0,"NORMAL":1,"TEXCOORD_0":2},"indices":3,"material":0}]},{"primitives":[{"mode":4,"attributes":{"POSITION":4,"NORMAL":5,"TEXCOORD_0":6},"indices":7,"material":1}]},{"primitives":[{"mode":4,"attributes":{"POSITION":8,"NORMAL":9,"TEXCOORD_0":10},"indices":11,"material":1}]},{"primitives":[{"mode":4,"attributes":{"POSITION":12,"NORMAL":13,"TEXCOORD_0":14},"indices":15,"material":1}]},{"primitives":[{"mode":4,"attributes":{"POSITION":16,"NORMAL":17,"TEXCOORD_0":18},"indices":19,"material":1}]},{"primitives":[{"mode":4,"attributes":{"POSITION":20,"NORMAL":21,"TEXCOORD_0":22},"indices":23,"material":2}]},{"primitives":[{"mode":4,"attributes":{"POSITION":24,"NORMAL":25,"TEXCOORD_0":26},"indices":27,"material":2}]}]}