{"asset":{"version":"2.0","generator":"Blockbench 4.4.2 glTF exporter"},"scenes":[{"nodes":[14],"name":"blockbench_export"}],"scene":0,"nodes":[{"name":"cube","mesh":0},{"name":"cube","mesh":1},{"name":"cube","mesh":2},{"name":"cube","mesh":3},{"name":"cube","mesh":4},{"name":"cube","mesh":5},{"name":"cube","mesh":6},{"name":"cube","mesh":7},{"name":"cube","mesh":8},{"name":"cube","mesh":9},{"name":"cube","mesh":10},{"name":"cube","mesh":11},{"name":"cube","mesh":12},{"name":"cube","mesh":13},{"children":[0,1,2,3,4,5,6,7,8,9,10,11,12,13]}],"bufferViews":[{"buffer":0,"byteOffset":0,"byteLength":288,"target":34962,"byteStride":12},{"buffer":0,"byteOffset":288,"byteLength":288,"target":34962,"byteStride":12},{"buffer":0,"byteOffset":576,"byteLength":192,"target":34962,"byteStride":8},{"buffer":0,"byteOffset":768,"byteLength":24,"target":34963},{"buffer":0,"byteOffset":792,"byteLength":288,"target":34962,"byteStride":12},{"buffer":0,"byteOffset":1080,"byteLength":288,"target":34962,"byteStride":12},{"buffer":0,"byteOffset":1368,"byteLength":192,"target":34962,"byteStride":8},{"buffer":0,"byteOffset":1560,"byteLength":24,"target":34963},{"buffer":0,"byteOffset":1584,"byteLength":12,"target":34963},{"buffer":0,"byteOffset":1596,"byteLength":24,"target":34963},{"buffer":0,"byteOffset":1620,"byteLength":288,"target":34962,"byteStride":12},{"buffer":0,"byteOffset":1908,"byteLength":288,"target":34962,"byteStride":12},{"buffer":0,"byteOffset":2196,"byteLength":192,"target":34962,"byteStride":8},{"buffer":0,"byteOffset":2388,"byteLength":24,"target":34963},{"buffer":0,"byteOffset":2412,"byteLength":12,"target":34963},{"buffer":0,"byteOffset":2424,"byteLength":24,"target":34963},{"buffer":0,"byteOffset":2448,"byteLength":288,"target":34962,"byteStride":12},{"buffer":0,"byteOffset":2736,"byteLength":288,"target":34962,"byteStride":12},{"buffer":0,"byteOffset":3024,"byteLength":192,"target":34962,"byteStride":8},{"buffer":0,"byteOffset":3216,"byteLength":24,"target":34963},{"buffer":0,"byteOffset":3240,"byteLength":12,"target":34963},{"buffer":0,"byteOffset":3252,"byteLength":24,"target":34963},{"buffer":0,"byteOffset":3276,"byteLength":288,"target":34962,"byteStride":12},{"buffer":0,"byteOffset":3564,"byteLength":288,"target":34962,"byteStride":12},{"buffer":0,"byteOffset":3852,"byteLength":192,"target":34962,"byteStride":8},{"buffer":0,"byteOffset":4044,"byteLength":24,"target":34963},{"buffer":0,"byteOffset":4068,"byteLength":12,"target":34963},{"buffer":0,"byteOffset":4080,"byteLength":24,"target":34963},{"buffer":0,"byteOffset":4104,"byteLength":288,"target":34962,"byteStride":12},{"buffer":0,"byteOffset":4392,"byteLength":288,"target":34962,"byteStride":12},{"buffer":0,"byteOffset":4680,"byteLength":192,"target":34962,"byteStride":8},{"buffer":0,"byteOffset":4872,"byteLength":12,"target":34963},{"buffer":0,"byteOffset":4884,"byteLength":24,"target":34963},{"buffer":0,"byteOffset":4908,"byteLength":288,"target":34962,"byteStride":12},{"buffer":0,"byteOffset":5196,"byteLength":288,"target":34962,"byteStride":12},{"buffer":0,"byteOffset":5484,"byteLength":192,"target":34962,"byteStride":8},{"buffer":0,"byteOffset":5676,"byteLength":12,"target":34963},{"buffer":0,"byteOffset":5688,"byteLength":24,"target":34963},{"buffer":0,"byteOffset":5712,"byteLength":288,"target":34962,"byteStride":12},{"buffer":0,"byteOffset":6000,"byteLength":288,"target":34962,"byteStride":12},{"buffer":0,"byteOffset":6288,"byteLength":192,"target":34962,"byteStride":8},{"buffer":0,"byteOffset":6480,"byteLength":24,"target":34963},{"buffer":0,"byteOffset":6504,"byteLength":12,"target":34963},{"buffer":0,"byteOffset":6516,"byteLength":288,"target":34962,"byteStride":12},{"buffer":0,"byteOffset":6804,"byteLength":288,"target":34962,"byteStride":12},{"buffer":0,"byteOffset":7092,"byteLength":192,"target":34962,"byteStride":8},{"buffer":0,"byteOffset":7284,"byteLength":24,"target":34963},{"buffer":0,"byteOffset":7308,"byteLength":12,"target":34963},{"buffer":0,"byteOffset":7320,"byteLength":288,"target":34962,"byteStride":12},{"buffer":0,"byteOffset":7608,"byteLength":288,"target":34962,"byteStride":12},{"buffer":0,"byteOffset":7896,"byteLength":192,"target":34962,"byteStride":8},{"buffer":0,"byteOffset":8088,"byteLength":24,"target":34963},{"buffer":0,"byteOffset":8112,"byteLength":288,"target":34962,"byteStride":12},{"buffer":0,"byteOffset":8400,"byteLength":288,"target":34962,"byteStride":12},{"buffer":0,"byteOffset":8688,"byteLength":192,"target":34962,"byteStride":8},{"buffer":0,"byteOffset":8880,"byteLength":12,"target":34963},{"buffer":0,"byteOffset":8892,"byteLength":24,"target":34963},{"buffer":0,"byteOffset":8916,"byteLength":288,"target":34962,"byteStride":12},{"buffer":0,"byteOffset":9204,"byteLength":288,"target":34962,"byteStride":12},{"buffer":0,"byteOffset":9492,"byteLength":192,"target":34962,"byteStride":8},{"buffer":0,"byteOffset":9684,"byteLength":12,"target":34963},{"buffer":0,"byteOffset":9696,"byteLength":24,"target":34963},{"buffer":0,"byteOffset":9720,"byteLength":288,"target":34962,"byteStride":12},{"buffer":0,"byteOffset":10008,"byteLength":288,"target":34962,"byteStride":12},{"buffer":0,"byteOffset":10296,"byteLength":192,"target":34962,"byteStride":8},{"buffer":0,"byteOffset":10488,"byteLength":24,"target":34963},{"buffer":0,"byteOffset":10512,"byteLength":12,"target":34963},{"buffer":0,"byteOffset":10524,"byteLength":288,"target":34962,"byteStride":12},{"buffer":0,"byteOffset":10812,"byteLength":288,"target":34962,"byteStride":12},{"buffer":0,"byteOffset":11100,"byteLength":192,"target":34962,"byteStride":8},{"buffer":0,"byteOffset":11292,"byteLength":24,"target":34963},{"buffer":0,"byteOffset":11316,"byteLength":12,"target":34963}],"buffers":[{"byteLength":11328,"uri":"data:application/octet-stream;base64,"}],"accessors":[{"bufferView":0,"componentType":5126,"count":24,"max":[1,1,1],"min":[0,0.9993749856948853,0],"type":"VEC3"},{"bufferView":1,"componentType":5126,"count":24,"max":[1,1,1],"min":[-1,-1,-1],"type":"VEC3"},{"bufferView":2,"componentType":5126,"count":24,"max":[1,1],"min":[0,0],"type":"VEC2"},{"bufferView":3,"componentType":5123,"count":12,"max":[15],"min":[8],"type":"SCALAR"},{"bufferView":4,"componentType":5126,"count":24,"max":[0.125,1,0.125],"min":[0,0,0],"type":"VEC3"},{"bufferView":5,"componentType":5126,"count":24,"max":[1,1,1],"min":[-1,-1,-1],"type":"VEC3"},{"bufferView":6,"componentType":5126,"count":24,"max":[1,1],"min":[0,0],"type":"VEC2"},{"bufferView":7,"componentType":5123,"count":12,"max":[7],"min":[0],"type":"SCALAR"},{"bufferView":8,"componentType":5123,"count":6,"max":[15],"min":[12],"type":"SCALAR"},{"bufferView":9,"componentType":5123,"count":12,"max":[23],"min":[16],"type":"SCALAR"},{"bufferView":10,"componentType":5126,"count":24,"max":[0.125,1,1],"min":[0,0,0.875],"type":"VEC3"},{"bufferView":11,"componentType":5126,"count":24,"max":[1,1,1],"min":[-1,-1,-1],"type":"VEC3"},{"bufferView":12,"componentType":5126,"count":24,"max":[1,1],"min":[0,0],"type":"VEC2"},{"bufferView":13,"componentType":5123,"count":12,"max":[7],"min":[0],"type":"SCALAR"},{"bufferView":14,"componentType":5123,"count":6,"max":[15],"min":[12],"type":"SCALAR"},{"bufferView":15,"componentType":5123,"count":12,"max":[23],"min":[16],"type":"SCALAR"},{"bufferView":16,"componentType":5126,"count":24,"max":[1,1,1],"min":[0.875,0,0.875],"type":"VEC3"},{"bufferView":17,"componentType":5126,"count":24,"max":[1,1,1],"min":[-1,-1,-1],"type":"VEC3"},{"bufferView":18,"componentType":5126,"count":24,"max":[1,1],"min":[0,0],"type":"VEC2"},{"bufferView":19,"componentType":5123,"count":12,"max":[7],"min":[0],"type":"SCALAR"},{"bufferView":20,"componentType":5123,"count":6,"max":[15],"min":[12],"type":"SCALAR"},{"bufferView":21,"componentType":5123,"count":12,"max":[23],"min":[16],"type":"SCALAR"},{"bufferView":22,"componentType":5126,"count":24,"max":[1,1,0.125],"min":[0.875,0,0],"type":"VEC3"},{"bufferView":23,"componentType":5126,"count":24,"max":[1,1,1],"min":[-1,-1,-1],"type":"VEC3"},{"bufferView":24,"componentType":5126,"count":24,"max":[1,1],"min":[0,0],"type":"VEC2"},{"bufferView":25,"componentType":5123,"count":12,"max":[7],"min":[0],"type":"SCALAR"},{"bufferView":26,"componentType":5123,"count":6,"max":[15],"min":[12],"type":"SCALAR"},{"bufferView":27,"componentType":5123,"count":12,"max":[23],"min":[16],"type":"SCALAR"},{"bufferView":28,"componentType":5126,"count":24,"max":[0.875,1,0.125],"min":[0.125,0.875,0],"type":"VEC3"},{"bufferView":29,"componentType":5126,"count":24,"max":[1,1,1],"min":[-1,-1,-1],"type":"VEC3"},{"bufferView":30,"componentType":5126,"count":24,"max":[1,1],"min":[0,0],"type":"VEC2"},{"bufferView":31,"componentType":5123,"count":6,"max":[15],"min":[12],"type":"SCALAR"},{"bufferView":32,"componentType":5123,"count":12,"max":[23],"min":[16],"type":"SCALAR"},{"bufferView":33,"componentType":5126,"count":24,"max":[0.875,1,1],"min":[0.125,0.875,0.875],"type":"VEC3"},{"bufferView":34,"componentType":5126,"count":24,"max":[1,1,1],"min":[-1,-1,-1],"type":"VEC3"},{"bufferView":35,"componentType":5126,"count":24,"max":[1,1],"min":[0,0],"type":"VEC2"},{"bufferView":36,"componentType":5123,"count":6,"max":[15],"min":[12],"type":"SCALAR"},{"bufferView":37,"componentType":5123,"count":12,"max":[23],"min":[16],"type":"SCALAR"},{"bufferView":38,"componentType":5126,"count":24,"max":[1,1,0.875],"min":[0.875,0.875,0.125],"type":"VEC3"},{"bufferView":39,"componentType":5126,"count":24,"max":[1,1,1],"min":[-1,-1,-1],"type":"VEC3"},{"bufferView":40,"componentType":5126,"count":24,"max":[1,1],"min":[0,0],"type":"VEC2"},{"bufferView":41,"componentType":5123,"count":12,"max":[7],"min":[0],"type":"SCALAR"},{"bufferView":42,"componentType":5123,"count":6,"max":[15],"min":[12],"type":"SCALAR"},{"bufferView":43,"componentType":5126,"count":24,"max":[0.125,1,0.875],"min":[0,0.875,0.125],"type":"VEC3"},{"bufferView":44,"componentType":5126,"count":24,"max":[1,1,1],"min":[-1,-1,-1],"type":"VEC3"},{"bufferView":45,"componentType":5126,"count":24,"max":[1,1],"min":[0,0],"type":"VEC2"},{"bufferView":46,"componentType":5123,"count":12,"max":[7],"min":[0],"type":"SCALAR"},{"bufferView":47,"componentType":5123,"count":6,"max":[15],"min":[12],"type":"SCALAR"},{"bufferView":48,"componentType":5126,"count":24,"max":[1,0.125,1],"min":[0,0.12437500059604645,0],"type":"VEC3"},{"bufferView":49,"componentType":5126,"count":24,"max":[1,1,1],"min":[-1,-1,-1],"type":"VEC3"},{"bufferView":50,"componentType":5126,"count":24,"max":[1,1],"min":[0,0],"type":"VEC2"},{"bufferView":51,"componentType":5123,"count":12,"max":[15],"min":[8],"type":"SCALAR"},{"bufferView":52,"componentType":5126,"count":24,"max":[0.875,0.125,0.125],"min":[0.125,0,0],"type":"VEC3"},{"bufferView":53,"componentType":5126,"count":24,"max":[1,1,1],"min":[-1,-1,-1],"type":"VEC3"},{"bufferView":54,"componentType":5126,"count":24,"max":[1,1],"min":[0,0],"type":"VEC2"},{"bufferView":55,"componentType":5123,"count":6,"max":[15],"min":[12],"type":"SCALAR"},{"bufferView":56,"componentType":5123,"count":12,"max":[23],"min":[16],"type":"SCALAR"},{"bufferView":57,"componentType":5126,"count":24,"max":[0.875,0.125,1],"min":[0.125,0,0.875],"type":"VEC3"},{"bufferView":58,"componentType":5126,"count":24,"max":[1,1,1],"min":[-1,-1,-1],"type":"VEC3"},{"bufferView":59,"componentType":5126,"count":24,"max":[1,1],"min":[0,0],"type":"VEC2"},{"bufferView":60,"componentType":5123,"count":6,"max":[15],"min":[12],"type":"SCALAR"},{"bufferView":61,"componentType":5123,"count":12,"max":[23],"min":[16],"type":"SCALAR"},{"bufferView":62,"componentType":5126,"count":24,"max":[1,0.125,0.875],"min":[0.875,0,0.125],"type":"VEC3"},{"bufferView":63,"componentType":5126,"count":24,"max":[1,1,1],"min":[-1,-1,-1],"type":"VEC3"},{"bufferView":64,"componentType":5126,"count":24,"max":[1,1],"min":[0,0],"type":"VEC2"},{"bufferView":65,"componentType":5123,"count":12,"max":[7],"min":[0],"type":"SCALAR"},{"bufferView":66,"componentType":5123,"count":6,"max":[15],"min":[12],"type":"SCALAR"},{"bufferView":67,"componentType":5126,"count":24,"max":[0.125,0.125,0.875],"min":[0,0,0.125],"type":"VEC3"},{"bufferView":68,"componentType":5126,"count":24,"max":[1,1,1],"min":[-1,-1,-1],"type":"VEC3"},{"bufferView":69,"componentType":5126,"count":24,"max":[1,1],"min":[0,0],"type":"VEC2"},{"bufferView":70,"componentType":5123,"count":12,"max":[7],"min":[0],"type":"SCALAR"},{"bufferView":71,"componentType":5123,"count":6,"max":[15],"min":[12],"type":"SCALAR"}],"materials":[{"pbrMetallicRoughness":{"metallicFactor":0,"roughnessFactor":1,"baseColorTexture":{"index":0}},"alphaMode":"MASK","alphaCutoff":0.05},{"pbrMetallicRoughness":{"metallicFactor":0,"roughnessFactor":1,"baseColorTexture":{"index":1}},"alphaMode":"MASK","alphaCutoff":0.05},{"pbrMetallicRoughness":{"metallicFactor":0,"roughnessFactor":1,"baseColorTexture":{"index":2}},"alphaMode":"MASK","alphaCutoff":0.05}],"textures":[{"sampler":0,"source":0},{"sampler":1,"source":1},{"sampler":2,"source":2}],"samplers":[{"magFilter":9728,"minFilter":9728,"wrapS":33071,"wrapT":33071},{"magFilter":9728,"minFilter":9728,"wrapS":33071,"wrapT":33071},{"magFilter":9728,"minFilter":9728,"wrapS":33071,"wrapT":33071}],"images":[{"mimeType":"image/png","uri":"data:image/png;base64,"},{"mimeType":"image/png","uri":"data:image/png;base64,"},{"mimeType":"image/png","uri":"data:image/png;base64,"}],"meshes":[{"primitives":[{"mode":4,"attributes":{"POSITION":0,"NORMAL":1,"TEXCOORD_0":2},"indices":3,"material":0}]},{"primitives":[{"mode":4,"attributes":{"POSITION":4,"NORMAL":5,"TEXCOORD_0":6},"indices":7,"material":1},{"mode":4,"attributes":{"POSITION":4,"NORMAL":5,"TEXCOORD_0":6},"indices":8,"material":2},{"mode":4,"attributes":{"POSITION":4,"NORMAL":5,"TEXCOORD_0":6},"indices":9,"material":1}]},{"primitives":[{"mode":4,"attributes":{"POSITION":10,"NORMAL":11,"TEXCOORD_0":12},"indices":13,"material":1},{"mode":4,"attributes":{"POSITION":10,"NORMAL":11,"TEXCOORD_0":12},"indices":14,"material":2},{"mode":4,"attributes":{"POSITION":10,"NORMAL":11,"TEXCOORD_0":12},"indices":15,"material":1}]},{"primitives":[{"mode":4,"attributes":{"POSITION":16,"NORMAL":17,"TEXCOORD_0":18},"indices":19,"material":1},{"mode":4,"attributes":{"POSITION":16,"NORMAL":17,"TEXCOORD_0":18},"indices":20,"material":2},{"mode":4,"attributes":{"POSITION":16,"NORMAL":17,"TEXCOORD_0":18},"indices":21,"material":1}]},{"primitives":[{"mode":4,"attributes":{"POSITION":22,"NORMAL":23,"TEXCOORD_0":24},"indices":25,"material":1},{"mode":4,"attributes":{"POSITION":22,"NORMAL":23,"TEXCOORD_0":24},"indices":26,"material":2},{"mode":4,"attributes":{"POSITION":22,"NORMAL":23,"TEXCOORD_0":24},"indices":27,"material":1}]},{"primitives":[{"mode":4,"attributes":{"POSITION":28,"NORMAL":29,"TEXCOORD_0":30},"indices":31,"material":2},{"mode":4,"attributes":{"POSITION":28,"NORMAL":29,"TEXCOORD_0":30},"indices":32,"material":1}]},{"primitives":[{"mode":4,"attributes":{"POSITION":33,"NORMAL":34,"TEXCOORD_0":35},"indices":36,"material":2},{"mode":4,"attributes":{"POSITION":33,"NORMAL":34,"TEXCOORD_0":35},"indices":37,"material":1}]},{"primitives":[{"mode":4,"attributes":{"POSITION":38,"NORMAL":39,"TEXCOORD_0":40},"indices":41,"material":1},{"mode":4,"attributes":{"POSITION":38,"NORMAL":39,"TEXCOORD_0":40},"indices":42,"material":2}]},{"primitives":[{"mode":4,"attributes":{"POSITION":43,"NORMAL":44,"TEXCOORD_0":45},"indices":46,"material":1},{"mode":4,"attributes":{"POSITION":43,"NORMAL":44,"TEXCOORD_0":45},"indices":47,"material":2}]},{"primitives":[{"mode":4,"attributes":{"POSITION":48,"NORMAL":49,"TEXCOORD_0":50},"indices":51,"material":0}]},{"primitives":[{"mode":4,"attributes":{"POSITION":52,"NORMAL":53,"TEXCOORD_0":54},"indices":55,"material":2},{"mode":4,"attributes":{"POSITION":52,"NORMAL":53,"TEXCOORD_0":54},"indices":56,"material":1}]},{"primitives":[{"mode":4,"attributes":{"POSITION":57,"NORMAL":58,"TEXCOORD_0":59},"indices":60,"material":2},{"mode":4,"attributes":{"POSITION":57,"NORMAL":58,"TEXCOORD_0":59},"indices":61,"material":1}]},{"primitives":[{"mode":4,"attributes":{"POSITION":62,"NORMAL":63,"TEXCOORD_0":64},"indices":65,"material":1},{"mode":4,"attributes":{"POSITION":62,"NORMAL":63,"TEXCOORD_0":64},"indices":66,"material":2}]},{"primitives":[{"mode":4,"attributes":{"POSITION":67,"NORMAL":68,"TEXCOORD_0":69},"indices":70,"material":1},{"mode":4,"attributes":{"POSITION":67,"NORMAL":68,"TEXCOORD_0":69},"indices":71,"material":2}]}]}