{"asset":{"version":"2.0","generator":"Blockbench 4.4.2 glTF exporter"},"scenes":[{"nodes":[8],"name":"blockbench_export"}],"scene":0,"nodes":[{"name":"cube","mesh":0},{"name":"cube","mesh":1},{"name":"cube","mesh":2},{"name":"cube","mesh":3},{"name":"cube","mesh":4},{"name":"cube","mesh":5},{"name":"cube","mesh":6},{"name":"cube","mesh":7},{"children":[0,1,2,3,4,5,6,7]}],"bufferViews":[{"buffer":0,"byteOffset":0,"byteLength":288,"target":34962,"byteStride":12},{"buffer":0,"byteOffset":288,"byteLength":288,"target":34962,"byteStride":12},{"buffer":0,"byteOffset":576,"byteLength":192,"target":34962,"byteStride":8},{"buffer":0,"byteOffset":768,"byteLength":72,"target":34963},{"buffer":0,"byteOffset":840,"byteLength":288,"target":34962,"byteStride":12},{"buffer":0,"byteOffset":1128,"byteLength":288,"target":34962,"byteStride":12},{"buffer":0,"byteOffset":1416,"byteLength":192,"target":34962,"byteStride":8},{"buffer":0,"byteOffset":1608,"byteLength":12,"target":34963},{"buffer":0,"byteOffset":1620,"byteLength":288,"target":34962,"byteStride":12},{"buffer":0,"byteOffset":1908,"byteLength":288,"target":34962,"byteStride":12},{"buffer":0,"byteOffset":2196,"byteLength":192,"target":34962,"byteStride":8},{"buffer":0,"byteOffset":2388,"byteLength":72,"target":34963},{"buffer":0,"byteOffset":2460,"byteLength":288,"target":34962,"byteStride":12},{"buffer":0,"byteOffset":2748,"byteLength":288,"target":34962,"byteStride":12},{"buffer":0,"byteOffset":3036,"byteLength":192,"target":34962,"byteStride":8},{"buffer":0,"byteOffset":3228,"byteLength":12,"target":34963},{"buffer":0,"byteOffset":3240,"byteLength":288,"target":34962,"byteStride":12},{"buffer":0,"byteOffset":3528,"byteLength":288,"target":34962,"byteStride":12},{"buffer":0,"byteOffset":3816,"byteLength":192,"target":34962,"byteStride":8},{"buffer":0,"byteOffset":4008,"byteLength":72,"target":34963},{"buffer":0,"byteOffset":4080,"byteLength":288,"target":34962,"byteStride":12},{"buffer":0,"byteOffset":4368,"byteLength":288,"target":34962,"byteStride":12},{"buffer":0,"byteOffset":4656,"byteLength":192,"target":34962,"byteStride":8},{"buffer":0,"byteOffset":4848,"byteLength":12,"target":34963},{"buffer":0,"byteOffset":4860,"byteLength":288,"target":34962,"byteStride":12},{"buffer":0,"byteOffset":5148,"byteLength":288,"target":34962,"byteStride":12},{"buffer":0,"byteOffset":5436,"byteLength":192,"target":34962,"byteStride":8},{"buffer":0,"byteOffset":5628,"byteLength":72,"target":34963},{"buffer":0,"byteOffset":5700,"byteLength":288,"target":34962,"byteStride":12},{"buffer":0,"byteOffset":5988,"byteLength":288,"target":34962,"byteStride":12},{"buffer":0,"byteOffset":6276,"byteLength":192,"target":34962,"byteStride":8},{"buffer":0,"byteOffset":6468,"byteLength":12,"target":34963}],"buffers":[{"byteLength":6480,"uri":"data:application/octet-stream;base64,"}],"accessors":[{"bufferView":0,"componentType":5126,"count":24,"max":[0.375,0.375,0.375],"min":[0.125,0,0.125],"type":"VEC3"},{"bufferView":1,"componentType":5126,"count":24,"max":[1,1,1],"min":[-1,-1,-1],"type":"VEC3"},{"bufferView":2,"componentType":5126,"count":24,"max":[1,0.9375],"min":[0,0.3125],"type":"VEC2"},{"bufferView":3,"componentType":5123,"count":36,"max":[23],"min":[0],"type":"SCALAR"},{"bufferView":4,"componentType":5126,"count":24,"max":[0.375,0.37193751335144043,0.375],"min":[0.125,0.37187498807907104,0.125],"type":"VEC3"},{"bufferView":5,"componentType":5126,"count":24,"max":[1,1,1],"min":[-1,-1,-1],"type":"VEC3"},{"bufferView":6,"componentType":5126,"count":24,"max":[1,1],"min":[0,0],"type":"VEC2"},{"bufferView":7,"componentType":5123,"count":6,"max":[11],"min":[8],"type":"SCALAR"},{"bufferView":8,"componentType":5126,"count":24,"max":[0.8125,0.25,0.875],"min":[0.5625,0,0.625],"type":"VEC3"},{"bufferView":9,"componentType":5126,"count":24,"max":[1,1,1],"min":[-1,-1,-1],"type":"VEC3"},{"bufferView":10,"componentType":5126,"count":24,"max":[1,0.9375],"min":[0,0.4375],"type":"VEC2"},{"bufferView":11,"componentType":5123,"count":36,"max":[23],"min":[0],"type":"SCALAR"},{"bufferView":12,"componentType":5126,"count":24,"max":[0.8125,0.24693749845027924,0.875],"min":[0.5625,0.24687500298023224,0.625],"type":"VEC3"},{"bufferView":13,"componentType":5126,"count":24,"max":[1,1,1],"min":[-1,-1,-1],"type":"VEC3"},{"bufferView":14,"componentType":5126,"count":24,"max":[1,1],"min":[0,0],"type":"VEC2"},{"bufferView":15,"componentType":5123,"count":6,"max":[11],"min":[8],"type":"SCALAR"},{"bufferView":16,"componentType":5126,"count":24,"max":[0.8125,0.375,0.375],"min":[0.5625,0,0.125],"type":"VEC3"},{"bufferView":17,"componentType":5126,"count":24,"max":[1,1,1],"min":[-1,-1,-1],"type":"VEC3"},{"bufferView":18,"componentType":5126,"count":24,"max":[1,0.9375],"min":[0,0.3125],"type":"VEC2"},{"bufferView":19,"componentType":5123,"count":36,"max":[23],"min":[0],"type":"SCALAR"},{"bufferView":20,"componentType":5126,"count":24,"max":[0.8125,0.37193751335144043,0.375],"min":[0.5625,0.37187498807907104,0.125],"type":"VEC3"},{"bufferView":21,"componentType":5126,"count":24,"max":[1,1,1],"min":[-1,-1,-1],"type":"VEC3"},{"bufferView":22,"componentType":5126,"count":24,"max":[1,1],"min":[0,0],"type":"VEC2"},{"bufferView":23,"componentType":5123,"count":6,"max":[11],"min":[8],"type":"SCALAR"},{"bufferView":24,"componentType":5126,"count":24,"max":[0.375,0.4375,0.75],"min":[0.125,0,0.5],"type":"VEC3"},{"bufferView":25,"componentType":5126,"count":24,"max":[1,1,1],"min":[-1,-1,-1],"type":"VEC3"},{"bufferView":26,"componentType":5126,"count":24,"max":[1,0.9375],"min":[0,0.25],"type":"VEC2"},{"bufferView":27,"componentType":5123,"count":36,"max":[23],"min":[0],"type":"SCALAR"},{"bufferView":28,"componentType":5126,"count":24,"max":[0.375,0.43443751335144043,0.75],"min":[0.125,0.43437498807907104,0.5],"type":"VEC3"},{"bufferView":29,"componentType":5126,"count":24,"max":[1,1,1],"min":[-1,-1,-1],"type":"VEC3"},{"bufferView":30,"componentType":5126,"count":24,"max":[1,1],"min":[0,0],"type":"VEC2"},{"bufferView":31,"componentType":5123,"count":6,"max":[11],"min":[8],"type":"SCALAR"}],"materials":[{"pbrMetallicRoughness":{"metallicFactor":0,"roughnessFactor":1,"baseColorTexture":{"index":0}},"alphaMode":"MASK","alphaCutoff":0.05}],"textures":[{"sampler":0,"source":0}],"samplers":[{"magFilter":9728,"minFilter":9728,"wrapS":33071,"wrapT":33071}],"images":[{"mimeType":"image/png","uri":"data:image/png;base64,"}],"meshes":[{"primitives":[{"mode":4,"attributes":{"POSITION":0,"NORMAL":1,"TEXCOORD_0":2},"indices":3,"material":0}]},{"primitives":[{"mode":4,"attributes":{"POSITION":4,"NORMAL":5,"TEXCOORD_0":6},"indices":7,"material":0}]},{"primitives":[{"mode":4,"attributes":{"POSITION":8,"NORMAL":9,"TEXCOORD_0":10},"indices":11,"material":0}]},{"primitives":[{"mode":4,"attributes":{"POSITION":12,"NORMAL":13,"TEXCOORD_0":14},"indices":15,"material":0}]},{"primitives":[{"mode":4,"attributes":{"POSITION":16,"NORMAL":17,"TEXCOORD_0":18},"indices":19,"material":0}]},{"primitives":[{"mode":4,"attributes":{"POSITION":20,"NORMAL":21,"TEXCOORD_0":22},"indices":23,"material":0}]},{"primitives":[{"mode":4,"attributes":{"POSITION":24,"NORMAL":25,"TEXCOORD_0":26},"indices":27,"material":0}]},{"primitives":[{"mode":4,"attributes":{"POSITION":28,"NORMAL":29,"TEXCOORD_0":30},"indices":31,"material":0}]}]}