{"asset":{"version":"2.0","generator":"Blockbench 4.4.2 glTF exporter"},"scenes":[{"nodes":[6],"name":"blockbench_export"}],"scene":0,"nodes":[{"name":"cube","mesh":0},{"name":"cube","mesh":1},{"name":"cube","mesh":2},{"name":"cube","mesh":3},{"name":"cube","mesh":4},{"name":"cube","mesh":5},{"children":[0,1,2,3,4,5]}],"bufferViews":[{"buffer":0,"byteOffset":0,"byteLength":288,"target":34962,"byteStride":12},{"buffer":0,"byteOffset":288,"byteLength":288,"target":34962,"byteStride":12},{"buffer":0,"byteOffset":576,"byteLength":192,"target":34962,"byteStride":8},{"buffer":0,"byteOffset":768,"byteLength":12,"target":34963},{"buffer":0,"byteOffset":780,"byteLength":12,"target":34963},{"buffer":0,"byteOffset":792,"byteLength":288,"target":34962,"byteStride":12},{"buffer":0,"byteOffset":1080,"byteLength":288,"target":34962,"byteStride":12},{"buffer":0,"byteOffset":1368,"byteLength":192,"target":34962,"byteStride":8},{"buffer":0,"byteOffset":1560,"byteLength":60,"target":34963},{"buffer":0,"byteOffset":1620,"byteLength":288,"target":34962,"byteStride":12},{"buffer":0,"byteOffset":1908,"byteLength":288,"target":34962,"byteStride":12},{"buffer":0,"byteOffset":2196,"byteLength":192,"target":34962,"byteStride":8},{"buffer":0,"byteOffset":2388,"byteLength":24,"target":34963},{"buffer":0,"byteOffset":2412,"byteLength":12,"target":34963},{"buffer":0,"byteOffset":2424,"byteLength":12,"target":34963},{"buffer":0,"byteOffset":2436,"byteLength":24,"target":34963},{"buffer":0,"byteOffset":2460,"byteLength":288,"target":34962,"byteStride":12},{"buffer":0,"byteOffset":2748,"byteLength":288,"target":34962,"byteStride":12},{"buffer":0,"byteOffset":3036,"byteLength":192,"target":34962,"byteStride":8},{"buffer":0,"byteOffset":3228,"byteLength":60,"target":34963},{"buffer":0,"byteOffset":3288,"byteLength":288,"target":34962,"byteStride":12},{"buffer":0,"byteOffset":3576,"byteLength":288,"target":34962,"byteStride":12},{"buffer":0,"byteOffset":3864,"byteLength":192,"target":34962,"byteStride":8},{"buffer":0,"byteOffset":4056,"byteLength":72,"target":34963},{"buffer":0,"byteOffset":4128,"byteLength":288,"target":34962,"byteStride":12},{"buffer":0,"byteOffset":4416,"byteLength":288,"target":34962,"byteStride":12},{"buffer":0,"byteOffset":4704,"byteLength":192,"target":34962,"byteStride":8},{"buffer":0,"byteOffset":4896,"byteLength":60,"target":34963}],"buffers":[{"byteLength":4956,"uri":"data:application/octet-stream;base64,"}],"accessors":[{"bufferView":0,"componentType":5126,"count":24,"max":[0.5625,0.0001250000059371814,1],"min":[0.4375,0.0000625000029685907,0.5625],"type":"VEC3"},{"bufferView":1,"componentType":5126,"count":24,"max":[1,1,1],"min":[-1,-1,-1],"type":"VEC3"},{"bufferView":2,"componentType":5126,"count":24,"max":[1,1],"min":[0,0],"type":"VEC2"},{"bufferView":3,"componentType":5123,"count":6,"max":[11],"min":[8],"type":"SCALAR"},{"bufferView":4,"componentType":5123,"count":6,"max":[15],"min":[12],"type":"SCALAR"},{"bufferView":5,"componentType":5126,"count":24,"max":[0.5625,0.0625,1],"min":[0.4375,0,0.5625],"type":"VEC3"},{"bufferView":6,"componentType":5126,"count":24,"max":[1,1,1],"min":[-1,-1,-1],"type":"VEC3"},{"bufferView":7,"componentType":5126,"count":24,"max":[1,1],"min":[0,0],"type":"VEC2"},{"bufferView":8,"componentType":5123,"count":30,"max":[23],"min":[0],"type":"SCALAR"},{"bufferView":9,"componentType":5126,"count":24,"max":[0.515625,0.9375,0.875],"min":[0.484375,0.0625,0.75],"type":"VEC3"},{"bufferView":10,"componentType":5126,"count":24,"max":[1,1,1],"min":[-1,-1,-1],"type":"VEC3"},{"bufferView":11,"componentType":5126,"count":24,"max":[0.875,1],"min":[0.125,0.0625],"type":"VEC2"},{"bufferView":12,"componentType":5123,"count":12,"max":[7],"min":[0],"type":"SCALAR"},{"bufferView":13,"componentType":5123,"count":6,"max":[11],"min":[8],"type":"SCALAR"},{"bufferView":14,"componentType":5123,"count":6,"max":[15],"min":[12],"type":"SCALAR"},{"bufferView":15,"componentType":5123,"count":12,"max":[23],"min":[16],"type":"SCALAR"},{"bufferView":16,"componentType":5126,"count":24,"max":[0.515625,0.5625,1],"min":[0.484375,0.4375,0.875],"type":"VEC3"},{"bufferView":17,"componentType":5126,"count":24,"max":[1,1,1],"min":[-1,-1,-1],"type":"VEC3"},{"bufferView":18,"componentType":5126,"count":24,"max":[1,1],"min":[0,0],"type":"VEC2"},{"bufferView":19,"componentType":5123,"count":30,"max":[19],"min":[0],"type":"SCALAR"},{"bufferView":20,"componentType":5126,"count":24,"max":[0.5625,1,1],"min":[0.4375,0.9375,0.5625],"type":"VEC3"},{"bufferView":21,"componentType":5126,"count":24,"max":[1,1,1],"min":[-1,-1,-1],"type":"VEC3"},{"bufferView":22,"componentType":5126,"count":24,"max":[0.5625,1],"min":[0.125,0.1875],"type":"VEC2"},{"bufferView":23,"componentType":5123,"count":36,"max":[23],"min":[0],"type":"SCALAR"},{"bufferView":24,"componentType":5126,"count":24,"max":[0.515625,0.875,0.75],"min":[0.484375,0.75,0.5625],"type":"VEC3"},{"bufferView":25,"componentType":5126,"count":24,"max":[1,1,1],"min":[-1,-1,-1],"type":"VEC3"},{"bufferView":26,"componentType":5126,"count":24,"max":[1,1],"min":[0,0],"type":"VEC2"},{"bufferView":27,"componentType":5123,"count":30,"max":[23],"min":[0],"type":"SCALAR"}],"materials":[{"pbrMetallicRoughness":{"metallicFactor":0,"roughnessFactor":1},"alphaMode":"MASK","alphaCutoff":0.05},{"pbrMetallicRoughness":{"metallicFactor":0,"roughnessFactor":1,"baseColorTexture":{"index":0}},"alphaMode":"MASK","alphaCutoff":0.05}],"textures":[{"sampler":0,"source":0}],"samplers":[{"magFilter":9728,"minFilter":9728,"wrapS":33071,"wrapT":33071}],"images":[{"mimeType":"image/png","uri":"data:image/png;base64,"}],"meshes":[{"primitives":[{"mode":4,"attributes":{"POSITION":0,"NORMAL":1,"TEXCOORD_0":2},"indices":3,"material":0},{"mode":4,"attributes":{"POSITION":0,"NORMAL":1,"TEXCOORD_0":2},"indices":4,"material":1}]},{"primitives":[{"mode":4,"attributes":{"POSITION":5,"NORMAL":6,"TEXCOORD_0":7},"indices":8,"material":1}]},{"primitives":[{"mode":4,"attributes":{"POSITION":9,"NORMAL":10,"TEXCOORD_0":11},"indices":12,"material":1},{"mode":4,"attributes":{"POSITION":9,"NORMAL":10,"TEXCOORD_0":11},"indices":13,"material":0},{"mode":4,"attributes":{"POSITION":9,"NORMAL":10,"TEXCOORD_0":11},"indices":14,"material":0},{"mode":4,"attributes":{"POSITION":9,"NORMAL":10,"TEXCOORD_0":11},"indices":15,"material":1}]},{"primitives":[{"mode":4,"attributes":{"POSITION":16,"NORMAL":17,"TEXCOORD_0":18},"indices":19,"material":1}]},{"primitives":[{"mode":4,"attributes":{"POSITION":20,"NORMAL":21,"TEXCOORD_0":22},"indices":23,"material":1}]},{"primitives":[{"mode":4,"attributes":{"POSITION":24,"NORMAL":25,"TEXCOORD_0":26},"indices":27,"material":1}]}]}