{"asset":{"version":"2.0","generator":"Blockbench 4.4.2 glTF exporter"},"scenes":[{"nodes":[7],"name":"blockbench_export"}],"scene":0,"nodes":[{"name":"cube","mesh":0},{"name":"cube","mesh":1},{"name":"cube","mesh":2},{"name":"cube","mesh":3},{"name":"cube","mesh":4},{"name":"cube","mesh":5},{"name":"cube","mesh":6},{"children":[0,1,2,3,4,5,6]}],"bufferViews":[{"buffer":0,"byteOffset":0,"byteLength":288,"target":34962,"byteStride":12},{"buffer":0,"byteOffset":288,"byteLength":288,"target":34962,"byteStride":12},{"buffer":0,"byteOffset":576,"byteLength":192,"target":34962,"byteStride":8},{"buffer":0,"byteOffset":768,"byteLength":24,"target":34963},{"buffer":0,"byteOffset":792,"byteLength":12,"target":34963},{"buffer":0,"byteOffset":804,"byteLength":36,"target":34963},{"buffer":0,"byteOffset":840,"byteLength":288,"target":34962,"byteStride":12},{"buffer":0,"byteOffset":1128,"byteLength":288,"target":34962,"byteStride":12},{"buffer":0,"byteOffset":1416,"byteLength":192,"target":34962,"byteStride":8},{"buffer":0,"byteOffset":1608,"byteLength":24,"target":34963},{"buffer":0,"byteOffset":1632,"byteLength":12,"target":34963},{"buffer":0,"byteOffset":1644,"byteLength":24,"target":34963},{"buffer":0,"byteOffset":1668,"byteLength":288,"target":34962,"byteStride":12},{"buffer":0,"byteOffset":1956,"byteLength":288,"target":34962,"byteStride":12},{"buffer":0,"byteOffset":2244,"byteLength":192,"target":34962,"byteStride":8},{"buffer":0,"byteOffset":2436,"byteLength":24,"target":34963},{"buffer":0,"byteOffset":2460,"byteLength":12,"target":34963},{"buffer":0,"byteOffset":2472,"byteLength":24,"target":34963},{"buffer":0,"byteOffset":2496,"byteLength":288,"target":34962,"byteStride":12},{"buffer":0,"byteOffset":2784,"byteLength":288,"target":34962,"byteStride":12},{"buffer":0,"byteOffset":3072,"byteLength":192,"target":34962,"byteStride":8},{"buffer":0,"byteOffset":3264,"byteLength":12,"target":34963},{"buffer":0,"byteOffset":3276,"byteLength":24,"target":34963},{"buffer":0,"byteOffset":3300,"byteLength":288,"target":34962,"byteStride":12},{"buffer":0,"byteOffset":3588,"byteLength":288,"target":34962,"byteStride":12},{"buffer":0,"byteOffset":3876,"byteLength":192,"target":34962,"byteStride":8},{"buffer":0,"byteOffset":4068,"byteLength":12,"target":34963},{"buffer":0,"byteOffset":4080,"byteLength":24,"target":34963},{"buffer":0,"byteOffset":4104,"byteLength":288,"target":34962,"byteStride":12},{"buffer":0,"byteOffset":4392,"byteLength":288,"target":34962,"byteStride":12},{"buffer":0,"byteOffset":4680,"byteLength":192,"target":34962,"byteStride":8},{"buffer":0,"byteOffset":4872,"byteLength":60,"target":34963},{"buffer":0,"byteOffset":4932,"byteLength":288,"target":34962,"byteStride":12},{"buffer":0,"byteOffset":5220,"byteLength":288,"target":34962,"byteStride":12},{"buffer":0,"byteOffset":5508,"byteLength":192,"target":34962,"byteStride":8},{"buffer":0,"byteOffset":5700,"byteLength":60,"target":34963}],"buffers":[{"byteLength":5760,"uri":"data:application/octet-stream;base64,"}],"accessors":[{"bufferView":0,"componentType":5126,"count":24,"max":[1,0.6875,1],"min":[0,0.625,0],"type":"VEC3"},{"bufferView":1,"componentType":5126,"count":24,"max":[1,1,1],"min":[-1,-1,-1],"type":"VEC3"},{"bufferView":2,"componentType":5126,"count":24,"max":[1,1],"min":[0,0],"type":"VEC2"},{"bufferView":3,"componentType":5123,"count":12,"max":[7],"min":[0],"type":"SCALAR"},{"bufferView":4,"componentType":5123,"count":6,"max":[11],"min":[8],"type":"SCALAR"},{"bufferView":5,"componentType":5123,"count":18,"max":[23],"min":[12],"type":"SCALAR"},{"bufferView":6,"componentType":5126,"count":24,"max":[0.125,1,1],"min":[0,0.6875,0],"type":"VEC3"},{"bufferView":7,"componentType":5126,"count":24,"max":[1,1,1],"min":[-1,-1,-1],"type":"VEC3"},{"bufferView":8,"componentType":5126,"count":24,"max":[1,1],"min":[0,0],"type":"VEC2"},{"bufferView":9,"componentType":5123,"count":12,"max":[7],"min":[0],"type":"SCALAR"},{"bufferView":10,"componentType":5123,"count":6,"max":[11],"min":[8],"type":"SCALAR"},{"bufferView":11,"componentType":5123,"count":12,"max":[23],"min":[16],"type":"SCALAR"},{"bufferView":12,"componentType":5126,"count":24,"max":[1,1,1],"min":[0.875,0.6875,0],"type":"VEC3"},{"bufferView":13,"componentType":5126,"count":24,"max":[1,1,1],"min":[-1,-1,-1],"type":"VEC3"},{"bufferView":14,"componentType":5126,"count":24,"max":[1,1],"min":[0,0],"type":"VEC2"},{"bufferView":15,"componentType":5123,"count":12,"max":[7],"min":[0],"type":"SCALAR"},{"bufferView":16,"componentType":5123,"count":6,"max":[11],"min":[8],"type":"SCALAR"},{"bufferView":17,"componentType":5123,"count":12,"max":[23],"min":[16],"type":"SCALAR"},{"bufferView":18,"componentType":5126,"count":24,"max":[0.875,1,0.125],"min":[0.125,0.6875,0],"type":"VEC3"},{"bufferView":19,"componentType":5126,"count":24,"max":[1,1,1],"min":[-1,-1,-1],"type":"VEC3"},{"bufferView":20,"componentType":5126,"count":24,"max":[1,1],"min":[0,0],"type":"VEC2"},{"bufferView":21,"componentType":5123,"count":6,"max":[11],"min":[8],"type":"SCALAR"},{"bufferView":22,"componentType":5123,"count":12,"max":[23],"min":[16],"type":"SCALAR"},{"bufferView":23,"componentType":5126,"count":24,"max":[0.875,1,1],"min":[0.125,0.6875,0.875],"type":"VEC3"},{"bufferView":24,"componentType":5126,"count":24,"max":[1,1,1],"min":[-1,-1,-1],"type":"VEC3"},{"bufferView":25,"componentType":5126,"count":24,"max":[1,1],"min":[0,0],"type":"VEC2"},{"bufferView":26,"componentType":5123,"count":6,"max":[11],"min":[8],"type":"SCALAR"},{"bufferView":27,"componentType":5123,"count":12,"max":[23],"min":[16],"type":"SCALAR"},{"bufferView":28,"componentType":5126,"count":24,"max":[0.75,0.625,0.75],"min":[0.25,0.25,0.25],"type":"VEC3"},{"bufferView":29,"componentType":5126,"count":24,"max":[1,1,1],"min":[-1,-1,-1],"type":"VEC3"},{"bufferView":30,"componentType":5126,"count":24,"max":[1,1],"min":[0,0],"type":"VEC2"},{"bufferView":31,"componentType":5123,"count":30,"max":[23],"min":[0],"type":"SCALAR"},{"bufferView":32,"componentType":5126,"count":24,"max":[0.625,0.25,0.625],"min":[0.375,0,0.375],"type":"VEC3"},{"bufferView":33,"componentType":5126,"count":24,"max":[1,1,1],"min":[-1,-1,-1],"type":"VEC3"},{"bufferView":34,"componentType":5126,"count":24,"max":[1,1],"min":[0,0],"type":"VEC2"},{"bufferView":35,"componentType":5123,"count":30,"max":[23],"min":[0],"type":"SCALAR"}],"materials":[{"pbrMetallicRoughness":{"metallicFactor":0,"roughnessFactor":1,"baseColorTexture":{"index":0}},"alphaMode":"MASK","alphaCutoff":0.05},{"pbrMetallicRoughness":{"metallicFactor":0,"roughnessFactor":1,"baseColorTexture":{"index":1}},"alphaMode":"MASK","alphaCutoff":0.05},{"pbrMetallicRoughness":{"metallicFactor":0,"roughnessFactor":1,"baseColorTexture":{"index":2}},"alphaMode":"MASK","alphaCutoff":0.05}],"textures":[{"sampler":0,"source":0},{"sampler":1,"source":1},{"sampler":2,"source":2}],"samplers":[{"magFilter":9728,"minFilter":9728,"wrapS":33071,"wrapT":33071},{"magFilter":9728,"minFilter":9728,"wrapS":33071,"wrapT":33071},{"magFilter":9728,"minFilter":9728,"wrapS":33071,"wrapT":33071}],"images":[{"mimeType":"image/png","uri":"data:image/png;base64,"},{"mimeType":"image/png","uri":"data:image/png;base64,"},{"mimeType":"image/png","uri":"data:image/png;base64,"}],"meshes":[{"primitives":[{"mode":4,"attributes":{"POSITION":0,"NORMAL":1,"TEXCOORD_0":2},"indices":3,"material":0},{"mode":4,"attributes":{"POSITION":0,"NORMAL":1,"TEXCOORD_0":2},"indices":4,"material":1},{"mode":4,"attributes":{"POSITION":0,"NORMAL":1,"TEXCOORD_0":2},"indices":5,"material":0}]},{"primitives":[{"mode":4,"attributes":{"POSITION":6,"NORMAL":7,"TEXCOORD_0":8},"indices":9,"material":0},{"mode":4,"attributes":{"POSITION":6,"NORMAL":7,"TEXCOORD_0":8},"indices":10,"material":2},{"mode":4,"attributes":{"POSITION":6,"NORMAL":7,"TEXCOORD_0":8},"indices":11,"material":0}]},{"primitives":[{"mode":4,"attributes":{"POSITION":12,"NORMAL":13,"TEXCOORD_0":14},"indices":15,"material":0},{"mode":4,"attributes":{"POSITION":12,"NORMAL":13,"TEXCOORD_0":14},"indices":16,"material":2},{"mode":4,"attributes":{"POSITION":12,"NORMAL":13,"TEXCOORD_0":14},"indices":17,"material":0}]},{"primitives":[{"mode":4,"attributes":{"POSITION":18,"NORMAL":19,"TEXCOORD_0":20},"indices":21,"material":2},{"mode":4,"attributes":{"POSITION":18,"NORMAL":19,"TEXCOORD_0":20},"indices":22,"material":0}]},{"primitives":[{"mode":4,"attributes":{"POSITION":23,"NORMAL":24,"TEXCOORD_0":25},"indices":26,"material":2},{"mode":4,"attributes":{"POSITION":23,"NORMAL":24,"TEXCOORD_0":25},"indices":27,"material":0}]},{"primitives":[{"mode":4,"attributes":{"POSITION":28,"NORMAL":29,"TEXCOORD_0":30},"indices":31,"material":0}]},{"primitives":[{"mode":4,"attributes":{"POSITION":32,"NORMAL":33,"TEXCOORD_0":34},"indices":35,"material":0}]}]}