{"asset":{"version":"2.0","generator":"Blockbench 4.4.2 glTF exporter"},"scenes":[{"nodes":[7],"name":"blockbench_export"}],"scene":0,"nodes":[{"translation":[0.5625,0,1],"name":"cube","mesh":0},{"translation":[0.5625,0,1],"name":"cube","mesh":1},{"translation":[0.5625,0,1],"name":"cube","mesh":2},{"translation":[0.5625,0,1],"name":"cube","mesh":3},{"translation":[0.5625,0,1],"name":"cube","mesh":4},{"translation":[0.5625,0,1],"name":"cube","mesh":5},{"translation":[0.5,0.5,0.5],"name":"group"},{"children":[0,1,2,3,4,5,6]}],"bufferViews":[{"buffer":0,"byteOffset":0,"byteLength":288,"target":34962,"byteStride":12},{"buffer":0,"byteOffset":288,"byteLength":288,"target":34962,"byteStride":12},{"buffer":0,"byteOffset":576,"byteLength":192,"target":34962,"byteStride":8},{"buffer":0,"byteOffset":768,"byteLength":48,"target":34963},{"buffer":0,"byteOffset":816,"byteLength":24,"target":34963},{"buffer":0,"byteOffset":840,"byteLength":288,"target":34962,"byteStride":12},{"buffer":0,"byteOffset":1128,"byteLength":288,"target":34962,"byteStride":12},{"buffer":0,"byteOffset":1416,"byteLength":192,"target":34962,"byteStride":8},{"buffer":0,"byteOffset":1608,"byteLength":48,"target":34963},{"buffer":0,"byteOffset":1656,"byteLength":24,"target":34963},{"buffer":0,"byteOffset":1680,"byteLength":288,"target":34962,"byteStride":12},{"buffer":0,"byteOffset":1968,"byteLength":288,"target":34962,"byteStride":12},{"buffer":0,"byteOffset":2256,"byteLength":192,"target":34962,"byteStride":8},{"buffer":0,"byteOffset":2448,"byteLength":12,"target":34963},{"buffer":0,"byteOffset":2460,"byteLength":12,"target":34963},{"buffer":0,"byteOffset":2472,"byteLength":12,"target":34963},{"buffer":0,"byteOffset":2484,"byteLength":12,"target":34963},{"buffer":0,"byteOffset":2496,"byteLength":24,"target":34963},{"buffer":0,"byteOffset":2520,"byteLength":288,"target":34962,"byteStride":12},{"buffer":0,"byteOffset":2808,"byteLength":288,"target":34962,"byteStride":12},{"buffer":0,"byteOffset":3096,"byteLength":192,"target":34962,"byteStride":8},{"buffer":0,"byteOffset":3288,"byteLength":24,"target":34963},{"buffer":0,"byteOffset":3312,"byteLength":12,"target":34963},{"buffer":0,"byteOffset":3324,"byteLength":12,"target":34963},{"buffer":0,"byteOffset":3336,"byteLength":24,"target":34963},{"buffer":0,"byteOffset":3360,"byteLength":288,"target":34962,"byteStride":12},{"buffer":0,"byteOffset":3648,"byteLength":288,"target":34962,"byteStride":12},{"buffer":0,"byteOffset":3936,"byteLength":192,"target":34962,"byteStride":8},{"buffer":0,"byteOffset":4128,"byteLength":12,"target":34963},{"buffer":0,"byteOffset":4140,"byteLength":12,"target":34963},{"buffer":0,"byteOffset":4152,"byteLength":24,"target":34963},{"buffer":0,"byteOffset":4176,"byteLength":24,"target":34963},{"buffer":0,"byteOffset":4200,"byteLength":288,"target":34962,"byteStride":12},{"buffer":0,"byteOffset":4488,"byteLength":288,"target":34962,"byteStride":12},{"buffer":0,"byteOffset":4776,"byteLength":192,"target":34962,"byteStride":8},{"buffer":0,"byteOffset":4968,"byteLength":12,"target":34963},{"buffer":0,"byteOffset":4980,"byteLength":12,"target":34963},{"buffer":0,"byteOffset":4992,"byteLength":24,"target":34963},{"buffer":0,"byteOffset":5016,"byteLength":24,"target":34963}],"buffers":[{"byteLength":5040,"uri":"data:application/octet-stream;base64,"}],"accessors":[{"bufferView":0,"componentType":5126,"count":24,"max":[0.4375,1,0],"min":[-0.5625,0.84375,-0.1875],"type":"VEC3"},{"bufferView":1,"componentType":5126,"count":24,"max":[1,1,1],"min":[-1,-1,-1],"type":"VEC3"},{"bufferView":2,"componentType":5126,"count":24,"max":[1,1],"min":[0,0],"type":"VEC2"},{"bufferView":3,"componentType":5123,"count":24,"max":[15],"min":[0],"type":"SCALAR"},{"bufferView":4,"componentType":5123,"count":12,"max":[23],"min":[16],"type":"SCALAR"},{"bufferView":5,"componentType":5126,"count":24,"max":[0.4375,0.15625,0],"min":[-0.5625,0,-0.1875],"type":"VEC3"},{"bufferView":6,"componentType":5126,"count":24,"max":[1,1,1],"min":[-1,-1,-1],"type":"VEC3"},{"bufferView":7,"componentType":5126,"count":24,"max":[1,1],"min":[0,0],"type":"VEC2"},{"bufferView":8,"componentType":5123,"count":24,"max":[15],"min":[0],"type":"SCALAR"},{"bufferView":9,"componentType":5123,"count":12,"max":[23],"min":[16],"type":"SCALAR"},{"bufferView":10,"componentType":5126,"count":24,"max":[-0.40625,0.84375,0],"min":[-0.5625,0.15625,-0.1875],"type":"VEC3"},{"bufferView":11,"componentType":5126,"count":24,"max":[1,1,1],"min":[-1,-1,-1],"type":"VEC3"},{"bufferView":12,"componentType":5126,"count":24,"max":[0.84375,1],"min":[0,0.15625],"type":"VEC2"},{"bufferView":13,"componentType":5123,"count":6,"max":[3],"min":[0],"type":"SCALAR"},{"bufferView":14,"componentType":5123,"count":6,"max":[7],"min":[4],"type":"SCALAR"},{"bufferView":15,"componentType":5123,"count":6,"max":[11],"min":[8],"type":"SCALAR"},{"bufferView":16,"componentType":5123,"count":6,"max":[15],"min":[12],"type":"SCALAR"},{"bufferView":17,"componentType":5123,"count":12,"max":[23],"min":[16],"type":"SCALAR"},{"bufferView":18,"componentType":5126,"count":24,"max":[0.4375,0.84375,0],"min":[0.28125,0.15625,-0.1875],"type":"VEC3"},{"bufferView":19,"componentType":5126,"count":24,"max":[1,1,1],"min":[-1,-1,-1],"type":"VEC3"},{"bufferView":20,"componentType":5126,"count":24,"max":[1,1],"min":[0,0.15625],"type":"VEC2"},{"bufferView":21,"componentType":5123,"count":12,"max":[7],"min":[0],"type":"SCALAR"},{"bufferView":22,"componentType":5123,"count":6,"max":[11],"min":[8],"type":"SCALAR"},{"bufferView":23,"componentType":5123,"count":6,"max":[15],"min":[12],"type":"SCALAR"},{"bufferView":24,"componentType":5123,"count":12,"max":[23],"min":[16],"type":"SCALAR"},{"bufferView":25,"componentType":5126,"count":24,"max":[0.28125,0.75,0],"min":[-0.40625,0.59375,-0.1875],"type":"VEC3"},{"bufferView":26,"componentType":5126,"count":24,"max":[1,1,1],"min":[-1,-1,-1],"type":"VEC3"},{"bufferView":27,"componentType":5126,"count":24,"max":[0.84375,1],"min":[0,0.59375],"type":"VEC2"},{"bufferView":28,"componentType":5123,"count":6,"max":[3],"min":[0],"type":"SCALAR"},{"bufferView":29,"componentType":5123,"count":6,"max":[7],"min":[4],"type":"SCALAR"},{"bufferView":30,"componentType":5123,"count":12,"max":[15],"min":[8],"type":"SCALAR"},{"bufferView":31,"componentType":5123,"count":12,"max":[23],"min":[16],"type":"SCALAR"},{"bufferView":32,"componentType":5126,"count":24,"max":[0.28125,0.40625,0],"min":[-0.40625,0.25,-0.1875],"type":"VEC3"},{"bufferView":33,"componentType":5126,"count":24,"max":[1,1,1],"min":[-1,-1,-1],"type":"VEC3"},{"bufferView":34,"componentType":5126,"count":24,"max":[0.84375,1],"min":[0,0.25],"type":"VEC2"},{"bufferView":35,"componentType":5123,"count":6,"max":[3],"min":[0],"type":"SCALAR"},{"bufferView":36,"componentType":5123,"count":6,"max":[7],"min":[4],"type":"SCALAR"},{"bufferView":37,"componentType":5123,"count":12,"max":[15],"min":[8],"type":"SCALAR"},{"bufferView":38,"componentType":5123,"count":12,"max":[23],"min":[16],"type":"SCALAR"}],"materials":[{"pbrMetallicRoughness":{"metallicFactor":0,"roughnessFactor":1,"baseColorTexture":{"index":0}},"alphaMode":"MASK","alphaCutoff":0.05},{"pbrMetallicRoughness":{"metallicFactor":0,"roughnessFactor":1,"baseColorTexture":{"index":1}},"alphaMode":"MASK","alphaCutoff":0.05},{"pbrMetallicRoughness":{"metallicFactor":0,"roughnessFactor":1},"alphaMode":"MASK","alphaCutoff":0.05},{"pbrMetallicRoughness":{"metallicFactor":0,"roughnessFactor":1},"alphaMode":"MASK","alphaCutoff":0.05},{"pbrMetallicRoughness":{"metallicFactor":0,"roughnessFactor":1},"alphaMode":"MASK","alphaCutoff":0.05}],"textures":[{"sampler":0,"source":0},{"sampler":1,"source":1}],"samplers":[{"magFilter":9728,"minFilter":9728,"wrapS":33071,"wrapT":33071},{"magFilter":9728,"minFilter":9728,"wrapS":33071,"wrapT":33071}],"images":[{"mimeType":"image/png","uri":"data:image/png;base64,"},{"mimeType":"image/png","uri":"data:image/png;base64,"}],"meshes":[{"primitives":[{"mode":4,"attributes":{"POSITION":0,"NORMAL":1,"TEXCOORD_0":2},"indices":3,"material":0},{"mode":4,"attributes":{"POSITION":0,"NORMAL":1,"TEXCOORD_0":2},"indices":4,"material":1}]},{"primitives":[{"mode":4,"attributes":{"POSITION":5,"NORMAL":6,"TEXCOORD_0":7},"indices":8,"material":0},{"mode":4,"attributes":{"POSITION":5,"NORMAL":6,"TEXCOORD_0":7},"indices":9,"material":1}]},{"primitives":[{"mode":4,"attributes":{"POSITION":10,"NORMAL":11,"TEXCOORD_0":12},"indices":13,"material":1},{"mode":4,"attributes":{"POSITION":10,"NORMAL":11,"TEXCOORD_0":12},"indices":14,"material":0},{"mode":4,"attributes":{"POSITION":10,"NORMAL":11,"TEXCOORD_0":12},"indices":15,"material":2},{"mode":4,"attributes":{"POSITION":10,"NORMAL":11,"TEXCOORD_0":12},"indices":16,"material":2},{"mode":4,"attributes":{"POSITION":10,"NORMAL":11,"TEXCOORD_0":12},"indices":17,"material":1}]},{"primitives":[{"mode":4,"attributes":{"POSITION":18,"NORMAL":19,"TEXCOORD_0":20},"indices":21,"material":0},{"mode":4,"attributes":{"POSITION":18,"NORMAL":19,"TEXCOORD_0":20},"indices":22,"material":3},{"mode":4,"attributes":{"POSITION":18,"NORMAL":19,"TEXCOORD_0":20},"indices":23,"material":3},{"mode":4,"attributes":{"POSITION":18,"NORMAL":19,"TEXCOORD_0":20},"indices":24,"material":1}]},{"primitives":[{"mode":4,"attributes":{"POSITION":25,"NORMAL":26,"TEXCOORD_0":27},"indices":28,"material":3},{"mode":4,"attributes":{"POSITION":25,"NORMAL":26,"TEXCOORD_0":27},"indices":29,"material":3},{"mode":4,"attributes":{"POSITION":25,"NORMAL":26,"TEXCOORD_0":27},"indices":30,"material":0},{"mode":4,"attributes":{"POSITION":25,"NORMAL":26,"TEXCOORD_0":27},"indices":31,"material":1}]},{"primitives":[{"mode":4,"attributes":{"POSITION":32,"NORMAL":33,"TEXCOORD_0":34},"indices":35,"material":4},{"mode":4,"attributes":{"POSITION":32,"NORMAL":33,"TEXCOORD_0":34},"indices":36,"material":4},{"mode":4,"attributes":{"POSITION":32,"NORMAL":33,"TEXCOORD_0":34},"indices":37,"material":0},{"mode":4,"attributes":{"POSITION":32,"NORMAL":33,"TEXCOORD_0":34},"indices":38,"material":1}]}]}