{"asset":{"version":"2.0","generator":"Blockbench 4.4.2 glTF exporter"},"scenes":[{"nodes":[15],"name":"blockbench_export"}],"scene":0,"nodes":[{"name":"Box1","mesh":0},{"name":"Box2","mesh":1},{"name":"Box2","mesh":2},{"name":"Box2","mesh":3},{"name":"Box2","mesh":4},{"name":"Box2","mesh":5},{"name":"Box2","mesh":6},{"name":"Box2","mesh":7},{"name":"Box2","mesh":8},{"name":"Box2","mesh":9},{"name":"Box2","mesh":10},{"name":"Box2","mesh":11},{"name":"Box2","mesh":12},{"name":"Box2","mesh":13},{"name":"Box2","mesh":14},{"children":[0,1,2,3,4,5,6,7,8,9,10,11,12,13,14]}],"bufferViews":[{"buffer":0,"byteOffset":0,"byteLength":288,"target":34962,"byteStride":12},{"buffer":0,"byteOffset":288,"byteLength":288,"target":34962,"byteStride":12},{"buffer":0,"byteOffset":576,"byteLength":192,"target":34962,"byteStride":8},{"buffer":0,"byteOffset":768,"byteLength":48,"target":34963},{"buffer":0,"byteOffset":816,"byteLength":24,"target":34963},{"buffer":0,"byteOffset":840,"byteLength":288,"target":34962,"byteStride":12},{"buffer":0,"byteOffset":1128,"byteLength":288,"target":34962,"byteStride":12},{"buffer":0,"byteOffset":1416,"byteLength":192,"target":34962,"byteStride":8},{"buffer":0,"byteOffset":1608,"byteLength":48,"target":34963},{"buffer":0,"byteOffset":1656,"byteLength":24,"target":34963},{"buffer":0,"byteOffset":1680,"byteLength":288,"target":34962,"byteStride":12},{"buffer":0,"byteOffset":1968,"byteLength":288,"target":34962,"byteStride":12},{"buffer":0,"byteOffset":2256,"byteLength":192,"target":34962,"byteStride":8},{"buffer":0,"byteOffset":2448,"byteLength":48,"target":34963},{"buffer":0,"byteOffset":2496,"byteLength":24,"target":34963},{"buffer":0,"byteOffset":2520,"byteLength":288,"target":34962,"byteStride":12},{"buffer":0,"byteOffset":2808,"byteLength":288,"target":34962,"byteStride":12},{"buffer":0,"byteOffset":3096,"byteLength":192,"target":34962,"byteStride":8},{"buffer":0,"byteOffset":3288,"byteLength":48,"target":34963},{"buffer":0,"byteOffset":3336,"byteLength":24,"target":34963},{"buffer":0,"byteOffset":3360,"byteLength":288,"target":34962,"byteStride":12},{"buffer":0,"byteOffset":3648,"byteLength":288,"target":34962,"byteStride":12},{"buffer":0,"byteOffset":3936,"byteLength":192,"target":34962,"byteStride":8},{"buffer":0,"byteOffset":4128,"byteLength":48,"target":34963},{"buffer":0,"byteOffset":4176,"byteLength":24,"target":34963},{"buffer":0,"byteOffset":4200,"byteLength":288,"target":34962,"byteStride":12},{"buffer":0,"byteOffset":4488,"byteLength":288,"target":34962,"byteStride":12},{"buffer":0,"byteOffset":4776,"byteLength":192,"target":34962,"byteStride":8},{"buffer":0,"byteOffset":4968,"byteLength":48,"target":34963},{"buffer":0,"byteOffset":5016,"byteLength":24,"target":34963},{"buffer":0,"byteOffset":5040,"byteLength":288,"target":34962,"byteStride":12},{"buffer":0,"byteOffset":5328,"byteLength":288,"target":34962,"byteStride":12},{"buffer":0,"byteOffset":5616,"byteLength":192,"target":34962,"byteStride":8},{"buffer":0,"byteOffset":5808,"byteLength":48,"target":34963},{"buffer":0,"byteOffset":5856,"byteLength":24,"target":34963},{"buffer":0,"byteOffset":5880,"byteLength":288,"target":34962,"byteStride":12},{"buffer":0,"byteOffset":6168,"byteLength":288,"target":34962,"byteStride":12},{"buffer":0,"byteOffset":6456,"byteLength":192,"target":34962,"byteStride":8},{"buffer":0,"byteOffset":6648,"byteLength":48,"target":34963},{"buffer":0,"byteOffset":6696,"byteLength":24,"target":34963},{"buffer":0,"byteOffset":6720,"byteLength":288,"target":34962,"byteStride":12},{"buffer":0,"byteOffset":7008,"byteLength":288,"target":34962,"byteStride":12},{"buffer":0,"byteOffset":7296,"byteLength":192,"target":34962,"byteStride":8},{"buffer":0,"byteOffset":7488,"byteLength":48,"target":34963},{"buffer":0,"byteOffset":7536,"byteLength":24,"target":34963},{"buffer":0,"byteOffset":7560,"byteLength":288,"target":34962,"byteStride":12},{"buffer":0,"byteOffset":7848,"byteLength":288,"target":34962,"byteStride":12},{"buffer":0,"byteOffset":8136,"byteLength":192,"target":34962,"byteStride":8},{"buffer":0,"byteOffset":8328,"byteLength":48,"target":34963},{"buffer":0,"byteOffset":8376,"byteLength":24,"target":34963},{"buffer":0,"byteOffset":8400,"byteLength":288,"target":34962,"byteStride":12},{"buffer":0,"byteOffset":8688,"byteLength":288,"target":34962,"byteStride":12},{"buffer":0,"byteOffset":8976,"byteLength":192,"target":34962,"byteStride":8},{"buffer":0,"byteOffset":9168,"byteLength":48,"target":34963},{"buffer":0,"byteOffset":9216,"byteLength":24,"target":34963},{"buffer":0,"byteOffset":9240,"byteLength":288,"target":34962,"byteStride":12},{"buffer":0,"byteOffset":9528,"byteLength":288,"target":34962,"byteStride":12},{"buffer":0,"byteOffset":9816,"byteLength":192,"target":34962,"byteStride":8},{"buffer":0,"byteOffset":10008,"byteLength":48,"target":34963},{"buffer":0,"byteOffset":10056,"byteLength":24,"target":34963},{"buffer":0,"byteOffset":10080,"byteLength":288,"target":34962,"byteStride":12},{"buffer":0,"byteOffset":10368,"byteLength":288,"target":34962,"byteStride":12},{"buffer":0,"byteOffset":10656,"byteLength":192,"target":34962,"byteStride":8},{"buffer":0,"byteOffset":10848,"byteLength":48,"target":34963},{"buffer":0,"byteOffset":10896,"byteLength":24,"target":34963},{"buffer":0,"byteOffset":10920,"byteLength":288,"target":34962,"byteStride":12},{"buffer":0,"byteOffset":11208,"byteLength":288,"target":34962,"byteStride":12},{"buffer":0,"byteOffset":11496,"byteLength":192,"target":34962,"byteStride":8},{"buffer":0,"byteOffset":11688,"byteLength":48,"target":34963},{"buffer":0,"byteOffset":11736,"byteLength":24,"target":34963},{"buffer":0,"byteOffset":11760,"byteLength":288,"target":34962,"byteStride":12},{"buffer":0,"byteOffset":12048,"byteLength":288,"target":34962,"byteStride":12},{"buffer":0,"byteOffset":12336,"byteLength":192,"target":34962,"byteStride":8},{"buffer":0,"byteOffset":12528,"byteLength":48,"target":34963},{"buffer":0,"byteOffset":12576,"byteLength":24,"target":34963}],"buffers":[{"byteLength":12600,"uri":"data:application/octet-stream;base64,"}],"accessors":[{"bufferView":0,"componentType":5126,"count":24,"max":[1,1,0.96875],"min":[0,0,0.84375],"type":"VEC3"},{"bufferView":1,"componentType":5126,"count":24,"max":[1,1,1],"min":[-1,-1,-1],"type":"VEC3"},{"bufferView":2,"componentType":5126,"count":24,"max":[1,1],"min":[0,0],"type":"VEC2"},{"bufferView":3,"componentType":5123,"count":24,"max":[15],"min":[0],"type":"SCALAR"},{"bufferView":4,"componentType":5123,"count":12,"max":[23],"min":[16],"type":"SCALAR"},{"bufferView":5,"componentType":5126,"count":24,"max":[1,0.125,0.84375],"min":[0,0,0.8125],"type":"VEC3"},{"bufferView":6,"componentType":5126,"count":24,"max":[1,1,1],"min":[-1,-1,-1],"type":"VEC3"},{"bufferView":7,"componentType":5126,"count":24,"max":[1,1],"min":[0,0],"type":"VEC2"},{"bufferView":8,"componentType":5123,"count":24,"max":[15],"min":[0],"type":"SCALAR"},{"bufferView":9,"componentType":5123,"count":12,"max":[23],"min":[16],"type":"SCALAR"},{"bufferView":10,"componentType":5126,"count":24,"max":[0.875,0.625,0.84375],"min":[0.125,0.375,0.8125],"type":"VEC3"},{"bufferView":11,"componentType":5126,"count":24,"max":[1,1,1],"min":[-1,-1,-1],"type":"VEC3"},{"bufferView":12,"componentType":5126,"count":24,"max":[0.875,1],"min":[0.125,0.375],"type":"VEC2"},{"bufferView":13,"componentType":5123,"count":24,"max":[15],"min":[0],"type":"SCALAR"},{"bufferView":14,"componentType":5123,"count":12,"max":[23],"min":[16],"type":"SCALAR"},{"bufferView":15,"componentType":5126,"count":24,"max":[1,1,0.84375],"min":[0,0.875,0.8125],"type":"VEC3"},{"bufferView":16,"componentType":5126,"count":24,"max":[1,1,1],"min":[-1,-1,-1],"type":"VEC3"},{"bufferView":17,"componentType":5126,"count":24,"max":[1,1],"min":[0,0],"type":"VEC2"},{"bufferView":18,"componentType":5123,"count":24,"max":[15],"min":[0],"type":"SCALAR"},{"bufferView":19,"componentType":5123,"count":12,"max":[23],"min":[16],"type":"SCALAR"},{"bufferView":20,"componentType":5126,"count":24,"max":[0.125,0.875,0.84375],"min":[0,0.125,0.8125],"type":"VEC3"},{"bufferView":21,"componentType":5126,"count":24,"max":[1,1,1],"min":[-1,-1,-1],"type":"VEC3"},{"bufferView":22,"componentType":5126,"count":24,"max":[1,1],"min":[0,0.125],"type":"VEC2"},{"bufferView":23,"componentType":5123,"count":24,"max":[15],"min":[0],"type":"SCALAR"},{"bufferView":24,"componentType":5123,"count":12,"max":[23],"min":[16],"type":"SCALAR"},{"bufferView":25,"componentType":5126,"count":24,"max":[1,0.875,0.84375],"min":[0.875,0.125,0.8125],"type":"VEC3"},{"bufferView":26,"componentType":5126,"count":24,"max":[1,1,1],"min":[-1,-1,-1],"type":"VEC3"},{"bufferView":27,"componentType":5126,"count":24,"max":[1,1],"min":[0,0.125],"type":"VEC2"},{"bufferView":28,"componentType":5123,"count":24,"max":[15],"min":[0],"type":"SCALAR"},{"bufferView":29,"componentType":5123,"count":12,"max":[23],"min":[16],"type":"SCALAR"},{"bufferView":30,"componentType":5126,"count":24,"max":[0.625,0.375,0.84375],"min":[0.375,0.125,0.8125],"type":"VEC3"},{"bufferView":31,"componentType":5126,"count":24,"max":[1,1,1],"min":[-1,-1,-1],"type":"VEC3"},{"bufferView":32,"componentType":5126,"count":24,"max":[0.875,1],"min":[0.125,0.125],"type":"VEC2"},{"bufferView":33,"componentType":5123,"count":24,"max":[15],"min":[0],"type":"SCALAR"},{"bufferView":34,"componentType":5123,"count":12,"max":[23],"min":[16],"type":"SCALAR"},{"bufferView":35,"componentType":5126,"count":24,"max":[0.625,0.875,0.84375],"min":[0.375,0.625,0.8125],"type":"VEC3"},{"bufferView":36,"componentType":5126,"count":24,"max":[1,1,1],"min":[-1,-1,-1],"type":"VEC3"},{"bufferView":37,"componentType":5126,"count":24,"max":[0.875,1],"min":[0.125,0.125],"type":"VEC2"},{"bufferView":38,"componentType":5123,"count":24,"max":[15],"min":[0],"type":"SCALAR"},{"bufferView":39,"componentType":5123,"count":12,"max":[23],"min":[16],"type":"SCALAR"},{"bufferView":40,"componentType":5126,"count":24,"max":[0.625,0.875,1],"min":[0.375,0.625,0.96875],"type":"VEC3"},{"bufferView":41,"componentType":5126,"count":24,"max":[1,1,1],"min":[-1,-1,-1],"type":"VEC3"},{"bufferView":42,"componentType":5126,"count":24,"max":[0.875,1],"min":[0.125,0.125],"type":"VEC2"},{"bufferView":43,"componentType":5123,"count":24,"max":[15],"min":[0],"type":"SCALAR"},{"bufferView":44,"componentType":5123,"count":12,"max":[23],"min":[16],"type":"SCALAR"},{"bufferView":45,"componentType":5126,"count":24,"max":[1,0.125,1],"min":[0,0,0.96875],"type":"VEC3"},{"bufferView":46,"componentType":5126,"count":24,"max":[1,1,1],"min":[-1,-1,-1],"type":"VEC3"},{"bufferView":47,"componentType":5126,"count":24,"max":[1,1],"min":[0,0],"type":"VEC2"},{"bufferView":48,"componentType":5123,"count":24,"max":[15],"min":[0],"type":"SCALAR"},{"bufferView":49,"componentType":5123,"count":12,"max":[23],"min":[16],"type":"SCALAR"},{"bufferView":50,"componentType":5126,"count":24,"max":[0.875,0.625,1],"min":[0.125,0.375,0.96875],"type":"VEC3"},{"bufferView":51,"componentType":5126,"count":24,"max":[1,1,1],"min":[-1,-1,-1],"type":"VEC3"},{"bufferView":52,"componentType":5126,"count":24,"max":[0.875,1],"min":[0.125,0.375],"type":"VEC2"},{"bufferView":53,"componentType":5123,"count":24,"max":[15],"min":[0],"type":"SCALAR"},{"bufferView":54,"componentType":5123,"count":12,"max":[23],"min":[16],"type":"SCALAR"},{"bufferView":55,"componentType":5126,"count":24,"max":[1,1,1],"min":[0,0.875,0.96875],"type":"VEC3"},{"bufferView":56,"componentType":5126,"count":24,"max":[1,1,1],"min":[-1,-1,-1],"type":"VEC3"},{"bufferView":57,"componentType":5126,"count":24,"max":[1,1],"min":[0,0],"type":"VEC2"},{"bufferView":58,"componentType":5123,"count":24,"max":[15],"min":[0],"type":"SCALAR"},{"bufferView":59,"componentType":5123,"count":12,"max":[23],"min":[16],"type":"SCALAR"},{"bufferView":60,"componentType":5126,"count":24,"max":[0.125,0.875,1],"min":[0,0.125,0.96875],"type":"VEC3"},{"bufferView":61,"componentType":5126,"count":24,"max":[1,1,1],"min":[-1,-1,-1],"type":"VEC3"},{"bufferView":62,"componentType":5126,"count":24,"max":[1,1],"min":[0,0.125],"type":"VEC2"},{"bufferView":63,"componentType":5123,"count":24,"max":[15],"min":[0],"type":"SCALAR"},{"bufferView":64,"componentType":5123,"count":12,"max":[23],"min":[16],"type":"SCALAR"},{"bufferView":65,"componentType":5126,"count":24,"max":[1,0.875,1],"min":[0.875,0.125,0.96875],"type":"VEC3"},{"bufferView":66,"componentType":5126,"count":24,"max":[1,1,1],"min":[-1,-1,-1],"type":"VEC3"},{"bufferView":67,"componentType":5126,"count":24,"max":[1,1],"min":[0,0.125],"type":"VEC2"},{"bufferView":68,"componentType":5123,"count":24,"max":[15],"min":[0],"type":"SCALAR"},{"bufferView":69,"componentType":5123,"count":12,"max":[23],"min":[16],"type":"SCALAR"},{"bufferView":70,"componentType":5126,"count":24,"max":[0.625,0.375,1],"min":[0.375,0.125,0.96875],"type":"VEC3"},{"bufferView":71,"componentType":5126,"count":24,"max":[1,1,1],"min":[-1,-1,-1],"type":"VEC3"},{"bufferView":72,"componentType":5126,"count":24,"max":[0.875,1],"min":[0.125,0.125],"type":"VEC2"},{"bufferView":73,"componentType":5123,"count":24,"max":[15],"min":[0],"type":"SCALAR"},{"bufferView":74,"componentType":5123,"count":12,"max":[23],"min":[16],"type":"SCALAR"}],"materials":[{"pbrMetallicRoughness":{"metallicFactor":0,"roughnessFactor":1,"baseColorTexture":{"index":0}},"alphaMode":"MASK","alphaCutoff":0.05},{"pbrMetallicRoughness":{"metallicFactor":0,"roughnessFactor":1,"baseColorTexture":{"index":1}},"alphaMode":"MASK","alphaCutoff":0.05}],"textures":[{"sampler":0,"source":0},{"sampler":1,"source":1}],"samplers":[{"magFilter":9728,"minFilter":9728,"wrapS":33071,"wrapT":33071},{"magFilter":9728,"minFilter":9728,"wrapS":33071,"wrapT":33071}],"images":[{"mimeType":"image/png","uri":"data:image/png;base64,"},{"mimeType":"image/png","uri":"data:image/png;base64,"}],"meshes":[{"primitives":[{"mode":4,"attributes":{"POSITION":0,"NORMAL":1,"TEXCOORD_0":2},"indices":3,"material":0},{"mode":4,"attributes":{"POSITION":0,"NORMAL":1,"TEXCOORD_0":2},"indices":4,"material":1}]},{"primitives":[{"mode":4,"attributes":{"POSITION":5,"NORMAL":6,"TEXCOORD_0":7},"indices":8,"material":0},{"mode":4,"attributes":{"POSITION":5,"NORMAL":6,"TEXCOORD_0":7},"indices":9,"material":1}]},{"primitives":[{"mode":4,"attributes":{"POSITION":10,"NORMAL":11,"TEXCOORD_0":12},"indices":13,"material":0},{"mode":4,"attributes":{"POSITION":10,"NORMAL":11,"TEXCOORD_0":12},"indices":14,"material":1}]},{"primitives":[{"mode":4,"attributes":{"POSITION":15,"NORMAL":16,"TEXCOORD_0":17},"indices":18,"material":0},{"mode":4,"attributes":{"POSITION":15,"NORMAL":16,"TEXCOORD_0":17},"indices":19,"material":1}]},{"primitives":[{"mode":4,"attributes":{"POSITION":20,"NORMAL":21,"TEXCOORD_0":22},"indices":23,"material":0},{"mode":4,"attributes":{"POSITION":20,"NORMAL":21,"TEXCOORD_0":22},"indices":24,"material":1}]},{"primitives":[{"mode":4,"attributes":{"POSITION":25,"NORMAL":26,"TEXCOORD_0":27},"indices":28,"material":0},{"mode":4,"attributes":{"POSITION":25,"NORMAL":26,"TEXCOORD_0":27},"indices":29,"material":1}]},{"primitives":[{"mode":4,"attributes":{"POSITION":30,"NORMAL":31,"TEXCOORD_0":32},"indices":33,"material":0},{"mode":4,"attributes":{"POSITION":30,"NORMAL":31,"TEXCOORD_0":32},"indices":34,"material":1}]},{"primitives":[{"mode":4,"attributes":{"POSITION":35,"NORMAL":36,"TEXCOORD_0":37},"indices":38,"material":0},{"mode":4,"attributes":{"POSITION":35,"NORMAL":36,"TEXCOORD_0":37},"indices":39,"material":1}]},{"primitives":[{"mode":4,"attributes":{"POSITION":40,"NORMAL":41,"TEXCOORD_0":42},"indices":43,"material":0},{"mode":4,"attributes":{"POSITION":40,"NORMAL":41,"TEXCOORD_0":42},"indices":44,"material":1}]},{"primitives":[{"mode":4,"attributes":{"POSITION":45,"NORMAL":46,"TEXCOORD_0":47},"indices":48,"material":0},{"mode":4,"attributes":{"POSITION":45,"NORMAL":46,"TEXCOORD_0":47},"indices":49,"material":1}]},{"primitives":[{"mode":4,"attributes":{"POSITION":50,"NORMAL":51,"TEXCOORD_0":52},"indices":53,"material":0},{"mode":4,"attributes":{"POSITION":50,"NORMAL":51,"TEXCOORD_0":52},"indices":54,"material":1}]},{"primitives":[{"mode":4,"attributes":{"POSITION":55,"NORMAL":56,"TEXCOORD_0":57},"indices":58,"material":0},{"mode":4,"attributes":{"POSITION":55,"NORMAL":56,"TEXCOORD_0":57},"indices":59,"material":1}]},{"primitives":[{"mode":4,"attributes":{"POSITION":60,"NORMAL":61,"TEXCOORD_0":62},"indices":63,"material":0},{"mode":4,"attributes":{"POSITION":60,"NORMAL":61,"TEXCOORD_0":62},"indices":64,"material":1}]},{"primitives":[{"mode":4,"attributes":{"POSITION":65,"NORMAL":66,"TEXCOORD_0":67},"indices":68,"material":0},{"mode":4,"attributes":{"POSITION":65,"NORMAL":66,"TEXCOORD_0":67},"indices":69,"material":1}]},{"primitives":[{"mode":4,"attributes":{"POSITION":70,"NORMAL":71,"TEXCOORD_0":72},"indices":73,"material":0},{"mode":4,"attributes":{"POSITION":70,"NORMAL":71,"TEXCOORD_0":72},"indices":74,"material":1}]}]}